G04 #@! TF.GenerationSoftware,KiCad,Pcbnew,7.0.7-7.0.7~ubuntu22.04.1*
G04 #@! TF.CreationDate,2023-10-13T14:43:32+01:00*
G04 #@! TF.ProjectId,Basic-DC-mixer,42617369-632d-4444-932d-6d697865722e,rev?*
G04 #@! TF.SameCoordinates,Original*
G04 #@! TF.FileFunction,Soldermask,Bot*
G04 #@! TF.FilePolarity,Negative*
%FSLAX46Y46*%
G04 Gerber Fmt 4.6, Leading zero omitted, Abs format (unit mm)*
G04 Created by KiCad (PCBNEW 7.0.7-7.0.7~ubuntu22.04.1) date 2023-10-13 14:43:32*
%MOMM*%
%LPD*%
G01*
G04 APERTURE LIST*
%ADD10C,4.000000*%
%ADD11C,1.800000*%
%ADD12R,1.930000X1.830000*%
%ADD13C,2.130000*%
%ADD14O,3.700000X2.400000*%
%ADD15C,1.600000*%
%ADD16O,1.600000X1.600000*%
%ADD17R,1.800000X1.800000*%
%ADD18R,1.600000X1.600000*%
%ADD19C,1.700000*%
G04 APERTURE END LIST*
D10*
X56600000Y-85550000D03*
X65400000Y-85550000D03*
D11*
X58500000Y-92550000D03*
X61000000Y-92550000D03*
X63500000Y-92550000D03*
D10*
X56600000Y-108050000D03*
X65400000Y-108050000D03*
D11*
X58500000Y-115050000D03*
X61000000Y-115050000D03*
X63500000Y-115050000D03*
D12*
X55000000Y-122000000D03*
D13*
X55000000Y-133400000D03*
X55000000Y-125100000D03*
D14*
X44100000Y-102800000D03*
X44100000Y-107500000D03*
X44100000Y-112200000D03*
X48900000Y-102800000D03*
X48900000Y-107500000D03*
X48900000Y-112200000D03*
D15*
X42400000Y-131580000D03*
D16*
X42400000Y-121420000D03*
D17*
X45225000Y-72500000D03*
D11*
X47765000Y-72500000D03*
D15*
X68080000Y-118500000D03*
D16*
X57920000Y-118500000D03*
D15*
X68080000Y-96000000D03*
D16*
X57920000Y-96000000D03*
D10*
X56600000Y-63050000D03*
X65400000Y-63050000D03*
D11*
X58500000Y-70050000D03*
X61000000Y-70050000D03*
X63500000Y-70050000D03*
D15*
X31920000Y-48500000D03*
D16*
X42080000Y-48500000D03*
D12*
X35500000Y-56000000D03*
D13*
X35500000Y-67400000D03*
X35500000Y-59100000D03*
D15*
X31920000Y-116000000D03*
D16*
X42080000Y-116000000D03*
D17*
X45225000Y-95000000D03*
D11*
X47765000Y-95000000D03*
D12*
X35500000Y-78500000D03*
D13*
X35500000Y-89900000D03*
X35500000Y-81600000D03*
D12*
X35500000Y-101000000D03*
D13*
X35500000Y-112400000D03*
X35500000Y-104100000D03*
D15*
X31920000Y-71000000D03*
D16*
X42080000Y-71000000D03*
D12*
X35500000Y-33500000D03*
D13*
X35500000Y-44900000D03*
X35500000Y-36600000D03*
D15*
X48400000Y-131580000D03*
D16*
X48400000Y-121420000D03*
D14*
X44100000Y-35300000D03*
X44100000Y-40000000D03*
X44100000Y-44700000D03*
X48900000Y-35300000D03*
X48900000Y-40000000D03*
X48900000Y-44700000D03*
D10*
X56600000Y-40550000D03*
X65400000Y-40550000D03*
D11*
X58500000Y-47550000D03*
X61000000Y-47550000D03*
X63500000Y-47550000D03*
D15*
X31920000Y-93500000D03*
D16*
X42080000Y-93500000D03*
D17*
X45225000Y-117500000D03*
D11*
X47765000Y-117500000D03*
D15*
X68080000Y-73500000D03*
D16*
X57920000Y-73500000D03*
D15*
X68080000Y-51000000D03*
D16*
X57920000Y-51000000D03*
D14*
X44100000Y-80300000D03*
X44100000Y-85000000D03*
X44100000Y-89700000D03*
X48900000Y-80300000D03*
X48900000Y-85000000D03*
X48900000Y-89700000D03*
X44100000Y-57800000D03*
X44100000Y-62500000D03*
X44100000Y-67200000D03*
X48900000Y-57800000D03*
X48900000Y-62500000D03*
X48900000Y-67200000D03*
D15*
X45400000Y-121420000D03*
D16*
X45400000Y-131580000D03*
D12*
X65000000Y-122000000D03*
D13*
X65000000Y-133400000D03*
X65000000Y-125100000D03*
D17*
X45225000Y-50000000D03*
D11*
X47765000Y-50000000D03*
D18*
X31700000Y-129600000D03*
D16*
X34240000Y-129600000D03*
X36780000Y-129600000D03*
X39320000Y-129600000D03*
X39320000Y-121980000D03*
X36780000Y-121980000D03*
X34240000Y-121980000D03*
X31700000Y-121980000D03*
D18*
X35744888Y-118400000D03*
D15*
X37744888Y-118400000D03*
D18*
X55600000Y-137900000D03*
D15*
X53600000Y-137900000D03*
G36*
G01*
X34720000Y-134850000D02*
X35920000Y-134850000D01*
G75*
G02*
X36170000Y-135100000I0J-250000D01*
G01*
X36170000Y-136300000D01*
G75*
G02*
X35920000Y-136550000I-250000J0D01*
G01*
X34720000Y-136550000D01*
G75*
G02*
X34470000Y-136300000I0J250000D01*
G01*
X34470000Y-135100000D01*
G75*
G02*
X34720000Y-134850000I250000J0D01*
G01*
G37*
D19*
X35320000Y-138240000D03*
X37860000Y-135700000D03*
X37860000Y-138240000D03*
X40400000Y-135700000D03*
X40400000Y-138240000D03*
X42940000Y-135700000D03*
X42940000Y-138240000D03*
X45480000Y-135700000D03*
X45480000Y-138240000D03*
M02*
