M48
; DRILL file {KiCad 7.0.7-7.0.7~ubuntu22.04.1} date Fri Oct 13 14:43:32 2023
; FORMAT={-:-/ absolute / metric / decimal}
; #@! TF.CreationDate,2023-10-13T14:43:32+01:00
; #@! TF.GenerationSoftware,Kicad,Pcbnew,7.0.7-7.0.7~ubuntu22.04.1
; #@! TF.FileFunction,Plated,1,2,PTH
FMAT,2
METRIC
; #@! TA.AperFunction,Plated,PTH,ComponentDrill
T1C0.800
; #@! TA.AperFunction,Plated,PTH,ComponentDrill
T2C0.900
; #@! TA.AperFunction,Plated,PTH,ComponentDrill
T3C1.000
; #@! TA.AperFunction,Plated,PTH,ComponentDrill
T4C1.220
; #@! TA.AperFunction,Plated,PTH,ComponentDrill
T5C1.420
; #@! TA.AperFunction,Plated,PTH,ComponentDrill
T6C1.430
%
G90
G05
T1
X31.7Y-121.98
X31.7Y-129.6
X31.92Y-48.5
X31.92Y-71.0
X31.92Y-93.5
X31.92Y-116.0
X34.24Y-121.98
X34.24Y-129.6
X35.745Y-118.4
X36.78Y-121.98
X36.78Y-129.6
X37.745Y-118.4
X39.32Y-121.98
X39.32Y-129.6
X42.08Y-48.5
X42.08Y-71.0
X42.08Y-93.5
X42.08Y-116.0
X42.4Y-121.42
X42.4Y-131.58
X45.4Y-121.42
X45.4Y-131.58
X48.4Y-121.42
X48.4Y-131.58
X53.6Y-137.9
X55.6Y-137.9
X57.92Y-51.0
X57.92Y-73.5
X57.92Y-96.0
X57.92Y-118.5
X68.08Y-51.0
X68.08Y-73.5
X68.08Y-96.0
X68.08Y-118.5
T2
X45.225Y-50.0
X45.225Y-72.5
X45.225Y-95.0
X45.225Y-117.5
X47.765Y-50.0
X47.765Y-72.5
X47.765Y-95.0
X47.765Y-117.5
T3
X35.32Y-135.7
X35.32Y-138.24
X37.86Y-135.7
X37.86Y-138.24
X40.4Y-135.7
X40.4Y-138.24
X42.94Y-135.7
X42.94Y-138.24
X45.48Y-135.7
X45.48Y-138.24
X58.5Y-47.55
X58.5Y-70.05
X58.5Y-92.55
X58.5Y-115.05
X61.0Y-47.55
X61.0Y-70.05
X61.0Y-92.55
X61.0Y-115.05
X63.5Y-47.55
X63.5Y-70.05
X63.5Y-92.55
X63.5Y-115.05
T4
X35.5Y-33.5
X35.5Y-56.0
X35.5Y-78.5
X35.5Y-101.0
X55.0Y-122.0
X65.0Y-122.0
T5
X35.5Y-36.6
X35.5Y-59.1
X35.5Y-81.6
X35.5Y-104.1
X55.0Y-125.1
X65.0Y-125.1
T6
X35.5Y-44.9
X35.5Y-67.4
X35.5Y-89.9
X35.5Y-112.4
X55.0Y-133.4
X65.0Y-133.4
T3
X44.7Y-35.3G85X43.5Y-35.3
G05
X44.7Y-40.0G85X43.5Y-40.0
G05
X44.7Y-44.7G85X43.5Y-44.7
G05
X44.7Y-57.8G85X43.5Y-57.8
G05
X44.7Y-62.5G85X43.5Y-62.5
G05
X44.7Y-67.2G85X43.5Y-67.2
G05
X44.7Y-80.3G85X43.5Y-80.3
G05
X44.7Y-85.0G85X43.5Y-85.0
G05
X44.7Y-89.7G85X43.5Y-89.7
G05
X44.7Y-102.8G85X43.5Y-102.8
G05
X44.7Y-107.5G85X43.5Y-107.5
G05
X44.7Y-112.2G85X43.5Y-112.2
G05
X49.5Y-35.3G85X48.3Y-35.3
G05
X49.5Y-40.0G85X48.3Y-40.0
G05
X49.5Y-44.7G85X48.3Y-44.7
G05
X49.5Y-57.8G85X48.3Y-57.8
G05
X49.5Y-62.5G85X48.3Y-62.5
G05
X49.5Y-67.2G85X48.3Y-67.2
G05
X49.5Y-80.3G85X48.3Y-80.3
G05
X49.5Y-85.0G85X48.3Y-85.0
G05
X49.5Y-89.7G85X48.3Y-89.7
G05
X49.5Y-102.8G85X48.3Y-102.8
G05
X49.5Y-107.5G85X48.3Y-107.5
G05
X49.5Y-112.2G85X48.3Y-112.2
G05
T0
M30
