G04 #@! TF.GenerationSoftware,KiCad,Pcbnew,7.0.7-7.0.7~ubuntu22.04.1*
G04 #@! TF.CreationDate,2023-10-13T14:43:32+01:00*
G04 #@! TF.ProjectId,Basic-DC-mixer,42617369-632d-4444-932d-6d697865722e,rev?*
G04 #@! TF.SameCoordinates,Original*
G04 #@! TF.FileFunction,Legend,Top*
G04 #@! TF.FilePolarity,Positive*
%FSLAX46Y46*%
G04 Gerber Fmt 4.6, Leading zero omitted, Abs format (unit mm)*
G04 Created by KiCad (PCBNEW 7.0.7-7.0.7~ubuntu22.04.1) date 2023-10-13 14:43:32*
%MOMM*%
%LPD*%
G01*
G04 APERTURE LIST*
%ADD10C,0.150000*%
%ADD11C,0.120000*%
%ADD12C,4.000000*%
%ADD13C,1.800000*%
%ADD14R,1.930000X1.830000*%
%ADD15C,2.130000*%
%ADD16O,3.700000X2.400000*%
%ADD17C,1.600000*%
%ADD18O,1.600000X1.600000*%
%ADD19R,1.800000X1.800000*%
%ADD20R,1.600000X1.600000*%
%ADD21C,1.700000*%
G04 APERTURE END LIST*
D10*
X69454819Y-111900000D02*
X68454819Y-111900000D01*
X68454819Y-111900000D02*
X68454819Y-111661905D01*
X68454819Y-111661905D02*
X68502438Y-111519048D01*
X68502438Y-111519048D02*
X68597676Y-111423810D01*
X68597676Y-111423810D02*
X68692914Y-111376191D01*
X68692914Y-111376191D02*
X68883390Y-111328572D01*
X68883390Y-111328572D02*
X69026247Y-111328572D01*
X69026247Y-111328572D02*
X69216723Y-111376191D01*
X69216723Y-111376191D02*
X69311961Y-111423810D01*
X69311961Y-111423810D02*
X69407200Y-111519048D01*
X69407200Y-111519048D02*
X69454819Y-111661905D01*
X69454819Y-111661905D02*
X69454819Y-111900000D01*
X69359580Y-110328572D02*
X69407200Y-110376191D01*
X69407200Y-110376191D02*
X69454819Y-110519048D01*
X69454819Y-110519048D02*
X69454819Y-110614286D01*
X69454819Y-110614286D02*
X69407200Y-110757143D01*
X69407200Y-110757143D02*
X69311961Y-110852381D01*
X69311961Y-110852381D02*
X69216723Y-110900000D01*
X69216723Y-110900000D02*
X69026247Y-110947619D01*
X69026247Y-110947619D02*
X68883390Y-110947619D01*
X68883390Y-110947619D02*
X68692914Y-110900000D01*
X68692914Y-110900000D02*
X68597676Y-110852381D01*
X68597676Y-110852381D02*
X68502438Y-110757143D01*
X68502438Y-110757143D02*
X68454819Y-110614286D01*
X68454819Y-110614286D02*
X68454819Y-110519048D01*
X68454819Y-110519048D02*
X68502438Y-110376191D01*
X68502438Y-110376191D02*
X68550057Y-110328572D01*
X69407200Y-108709524D02*
X69454819Y-108804762D01*
X69454819Y-108804762D02*
X69454819Y-108995238D01*
X69454819Y-108995238D02*
X69407200Y-109090476D01*
X69407200Y-109090476D02*
X69359580Y-109138095D01*
X69359580Y-109138095D02*
X69264342Y-109185714D01*
X69264342Y-109185714D02*
X68978628Y-109185714D01*
X68978628Y-109185714D02*
X68883390Y-109138095D01*
X68883390Y-109138095D02*
X68835771Y-109090476D01*
X68835771Y-109090476D02*
X68788152Y-108995238D01*
X68788152Y-108995238D02*
X68788152Y-108804762D01*
X68788152Y-108804762D02*
X68835771Y-108709524D01*
X69454819Y-108138095D02*
X69407200Y-108233333D01*
X69407200Y-108233333D02*
X69359580Y-108280952D01*
X69359580Y-108280952D02*
X69264342Y-108328571D01*
X69264342Y-108328571D02*
X68978628Y-108328571D01*
X68978628Y-108328571D02*
X68883390Y-108280952D01*
X68883390Y-108280952D02*
X68835771Y-108233333D01*
X68835771Y-108233333D02*
X68788152Y-108138095D01*
X68788152Y-108138095D02*
X68788152Y-107995238D01*
X68788152Y-107995238D02*
X68835771Y-107900000D01*
X68835771Y-107900000D02*
X68883390Y-107852381D01*
X68883390Y-107852381D02*
X68978628Y-107804762D01*
X68978628Y-107804762D02*
X69264342Y-107804762D01*
X69264342Y-107804762D02*
X69359580Y-107852381D01*
X69359580Y-107852381D02*
X69407200Y-107900000D01*
X69407200Y-107900000D02*
X69454819Y-107995238D01*
X69454819Y-107995238D02*
X69454819Y-108138095D01*
X68788152Y-106947619D02*
X69454819Y-106947619D01*
X68788152Y-107376190D02*
X69311961Y-107376190D01*
X69311961Y-107376190D02*
X69407200Y-107328571D01*
X69407200Y-107328571D02*
X69454819Y-107233333D01*
X69454819Y-107233333D02*
X69454819Y-107090476D01*
X69454819Y-107090476D02*
X69407200Y-106995238D01*
X69407200Y-106995238D02*
X69359580Y-106947619D01*
X68788152Y-106471428D02*
X69788152Y-106471428D01*
X68835771Y-106471428D02*
X68788152Y-106376190D01*
X68788152Y-106376190D02*
X68788152Y-106185714D01*
X68788152Y-106185714D02*
X68835771Y-106090476D01*
X68835771Y-106090476D02*
X68883390Y-106042857D01*
X68883390Y-106042857D02*
X68978628Y-105995238D01*
X68978628Y-105995238D02*
X69264342Y-105995238D01*
X69264342Y-105995238D02*
X69359580Y-106042857D01*
X69359580Y-106042857D02*
X69407200Y-106090476D01*
X69407200Y-106090476D02*
X69454819Y-106185714D01*
X69454819Y-106185714D02*
X69454819Y-106376190D01*
X69454819Y-106376190D02*
X69407200Y-106471428D01*
X69454819Y-105423809D02*
X69407200Y-105519047D01*
X69407200Y-105519047D02*
X69311961Y-105566666D01*
X69311961Y-105566666D02*
X68454819Y-105566666D01*
X69407200Y-104661904D02*
X69454819Y-104757142D01*
X69454819Y-104757142D02*
X69454819Y-104947618D01*
X69454819Y-104947618D02*
X69407200Y-105042856D01*
X69407200Y-105042856D02*
X69311961Y-105090475D01*
X69311961Y-105090475D02*
X68931009Y-105090475D01*
X68931009Y-105090475D02*
X68835771Y-105042856D01*
X68835771Y-105042856D02*
X68788152Y-104947618D01*
X68788152Y-104947618D02*
X68788152Y-104757142D01*
X68788152Y-104757142D02*
X68835771Y-104661904D01*
X68835771Y-104661904D02*
X68931009Y-104614285D01*
X68931009Y-104614285D02*
X69026247Y-104614285D01*
X69026247Y-104614285D02*
X69121485Y-105090475D01*
X69454819Y-103757142D02*
X68454819Y-103757142D01*
X69407200Y-103757142D02*
X69454819Y-103852380D01*
X69454819Y-103852380D02*
X69454819Y-104042856D01*
X69454819Y-104042856D02*
X69407200Y-104138094D01*
X69407200Y-104138094D02*
X69359580Y-104185713D01*
X69359580Y-104185713D02*
X69264342Y-104233332D01*
X69264342Y-104233332D02*
X68978628Y-104233332D01*
X68978628Y-104233332D02*
X68883390Y-104185713D01*
X68883390Y-104185713D02*
X68835771Y-104138094D01*
X68835771Y-104138094D02*
X68788152Y-104042856D01*
X68788152Y-104042856D02*
X68788152Y-103852380D01*
X68788152Y-103852380D02*
X68835771Y-103757142D01*
X69454819Y-102519046D02*
X68788152Y-102519046D01*
X68883390Y-102519046D02*
X68835771Y-102471427D01*
X68835771Y-102471427D02*
X68788152Y-102376189D01*
X68788152Y-102376189D02*
X68788152Y-102233332D01*
X68788152Y-102233332D02*
X68835771Y-102138094D01*
X68835771Y-102138094D02*
X68931009Y-102090475D01*
X68931009Y-102090475D02*
X69454819Y-102090475D01*
X68931009Y-102090475D02*
X68835771Y-102042856D01*
X68835771Y-102042856D02*
X68788152Y-101947618D01*
X68788152Y-101947618D02*
X68788152Y-101804761D01*
X68788152Y-101804761D02*
X68835771Y-101709522D01*
X68835771Y-101709522D02*
X68931009Y-101661903D01*
X68931009Y-101661903D02*
X69454819Y-101661903D01*
X69454819Y-101185713D02*
X68788152Y-101185713D01*
X68454819Y-101185713D02*
X68502438Y-101233332D01*
X68502438Y-101233332D02*
X68550057Y-101185713D01*
X68550057Y-101185713D02*
X68502438Y-101138094D01*
X68502438Y-101138094D02*
X68454819Y-101185713D01*
X68454819Y-101185713D02*
X68550057Y-101185713D01*
X69454819Y-100804761D02*
X68788152Y-100280952D01*
X68788152Y-100804761D02*
X69454819Y-100280952D01*
X69407200Y-99519047D02*
X69454819Y-99614285D01*
X69454819Y-99614285D02*
X69454819Y-99804761D01*
X69454819Y-99804761D02*
X69407200Y-99899999D01*
X69407200Y-99899999D02*
X69311961Y-99947618D01*
X69311961Y-99947618D02*
X68931009Y-99947618D01*
X68931009Y-99947618D02*
X68835771Y-99899999D01*
X68835771Y-99899999D02*
X68788152Y-99804761D01*
X68788152Y-99804761D02*
X68788152Y-99614285D01*
X68788152Y-99614285D02*
X68835771Y-99519047D01*
X68835771Y-99519047D02*
X68931009Y-99471428D01*
X68931009Y-99471428D02*
X69026247Y-99471428D01*
X69026247Y-99471428D02*
X69121485Y-99947618D01*
X69454819Y-99042856D02*
X68788152Y-99042856D01*
X68978628Y-99042856D02*
X68883390Y-98995237D01*
X68883390Y-98995237D02*
X68835771Y-98947618D01*
X68835771Y-98947618D02*
X68788152Y-98852380D01*
X68788152Y-98852380D02*
X68788152Y-98757142D01*
X67954819Y-93547619D02*
X68954819Y-93214286D01*
X68954819Y-93214286D02*
X67954819Y-92880953D01*
X68954819Y-92023810D02*
X68954819Y-92595238D01*
X68954819Y-92309524D02*
X67954819Y-92309524D01*
X67954819Y-92309524D02*
X68097676Y-92404762D01*
X68097676Y-92404762D02*
X68192914Y-92500000D01*
X68192914Y-92500000D02*
X68240533Y-92595238D01*
X68859580Y-91595238D02*
X68907200Y-91547619D01*
X68907200Y-91547619D02*
X68954819Y-91595238D01*
X68954819Y-91595238D02*
X68907200Y-91642857D01*
X68907200Y-91642857D02*
X68859580Y-91595238D01*
X68859580Y-91595238D02*
X68954819Y-91595238D01*
X68050057Y-91166667D02*
X68002438Y-91119048D01*
X68002438Y-91119048D02*
X67954819Y-91023810D01*
X67954819Y-91023810D02*
X67954819Y-90785715D01*
X67954819Y-90785715D02*
X68002438Y-90690477D01*
X68002438Y-90690477D02*
X68050057Y-90642858D01*
X68050057Y-90642858D02*
X68145295Y-90595239D01*
X68145295Y-90595239D02*
X68240533Y-90595239D01*
X68240533Y-90595239D02*
X68383390Y-90642858D01*
X68383390Y-90642858D02*
X68954819Y-91214286D01*
X68954819Y-91214286D02*
X68954819Y-90595239D01*
X68431009Y-89071429D02*
X68478628Y-88928572D01*
X68478628Y-88928572D02*
X68526247Y-88880953D01*
X68526247Y-88880953D02*
X68621485Y-88833334D01*
X68621485Y-88833334D02*
X68764342Y-88833334D01*
X68764342Y-88833334D02*
X68859580Y-88880953D01*
X68859580Y-88880953D02*
X68907200Y-88928572D01*
X68907200Y-88928572D02*
X68954819Y-89023810D01*
X68954819Y-89023810D02*
X68954819Y-89404762D01*
X68954819Y-89404762D02*
X67954819Y-89404762D01*
X67954819Y-89404762D02*
X67954819Y-89071429D01*
X67954819Y-89071429D02*
X68002438Y-88976191D01*
X68002438Y-88976191D02*
X68050057Y-88928572D01*
X68050057Y-88928572D02*
X68145295Y-88880953D01*
X68145295Y-88880953D02*
X68240533Y-88880953D01*
X68240533Y-88880953D02*
X68335771Y-88928572D01*
X68335771Y-88928572D02*
X68383390Y-88976191D01*
X68383390Y-88976191D02*
X68431009Y-89071429D01*
X68431009Y-89071429D02*
X68431009Y-89404762D01*
X68954819Y-88261905D02*
X68907200Y-88357143D01*
X68907200Y-88357143D02*
X68811961Y-88404762D01*
X68811961Y-88404762D02*
X67954819Y-88404762D01*
X68907200Y-87500000D02*
X68954819Y-87595238D01*
X68954819Y-87595238D02*
X68954819Y-87785714D01*
X68954819Y-87785714D02*
X68907200Y-87880952D01*
X68907200Y-87880952D02*
X68811961Y-87928571D01*
X68811961Y-87928571D02*
X68431009Y-87928571D01*
X68431009Y-87928571D02*
X68335771Y-87880952D01*
X68335771Y-87880952D02*
X68288152Y-87785714D01*
X68288152Y-87785714D02*
X68288152Y-87595238D01*
X68288152Y-87595238D02*
X68335771Y-87500000D01*
X68335771Y-87500000D02*
X68431009Y-87452381D01*
X68431009Y-87452381D02*
X68526247Y-87452381D01*
X68526247Y-87452381D02*
X68621485Y-87928571D01*
X68907200Y-86642857D02*
X68954819Y-86738095D01*
X68954819Y-86738095D02*
X68954819Y-86928571D01*
X68954819Y-86928571D02*
X68907200Y-87023809D01*
X68907200Y-87023809D02*
X68811961Y-87071428D01*
X68811961Y-87071428D02*
X68431009Y-87071428D01*
X68431009Y-87071428D02*
X68335771Y-87023809D01*
X68335771Y-87023809D02*
X68288152Y-86928571D01*
X68288152Y-86928571D02*
X68288152Y-86738095D01*
X68288152Y-86738095D02*
X68335771Y-86642857D01*
X68335771Y-86642857D02*
X68431009Y-86595238D01*
X68431009Y-86595238D02*
X68526247Y-86595238D01*
X68526247Y-86595238D02*
X68621485Y-87071428D01*
X68288152Y-86166666D02*
X69288152Y-86166666D01*
X68335771Y-86166666D02*
X68288152Y-86071428D01*
X68288152Y-86071428D02*
X68288152Y-85880952D01*
X68288152Y-85880952D02*
X68335771Y-85785714D01*
X68335771Y-85785714D02*
X68383390Y-85738095D01*
X68383390Y-85738095D02*
X68478628Y-85690476D01*
X68478628Y-85690476D02*
X68764342Y-85690476D01*
X68764342Y-85690476D02*
X68859580Y-85738095D01*
X68859580Y-85738095D02*
X68907200Y-85785714D01*
X68907200Y-85785714D02*
X68954819Y-85880952D01*
X68954819Y-85880952D02*
X68954819Y-86071428D01*
X68954819Y-86071428D02*
X68907200Y-86166666D01*
X68907200Y-85309523D02*
X68954819Y-85166666D01*
X68954819Y-85166666D02*
X68954819Y-84928571D01*
X68954819Y-84928571D02*
X68907200Y-84833333D01*
X68907200Y-84833333D02*
X68859580Y-84785714D01*
X68859580Y-84785714D02*
X68764342Y-84738095D01*
X68764342Y-84738095D02*
X68669104Y-84738095D01*
X68669104Y-84738095D02*
X68573866Y-84785714D01*
X68573866Y-84785714D02*
X68526247Y-84833333D01*
X68526247Y-84833333D02*
X68478628Y-84928571D01*
X68478628Y-84928571D02*
X68431009Y-85119047D01*
X68431009Y-85119047D02*
X68383390Y-85214285D01*
X68383390Y-85214285D02*
X68335771Y-85261904D01*
X68335771Y-85261904D02*
X68240533Y-85309523D01*
X68240533Y-85309523D02*
X68145295Y-85309523D01*
X68145295Y-85309523D02*
X68050057Y-85261904D01*
X68050057Y-85261904D02*
X68002438Y-85214285D01*
X68002438Y-85214285D02*
X67954819Y-85119047D01*
X67954819Y-85119047D02*
X67954819Y-84880952D01*
X67954819Y-84880952D02*
X68002438Y-84738095D01*
X68954819Y-84166666D02*
X68907200Y-84261904D01*
X68907200Y-84261904D02*
X68859580Y-84309523D01*
X68859580Y-84309523D02*
X68764342Y-84357142D01*
X68764342Y-84357142D02*
X68478628Y-84357142D01*
X68478628Y-84357142D02*
X68383390Y-84309523D01*
X68383390Y-84309523D02*
X68335771Y-84261904D01*
X68335771Y-84261904D02*
X68288152Y-84166666D01*
X68288152Y-84166666D02*
X68288152Y-84023809D01*
X68288152Y-84023809D02*
X68335771Y-83928571D01*
X68335771Y-83928571D02*
X68383390Y-83880952D01*
X68383390Y-83880952D02*
X68478628Y-83833333D01*
X68478628Y-83833333D02*
X68764342Y-83833333D01*
X68764342Y-83833333D02*
X68859580Y-83880952D01*
X68859580Y-83880952D02*
X68907200Y-83928571D01*
X68907200Y-83928571D02*
X68954819Y-84023809D01*
X68954819Y-84023809D02*
X68954819Y-84166666D01*
X68288152Y-82976190D02*
X68954819Y-82976190D01*
X68288152Y-83404761D02*
X68811961Y-83404761D01*
X68811961Y-83404761D02*
X68907200Y-83357142D01*
X68907200Y-83357142D02*
X68954819Y-83261904D01*
X68954819Y-83261904D02*
X68954819Y-83119047D01*
X68954819Y-83119047D02*
X68907200Y-83023809D01*
X68907200Y-83023809D02*
X68859580Y-82976190D01*
X68288152Y-82499999D02*
X68954819Y-82499999D01*
X68383390Y-82499999D02*
X68335771Y-82452380D01*
X68335771Y-82452380D02*
X68288152Y-82357142D01*
X68288152Y-82357142D02*
X68288152Y-82214285D01*
X68288152Y-82214285D02*
X68335771Y-82119047D01*
X68335771Y-82119047D02*
X68431009Y-82071428D01*
X68431009Y-82071428D02*
X68954819Y-82071428D01*
X68954819Y-81166666D02*
X67954819Y-81166666D01*
X68907200Y-81166666D02*
X68954819Y-81261904D01*
X68954819Y-81261904D02*
X68954819Y-81452380D01*
X68954819Y-81452380D02*
X68907200Y-81547618D01*
X68907200Y-81547618D02*
X68859580Y-81595237D01*
X68859580Y-81595237D02*
X68764342Y-81642856D01*
X68764342Y-81642856D02*
X68478628Y-81642856D01*
X68478628Y-81642856D02*
X68383390Y-81595237D01*
X68383390Y-81595237D02*
X68335771Y-81547618D01*
X68335771Y-81547618D02*
X68288152Y-81452380D01*
X68288152Y-81452380D02*
X68288152Y-81261904D01*
X68288152Y-81261904D02*
X68335771Y-81166666D01*
X68050057Y-79976189D02*
X68002438Y-79928570D01*
X68002438Y-79928570D02*
X67954819Y-79833332D01*
X67954819Y-79833332D02*
X67954819Y-79595237D01*
X67954819Y-79595237D02*
X68002438Y-79499999D01*
X68002438Y-79499999D02*
X68050057Y-79452380D01*
X68050057Y-79452380D02*
X68145295Y-79404761D01*
X68145295Y-79404761D02*
X68240533Y-79404761D01*
X68240533Y-79404761D02*
X68383390Y-79452380D01*
X68383390Y-79452380D02*
X68954819Y-80023808D01*
X68954819Y-80023808D02*
X68954819Y-79404761D01*
X67954819Y-78785713D02*
X67954819Y-78690475D01*
X67954819Y-78690475D02*
X68002438Y-78595237D01*
X68002438Y-78595237D02*
X68050057Y-78547618D01*
X68050057Y-78547618D02*
X68145295Y-78499999D01*
X68145295Y-78499999D02*
X68335771Y-78452380D01*
X68335771Y-78452380D02*
X68573866Y-78452380D01*
X68573866Y-78452380D02*
X68764342Y-78499999D01*
X68764342Y-78499999D02*
X68859580Y-78547618D01*
X68859580Y-78547618D02*
X68907200Y-78595237D01*
X68907200Y-78595237D02*
X68954819Y-78690475D01*
X68954819Y-78690475D02*
X68954819Y-78785713D01*
X68954819Y-78785713D02*
X68907200Y-78880951D01*
X68907200Y-78880951D02*
X68859580Y-78928570D01*
X68859580Y-78928570D02*
X68764342Y-78976189D01*
X68764342Y-78976189D02*
X68573866Y-79023808D01*
X68573866Y-79023808D02*
X68335771Y-79023808D01*
X68335771Y-79023808D02*
X68145295Y-78976189D01*
X68145295Y-78976189D02*
X68050057Y-78928570D01*
X68050057Y-78928570D02*
X68002438Y-78880951D01*
X68002438Y-78880951D02*
X67954819Y-78785713D01*
X68050057Y-78071427D02*
X68002438Y-78023808D01*
X68002438Y-78023808D02*
X67954819Y-77928570D01*
X67954819Y-77928570D02*
X67954819Y-77690475D01*
X67954819Y-77690475D02*
X68002438Y-77595237D01*
X68002438Y-77595237D02*
X68050057Y-77547618D01*
X68050057Y-77547618D02*
X68145295Y-77499999D01*
X68145295Y-77499999D02*
X68240533Y-77499999D01*
X68240533Y-77499999D02*
X68383390Y-77547618D01*
X68383390Y-77547618D02*
X68954819Y-78119046D01*
X68954819Y-78119046D02*
X68954819Y-77499999D01*
X67954819Y-77166665D02*
X67954819Y-76547618D01*
X67954819Y-76547618D02*
X68335771Y-76880951D01*
X68335771Y-76880951D02*
X68335771Y-76738094D01*
X68335771Y-76738094D02*
X68383390Y-76642856D01*
X68383390Y-76642856D02*
X68431009Y-76595237D01*
X68431009Y-76595237D02*
X68526247Y-76547618D01*
X68526247Y-76547618D02*
X68764342Y-76547618D01*
X68764342Y-76547618D02*
X68859580Y-76595237D01*
X68859580Y-76595237D02*
X68907200Y-76642856D01*
X68907200Y-76642856D02*
X68954819Y-76738094D01*
X68954819Y-76738094D02*
X68954819Y-77023808D01*
X68954819Y-77023808D02*
X68907200Y-77119046D01*
X68907200Y-77119046D02*
X68859580Y-77166665D01*
X52804819Y-88023809D02*
X53804819Y-87690476D01*
X53804819Y-87690476D02*
X52804819Y-87357143D01*
X53804819Y-86880952D02*
X53757200Y-86976190D01*
X53757200Y-86976190D02*
X53709580Y-87023809D01*
X53709580Y-87023809D02*
X53614342Y-87071428D01*
X53614342Y-87071428D02*
X53328628Y-87071428D01*
X53328628Y-87071428D02*
X53233390Y-87023809D01*
X53233390Y-87023809D02*
X53185771Y-86976190D01*
X53185771Y-86976190D02*
X53138152Y-86880952D01*
X53138152Y-86880952D02*
X53138152Y-86738095D01*
X53138152Y-86738095D02*
X53185771Y-86642857D01*
X53185771Y-86642857D02*
X53233390Y-86595238D01*
X53233390Y-86595238D02*
X53328628Y-86547619D01*
X53328628Y-86547619D02*
X53614342Y-86547619D01*
X53614342Y-86547619D02*
X53709580Y-86595238D01*
X53709580Y-86595238D02*
X53757200Y-86642857D01*
X53757200Y-86642857D02*
X53804819Y-86738095D01*
X53804819Y-86738095D02*
X53804819Y-86880952D01*
X53804819Y-85976190D02*
X53757200Y-86071428D01*
X53757200Y-86071428D02*
X53661961Y-86119047D01*
X53661961Y-86119047D02*
X52804819Y-86119047D01*
X52804819Y-85690475D02*
X52804819Y-85071428D01*
X52804819Y-85071428D02*
X53185771Y-85404761D01*
X53185771Y-85404761D02*
X53185771Y-85261904D01*
X53185771Y-85261904D02*
X53233390Y-85166666D01*
X53233390Y-85166666D02*
X53281009Y-85119047D01*
X53281009Y-85119047D02*
X53376247Y-85071428D01*
X53376247Y-85071428D02*
X53614342Y-85071428D01*
X53614342Y-85071428D02*
X53709580Y-85119047D01*
X53709580Y-85119047D02*
X53757200Y-85166666D01*
X53757200Y-85166666D02*
X53804819Y-85261904D01*
X53804819Y-85261904D02*
X53804819Y-85547618D01*
X53804819Y-85547618D02*
X53757200Y-85642856D01*
X53757200Y-85642856D02*
X53709580Y-85690475D01*
X52804819Y-110523809D02*
X53804819Y-110190476D01*
X53804819Y-110190476D02*
X52804819Y-109857143D01*
X53804819Y-109380952D02*
X53757200Y-109476190D01*
X53757200Y-109476190D02*
X53709580Y-109523809D01*
X53709580Y-109523809D02*
X53614342Y-109571428D01*
X53614342Y-109571428D02*
X53328628Y-109571428D01*
X53328628Y-109571428D02*
X53233390Y-109523809D01*
X53233390Y-109523809D02*
X53185771Y-109476190D01*
X53185771Y-109476190D02*
X53138152Y-109380952D01*
X53138152Y-109380952D02*
X53138152Y-109238095D01*
X53138152Y-109238095D02*
X53185771Y-109142857D01*
X53185771Y-109142857D02*
X53233390Y-109095238D01*
X53233390Y-109095238D02*
X53328628Y-109047619D01*
X53328628Y-109047619D02*
X53614342Y-109047619D01*
X53614342Y-109047619D02*
X53709580Y-109095238D01*
X53709580Y-109095238D02*
X53757200Y-109142857D01*
X53757200Y-109142857D02*
X53804819Y-109238095D01*
X53804819Y-109238095D02*
X53804819Y-109380952D01*
X53804819Y-108476190D02*
X53757200Y-108571428D01*
X53757200Y-108571428D02*
X53661961Y-108619047D01*
X53661961Y-108619047D02*
X52804819Y-108619047D01*
X53138152Y-107666666D02*
X53804819Y-107666666D01*
X52757200Y-107904761D02*
X53471485Y-108142856D01*
X53471485Y-108142856D02*
X53471485Y-107523809D01*
X50636666Y-122534819D02*
X50636666Y-123249104D01*
X50636666Y-123249104D02*
X50589047Y-123391961D01*
X50589047Y-123391961D02*
X50493809Y-123487200D01*
X50493809Y-123487200D02*
X50350952Y-123534819D01*
X50350952Y-123534819D02*
X50255714Y-123534819D01*
X51541428Y-122868152D02*
X51541428Y-123534819D01*
X51303333Y-122487200D02*
X51065238Y-123201485D01*
X51065238Y-123201485D02*
X51684285Y-123201485D01*
X37557200Y-108833332D02*
X37604819Y-108690475D01*
X37604819Y-108690475D02*
X37604819Y-108452380D01*
X37604819Y-108452380D02*
X37557200Y-108357142D01*
X37557200Y-108357142D02*
X37509580Y-108309523D01*
X37509580Y-108309523D02*
X37414342Y-108261904D01*
X37414342Y-108261904D02*
X37319104Y-108261904D01*
X37319104Y-108261904D02*
X37223866Y-108309523D01*
X37223866Y-108309523D02*
X37176247Y-108357142D01*
X37176247Y-108357142D02*
X37128628Y-108452380D01*
X37128628Y-108452380D02*
X37081009Y-108642856D01*
X37081009Y-108642856D02*
X37033390Y-108738094D01*
X37033390Y-108738094D02*
X36985771Y-108785713D01*
X36985771Y-108785713D02*
X36890533Y-108833332D01*
X36890533Y-108833332D02*
X36795295Y-108833332D01*
X36795295Y-108833332D02*
X36700057Y-108785713D01*
X36700057Y-108785713D02*
X36652438Y-108738094D01*
X36652438Y-108738094D02*
X36604819Y-108642856D01*
X36604819Y-108642856D02*
X36604819Y-108404761D01*
X36604819Y-108404761D02*
X36652438Y-108261904D01*
X36604819Y-107928570D02*
X37604819Y-107690475D01*
X37604819Y-107690475D02*
X36890533Y-107499999D01*
X36890533Y-107499999D02*
X37604819Y-107309523D01*
X37604819Y-107309523D02*
X36604819Y-107071428D01*
X36938152Y-106261904D02*
X37604819Y-106261904D01*
X36557200Y-106499999D02*
X37271485Y-106738094D01*
X37271485Y-106738094D02*
X37271485Y-106119047D01*
X42854819Y-126666666D02*
X42378628Y-126999999D01*
X42854819Y-127238094D02*
X41854819Y-127238094D01*
X41854819Y-127238094D02*
X41854819Y-126857142D01*
X41854819Y-126857142D02*
X41902438Y-126761904D01*
X41902438Y-126761904D02*
X41950057Y-126714285D01*
X41950057Y-126714285D02*
X42045295Y-126666666D01*
X42045295Y-126666666D02*
X42188152Y-126666666D01*
X42188152Y-126666666D02*
X42283390Y-126714285D01*
X42283390Y-126714285D02*
X42331009Y-126761904D01*
X42331009Y-126761904D02*
X42378628Y-126857142D01*
X42378628Y-126857142D02*
X42378628Y-127238094D01*
X42283390Y-126095237D02*
X42235771Y-126190475D01*
X42235771Y-126190475D02*
X42188152Y-126238094D01*
X42188152Y-126238094D02*
X42092914Y-126285713D01*
X42092914Y-126285713D02*
X42045295Y-126285713D01*
X42045295Y-126285713D02*
X41950057Y-126238094D01*
X41950057Y-126238094D02*
X41902438Y-126190475D01*
X41902438Y-126190475D02*
X41854819Y-126095237D01*
X41854819Y-126095237D02*
X41854819Y-125904761D01*
X41854819Y-125904761D02*
X41902438Y-125809523D01*
X41902438Y-125809523D02*
X41950057Y-125761904D01*
X41950057Y-125761904D02*
X42045295Y-125714285D01*
X42045295Y-125714285D02*
X42092914Y-125714285D01*
X42092914Y-125714285D02*
X42188152Y-125761904D01*
X42188152Y-125761904D02*
X42235771Y-125809523D01*
X42235771Y-125809523D02*
X42283390Y-125904761D01*
X42283390Y-125904761D02*
X42283390Y-126095237D01*
X42283390Y-126095237D02*
X42331009Y-126190475D01*
X42331009Y-126190475D02*
X42378628Y-126238094D01*
X42378628Y-126238094D02*
X42473866Y-126285713D01*
X42473866Y-126285713D02*
X42664342Y-126285713D01*
X42664342Y-126285713D02*
X42759580Y-126238094D01*
X42759580Y-126238094D02*
X42807200Y-126190475D01*
X42807200Y-126190475D02*
X42854819Y-126095237D01*
X42854819Y-126095237D02*
X42854819Y-125904761D01*
X42854819Y-125904761D02*
X42807200Y-125809523D01*
X42807200Y-125809523D02*
X42759580Y-125761904D01*
X42759580Y-125761904D02*
X42664342Y-125714285D01*
X42664342Y-125714285D02*
X42473866Y-125714285D01*
X42473866Y-125714285D02*
X42378628Y-125761904D01*
X42378628Y-125761904D02*
X42331009Y-125809523D01*
X42331009Y-125809523D02*
X42283390Y-125904761D01*
X48761905Y-70454819D02*
X48761905Y-69454819D01*
X48761905Y-69454819D02*
X49000000Y-69454819D01*
X49000000Y-69454819D02*
X49142857Y-69502438D01*
X49142857Y-69502438D02*
X49238095Y-69597676D01*
X49238095Y-69597676D02*
X49285714Y-69692914D01*
X49285714Y-69692914D02*
X49333333Y-69883390D01*
X49333333Y-69883390D02*
X49333333Y-70026247D01*
X49333333Y-70026247D02*
X49285714Y-70216723D01*
X49285714Y-70216723D02*
X49238095Y-70311961D01*
X49238095Y-70311961D02*
X49142857Y-70407200D01*
X49142857Y-70407200D02*
X49000000Y-70454819D01*
X49000000Y-70454819D02*
X48761905Y-70454819D01*
X49714286Y-69550057D02*
X49761905Y-69502438D01*
X49761905Y-69502438D02*
X49857143Y-69454819D01*
X49857143Y-69454819D02*
X50095238Y-69454819D01*
X50095238Y-69454819D02*
X50190476Y-69502438D01*
X50190476Y-69502438D02*
X50238095Y-69550057D01*
X50238095Y-69550057D02*
X50285714Y-69645295D01*
X50285714Y-69645295D02*
X50285714Y-69740533D01*
X50285714Y-69740533D02*
X50238095Y-69883390D01*
X50238095Y-69883390D02*
X49666667Y-70454819D01*
X49666667Y-70454819D02*
X50285714Y-70454819D01*
X62357142Y-118954819D02*
X62023809Y-118478628D01*
X61785714Y-118954819D02*
X61785714Y-117954819D01*
X61785714Y-117954819D02*
X62166666Y-117954819D01*
X62166666Y-117954819D02*
X62261904Y-118002438D01*
X62261904Y-118002438D02*
X62309523Y-118050057D01*
X62309523Y-118050057D02*
X62357142Y-118145295D01*
X62357142Y-118145295D02*
X62357142Y-118288152D01*
X62357142Y-118288152D02*
X62309523Y-118383390D01*
X62309523Y-118383390D02*
X62261904Y-118431009D01*
X62261904Y-118431009D02*
X62166666Y-118478628D01*
X62166666Y-118478628D02*
X61785714Y-118478628D01*
X63309523Y-118954819D02*
X62738095Y-118954819D01*
X63023809Y-118954819D02*
X63023809Y-117954819D01*
X63023809Y-117954819D02*
X62928571Y-118097676D01*
X62928571Y-118097676D02*
X62833333Y-118192914D01*
X62833333Y-118192914D02*
X62738095Y-118240533D01*
X64261904Y-118954819D02*
X63690476Y-118954819D01*
X63976190Y-118954819D02*
X63976190Y-117954819D01*
X63976190Y-117954819D02*
X63880952Y-118097676D01*
X63880952Y-118097676D02*
X63785714Y-118192914D01*
X63785714Y-118192914D02*
X63690476Y-118240533D01*
X62833333Y-96454819D02*
X62500000Y-95978628D01*
X62261905Y-96454819D02*
X62261905Y-95454819D01*
X62261905Y-95454819D02*
X62642857Y-95454819D01*
X62642857Y-95454819D02*
X62738095Y-95502438D01*
X62738095Y-95502438D02*
X62785714Y-95550057D01*
X62785714Y-95550057D02*
X62833333Y-95645295D01*
X62833333Y-95645295D02*
X62833333Y-95788152D01*
X62833333Y-95788152D02*
X62785714Y-95883390D01*
X62785714Y-95883390D02*
X62738095Y-95931009D01*
X62738095Y-95931009D02*
X62642857Y-95978628D01*
X62642857Y-95978628D02*
X62261905Y-95978628D01*
X63309524Y-96454819D02*
X63500000Y-96454819D01*
X63500000Y-96454819D02*
X63595238Y-96407200D01*
X63595238Y-96407200D02*
X63642857Y-96359580D01*
X63642857Y-96359580D02*
X63738095Y-96216723D01*
X63738095Y-96216723D02*
X63785714Y-96026247D01*
X63785714Y-96026247D02*
X63785714Y-95645295D01*
X63785714Y-95645295D02*
X63738095Y-95550057D01*
X63738095Y-95550057D02*
X63690476Y-95502438D01*
X63690476Y-95502438D02*
X63595238Y-95454819D01*
X63595238Y-95454819D02*
X63404762Y-95454819D01*
X63404762Y-95454819D02*
X63309524Y-95502438D01*
X63309524Y-95502438D02*
X63261905Y-95550057D01*
X63261905Y-95550057D02*
X63214286Y-95645295D01*
X63214286Y-95645295D02*
X63214286Y-95883390D01*
X63214286Y-95883390D02*
X63261905Y-95978628D01*
X63261905Y-95978628D02*
X63309524Y-96026247D01*
X63309524Y-96026247D02*
X63404762Y-96073866D01*
X63404762Y-96073866D02*
X63595238Y-96073866D01*
X63595238Y-96073866D02*
X63690476Y-96026247D01*
X63690476Y-96026247D02*
X63738095Y-95978628D01*
X63738095Y-95978628D02*
X63785714Y-95883390D01*
X52804819Y-65523809D02*
X53804819Y-65190476D01*
X53804819Y-65190476D02*
X52804819Y-64857143D01*
X53804819Y-64380952D02*
X53757200Y-64476190D01*
X53757200Y-64476190D02*
X53709580Y-64523809D01*
X53709580Y-64523809D02*
X53614342Y-64571428D01*
X53614342Y-64571428D02*
X53328628Y-64571428D01*
X53328628Y-64571428D02*
X53233390Y-64523809D01*
X53233390Y-64523809D02*
X53185771Y-64476190D01*
X53185771Y-64476190D02*
X53138152Y-64380952D01*
X53138152Y-64380952D02*
X53138152Y-64238095D01*
X53138152Y-64238095D02*
X53185771Y-64142857D01*
X53185771Y-64142857D02*
X53233390Y-64095238D01*
X53233390Y-64095238D02*
X53328628Y-64047619D01*
X53328628Y-64047619D02*
X53614342Y-64047619D01*
X53614342Y-64047619D02*
X53709580Y-64095238D01*
X53709580Y-64095238D02*
X53757200Y-64142857D01*
X53757200Y-64142857D02*
X53804819Y-64238095D01*
X53804819Y-64238095D02*
X53804819Y-64380952D01*
X53804819Y-63476190D02*
X53757200Y-63571428D01*
X53757200Y-63571428D02*
X53661961Y-63619047D01*
X53661961Y-63619047D02*
X52804819Y-63619047D01*
X52900057Y-63142856D02*
X52852438Y-63095237D01*
X52852438Y-63095237D02*
X52804819Y-62999999D01*
X52804819Y-62999999D02*
X52804819Y-62761904D01*
X52804819Y-62761904D02*
X52852438Y-62666666D01*
X52852438Y-62666666D02*
X52900057Y-62619047D01*
X52900057Y-62619047D02*
X52995295Y-62571428D01*
X52995295Y-62571428D02*
X53090533Y-62571428D01*
X53090533Y-62571428D02*
X53233390Y-62619047D01*
X53233390Y-62619047D02*
X53804819Y-63190475D01*
X53804819Y-63190475D02*
X53804819Y-62571428D01*
X36833333Y-48954819D02*
X36500000Y-48478628D01*
X36261905Y-48954819D02*
X36261905Y-47954819D01*
X36261905Y-47954819D02*
X36642857Y-47954819D01*
X36642857Y-47954819D02*
X36738095Y-48002438D01*
X36738095Y-48002438D02*
X36785714Y-48050057D01*
X36785714Y-48050057D02*
X36833333Y-48145295D01*
X36833333Y-48145295D02*
X36833333Y-48288152D01*
X36833333Y-48288152D02*
X36785714Y-48383390D01*
X36785714Y-48383390D02*
X36738095Y-48431009D01*
X36738095Y-48431009D02*
X36642857Y-48478628D01*
X36642857Y-48478628D02*
X36261905Y-48478628D01*
X37785714Y-48954819D02*
X37214286Y-48954819D01*
X37500000Y-48954819D02*
X37500000Y-47954819D01*
X37500000Y-47954819D02*
X37404762Y-48097676D01*
X37404762Y-48097676D02*
X37309524Y-48192914D01*
X37309524Y-48192914D02*
X37214286Y-48240533D01*
X31136666Y-56534819D02*
X31136666Y-57249104D01*
X31136666Y-57249104D02*
X31089047Y-57391961D01*
X31089047Y-57391961D02*
X30993809Y-57487200D01*
X30993809Y-57487200D02*
X30850952Y-57534819D01*
X30850952Y-57534819D02*
X30755714Y-57534819D01*
X31517619Y-56534819D02*
X32136666Y-56534819D01*
X32136666Y-56534819D02*
X31803333Y-56915771D01*
X31803333Y-56915771D02*
X31946190Y-56915771D01*
X31946190Y-56915771D02*
X32041428Y-56963390D01*
X32041428Y-56963390D02*
X32089047Y-57011009D01*
X32089047Y-57011009D02*
X32136666Y-57106247D01*
X32136666Y-57106247D02*
X32136666Y-57344342D01*
X32136666Y-57344342D02*
X32089047Y-57439580D01*
X32089047Y-57439580D02*
X32041428Y-57487200D01*
X32041428Y-57487200D02*
X31946190Y-57534819D01*
X31946190Y-57534819D02*
X31660476Y-57534819D01*
X31660476Y-57534819D02*
X31565238Y-57487200D01*
X31565238Y-57487200D02*
X31517619Y-57439580D01*
X36357142Y-116454819D02*
X36023809Y-115978628D01*
X35785714Y-116454819D02*
X35785714Y-115454819D01*
X35785714Y-115454819D02*
X36166666Y-115454819D01*
X36166666Y-115454819D02*
X36261904Y-115502438D01*
X36261904Y-115502438D02*
X36309523Y-115550057D01*
X36309523Y-115550057D02*
X36357142Y-115645295D01*
X36357142Y-115645295D02*
X36357142Y-115788152D01*
X36357142Y-115788152D02*
X36309523Y-115883390D01*
X36309523Y-115883390D02*
X36261904Y-115931009D01*
X36261904Y-115931009D02*
X36166666Y-115978628D01*
X36166666Y-115978628D02*
X35785714Y-115978628D01*
X37309523Y-116454819D02*
X36738095Y-116454819D01*
X37023809Y-116454819D02*
X37023809Y-115454819D01*
X37023809Y-115454819D02*
X36928571Y-115597676D01*
X36928571Y-115597676D02*
X36833333Y-115692914D01*
X36833333Y-115692914D02*
X36738095Y-115740533D01*
X37928571Y-115454819D02*
X38023809Y-115454819D01*
X38023809Y-115454819D02*
X38119047Y-115502438D01*
X38119047Y-115502438D02*
X38166666Y-115550057D01*
X38166666Y-115550057D02*
X38214285Y-115645295D01*
X38214285Y-115645295D02*
X38261904Y-115835771D01*
X38261904Y-115835771D02*
X38261904Y-116073866D01*
X38261904Y-116073866D02*
X38214285Y-116264342D01*
X38214285Y-116264342D02*
X38166666Y-116359580D01*
X38166666Y-116359580D02*
X38119047Y-116407200D01*
X38119047Y-116407200D02*
X38023809Y-116454819D01*
X38023809Y-116454819D02*
X37928571Y-116454819D01*
X37928571Y-116454819D02*
X37833333Y-116407200D01*
X37833333Y-116407200D02*
X37785714Y-116359580D01*
X37785714Y-116359580D02*
X37738095Y-116264342D01*
X37738095Y-116264342D02*
X37690476Y-116073866D01*
X37690476Y-116073866D02*
X37690476Y-115835771D01*
X37690476Y-115835771D02*
X37738095Y-115645295D01*
X37738095Y-115645295D02*
X37785714Y-115550057D01*
X37785714Y-115550057D02*
X37833333Y-115502438D01*
X37833333Y-115502438D02*
X37928571Y-115454819D01*
X48761905Y-92954819D02*
X48761905Y-91954819D01*
X48761905Y-91954819D02*
X49000000Y-91954819D01*
X49000000Y-91954819D02*
X49142857Y-92002438D01*
X49142857Y-92002438D02*
X49238095Y-92097676D01*
X49238095Y-92097676D02*
X49285714Y-92192914D01*
X49285714Y-92192914D02*
X49333333Y-92383390D01*
X49333333Y-92383390D02*
X49333333Y-92526247D01*
X49333333Y-92526247D02*
X49285714Y-92716723D01*
X49285714Y-92716723D02*
X49238095Y-92811961D01*
X49238095Y-92811961D02*
X49142857Y-92907200D01*
X49142857Y-92907200D02*
X49000000Y-92954819D01*
X49000000Y-92954819D02*
X48761905Y-92954819D01*
X49666667Y-91954819D02*
X50285714Y-91954819D01*
X50285714Y-91954819D02*
X49952381Y-92335771D01*
X49952381Y-92335771D02*
X50095238Y-92335771D01*
X50095238Y-92335771D02*
X50190476Y-92383390D01*
X50190476Y-92383390D02*
X50238095Y-92431009D01*
X50238095Y-92431009D02*
X50285714Y-92526247D01*
X50285714Y-92526247D02*
X50285714Y-92764342D01*
X50285714Y-92764342D02*
X50238095Y-92859580D01*
X50238095Y-92859580D02*
X50190476Y-92907200D01*
X50190476Y-92907200D02*
X50095238Y-92954819D01*
X50095238Y-92954819D02*
X49809524Y-92954819D01*
X49809524Y-92954819D02*
X49714286Y-92907200D01*
X49714286Y-92907200D02*
X49666667Y-92859580D01*
X31136666Y-79034819D02*
X31136666Y-79749104D01*
X31136666Y-79749104D02*
X31089047Y-79891961D01*
X31089047Y-79891961D02*
X30993809Y-79987200D01*
X30993809Y-79987200D02*
X30850952Y-80034819D01*
X30850952Y-80034819D02*
X30755714Y-80034819D01*
X32041428Y-79034819D02*
X31850952Y-79034819D01*
X31850952Y-79034819D02*
X31755714Y-79082438D01*
X31755714Y-79082438D02*
X31708095Y-79130057D01*
X31708095Y-79130057D02*
X31612857Y-79272914D01*
X31612857Y-79272914D02*
X31565238Y-79463390D01*
X31565238Y-79463390D02*
X31565238Y-79844342D01*
X31565238Y-79844342D02*
X31612857Y-79939580D01*
X31612857Y-79939580D02*
X31660476Y-79987200D01*
X31660476Y-79987200D02*
X31755714Y-80034819D01*
X31755714Y-80034819D02*
X31946190Y-80034819D01*
X31946190Y-80034819D02*
X32041428Y-79987200D01*
X32041428Y-79987200D02*
X32089047Y-79939580D01*
X32089047Y-79939580D02*
X32136666Y-79844342D01*
X32136666Y-79844342D02*
X32136666Y-79606247D01*
X32136666Y-79606247D02*
X32089047Y-79511009D01*
X32089047Y-79511009D02*
X32041428Y-79463390D01*
X32041428Y-79463390D02*
X31946190Y-79415771D01*
X31946190Y-79415771D02*
X31755714Y-79415771D01*
X31755714Y-79415771D02*
X31660476Y-79463390D01*
X31660476Y-79463390D02*
X31612857Y-79511009D01*
X31612857Y-79511009D02*
X31565238Y-79606247D01*
X31136666Y-101534819D02*
X31136666Y-102249104D01*
X31136666Y-102249104D02*
X31089047Y-102391961D01*
X31089047Y-102391961D02*
X30993809Y-102487200D01*
X30993809Y-102487200D02*
X30850952Y-102534819D01*
X30850952Y-102534819D02*
X30755714Y-102534819D01*
X31517619Y-101534819D02*
X32184285Y-101534819D01*
X32184285Y-101534819D02*
X31755714Y-102534819D01*
X36833333Y-71454819D02*
X36500000Y-70978628D01*
X36261905Y-71454819D02*
X36261905Y-70454819D01*
X36261905Y-70454819D02*
X36642857Y-70454819D01*
X36642857Y-70454819D02*
X36738095Y-70502438D01*
X36738095Y-70502438D02*
X36785714Y-70550057D01*
X36785714Y-70550057D02*
X36833333Y-70645295D01*
X36833333Y-70645295D02*
X36833333Y-70788152D01*
X36833333Y-70788152D02*
X36785714Y-70883390D01*
X36785714Y-70883390D02*
X36738095Y-70931009D01*
X36738095Y-70931009D02*
X36642857Y-70978628D01*
X36642857Y-70978628D02*
X36261905Y-70978628D01*
X37166667Y-70454819D02*
X37785714Y-70454819D01*
X37785714Y-70454819D02*
X37452381Y-70835771D01*
X37452381Y-70835771D02*
X37595238Y-70835771D01*
X37595238Y-70835771D02*
X37690476Y-70883390D01*
X37690476Y-70883390D02*
X37738095Y-70931009D01*
X37738095Y-70931009D02*
X37785714Y-71026247D01*
X37785714Y-71026247D02*
X37785714Y-71264342D01*
X37785714Y-71264342D02*
X37738095Y-71359580D01*
X37738095Y-71359580D02*
X37690476Y-71407200D01*
X37690476Y-71407200D02*
X37595238Y-71454819D01*
X37595238Y-71454819D02*
X37309524Y-71454819D01*
X37309524Y-71454819D02*
X37214286Y-71407200D01*
X37214286Y-71407200D02*
X37166667Y-71359580D01*
X31136666Y-34034819D02*
X31136666Y-34749104D01*
X31136666Y-34749104D02*
X31089047Y-34891961D01*
X31089047Y-34891961D02*
X30993809Y-34987200D01*
X30993809Y-34987200D02*
X30850952Y-35034819D01*
X30850952Y-35034819D02*
X30755714Y-35034819D01*
X32136666Y-35034819D02*
X31565238Y-35034819D01*
X31850952Y-35034819D02*
X31850952Y-34034819D01*
X31850952Y-34034819D02*
X31755714Y-34177676D01*
X31755714Y-34177676D02*
X31660476Y-34272914D01*
X31660476Y-34272914D02*
X31565238Y-34320533D01*
X48854819Y-126666666D02*
X48378628Y-126999999D01*
X48854819Y-127238094D02*
X47854819Y-127238094D01*
X47854819Y-127238094D02*
X47854819Y-126857142D01*
X47854819Y-126857142D02*
X47902438Y-126761904D01*
X47902438Y-126761904D02*
X47950057Y-126714285D01*
X47950057Y-126714285D02*
X48045295Y-126666666D01*
X48045295Y-126666666D02*
X48188152Y-126666666D01*
X48188152Y-126666666D02*
X48283390Y-126714285D01*
X48283390Y-126714285D02*
X48331009Y-126761904D01*
X48331009Y-126761904D02*
X48378628Y-126857142D01*
X48378628Y-126857142D02*
X48378628Y-127238094D01*
X47854819Y-126333332D02*
X47854819Y-125666666D01*
X47854819Y-125666666D02*
X48854819Y-126095237D01*
X37557200Y-41333332D02*
X37604819Y-41190475D01*
X37604819Y-41190475D02*
X37604819Y-40952380D01*
X37604819Y-40952380D02*
X37557200Y-40857142D01*
X37557200Y-40857142D02*
X37509580Y-40809523D01*
X37509580Y-40809523D02*
X37414342Y-40761904D01*
X37414342Y-40761904D02*
X37319104Y-40761904D01*
X37319104Y-40761904D02*
X37223866Y-40809523D01*
X37223866Y-40809523D02*
X37176247Y-40857142D01*
X37176247Y-40857142D02*
X37128628Y-40952380D01*
X37128628Y-40952380D02*
X37081009Y-41142856D01*
X37081009Y-41142856D02*
X37033390Y-41238094D01*
X37033390Y-41238094D02*
X36985771Y-41285713D01*
X36985771Y-41285713D02*
X36890533Y-41333332D01*
X36890533Y-41333332D02*
X36795295Y-41333332D01*
X36795295Y-41333332D02*
X36700057Y-41285713D01*
X36700057Y-41285713D02*
X36652438Y-41238094D01*
X36652438Y-41238094D02*
X36604819Y-41142856D01*
X36604819Y-41142856D02*
X36604819Y-40904761D01*
X36604819Y-40904761D02*
X36652438Y-40761904D01*
X36604819Y-40428570D02*
X37604819Y-40190475D01*
X37604819Y-40190475D02*
X36890533Y-39999999D01*
X36890533Y-39999999D02*
X37604819Y-39809523D01*
X37604819Y-39809523D02*
X36604819Y-39571428D01*
X37604819Y-38666666D02*
X37604819Y-39238094D01*
X37604819Y-38952380D02*
X36604819Y-38952380D01*
X36604819Y-38952380D02*
X36747676Y-39047618D01*
X36747676Y-39047618D02*
X36842914Y-39142856D01*
X36842914Y-39142856D02*
X36890533Y-39238094D01*
X52804819Y-43023809D02*
X53804819Y-42690476D01*
X53804819Y-42690476D02*
X52804819Y-42357143D01*
X53804819Y-41880952D02*
X53757200Y-41976190D01*
X53757200Y-41976190D02*
X53709580Y-42023809D01*
X53709580Y-42023809D02*
X53614342Y-42071428D01*
X53614342Y-42071428D02*
X53328628Y-42071428D01*
X53328628Y-42071428D02*
X53233390Y-42023809D01*
X53233390Y-42023809D02*
X53185771Y-41976190D01*
X53185771Y-41976190D02*
X53138152Y-41880952D01*
X53138152Y-41880952D02*
X53138152Y-41738095D01*
X53138152Y-41738095D02*
X53185771Y-41642857D01*
X53185771Y-41642857D02*
X53233390Y-41595238D01*
X53233390Y-41595238D02*
X53328628Y-41547619D01*
X53328628Y-41547619D02*
X53614342Y-41547619D01*
X53614342Y-41547619D02*
X53709580Y-41595238D01*
X53709580Y-41595238D02*
X53757200Y-41642857D01*
X53757200Y-41642857D02*
X53804819Y-41738095D01*
X53804819Y-41738095D02*
X53804819Y-41880952D01*
X53804819Y-40976190D02*
X53757200Y-41071428D01*
X53757200Y-41071428D02*
X53661961Y-41119047D01*
X53661961Y-41119047D02*
X52804819Y-41119047D01*
X53804819Y-40071428D02*
X53804819Y-40642856D01*
X53804819Y-40357142D02*
X52804819Y-40357142D01*
X52804819Y-40357142D02*
X52947676Y-40452380D01*
X52947676Y-40452380D02*
X53042914Y-40547618D01*
X53042914Y-40547618D02*
X53090533Y-40642856D01*
X36833333Y-93954819D02*
X36500000Y-93478628D01*
X36261905Y-93954819D02*
X36261905Y-92954819D01*
X36261905Y-92954819D02*
X36642857Y-92954819D01*
X36642857Y-92954819D02*
X36738095Y-93002438D01*
X36738095Y-93002438D02*
X36785714Y-93050057D01*
X36785714Y-93050057D02*
X36833333Y-93145295D01*
X36833333Y-93145295D02*
X36833333Y-93288152D01*
X36833333Y-93288152D02*
X36785714Y-93383390D01*
X36785714Y-93383390D02*
X36738095Y-93431009D01*
X36738095Y-93431009D02*
X36642857Y-93478628D01*
X36642857Y-93478628D02*
X36261905Y-93478628D01*
X37738095Y-92954819D02*
X37261905Y-92954819D01*
X37261905Y-92954819D02*
X37214286Y-93431009D01*
X37214286Y-93431009D02*
X37261905Y-93383390D01*
X37261905Y-93383390D02*
X37357143Y-93335771D01*
X37357143Y-93335771D02*
X37595238Y-93335771D01*
X37595238Y-93335771D02*
X37690476Y-93383390D01*
X37690476Y-93383390D02*
X37738095Y-93431009D01*
X37738095Y-93431009D02*
X37785714Y-93526247D01*
X37785714Y-93526247D02*
X37785714Y-93764342D01*
X37785714Y-93764342D02*
X37738095Y-93859580D01*
X37738095Y-93859580D02*
X37690476Y-93907200D01*
X37690476Y-93907200D02*
X37595238Y-93954819D01*
X37595238Y-93954819D02*
X37357143Y-93954819D01*
X37357143Y-93954819D02*
X37261905Y-93907200D01*
X37261905Y-93907200D02*
X37214286Y-93859580D01*
X48761905Y-115454819D02*
X48761905Y-114454819D01*
X48761905Y-114454819D02*
X49000000Y-114454819D01*
X49000000Y-114454819D02*
X49142857Y-114502438D01*
X49142857Y-114502438D02*
X49238095Y-114597676D01*
X49238095Y-114597676D02*
X49285714Y-114692914D01*
X49285714Y-114692914D02*
X49333333Y-114883390D01*
X49333333Y-114883390D02*
X49333333Y-115026247D01*
X49333333Y-115026247D02*
X49285714Y-115216723D01*
X49285714Y-115216723D02*
X49238095Y-115311961D01*
X49238095Y-115311961D02*
X49142857Y-115407200D01*
X49142857Y-115407200D02*
X49000000Y-115454819D01*
X49000000Y-115454819D02*
X48761905Y-115454819D01*
X50190476Y-114788152D02*
X50190476Y-115454819D01*
X49952381Y-114407200D02*
X49714286Y-115121485D01*
X49714286Y-115121485D02*
X50333333Y-115121485D01*
X62833333Y-73954819D02*
X62500000Y-73478628D01*
X62261905Y-73954819D02*
X62261905Y-72954819D01*
X62261905Y-72954819D02*
X62642857Y-72954819D01*
X62642857Y-72954819D02*
X62738095Y-73002438D01*
X62738095Y-73002438D02*
X62785714Y-73050057D01*
X62785714Y-73050057D02*
X62833333Y-73145295D01*
X62833333Y-73145295D02*
X62833333Y-73288152D01*
X62833333Y-73288152D02*
X62785714Y-73383390D01*
X62785714Y-73383390D02*
X62738095Y-73431009D01*
X62738095Y-73431009D02*
X62642857Y-73478628D01*
X62642857Y-73478628D02*
X62261905Y-73478628D01*
X63690476Y-73288152D02*
X63690476Y-73954819D01*
X63452381Y-72907200D02*
X63214286Y-73621485D01*
X63214286Y-73621485D02*
X63833333Y-73621485D01*
X62833333Y-51454819D02*
X62500000Y-50978628D01*
X62261905Y-51454819D02*
X62261905Y-50454819D01*
X62261905Y-50454819D02*
X62642857Y-50454819D01*
X62642857Y-50454819D02*
X62738095Y-50502438D01*
X62738095Y-50502438D02*
X62785714Y-50550057D01*
X62785714Y-50550057D02*
X62833333Y-50645295D01*
X62833333Y-50645295D02*
X62833333Y-50788152D01*
X62833333Y-50788152D02*
X62785714Y-50883390D01*
X62785714Y-50883390D02*
X62738095Y-50931009D01*
X62738095Y-50931009D02*
X62642857Y-50978628D01*
X62642857Y-50978628D02*
X62261905Y-50978628D01*
X63214286Y-50550057D02*
X63261905Y-50502438D01*
X63261905Y-50502438D02*
X63357143Y-50454819D01*
X63357143Y-50454819D02*
X63595238Y-50454819D01*
X63595238Y-50454819D02*
X63690476Y-50502438D01*
X63690476Y-50502438D02*
X63738095Y-50550057D01*
X63738095Y-50550057D02*
X63785714Y-50645295D01*
X63785714Y-50645295D02*
X63785714Y-50740533D01*
X63785714Y-50740533D02*
X63738095Y-50883390D01*
X63738095Y-50883390D02*
X63166667Y-51454819D01*
X63166667Y-51454819D02*
X63785714Y-51454819D01*
X37557200Y-86333332D02*
X37604819Y-86190475D01*
X37604819Y-86190475D02*
X37604819Y-85952380D01*
X37604819Y-85952380D02*
X37557200Y-85857142D01*
X37557200Y-85857142D02*
X37509580Y-85809523D01*
X37509580Y-85809523D02*
X37414342Y-85761904D01*
X37414342Y-85761904D02*
X37319104Y-85761904D01*
X37319104Y-85761904D02*
X37223866Y-85809523D01*
X37223866Y-85809523D02*
X37176247Y-85857142D01*
X37176247Y-85857142D02*
X37128628Y-85952380D01*
X37128628Y-85952380D02*
X37081009Y-86142856D01*
X37081009Y-86142856D02*
X37033390Y-86238094D01*
X37033390Y-86238094D02*
X36985771Y-86285713D01*
X36985771Y-86285713D02*
X36890533Y-86333332D01*
X36890533Y-86333332D02*
X36795295Y-86333332D01*
X36795295Y-86333332D02*
X36700057Y-86285713D01*
X36700057Y-86285713D02*
X36652438Y-86238094D01*
X36652438Y-86238094D02*
X36604819Y-86142856D01*
X36604819Y-86142856D02*
X36604819Y-85904761D01*
X36604819Y-85904761D02*
X36652438Y-85761904D01*
X36604819Y-85428570D02*
X37604819Y-85190475D01*
X37604819Y-85190475D02*
X36890533Y-84999999D01*
X36890533Y-84999999D02*
X37604819Y-84809523D01*
X37604819Y-84809523D02*
X36604819Y-84571428D01*
X36604819Y-84285713D02*
X36604819Y-83666666D01*
X36604819Y-83666666D02*
X36985771Y-83999999D01*
X36985771Y-83999999D02*
X36985771Y-83857142D01*
X36985771Y-83857142D02*
X37033390Y-83761904D01*
X37033390Y-83761904D02*
X37081009Y-83714285D01*
X37081009Y-83714285D02*
X37176247Y-83666666D01*
X37176247Y-83666666D02*
X37414342Y-83666666D01*
X37414342Y-83666666D02*
X37509580Y-83714285D01*
X37509580Y-83714285D02*
X37557200Y-83761904D01*
X37557200Y-83761904D02*
X37604819Y-83857142D01*
X37604819Y-83857142D02*
X37604819Y-84142856D01*
X37604819Y-84142856D02*
X37557200Y-84238094D01*
X37557200Y-84238094D02*
X37509580Y-84285713D01*
X37557200Y-63833332D02*
X37604819Y-63690475D01*
X37604819Y-63690475D02*
X37604819Y-63452380D01*
X37604819Y-63452380D02*
X37557200Y-63357142D01*
X37557200Y-63357142D02*
X37509580Y-63309523D01*
X37509580Y-63309523D02*
X37414342Y-63261904D01*
X37414342Y-63261904D02*
X37319104Y-63261904D01*
X37319104Y-63261904D02*
X37223866Y-63309523D01*
X37223866Y-63309523D02*
X37176247Y-63357142D01*
X37176247Y-63357142D02*
X37128628Y-63452380D01*
X37128628Y-63452380D02*
X37081009Y-63642856D01*
X37081009Y-63642856D02*
X37033390Y-63738094D01*
X37033390Y-63738094D02*
X36985771Y-63785713D01*
X36985771Y-63785713D02*
X36890533Y-63833332D01*
X36890533Y-63833332D02*
X36795295Y-63833332D01*
X36795295Y-63833332D02*
X36700057Y-63785713D01*
X36700057Y-63785713D02*
X36652438Y-63738094D01*
X36652438Y-63738094D02*
X36604819Y-63642856D01*
X36604819Y-63642856D02*
X36604819Y-63404761D01*
X36604819Y-63404761D02*
X36652438Y-63261904D01*
X36604819Y-62928570D02*
X37604819Y-62690475D01*
X37604819Y-62690475D02*
X36890533Y-62499999D01*
X36890533Y-62499999D02*
X37604819Y-62309523D01*
X37604819Y-62309523D02*
X36604819Y-62071428D01*
X36700057Y-61738094D02*
X36652438Y-61690475D01*
X36652438Y-61690475D02*
X36604819Y-61595237D01*
X36604819Y-61595237D02*
X36604819Y-61357142D01*
X36604819Y-61357142D02*
X36652438Y-61261904D01*
X36652438Y-61261904D02*
X36700057Y-61214285D01*
X36700057Y-61214285D02*
X36795295Y-61166666D01*
X36795295Y-61166666D02*
X36890533Y-61166666D01*
X36890533Y-61166666D02*
X37033390Y-61214285D01*
X37033390Y-61214285D02*
X37604819Y-61785713D01*
X37604819Y-61785713D02*
X37604819Y-61166666D01*
X45854819Y-126666666D02*
X45378628Y-126999999D01*
X45854819Y-127238094D02*
X44854819Y-127238094D01*
X44854819Y-127238094D02*
X44854819Y-126857142D01*
X44854819Y-126857142D02*
X44902438Y-126761904D01*
X44902438Y-126761904D02*
X44950057Y-126714285D01*
X44950057Y-126714285D02*
X45045295Y-126666666D01*
X45045295Y-126666666D02*
X45188152Y-126666666D01*
X45188152Y-126666666D02*
X45283390Y-126714285D01*
X45283390Y-126714285D02*
X45331009Y-126761904D01*
X45331009Y-126761904D02*
X45378628Y-126857142D01*
X45378628Y-126857142D02*
X45378628Y-127238094D01*
X44854819Y-125809523D02*
X44854819Y-125999999D01*
X44854819Y-125999999D02*
X44902438Y-126095237D01*
X44902438Y-126095237D02*
X44950057Y-126142856D01*
X44950057Y-126142856D02*
X45092914Y-126238094D01*
X45092914Y-126238094D02*
X45283390Y-126285713D01*
X45283390Y-126285713D02*
X45664342Y-126285713D01*
X45664342Y-126285713D02*
X45759580Y-126238094D01*
X45759580Y-126238094D02*
X45807200Y-126190475D01*
X45807200Y-126190475D02*
X45854819Y-126095237D01*
X45854819Y-126095237D02*
X45854819Y-125904761D01*
X45854819Y-125904761D02*
X45807200Y-125809523D01*
X45807200Y-125809523D02*
X45759580Y-125761904D01*
X45759580Y-125761904D02*
X45664342Y-125714285D01*
X45664342Y-125714285D02*
X45426247Y-125714285D01*
X45426247Y-125714285D02*
X45331009Y-125761904D01*
X45331009Y-125761904D02*
X45283390Y-125809523D01*
X45283390Y-125809523D02*
X45235771Y-125904761D01*
X45235771Y-125904761D02*
X45235771Y-126095237D01*
X45235771Y-126095237D02*
X45283390Y-126190475D01*
X45283390Y-126190475D02*
X45331009Y-126238094D01*
X45331009Y-126238094D02*
X45426247Y-126285713D01*
X60636666Y-122534819D02*
X60636666Y-123249104D01*
X60636666Y-123249104D02*
X60589047Y-123391961D01*
X60589047Y-123391961D02*
X60493809Y-123487200D01*
X60493809Y-123487200D02*
X60350952Y-123534819D01*
X60350952Y-123534819D02*
X60255714Y-123534819D01*
X61589047Y-122534819D02*
X61112857Y-122534819D01*
X61112857Y-122534819D02*
X61065238Y-123011009D01*
X61065238Y-123011009D02*
X61112857Y-122963390D01*
X61112857Y-122963390D02*
X61208095Y-122915771D01*
X61208095Y-122915771D02*
X61446190Y-122915771D01*
X61446190Y-122915771D02*
X61541428Y-122963390D01*
X61541428Y-122963390D02*
X61589047Y-123011009D01*
X61589047Y-123011009D02*
X61636666Y-123106247D01*
X61636666Y-123106247D02*
X61636666Y-123344342D01*
X61636666Y-123344342D02*
X61589047Y-123439580D01*
X61589047Y-123439580D02*
X61541428Y-123487200D01*
X61541428Y-123487200D02*
X61446190Y-123534819D01*
X61446190Y-123534819D02*
X61208095Y-123534819D01*
X61208095Y-123534819D02*
X61112857Y-123487200D01*
X61112857Y-123487200D02*
X61065238Y-123439580D01*
X48761905Y-47954819D02*
X48761905Y-46954819D01*
X48761905Y-46954819D02*
X49000000Y-46954819D01*
X49000000Y-46954819D02*
X49142857Y-47002438D01*
X49142857Y-47002438D02*
X49238095Y-47097676D01*
X49238095Y-47097676D02*
X49285714Y-47192914D01*
X49285714Y-47192914D02*
X49333333Y-47383390D01*
X49333333Y-47383390D02*
X49333333Y-47526247D01*
X49333333Y-47526247D02*
X49285714Y-47716723D01*
X49285714Y-47716723D02*
X49238095Y-47811961D01*
X49238095Y-47811961D02*
X49142857Y-47907200D01*
X49142857Y-47907200D02*
X49000000Y-47954819D01*
X49000000Y-47954819D02*
X48761905Y-47954819D01*
X50285714Y-47954819D02*
X49714286Y-47954819D01*
X50000000Y-47954819D02*
X50000000Y-46954819D01*
X50000000Y-46954819D02*
X49904762Y-47097676D01*
X49904762Y-47097676D02*
X49809524Y-47192914D01*
X49809524Y-47192914D02*
X49714286Y-47240533D01*
X30954819Y-133061904D02*
X31764342Y-133061904D01*
X31764342Y-133061904D02*
X31859580Y-133014285D01*
X31859580Y-133014285D02*
X31907200Y-132966666D01*
X31907200Y-132966666D02*
X31954819Y-132871428D01*
X31954819Y-132871428D02*
X31954819Y-132680952D01*
X31954819Y-132680952D02*
X31907200Y-132585714D01*
X31907200Y-132585714D02*
X31859580Y-132538095D01*
X31859580Y-132538095D02*
X31764342Y-132490476D01*
X31764342Y-132490476D02*
X30954819Y-132490476D01*
X31954819Y-131490476D02*
X31954819Y-132061904D01*
X31954819Y-131776190D02*
X30954819Y-131776190D01*
X30954819Y-131776190D02*
X31097676Y-131871428D01*
X31097676Y-131871428D02*
X31192914Y-131966666D01*
X31192914Y-131966666D02*
X31240533Y-132061904D01*
D11*
X56030000Y-91670000D02*
X57629000Y-91670000D01*
X56030000Y-91670000D02*
X56030000Y-87805000D01*
X59371000Y-91670000D02*
X60130000Y-91670000D01*
X61871000Y-91670000D02*
X62630000Y-91670000D01*
X64370000Y-91670000D02*
X65970000Y-91670000D01*
X65970000Y-91670000D02*
X65970000Y-87805000D01*
X56030000Y-83295000D02*
X56030000Y-79430000D01*
X65970000Y-83295000D02*
X65970000Y-79430000D01*
X56030000Y-79430000D02*
X65970000Y-79430000D01*
X56030000Y-114170000D02*
X57629000Y-114170000D01*
X56030000Y-114170000D02*
X56030000Y-110305000D01*
X59371000Y-114170000D02*
X60130000Y-114170000D01*
X61871000Y-114170000D02*
X62630000Y-114170000D01*
X64370000Y-114170000D02*
X65970000Y-114170000D01*
X65970000Y-114170000D02*
X65970000Y-110305000D01*
X56030000Y-105795000D02*
X56030000Y-101930000D01*
X65970000Y-105795000D02*
X65970000Y-101930000D01*
X56030000Y-101930000D02*
X65970000Y-101930000D01*
X50500000Y-123980000D02*
X50500000Y-134480000D01*
X53940000Y-121000000D02*
X53940000Y-121800000D01*
X53940000Y-121000000D02*
X54800000Y-121000000D01*
X54500000Y-134480000D02*
X50500000Y-134480000D01*
X54650000Y-123980000D02*
X50500000Y-123980000D01*
X59500000Y-123980000D02*
X55350000Y-123980000D01*
X59500000Y-123980000D02*
X59500000Y-134480000D01*
X59500000Y-134480000D02*
X55500000Y-134480000D01*
X56800000Y-128480000D02*
G75*
G03*
X56800000Y-128480000I-1800000J0D01*
G01*
X49850000Y-114100000D02*
X40150000Y-114100000D01*
X52850000Y-114100000D02*
X49850000Y-114100000D01*
X40150000Y-113900000D02*
X40150000Y-114100000D01*
X40150000Y-113500000D02*
X40150000Y-113900000D01*
X40150000Y-107500000D02*
X40150000Y-113500000D01*
X40150000Y-107500000D02*
X40150000Y-100900000D01*
X40150000Y-100900000D02*
X49850000Y-100900000D01*
X52850000Y-100900000D02*
X52850000Y-114100000D01*
X52850000Y-100900000D02*
X49850000Y-100900000D01*
X42400000Y-130540000D02*
X42400000Y-129770000D01*
X41030000Y-129770000D02*
X43770000Y-129770000D01*
X43770000Y-129770000D02*
X43770000Y-123230000D01*
X41030000Y-123230000D02*
X41030000Y-129770000D01*
X43770000Y-123230000D02*
X41030000Y-123230000D01*
X42400000Y-122460000D02*
X42400000Y-123230000D01*
X44435000Y-71101000D02*
X44435000Y-71420000D01*
X44435000Y-73580000D02*
X44435000Y-73899000D01*
X48738241Y-71419276D02*
G75*
G03*
X44435001Y-71101251I-2243241J-1080724D01*
G01*
X48177712Y-71419040D02*
G75*
G03*
X44811671Y-71420001I-1682712J-1080960D01*
G01*
X44811671Y-73579999D02*
G75*
G03*
X48177712Y-73580960I1683329J1079999D01*
G01*
X44435001Y-73898749D02*
G75*
G03*
X48738241Y-73580724I2059999J1398749D01*
G01*
X67040000Y-118500000D02*
X66270000Y-118500000D01*
X66270000Y-119870000D02*
X66270000Y-117130000D01*
X66270000Y-117130000D02*
X59730000Y-117130000D01*
X59730000Y-119870000D02*
X66270000Y-119870000D01*
X59730000Y-117130000D02*
X59730000Y-119870000D01*
X58960000Y-118500000D02*
X59730000Y-118500000D01*
X67040000Y-96000000D02*
X66270000Y-96000000D01*
X66270000Y-97370000D02*
X66270000Y-94630000D01*
X66270000Y-94630000D02*
X59730000Y-94630000D01*
X59730000Y-97370000D02*
X66270000Y-97370000D01*
X59730000Y-94630000D02*
X59730000Y-97370000D01*
X58960000Y-96000000D02*
X59730000Y-96000000D01*
X56030000Y-69170000D02*
X57629000Y-69170000D01*
X56030000Y-69170000D02*
X56030000Y-65305000D01*
X59371000Y-69170000D02*
X60130000Y-69170000D01*
X61871000Y-69170000D02*
X62630000Y-69170000D01*
X64370000Y-69170000D02*
X65970000Y-69170000D01*
X65970000Y-69170000D02*
X65970000Y-65305000D01*
X56030000Y-60795000D02*
X56030000Y-56930000D01*
X65970000Y-60795000D02*
X65970000Y-56930000D01*
X56030000Y-56930000D02*
X65970000Y-56930000D01*
X32960000Y-48500000D02*
X33730000Y-48500000D01*
X33730000Y-47130000D02*
X33730000Y-49870000D01*
X33730000Y-49870000D02*
X40270000Y-49870000D01*
X40270000Y-47130000D02*
X33730000Y-47130000D01*
X40270000Y-49870000D02*
X40270000Y-47130000D01*
X41040000Y-48500000D02*
X40270000Y-48500000D01*
X31000000Y-57980000D02*
X31000000Y-68480000D01*
X34440000Y-55000000D02*
X34440000Y-55800000D01*
X34440000Y-55000000D02*
X35300000Y-55000000D01*
X35000000Y-68480000D02*
X31000000Y-68480000D01*
X35150000Y-57980000D02*
X31000000Y-57980000D01*
X40000000Y-57980000D02*
X35850000Y-57980000D01*
X40000000Y-57980000D02*
X40000000Y-68480000D01*
X40000000Y-68480000D02*
X36000000Y-68480000D01*
X37300000Y-62480000D02*
G75*
G03*
X37300000Y-62480000I-1800000J0D01*
G01*
X32960000Y-116000000D02*
X33730000Y-116000000D01*
X33730000Y-114630000D02*
X33730000Y-117370000D01*
X33730000Y-117370000D02*
X40270000Y-117370000D01*
X40270000Y-114630000D02*
X33730000Y-114630000D01*
X40270000Y-117370000D02*
X40270000Y-114630000D01*
X41040000Y-116000000D02*
X40270000Y-116000000D01*
X44435000Y-93601000D02*
X44435000Y-93920000D01*
X44435000Y-96080000D02*
X44435000Y-96399000D01*
X48738241Y-93919276D02*
G75*
G03*
X44435001Y-93601251I-2243241J-1080724D01*
G01*
X48177712Y-93919040D02*
G75*
G03*
X44811671Y-93920001I-1682712J-1080960D01*
G01*
X44811671Y-96079999D02*
G75*
G03*
X48177712Y-96080960I1683329J1079999D01*
G01*
X44435001Y-96398749D02*
G75*
G03*
X48738241Y-96080724I2059999J1398749D01*
G01*
X31000000Y-80480000D02*
X31000000Y-90980000D01*
X34440000Y-77500000D02*
X34440000Y-78300000D01*
X34440000Y-77500000D02*
X35300000Y-77500000D01*
X35000000Y-90980000D02*
X31000000Y-90980000D01*
X35150000Y-80480000D02*
X31000000Y-80480000D01*
X40000000Y-80480000D02*
X35850000Y-80480000D01*
X40000000Y-80480000D02*
X40000000Y-90980000D01*
X40000000Y-90980000D02*
X36000000Y-90980000D01*
X37300000Y-84980000D02*
G75*
G03*
X37300000Y-84980000I-1800000J0D01*
G01*
X31000000Y-102980000D02*
X31000000Y-113480000D01*
X34440000Y-100000000D02*
X34440000Y-100800000D01*
X34440000Y-100000000D02*
X35300000Y-100000000D01*
X35000000Y-113480000D02*
X31000000Y-113480000D01*
X35150000Y-102980000D02*
X31000000Y-102980000D01*
X40000000Y-102980000D02*
X35850000Y-102980000D01*
X40000000Y-102980000D02*
X40000000Y-113480000D01*
X40000000Y-113480000D02*
X36000000Y-113480000D01*
X37300000Y-107480000D02*
G75*
G03*
X37300000Y-107480000I-1800000J0D01*
G01*
X32960000Y-71000000D02*
X33730000Y-71000000D01*
X33730000Y-69630000D02*
X33730000Y-72370000D01*
X33730000Y-72370000D02*
X40270000Y-72370000D01*
X40270000Y-69630000D02*
X33730000Y-69630000D01*
X40270000Y-72370000D02*
X40270000Y-69630000D01*
X41040000Y-71000000D02*
X40270000Y-71000000D01*
X31000000Y-35480000D02*
X31000000Y-45980000D01*
X34440000Y-32500000D02*
X34440000Y-33300000D01*
X34440000Y-32500000D02*
X35300000Y-32500000D01*
X35000000Y-45980000D02*
X31000000Y-45980000D01*
X35150000Y-35480000D02*
X31000000Y-35480000D01*
X40000000Y-35480000D02*
X35850000Y-35480000D01*
X40000000Y-35480000D02*
X40000000Y-45980000D01*
X40000000Y-45980000D02*
X36000000Y-45980000D01*
X37300000Y-39980000D02*
G75*
G03*
X37300000Y-39980000I-1800000J0D01*
G01*
X48400000Y-130540000D02*
X48400000Y-129770000D01*
X47030000Y-129770000D02*
X49770000Y-129770000D01*
X49770000Y-129770000D02*
X49770000Y-123230000D01*
X47030000Y-123230000D02*
X47030000Y-129770000D01*
X49770000Y-123230000D02*
X47030000Y-123230000D01*
X48400000Y-122460000D02*
X48400000Y-123230000D01*
X49850000Y-46600000D02*
X40150000Y-46600000D01*
X52850000Y-46600000D02*
X49850000Y-46600000D01*
X40150000Y-46400000D02*
X40150000Y-46600000D01*
X40150000Y-46000000D02*
X40150000Y-46400000D01*
X40150000Y-40000000D02*
X40150000Y-46000000D01*
X40150000Y-40000000D02*
X40150000Y-33400000D01*
X40150000Y-33400000D02*
X49850000Y-33400000D01*
X52850000Y-33400000D02*
X52850000Y-46600000D01*
X52850000Y-33400000D02*
X49850000Y-33400000D01*
X56030000Y-46670000D02*
X57629000Y-46670000D01*
X56030000Y-46670000D02*
X56030000Y-42805000D01*
X59371000Y-46670000D02*
X60130000Y-46670000D01*
X61871000Y-46670000D02*
X62630000Y-46670000D01*
X64370000Y-46670000D02*
X65970000Y-46670000D01*
X65970000Y-46670000D02*
X65970000Y-42805000D01*
X56030000Y-38295000D02*
X56030000Y-34430000D01*
X65970000Y-38295000D02*
X65970000Y-34430000D01*
X56030000Y-34430000D02*
X65970000Y-34430000D01*
X32960000Y-93500000D02*
X33730000Y-93500000D01*
X33730000Y-92130000D02*
X33730000Y-94870000D01*
X33730000Y-94870000D02*
X40270000Y-94870000D01*
X40270000Y-92130000D02*
X33730000Y-92130000D01*
X40270000Y-94870000D02*
X40270000Y-92130000D01*
X41040000Y-93500000D02*
X40270000Y-93500000D01*
X44435000Y-116101000D02*
X44435000Y-116420000D01*
X44435000Y-118580000D02*
X44435000Y-118899000D01*
X48738241Y-116419276D02*
G75*
G03*
X44435001Y-116101251I-2243241J-1080724D01*
G01*
X48177712Y-116419040D02*
G75*
G03*
X44811671Y-116420001I-1682712J-1080960D01*
G01*
X44811671Y-118579999D02*
G75*
G03*
X48177712Y-118580960I1683329J1079999D01*
G01*
X44435001Y-118898749D02*
G75*
G03*
X48738241Y-118580724I2059999J1398749D01*
G01*
X67040000Y-73500000D02*
X66270000Y-73500000D01*
X66270000Y-74870000D02*
X66270000Y-72130000D01*
X66270000Y-72130000D02*
X59730000Y-72130000D01*
X59730000Y-74870000D02*
X66270000Y-74870000D01*
X59730000Y-72130000D02*
X59730000Y-74870000D01*
X58960000Y-73500000D02*
X59730000Y-73500000D01*
X67040000Y-51000000D02*
X66270000Y-51000000D01*
X66270000Y-52370000D02*
X66270000Y-49630000D01*
X66270000Y-49630000D02*
X59730000Y-49630000D01*
X59730000Y-52370000D02*
X66270000Y-52370000D01*
X59730000Y-49630000D02*
X59730000Y-52370000D01*
X58960000Y-51000000D02*
X59730000Y-51000000D01*
X49850000Y-91600000D02*
X40150000Y-91600000D01*
X52850000Y-91600000D02*
X49850000Y-91600000D01*
X40150000Y-91400000D02*
X40150000Y-91600000D01*
X40150000Y-91000000D02*
X40150000Y-91400000D01*
X40150000Y-85000000D02*
X40150000Y-91000000D01*
X40150000Y-85000000D02*
X40150000Y-78400000D01*
X40150000Y-78400000D02*
X49850000Y-78400000D01*
X52850000Y-78400000D02*
X52850000Y-91600000D01*
X52850000Y-78400000D02*
X49850000Y-78400000D01*
X49850000Y-69100000D02*
X40150000Y-69100000D01*
X52850000Y-69100000D02*
X49850000Y-69100000D01*
X40150000Y-68900000D02*
X40150000Y-69100000D01*
X40150000Y-68500000D02*
X40150000Y-68900000D01*
X40150000Y-62500000D02*
X40150000Y-68500000D01*
X40150000Y-62500000D02*
X40150000Y-55900000D01*
X40150000Y-55900000D02*
X49850000Y-55900000D01*
X52850000Y-55900000D02*
X52850000Y-69100000D01*
X52850000Y-55900000D02*
X49850000Y-55900000D01*
X45400000Y-122460000D02*
X45400000Y-123230000D01*
X46770000Y-123230000D02*
X44030000Y-123230000D01*
X44030000Y-123230000D02*
X44030000Y-129770000D01*
X46770000Y-129770000D02*
X46770000Y-123230000D01*
X44030000Y-129770000D02*
X46770000Y-129770000D01*
X45400000Y-130540000D02*
X45400000Y-129770000D01*
X60500000Y-123980000D02*
X60500000Y-134480000D01*
X63940000Y-121000000D02*
X63940000Y-121800000D01*
X63940000Y-121000000D02*
X64800000Y-121000000D01*
X64500000Y-134480000D02*
X60500000Y-134480000D01*
X64650000Y-123980000D02*
X60500000Y-123980000D01*
X69500000Y-123980000D02*
X65350000Y-123980000D01*
X69500000Y-123980000D02*
X69500000Y-134480000D01*
X69500000Y-134480000D02*
X65500000Y-134480000D01*
X66800000Y-128480000D02*
G75*
G03*
X66800000Y-128480000I-1800000J0D01*
G01*
X44435000Y-48601000D02*
X44435000Y-48920000D01*
X44435000Y-51080000D02*
X44435000Y-51399000D01*
X48738241Y-48919276D02*
G75*
G03*
X44435001Y-48601251I-2243241J-1080724D01*
G01*
X48177712Y-48919040D02*
G75*
G03*
X44811671Y-48920001I-1682712J-1080960D01*
G01*
X44811671Y-51079999D02*
G75*
G03*
X48177712Y-51080960I1683329J1079999D01*
G01*
X44435001Y-51398749D02*
G75*
G03*
X48738241Y-51080724I2059999J1398749D01*
G01*
X30310000Y-130930000D02*
X40710000Y-130930000D01*
X40710000Y-130930000D02*
X40710000Y-120650000D01*
X30370000Y-128440000D02*
X40650000Y-128440000D01*
X40650000Y-128440000D02*
X40650000Y-123140000D01*
X30370000Y-126790000D02*
X30370000Y-128440000D01*
X30370000Y-123140000D02*
X30370000Y-124790000D01*
X40650000Y-123140000D02*
X30370000Y-123140000D01*
X30310000Y-120650000D02*
X30310000Y-130930000D01*
X40710000Y-120650000D02*
X30310000Y-120650000D01*
X30370000Y-126790000D02*
G75*
G03*
X30370000Y-124790000I0J1000000D01*
G01*
%LPC*%
D12*
X56600000Y-85550000D03*
X65400000Y-85550000D03*
D13*
X58500000Y-92550000D03*
X61000000Y-92550000D03*
X63500000Y-92550000D03*
D12*
X56600000Y-108050000D03*
X65400000Y-108050000D03*
D13*
X58500000Y-115050000D03*
X61000000Y-115050000D03*
X63500000Y-115050000D03*
D14*
X55000000Y-122000000D03*
D15*
X55000000Y-133400000D03*
X55000000Y-125100000D03*
D16*
X44100000Y-102800000D03*
X44100000Y-107500000D03*
X44100000Y-112200000D03*
X48900000Y-102800000D03*
X48900000Y-107500000D03*
X48900000Y-112200000D03*
D17*
X42400000Y-131580000D03*
D18*
X42400000Y-121420000D03*
D19*
X45225000Y-72500000D03*
D13*
X47765000Y-72500000D03*
D17*
X68080000Y-118500000D03*
D18*
X57920000Y-118500000D03*
D17*
X68080000Y-96000000D03*
D18*
X57920000Y-96000000D03*
D12*
X56600000Y-63050000D03*
X65400000Y-63050000D03*
D13*
X58500000Y-70050000D03*
X61000000Y-70050000D03*
X63500000Y-70050000D03*
D17*
X31920000Y-48500000D03*
D18*
X42080000Y-48500000D03*
D14*
X35500000Y-56000000D03*
D15*
X35500000Y-67400000D03*
X35500000Y-59100000D03*
D17*
X31920000Y-116000000D03*
D18*
X42080000Y-116000000D03*
D19*
X45225000Y-95000000D03*
D13*
X47765000Y-95000000D03*
D14*
X35500000Y-78500000D03*
D15*
X35500000Y-89900000D03*
X35500000Y-81600000D03*
D14*
X35500000Y-101000000D03*
D15*
X35500000Y-112400000D03*
X35500000Y-104100000D03*
D17*
X31920000Y-71000000D03*
D18*
X42080000Y-71000000D03*
D14*
X35500000Y-33500000D03*
D15*
X35500000Y-44900000D03*
X35500000Y-36600000D03*
D17*
X48400000Y-131580000D03*
D18*
X48400000Y-121420000D03*
D16*
X44100000Y-35300000D03*
X44100000Y-40000000D03*
X44100000Y-44700000D03*
X48900000Y-35300000D03*
X48900000Y-40000000D03*
X48900000Y-44700000D03*
D12*
X56600000Y-40550000D03*
X65400000Y-40550000D03*
D13*
X58500000Y-47550000D03*
X61000000Y-47550000D03*
X63500000Y-47550000D03*
D17*
X31920000Y-93500000D03*
D18*
X42080000Y-93500000D03*
D19*
X45225000Y-117500000D03*
D13*
X47765000Y-117500000D03*
D17*
X68080000Y-73500000D03*
D18*
X57920000Y-73500000D03*
D17*
X68080000Y-51000000D03*
D18*
X57920000Y-51000000D03*
D16*
X44100000Y-80300000D03*
X44100000Y-85000000D03*
X44100000Y-89700000D03*
X48900000Y-80300000D03*
X48900000Y-85000000D03*
X48900000Y-89700000D03*
X44100000Y-57800000D03*
X44100000Y-62500000D03*
X44100000Y-67200000D03*
X48900000Y-57800000D03*
X48900000Y-62500000D03*
X48900000Y-67200000D03*
D17*
X45400000Y-121420000D03*
D18*
X45400000Y-131580000D03*
D14*
X65000000Y-122000000D03*
D15*
X65000000Y-133400000D03*
X65000000Y-125100000D03*
D19*
X45225000Y-50000000D03*
D13*
X47765000Y-50000000D03*
D20*
X31700000Y-129600000D03*
D18*
X34240000Y-129600000D03*
X36780000Y-129600000D03*
X39320000Y-129600000D03*
X39320000Y-121980000D03*
X36780000Y-121980000D03*
X34240000Y-121980000D03*
X31700000Y-121980000D03*
D20*
X35744888Y-118400000D03*
D17*
X37744888Y-118400000D03*
D20*
X55600000Y-137900000D03*
D17*
X53600000Y-137900000D03*
G36*
G01*
X34720000Y-134850000D02*
X35920000Y-134850000D01*
G75*
G02*
X36170000Y-135100000I0J-250000D01*
G01*
X36170000Y-136300000D01*
G75*
G02*
X35920000Y-136550000I-250000J0D01*
G01*
X34720000Y-136550000D01*
G75*
G02*
X34470000Y-136300000I0J250000D01*
G01*
X34470000Y-135100000D01*
G75*
G02*
X34720000Y-134850000I250000J0D01*
G01*
G37*
D21*
X35320000Y-138240000D03*
X37860000Y-135700000D03*
X37860000Y-138240000D03*
X40400000Y-135700000D03*
X40400000Y-138240000D03*
X42940000Y-135700000D03*
X42940000Y-138240000D03*
X45480000Y-135700000D03*
X45480000Y-138240000D03*
%LPD*%
M02*
