G04 #@! TF.GenerationSoftware,KiCad,Pcbnew,7.0.7-7.0.7~ubuntu22.04.1*
G04 #@! TF.CreationDate,2023-10-13T14:43:24+01:00*
G04 #@! TF.ProjectId,Basic-DC-mixer,42617369-632d-4444-932d-6d697865722e,rev?*
G04 #@! TF.SameCoordinates,Original*
G04 #@! TF.FileFunction,Legend,Bot*
G04 #@! TF.FilePolarity,Positive*
%FSLAX46Y46*%
G04 Gerber Fmt 4.6, Leading zero omitted, Abs format (unit mm)*
G04 Created by KiCad (PCBNEW 7.0.7-7.0.7~ubuntu22.04.1) date 2023-10-13 14:43:24*
%MOMM*%
%LPD*%
G01*
G04 APERTURE LIST*
%ADD10C,0.150000*%
%ADD11C,0.100000*%
%ADD12O,6.700000X4.200000*%
G04 APERTURE END LIST*
D10*
X82445180Y-110600000D02*
X83445180Y-110600000D01*
X83445180Y-110600000D02*
X83445180Y-110361905D01*
X83445180Y-110361905D02*
X83397561Y-110219048D01*
X83397561Y-110219048D02*
X83302323Y-110123810D01*
X83302323Y-110123810D02*
X83207085Y-110076191D01*
X83207085Y-110076191D02*
X83016609Y-110028572D01*
X83016609Y-110028572D02*
X82873752Y-110028572D01*
X82873752Y-110028572D02*
X82683276Y-110076191D01*
X82683276Y-110076191D02*
X82588038Y-110123810D01*
X82588038Y-110123810D02*
X82492800Y-110219048D01*
X82492800Y-110219048D02*
X82445180Y-110361905D01*
X82445180Y-110361905D02*
X82445180Y-110600000D01*
X82540419Y-109028572D02*
X82492800Y-109076191D01*
X82492800Y-109076191D02*
X82445180Y-109219048D01*
X82445180Y-109219048D02*
X82445180Y-109314286D01*
X82445180Y-109314286D02*
X82492800Y-109457143D01*
X82492800Y-109457143D02*
X82588038Y-109552381D01*
X82588038Y-109552381D02*
X82683276Y-109600000D01*
X82683276Y-109600000D02*
X82873752Y-109647619D01*
X82873752Y-109647619D02*
X83016609Y-109647619D01*
X83016609Y-109647619D02*
X83207085Y-109600000D01*
X83207085Y-109600000D02*
X83302323Y-109552381D01*
X83302323Y-109552381D02*
X83397561Y-109457143D01*
X83397561Y-109457143D02*
X83445180Y-109314286D01*
X83445180Y-109314286D02*
X83445180Y-109219048D01*
X83445180Y-109219048D02*
X83397561Y-109076191D01*
X83397561Y-109076191D02*
X83349942Y-109028572D01*
X82492800Y-107409524D02*
X82445180Y-107504762D01*
X82445180Y-107504762D02*
X82445180Y-107695238D01*
X82445180Y-107695238D02*
X82492800Y-107790476D01*
X82492800Y-107790476D02*
X82540419Y-107838095D01*
X82540419Y-107838095D02*
X82635657Y-107885714D01*
X82635657Y-107885714D02*
X82921371Y-107885714D01*
X82921371Y-107885714D02*
X83016609Y-107838095D01*
X83016609Y-107838095D02*
X83064228Y-107790476D01*
X83064228Y-107790476D02*
X83111847Y-107695238D01*
X83111847Y-107695238D02*
X83111847Y-107504762D01*
X83111847Y-107504762D02*
X83064228Y-107409524D01*
X82445180Y-106838095D02*
X82492800Y-106933333D01*
X82492800Y-106933333D02*
X82540419Y-106980952D01*
X82540419Y-106980952D02*
X82635657Y-107028571D01*
X82635657Y-107028571D02*
X82921371Y-107028571D01*
X82921371Y-107028571D02*
X83016609Y-106980952D01*
X83016609Y-106980952D02*
X83064228Y-106933333D01*
X83064228Y-106933333D02*
X83111847Y-106838095D01*
X83111847Y-106838095D02*
X83111847Y-106695238D01*
X83111847Y-106695238D02*
X83064228Y-106600000D01*
X83064228Y-106600000D02*
X83016609Y-106552381D01*
X83016609Y-106552381D02*
X82921371Y-106504762D01*
X82921371Y-106504762D02*
X82635657Y-106504762D01*
X82635657Y-106504762D02*
X82540419Y-106552381D01*
X82540419Y-106552381D02*
X82492800Y-106600000D01*
X82492800Y-106600000D02*
X82445180Y-106695238D01*
X82445180Y-106695238D02*
X82445180Y-106838095D01*
X83111847Y-105647619D02*
X82445180Y-105647619D01*
X83111847Y-106076190D02*
X82588038Y-106076190D01*
X82588038Y-106076190D02*
X82492800Y-106028571D01*
X82492800Y-106028571D02*
X82445180Y-105933333D01*
X82445180Y-105933333D02*
X82445180Y-105790476D01*
X82445180Y-105790476D02*
X82492800Y-105695238D01*
X82492800Y-105695238D02*
X82540419Y-105647619D01*
X83111847Y-105171428D02*
X82111847Y-105171428D01*
X83064228Y-105171428D02*
X83111847Y-105076190D01*
X83111847Y-105076190D02*
X83111847Y-104885714D01*
X83111847Y-104885714D02*
X83064228Y-104790476D01*
X83064228Y-104790476D02*
X83016609Y-104742857D01*
X83016609Y-104742857D02*
X82921371Y-104695238D01*
X82921371Y-104695238D02*
X82635657Y-104695238D01*
X82635657Y-104695238D02*
X82540419Y-104742857D01*
X82540419Y-104742857D02*
X82492800Y-104790476D01*
X82492800Y-104790476D02*
X82445180Y-104885714D01*
X82445180Y-104885714D02*
X82445180Y-105076190D01*
X82445180Y-105076190D02*
X82492800Y-105171428D01*
X82445180Y-104123809D02*
X82492800Y-104219047D01*
X82492800Y-104219047D02*
X82588038Y-104266666D01*
X82588038Y-104266666D02*
X83445180Y-104266666D01*
X82492800Y-103361904D02*
X82445180Y-103457142D01*
X82445180Y-103457142D02*
X82445180Y-103647618D01*
X82445180Y-103647618D02*
X82492800Y-103742856D01*
X82492800Y-103742856D02*
X82588038Y-103790475D01*
X82588038Y-103790475D02*
X82968990Y-103790475D01*
X82968990Y-103790475D02*
X83064228Y-103742856D01*
X83064228Y-103742856D02*
X83111847Y-103647618D01*
X83111847Y-103647618D02*
X83111847Y-103457142D01*
X83111847Y-103457142D02*
X83064228Y-103361904D01*
X83064228Y-103361904D02*
X82968990Y-103314285D01*
X82968990Y-103314285D02*
X82873752Y-103314285D01*
X82873752Y-103314285D02*
X82778514Y-103790475D01*
X82445180Y-102457142D02*
X83445180Y-102457142D01*
X82492800Y-102457142D02*
X82445180Y-102552380D01*
X82445180Y-102552380D02*
X82445180Y-102742856D01*
X82445180Y-102742856D02*
X82492800Y-102838094D01*
X82492800Y-102838094D02*
X82540419Y-102885713D01*
X82540419Y-102885713D02*
X82635657Y-102933332D01*
X82635657Y-102933332D02*
X82921371Y-102933332D01*
X82921371Y-102933332D02*
X83016609Y-102885713D01*
X83016609Y-102885713D02*
X83064228Y-102838094D01*
X83064228Y-102838094D02*
X83111847Y-102742856D01*
X83111847Y-102742856D02*
X83111847Y-102552380D01*
X83111847Y-102552380D02*
X83064228Y-102457142D01*
X82445180Y-101219046D02*
X83111847Y-101219046D01*
X83016609Y-101219046D02*
X83064228Y-101171427D01*
X83064228Y-101171427D02*
X83111847Y-101076189D01*
X83111847Y-101076189D02*
X83111847Y-100933332D01*
X83111847Y-100933332D02*
X83064228Y-100838094D01*
X83064228Y-100838094D02*
X82968990Y-100790475D01*
X82968990Y-100790475D02*
X82445180Y-100790475D01*
X82968990Y-100790475D02*
X83064228Y-100742856D01*
X83064228Y-100742856D02*
X83111847Y-100647618D01*
X83111847Y-100647618D02*
X83111847Y-100504761D01*
X83111847Y-100504761D02*
X83064228Y-100409522D01*
X83064228Y-100409522D02*
X82968990Y-100361903D01*
X82968990Y-100361903D02*
X82445180Y-100361903D01*
X82445180Y-99885713D02*
X83111847Y-99885713D01*
X83445180Y-99885713D02*
X83397561Y-99933332D01*
X83397561Y-99933332D02*
X83349942Y-99885713D01*
X83349942Y-99885713D02*
X83397561Y-99838094D01*
X83397561Y-99838094D02*
X83445180Y-99885713D01*
X83445180Y-99885713D02*
X83349942Y-99885713D01*
X82445180Y-99504761D02*
X83111847Y-98980952D01*
X83111847Y-99504761D02*
X82445180Y-98980952D01*
X82492800Y-98219047D02*
X82445180Y-98314285D01*
X82445180Y-98314285D02*
X82445180Y-98504761D01*
X82445180Y-98504761D02*
X82492800Y-98599999D01*
X82492800Y-98599999D02*
X82588038Y-98647618D01*
X82588038Y-98647618D02*
X82968990Y-98647618D01*
X82968990Y-98647618D02*
X83064228Y-98599999D01*
X83064228Y-98599999D02*
X83111847Y-98504761D01*
X83111847Y-98504761D02*
X83111847Y-98314285D01*
X83111847Y-98314285D02*
X83064228Y-98219047D01*
X83064228Y-98219047D02*
X82968990Y-98171428D01*
X82968990Y-98171428D02*
X82873752Y-98171428D01*
X82873752Y-98171428D02*
X82778514Y-98647618D01*
X82445180Y-97742856D02*
X83111847Y-97742856D01*
X82921371Y-97742856D02*
X83016609Y-97695237D01*
X83016609Y-97695237D02*
X83064228Y-97647618D01*
X83064228Y-97647618D02*
X83111847Y-97552380D01*
X83111847Y-97552380D02*
X83111847Y-97457142D01*
X83345180Y-95247619D02*
X82345180Y-94914286D01*
X82345180Y-94914286D02*
X83345180Y-94580953D01*
X82345180Y-93723810D02*
X82345180Y-94295238D01*
X82345180Y-94009524D02*
X83345180Y-94009524D01*
X83345180Y-94009524D02*
X83202323Y-94104762D01*
X83202323Y-94104762D02*
X83107085Y-94200000D01*
X83107085Y-94200000D02*
X83059466Y-94295238D01*
X82440419Y-93295238D02*
X82392800Y-93247619D01*
X82392800Y-93247619D02*
X82345180Y-93295238D01*
X82345180Y-93295238D02*
X82392800Y-93342857D01*
X82392800Y-93342857D02*
X82440419Y-93295238D01*
X82440419Y-93295238D02*
X82345180Y-93295238D01*
X83249942Y-92866667D02*
X83297561Y-92819048D01*
X83297561Y-92819048D02*
X83345180Y-92723810D01*
X83345180Y-92723810D02*
X83345180Y-92485715D01*
X83345180Y-92485715D02*
X83297561Y-92390477D01*
X83297561Y-92390477D02*
X83249942Y-92342858D01*
X83249942Y-92342858D02*
X83154704Y-92295239D01*
X83154704Y-92295239D02*
X83059466Y-92295239D01*
X83059466Y-92295239D02*
X82916609Y-92342858D01*
X82916609Y-92342858D02*
X82345180Y-92914286D01*
X82345180Y-92914286D02*
X82345180Y-92295239D01*
X82868990Y-90771429D02*
X82821371Y-90628572D01*
X82821371Y-90628572D02*
X82773752Y-90580953D01*
X82773752Y-90580953D02*
X82678514Y-90533334D01*
X82678514Y-90533334D02*
X82535657Y-90533334D01*
X82535657Y-90533334D02*
X82440419Y-90580953D01*
X82440419Y-90580953D02*
X82392800Y-90628572D01*
X82392800Y-90628572D02*
X82345180Y-90723810D01*
X82345180Y-90723810D02*
X82345180Y-91104762D01*
X82345180Y-91104762D02*
X83345180Y-91104762D01*
X83345180Y-91104762D02*
X83345180Y-90771429D01*
X83345180Y-90771429D02*
X83297561Y-90676191D01*
X83297561Y-90676191D02*
X83249942Y-90628572D01*
X83249942Y-90628572D02*
X83154704Y-90580953D01*
X83154704Y-90580953D02*
X83059466Y-90580953D01*
X83059466Y-90580953D02*
X82964228Y-90628572D01*
X82964228Y-90628572D02*
X82916609Y-90676191D01*
X82916609Y-90676191D02*
X82868990Y-90771429D01*
X82868990Y-90771429D02*
X82868990Y-91104762D01*
X82345180Y-89961905D02*
X82392800Y-90057143D01*
X82392800Y-90057143D02*
X82488038Y-90104762D01*
X82488038Y-90104762D02*
X83345180Y-90104762D01*
X82392800Y-89200000D02*
X82345180Y-89295238D01*
X82345180Y-89295238D02*
X82345180Y-89485714D01*
X82345180Y-89485714D02*
X82392800Y-89580952D01*
X82392800Y-89580952D02*
X82488038Y-89628571D01*
X82488038Y-89628571D02*
X82868990Y-89628571D01*
X82868990Y-89628571D02*
X82964228Y-89580952D01*
X82964228Y-89580952D02*
X83011847Y-89485714D01*
X83011847Y-89485714D02*
X83011847Y-89295238D01*
X83011847Y-89295238D02*
X82964228Y-89200000D01*
X82964228Y-89200000D02*
X82868990Y-89152381D01*
X82868990Y-89152381D02*
X82773752Y-89152381D01*
X82773752Y-89152381D02*
X82678514Y-89628571D01*
X82392800Y-88342857D02*
X82345180Y-88438095D01*
X82345180Y-88438095D02*
X82345180Y-88628571D01*
X82345180Y-88628571D02*
X82392800Y-88723809D01*
X82392800Y-88723809D02*
X82488038Y-88771428D01*
X82488038Y-88771428D02*
X82868990Y-88771428D01*
X82868990Y-88771428D02*
X82964228Y-88723809D01*
X82964228Y-88723809D02*
X83011847Y-88628571D01*
X83011847Y-88628571D02*
X83011847Y-88438095D01*
X83011847Y-88438095D02*
X82964228Y-88342857D01*
X82964228Y-88342857D02*
X82868990Y-88295238D01*
X82868990Y-88295238D02*
X82773752Y-88295238D01*
X82773752Y-88295238D02*
X82678514Y-88771428D01*
X83011847Y-87866666D02*
X82011847Y-87866666D01*
X82964228Y-87866666D02*
X83011847Y-87771428D01*
X83011847Y-87771428D02*
X83011847Y-87580952D01*
X83011847Y-87580952D02*
X82964228Y-87485714D01*
X82964228Y-87485714D02*
X82916609Y-87438095D01*
X82916609Y-87438095D02*
X82821371Y-87390476D01*
X82821371Y-87390476D02*
X82535657Y-87390476D01*
X82535657Y-87390476D02*
X82440419Y-87438095D01*
X82440419Y-87438095D02*
X82392800Y-87485714D01*
X82392800Y-87485714D02*
X82345180Y-87580952D01*
X82345180Y-87580952D02*
X82345180Y-87771428D01*
X82345180Y-87771428D02*
X82392800Y-87866666D01*
X82392800Y-87009523D02*
X82345180Y-86866666D01*
X82345180Y-86866666D02*
X82345180Y-86628571D01*
X82345180Y-86628571D02*
X82392800Y-86533333D01*
X82392800Y-86533333D02*
X82440419Y-86485714D01*
X82440419Y-86485714D02*
X82535657Y-86438095D01*
X82535657Y-86438095D02*
X82630895Y-86438095D01*
X82630895Y-86438095D02*
X82726133Y-86485714D01*
X82726133Y-86485714D02*
X82773752Y-86533333D01*
X82773752Y-86533333D02*
X82821371Y-86628571D01*
X82821371Y-86628571D02*
X82868990Y-86819047D01*
X82868990Y-86819047D02*
X82916609Y-86914285D01*
X82916609Y-86914285D02*
X82964228Y-86961904D01*
X82964228Y-86961904D02*
X83059466Y-87009523D01*
X83059466Y-87009523D02*
X83154704Y-87009523D01*
X83154704Y-87009523D02*
X83249942Y-86961904D01*
X83249942Y-86961904D02*
X83297561Y-86914285D01*
X83297561Y-86914285D02*
X83345180Y-86819047D01*
X83345180Y-86819047D02*
X83345180Y-86580952D01*
X83345180Y-86580952D02*
X83297561Y-86438095D01*
X82345180Y-85866666D02*
X82392800Y-85961904D01*
X82392800Y-85961904D02*
X82440419Y-86009523D01*
X82440419Y-86009523D02*
X82535657Y-86057142D01*
X82535657Y-86057142D02*
X82821371Y-86057142D01*
X82821371Y-86057142D02*
X82916609Y-86009523D01*
X82916609Y-86009523D02*
X82964228Y-85961904D01*
X82964228Y-85961904D02*
X83011847Y-85866666D01*
X83011847Y-85866666D02*
X83011847Y-85723809D01*
X83011847Y-85723809D02*
X82964228Y-85628571D01*
X82964228Y-85628571D02*
X82916609Y-85580952D01*
X82916609Y-85580952D02*
X82821371Y-85533333D01*
X82821371Y-85533333D02*
X82535657Y-85533333D01*
X82535657Y-85533333D02*
X82440419Y-85580952D01*
X82440419Y-85580952D02*
X82392800Y-85628571D01*
X82392800Y-85628571D02*
X82345180Y-85723809D01*
X82345180Y-85723809D02*
X82345180Y-85866666D01*
X83011847Y-84676190D02*
X82345180Y-84676190D01*
X83011847Y-85104761D02*
X82488038Y-85104761D01*
X82488038Y-85104761D02*
X82392800Y-85057142D01*
X82392800Y-85057142D02*
X82345180Y-84961904D01*
X82345180Y-84961904D02*
X82345180Y-84819047D01*
X82345180Y-84819047D02*
X82392800Y-84723809D01*
X82392800Y-84723809D02*
X82440419Y-84676190D01*
X83011847Y-84199999D02*
X82345180Y-84199999D01*
X82916609Y-84199999D02*
X82964228Y-84152380D01*
X82964228Y-84152380D02*
X83011847Y-84057142D01*
X83011847Y-84057142D02*
X83011847Y-83914285D01*
X83011847Y-83914285D02*
X82964228Y-83819047D01*
X82964228Y-83819047D02*
X82868990Y-83771428D01*
X82868990Y-83771428D02*
X82345180Y-83771428D01*
X82345180Y-82866666D02*
X83345180Y-82866666D01*
X82392800Y-82866666D02*
X82345180Y-82961904D01*
X82345180Y-82961904D02*
X82345180Y-83152380D01*
X82345180Y-83152380D02*
X82392800Y-83247618D01*
X82392800Y-83247618D02*
X82440419Y-83295237D01*
X82440419Y-83295237D02*
X82535657Y-83342856D01*
X82535657Y-83342856D02*
X82821371Y-83342856D01*
X82821371Y-83342856D02*
X82916609Y-83295237D01*
X82916609Y-83295237D02*
X82964228Y-83247618D01*
X82964228Y-83247618D02*
X83011847Y-83152380D01*
X83011847Y-83152380D02*
X83011847Y-82961904D01*
X83011847Y-82961904D02*
X82964228Y-82866666D01*
X83249942Y-81676189D02*
X83297561Y-81628570D01*
X83297561Y-81628570D02*
X83345180Y-81533332D01*
X83345180Y-81533332D02*
X83345180Y-81295237D01*
X83345180Y-81295237D02*
X83297561Y-81199999D01*
X83297561Y-81199999D02*
X83249942Y-81152380D01*
X83249942Y-81152380D02*
X83154704Y-81104761D01*
X83154704Y-81104761D02*
X83059466Y-81104761D01*
X83059466Y-81104761D02*
X82916609Y-81152380D01*
X82916609Y-81152380D02*
X82345180Y-81723808D01*
X82345180Y-81723808D02*
X82345180Y-81104761D01*
X83345180Y-80485713D02*
X83345180Y-80390475D01*
X83345180Y-80390475D02*
X83297561Y-80295237D01*
X83297561Y-80295237D02*
X83249942Y-80247618D01*
X83249942Y-80247618D02*
X83154704Y-80199999D01*
X83154704Y-80199999D02*
X82964228Y-80152380D01*
X82964228Y-80152380D02*
X82726133Y-80152380D01*
X82726133Y-80152380D02*
X82535657Y-80199999D01*
X82535657Y-80199999D02*
X82440419Y-80247618D01*
X82440419Y-80247618D02*
X82392800Y-80295237D01*
X82392800Y-80295237D02*
X82345180Y-80390475D01*
X82345180Y-80390475D02*
X82345180Y-80485713D01*
X82345180Y-80485713D02*
X82392800Y-80580951D01*
X82392800Y-80580951D02*
X82440419Y-80628570D01*
X82440419Y-80628570D02*
X82535657Y-80676189D01*
X82535657Y-80676189D02*
X82726133Y-80723808D01*
X82726133Y-80723808D02*
X82964228Y-80723808D01*
X82964228Y-80723808D02*
X83154704Y-80676189D01*
X83154704Y-80676189D02*
X83249942Y-80628570D01*
X83249942Y-80628570D02*
X83297561Y-80580951D01*
X83297561Y-80580951D02*
X83345180Y-80485713D01*
X83249942Y-79771427D02*
X83297561Y-79723808D01*
X83297561Y-79723808D02*
X83345180Y-79628570D01*
X83345180Y-79628570D02*
X83345180Y-79390475D01*
X83345180Y-79390475D02*
X83297561Y-79295237D01*
X83297561Y-79295237D02*
X83249942Y-79247618D01*
X83249942Y-79247618D02*
X83154704Y-79199999D01*
X83154704Y-79199999D02*
X83059466Y-79199999D01*
X83059466Y-79199999D02*
X82916609Y-79247618D01*
X82916609Y-79247618D02*
X82345180Y-79819046D01*
X82345180Y-79819046D02*
X82345180Y-79199999D01*
X83345180Y-78866665D02*
X83345180Y-78247618D01*
X83345180Y-78247618D02*
X82964228Y-78580951D01*
X82964228Y-78580951D02*
X82964228Y-78438094D01*
X82964228Y-78438094D02*
X82916609Y-78342856D01*
X82916609Y-78342856D02*
X82868990Y-78295237D01*
X82868990Y-78295237D02*
X82773752Y-78247618D01*
X82773752Y-78247618D02*
X82535657Y-78247618D01*
X82535657Y-78247618D02*
X82440419Y-78295237D01*
X82440419Y-78295237D02*
X82392800Y-78342856D01*
X82392800Y-78342856D02*
X82345180Y-78438094D01*
X82345180Y-78438094D02*
X82345180Y-78723808D01*
X82345180Y-78723808D02*
X82392800Y-78819046D01*
X82392800Y-78819046D02*
X82440419Y-78866665D01*
X74045180Y-77619048D02*
X73330895Y-77619048D01*
X73330895Y-77619048D02*
X73188038Y-77666667D01*
X73188038Y-77666667D02*
X73092800Y-77761905D01*
X73092800Y-77761905D02*
X73045180Y-77904762D01*
X73045180Y-77904762D02*
X73045180Y-78000000D01*
X73045180Y-76666667D02*
X73045180Y-77142857D01*
X73045180Y-77142857D02*
X74045180Y-77142857D01*
X73140419Y-75761905D02*
X73092800Y-75809524D01*
X73092800Y-75809524D02*
X73045180Y-75952381D01*
X73045180Y-75952381D02*
X73045180Y-76047619D01*
X73045180Y-76047619D02*
X73092800Y-76190476D01*
X73092800Y-76190476D02*
X73188038Y-76285714D01*
X73188038Y-76285714D02*
X73283276Y-76333333D01*
X73283276Y-76333333D02*
X73473752Y-76380952D01*
X73473752Y-76380952D02*
X73616609Y-76380952D01*
X73616609Y-76380952D02*
X73807085Y-76333333D01*
X73807085Y-76333333D02*
X73902323Y-76285714D01*
X73902323Y-76285714D02*
X73997561Y-76190476D01*
X73997561Y-76190476D02*
X74045180Y-76047619D01*
X74045180Y-76047619D02*
X74045180Y-75952381D01*
X74045180Y-75952381D02*
X73997561Y-75809524D01*
X73997561Y-75809524D02*
X73949942Y-75761905D01*
X74045180Y-75047619D02*
X73330895Y-75047619D01*
X73330895Y-75047619D02*
X73188038Y-75095238D01*
X73188038Y-75095238D02*
X73092800Y-75190476D01*
X73092800Y-75190476D02*
X73045180Y-75333333D01*
X73045180Y-75333333D02*
X73045180Y-75428571D01*
X73045180Y-74095238D02*
X73045180Y-74571428D01*
X73045180Y-74571428D02*
X74045180Y-74571428D01*
X73140419Y-73190476D02*
X73092800Y-73238095D01*
X73092800Y-73238095D02*
X73045180Y-73380952D01*
X73045180Y-73380952D02*
X73045180Y-73476190D01*
X73045180Y-73476190D02*
X73092800Y-73619047D01*
X73092800Y-73619047D02*
X73188038Y-73714285D01*
X73188038Y-73714285D02*
X73283276Y-73761904D01*
X73283276Y-73761904D02*
X73473752Y-73809523D01*
X73473752Y-73809523D02*
X73616609Y-73809523D01*
X73616609Y-73809523D02*
X73807085Y-73761904D01*
X73807085Y-73761904D02*
X73902323Y-73714285D01*
X73902323Y-73714285D02*
X73997561Y-73619047D01*
X73997561Y-73619047D02*
X74045180Y-73476190D01*
X74045180Y-73476190D02*
X74045180Y-73380952D01*
X74045180Y-73380952D02*
X73997561Y-73238095D01*
X73997561Y-73238095D02*
X73949942Y-73190476D01*
X74045180Y-72476190D02*
X73330895Y-72476190D01*
X73330895Y-72476190D02*
X73188038Y-72523809D01*
X73188038Y-72523809D02*
X73092800Y-72619047D01*
X73092800Y-72619047D02*
X73045180Y-72761904D01*
X73045180Y-72761904D02*
X73045180Y-72857142D01*
X73045180Y-71523809D02*
X73045180Y-71999999D01*
X73045180Y-71999999D02*
X74045180Y-71999999D01*
X73140419Y-70619047D02*
X73092800Y-70666666D01*
X73092800Y-70666666D02*
X73045180Y-70809523D01*
X73045180Y-70809523D02*
X73045180Y-70904761D01*
X73045180Y-70904761D02*
X73092800Y-71047618D01*
X73092800Y-71047618D02*
X73188038Y-71142856D01*
X73188038Y-71142856D02*
X73283276Y-71190475D01*
X73283276Y-71190475D02*
X73473752Y-71238094D01*
X73473752Y-71238094D02*
X73616609Y-71238094D01*
X73616609Y-71238094D02*
X73807085Y-71190475D01*
X73807085Y-71190475D02*
X73902323Y-71142856D01*
X73902323Y-71142856D02*
X73997561Y-71047618D01*
X73997561Y-71047618D02*
X74045180Y-70904761D01*
X74045180Y-70904761D02*
X74045180Y-70809523D01*
X74045180Y-70809523D02*
X73997561Y-70666666D01*
X73997561Y-70666666D02*
X73949942Y-70619047D01*
X74045180Y-69904761D02*
X73330895Y-69904761D01*
X73330895Y-69904761D02*
X73188038Y-69952380D01*
X73188038Y-69952380D02*
X73092800Y-70047618D01*
X73092800Y-70047618D02*
X73045180Y-70190475D01*
X73045180Y-70190475D02*
X73045180Y-70285713D01*
X73045180Y-68952380D02*
X73045180Y-69428570D01*
X73045180Y-69428570D02*
X74045180Y-69428570D01*
X73140419Y-68047618D02*
X73092800Y-68095237D01*
X73092800Y-68095237D02*
X73045180Y-68238094D01*
X73045180Y-68238094D02*
X73045180Y-68333332D01*
X73045180Y-68333332D02*
X73092800Y-68476189D01*
X73092800Y-68476189D02*
X73188038Y-68571427D01*
X73188038Y-68571427D02*
X73283276Y-68619046D01*
X73283276Y-68619046D02*
X73473752Y-68666665D01*
X73473752Y-68666665D02*
X73616609Y-68666665D01*
X73616609Y-68666665D02*
X73807085Y-68619046D01*
X73807085Y-68619046D02*
X73902323Y-68571427D01*
X73902323Y-68571427D02*
X73997561Y-68476189D01*
X73997561Y-68476189D02*
X74045180Y-68333332D01*
X74045180Y-68333332D02*
X74045180Y-68238094D01*
X74045180Y-68238094D02*
X73997561Y-68095237D01*
X73997561Y-68095237D02*
X73949942Y-68047618D01*
%LPC*%
D11*
X91000000Y-52500000D02*
X86000000Y-52500000D01*
X86000000Y-47500000D01*
X91000000Y-47500000D01*
X91000000Y-52500000D01*
G36*
X91000000Y-52500000D02*
G01*
X86000000Y-52500000D01*
X86000000Y-47500000D01*
X91000000Y-47500000D01*
X91000000Y-52500000D01*
G37*
X91000000Y-120000000D02*
X86000000Y-120000000D01*
X86000000Y-115000000D01*
X91000000Y-115000000D01*
X91000000Y-120000000D01*
G36*
X91000000Y-120000000D02*
G01*
X86000000Y-120000000D01*
X86000000Y-115000000D01*
X91000000Y-115000000D01*
X91000000Y-120000000D01*
G37*
X91000000Y-75000000D02*
X86000000Y-75000000D01*
X86000000Y-70000000D01*
X91000000Y-70000000D01*
X91000000Y-75000000D01*
G36*
X91000000Y-75000000D02*
G01*
X86000000Y-75000000D01*
X86000000Y-70000000D01*
X91000000Y-70000000D01*
X91000000Y-75000000D01*
G37*
X91000000Y-97500000D02*
X86000000Y-97500000D01*
X86000000Y-92500000D01*
X91000000Y-92500000D01*
X91000000Y-97500000D01*
G36*
X91000000Y-97500000D02*
G01*
X86000000Y-97500000D01*
X86000000Y-92500000D01*
X91000000Y-92500000D01*
X91000000Y-97500000D01*
G37*
D12*
X79500000Y-147000000D03*
X79500000Y-25000000D03*
X104500000Y-147000000D03*
X104500000Y-25000000D03*
%LPD*%
M02*
