G04 #@! TF.GenerationSoftware,KiCad,Pcbnew,6.0.10+dfsg-1~bpo11+1*
G04 #@! TF.CreationDate,2023-01-12T21:33:18+00:00*
G04 #@! TF.ProjectId,Basic-DC-mixer,42617369-632d-4444-932d-6d697865722e,rev?*
G04 #@! TF.SameCoordinates,Original*
G04 #@! TF.FileFunction,Soldermask,Bot*
G04 #@! TF.FilePolarity,Negative*
%FSLAX46Y46*%
G04 Gerber Fmt 4.6, Leading zero omitted, Abs format (unit mm)*
G04 Created by KiCad (PCBNEW 6.0.10+dfsg-1~bpo11+1) date 2023-01-12 21:33:18*
%MOMM*%
%LPD*%
G01*
G04 APERTURE LIST*
%ADD10C,4.000000*%
%ADD11C,1.800000*%
%ADD12R,1.600000X1.600000*%
%ADD13C,1.600000*%
%ADD14O,3.700000X2.400000*%
%ADD15O,1.600000X1.600000*%
%ADD16R,1.800000X1.800000*%
%ADD17R,1.930000X1.830000*%
%ADD18C,2.130000*%
%ADD19R,1.700000X1.700000*%
%ADD20O,1.700000X1.700000*%
G04 APERTURE END LIST*
D10*
X65400000Y-85550000D03*
X56600000Y-85550000D03*
D11*
X63500000Y-92550000D03*
X61000000Y-92550000D03*
X58500000Y-92550000D03*
D10*
X65400000Y-108050000D03*
X56600000Y-108050000D03*
D11*
X63500000Y-115050000D03*
X61000000Y-115050000D03*
X58500000Y-115050000D03*
D12*
X32044888Y-120500000D03*
D13*
X34044888Y-120500000D03*
D14*
X44100000Y-102800000D03*
X44100000Y-107500000D03*
X44100000Y-112200000D03*
X48900000Y-102800000D03*
X48900000Y-107500000D03*
X48900000Y-112200000D03*
D13*
X42500000Y-133580000D03*
D15*
X42500000Y-123420000D03*
D16*
X45225000Y-72500000D03*
D11*
X47765000Y-72500000D03*
D13*
X68080000Y-118500000D03*
D15*
X57920000Y-118500000D03*
D13*
X68080000Y-96000000D03*
D15*
X57920000Y-96000000D03*
D10*
X65400000Y-63050000D03*
X56600000Y-63050000D03*
D11*
X63500000Y-70050000D03*
X61000000Y-70050000D03*
X58500000Y-70050000D03*
D13*
X31920000Y-48500000D03*
D15*
X42080000Y-48500000D03*
D13*
X31920000Y-116000000D03*
D15*
X42080000Y-116000000D03*
D16*
X45225000Y-95000000D03*
D11*
X47765000Y-95000000D03*
D17*
X55000000Y-122000000D03*
D18*
X55000000Y-133400000D03*
X55000000Y-125100000D03*
D13*
X31920000Y-71000000D03*
D15*
X42080000Y-71000000D03*
D17*
X35500000Y-101000000D03*
D18*
X35500000Y-112400000D03*
X35500000Y-104100000D03*
D13*
X48500000Y-133580000D03*
D15*
X48500000Y-123420000D03*
D14*
X44100000Y-35300000D03*
X44100000Y-40000000D03*
X44100000Y-44700000D03*
X48900000Y-35300000D03*
X48900000Y-40000000D03*
X48900000Y-44700000D03*
D10*
X56600000Y-40550000D03*
X65400000Y-40550000D03*
D11*
X63500000Y-47550000D03*
X61000000Y-47550000D03*
X58500000Y-47550000D03*
D13*
X31920000Y-93500000D03*
D15*
X42080000Y-93500000D03*
D16*
X45225000Y-117500000D03*
D11*
X47765000Y-117500000D03*
D13*
X68080000Y-73500000D03*
D15*
X57920000Y-73500000D03*
D13*
X68080000Y-51000000D03*
D15*
X57920000Y-51000000D03*
D17*
X35500000Y-56000000D03*
D18*
X35500000Y-67400000D03*
X35500000Y-59100000D03*
D14*
X44100000Y-80300000D03*
X44100000Y-85000000D03*
X44100000Y-89700000D03*
X48900000Y-80300000D03*
X48900000Y-85000000D03*
X48900000Y-89700000D03*
X44100000Y-57800000D03*
X44100000Y-62500000D03*
X44100000Y-67200000D03*
X48900000Y-57800000D03*
X48900000Y-62500000D03*
X48900000Y-67200000D03*
D17*
X35500000Y-33500000D03*
D18*
X35500000Y-44900000D03*
X35500000Y-36600000D03*
D13*
X45500000Y-123420000D03*
D15*
X45500000Y-133580000D03*
D16*
X45225000Y-50000000D03*
D11*
X47765000Y-50000000D03*
D12*
X34044888Y-137500000D03*
D13*
X36044888Y-137500000D03*
D17*
X35500000Y-78500000D03*
D18*
X35500000Y-89900000D03*
X35500000Y-81600000D03*
D12*
X31700000Y-132800000D03*
D15*
X34240000Y-132800000D03*
X36780000Y-132800000D03*
X39320000Y-132800000D03*
X39320000Y-125180000D03*
X36780000Y-125180000D03*
X34240000Y-125180000D03*
X31700000Y-125180000D03*
D17*
X65000000Y-122000000D03*
D18*
X65000000Y-133400000D03*
X65000000Y-125100000D03*
D19*
X43925000Y-136725000D03*
D20*
X43925000Y-139265000D03*
X46465000Y-136725000D03*
X46465000Y-139265000D03*
X49005000Y-136725000D03*
X49005000Y-139265000D03*
X51545000Y-136725000D03*
X51545000Y-139265000D03*
X54085000Y-136725000D03*
X54085000Y-139265000D03*
M02*
