G04 #@! TF.GenerationSoftware,KiCad,Pcbnew,7.0.5.1-1-g8f565ef7f0-dirty-deb11*
G04 #@! TF.CreationDate,2023-06-10T15:43:27+00:00*
G04 #@! TF.ProjectId,Basic-DC-mixer,42617369-632d-4444-932d-6d697865722e,rev?*
G04 #@! TF.SameCoordinates,Original*
G04 #@! TF.FileFunction,Legend,Top*
G04 #@! TF.FilePolarity,Positive*
%FSLAX46Y46*%
G04 Gerber Fmt 4.6, Leading zero omitted, Abs format (unit mm)*
G04 Created by KiCad (PCBNEW 7.0.5.1-1-g8f565ef7f0-dirty-deb11) date 2023-06-10 15:43:27*
%MOMM*%
%LPD*%
G01*
G04 APERTURE LIST*
%ADD10C,0.150000*%
%ADD11C,0.120000*%
%ADD12C,4.000000*%
%ADD13C,1.800000*%
%ADD14O,3.700000X2.400000*%
%ADD15C,1.600000*%
%ADD16O,1.600000X1.600000*%
%ADD17R,1.800000X1.800000*%
%ADD18R,1.930000X1.830000*%
%ADD19C,2.130000*%
%ADD20R,1.600000X1.600000*%
%ADD21R,1.700000X1.700000*%
%ADD22O,1.700000X1.700000*%
G04 APERTURE END LIST*
D10*
X69454819Y-111900000D02*
X68454819Y-111900000D01*
X68454819Y-111900000D02*
X68454819Y-111661905D01*
X68454819Y-111661905D02*
X68502438Y-111519048D01*
X68502438Y-111519048D02*
X68597676Y-111423810D01*
X68597676Y-111423810D02*
X68692914Y-111376191D01*
X68692914Y-111376191D02*
X68883390Y-111328572D01*
X68883390Y-111328572D02*
X69026247Y-111328572D01*
X69026247Y-111328572D02*
X69216723Y-111376191D01*
X69216723Y-111376191D02*
X69311961Y-111423810D01*
X69311961Y-111423810D02*
X69407200Y-111519048D01*
X69407200Y-111519048D02*
X69454819Y-111661905D01*
X69454819Y-111661905D02*
X69454819Y-111900000D01*
X69359580Y-110328572D02*
X69407200Y-110376191D01*
X69407200Y-110376191D02*
X69454819Y-110519048D01*
X69454819Y-110519048D02*
X69454819Y-110614286D01*
X69454819Y-110614286D02*
X69407200Y-110757143D01*
X69407200Y-110757143D02*
X69311961Y-110852381D01*
X69311961Y-110852381D02*
X69216723Y-110900000D01*
X69216723Y-110900000D02*
X69026247Y-110947619D01*
X69026247Y-110947619D02*
X68883390Y-110947619D01*
X68883390Y-110947619D02*
X68692914Y-110900000D01*
X68692914Y-110900000D02*
X68597676Y-110852381D01*
X68597676Y-110852381D02*
X68502438Y-110757143D01*
X68502438Y-110757143D02*
X68454819Y-110614286D01*
X68454819Y-110614286D02*
X68454819Y-110519048D01*
X68454819Y-110519048D02*
X68502438Y-110376191D01*
X68502438Y-110376191D02*
X68550057Y-110328572D01*
X69407200Y-108709524D02*
X69454819Y-108804762D01*
X69454819Y-108804762D02*
X69454819Y-108995238D01*
X69454819Y-108995238D02*
X69407200Y-109090476D01*
X69407200Y-109090476D02*
X69359580Y-109138095D01*
X69359580Y-109138095D02*
X69264342Y-109185714D01*
X69264342Y-109185714D02*
X68978628Y-109185714D01*
X68978628Y-109185714D02*
X68883390Y-109138095D01*
X68883390Y-109138095D02*
X68835771Y-109090476D01*
X68835771Y-109090476D02*
X68788152Y-108995238D01*
X68788152Y-108995238D02*
X68788152Y-108804762D01*
X68788152Y-108804762D02*
X68835771Y-108709524D01*
X69454819Y-108138095D02*
X69407200Y-108233333D01*
X69407200Y-108233333D02*
X69359580Y-108280952D01*
X69359580Y-108280952D02*
X69264342Y-108328571D01*
X69264342Y-108328571D02*
X68978628Y-108328571D01*
X68978628Y-108328571D02*
X68883390Y-108280952D01*
X68883390Y-108280952D02*
X68835771Y-108233333D01*
X68835771Y-108233333D02*
X68788152Y-108138095D01*
X68788152Y-108138095D02*
X68788152Y-107995238D01*
X68788152Y-107995238D02*
X68835771Y-107900000D01*
X68835771Y-107900000D02*
X68883390Y-107852381D01*
X68883390Y-107852381D02*
X68978628Y-107804762D01*
X68978628Y-107804762D02*
X69264342Y-107804762D01*
X69264342Y-107804762D02*
X69359580Y-107852381D01*
X69359580Y-107852381D02*
X69407200Y-107900000D01*
X69407200Y-107900000D02*
X69454819Y-107995238D01*
X69454819Y-107995238D02*
X69454819Y-108138095D01*
X68788152Y-106947619D02*
X69454819Y-106947619D01*
X68788152Y-107376190D02*
X69311961Y-107376190D01*
X69311961Y-107376190D02*
X69407200Y-107328571D01*
X69407200Y-107328571D02*
X69454819Y-107233333D01*
X69454819Y-107233333D02*
X69454819Y-107090476D01*
X69454819Y-107090476D02*
X69407200Y-106995238D01*
X69407200Y-106995238D02*
X69359580Y-106947619D01*
X68788152Y-106471428D02*
X69788152Y-106471428D01*
X68835771Y-106471428D02*
X68788152Y-106376190D01*
X68788152Y-106376190D02*
X68788152Y-106185714D01*
X68788152Y-106185714D02*
X68835771Y-106090476D01*
X68835771Y-106090476D02*
X68883390Y-106042857D01*
X68883390Y-106042857D02*
X68978628Y-105995238D01*
X68978628Y-105995238D02*
X69264342Y-105995238D01*
X69264342Y-105995238D02*
X69359580Y-106042857D01*
X69359580Y-106042857D02*
X69407200Y-106090476D01*
X69407200Y-106090476D02*
X69454819Y-106185714D01*
X69454819Y-106185714D02*
X69454819Y-106376190D01*
X69454819Y-106376190D02*
X69407200Y-106471428D01*
X69454819Y-105423809D02*
X69407200Y-105519047D01*
X69407200Y-105519047D02*
X69311961Y-105566666D01*
X69311961Y-105566666D02*
X68454819Y-105566666D01*
X69407200Y-104661904D02*
X69454819Y-104757142D01*
X69454819Y-104757142D02*
X69454819Y-104947618D01*
X69454819Y-104947618D02*
X69407200Y-105042856D01*
X69407200Y-105042856D02*
X69311961Y-105090475D01*
X69311961Y-105090475D02*
X68931009Y-105090475D01*
X68931009Y-105090475D02*
X68835771Y-105042856D01*
X68835771Y-105042856D02*
X68788152Y-104947618D01*
X68788152Y-104947618D02*
X68788152Y-104757142D01*
X68788152Y-104757142D02*
X68835771Y-104661904D01*
X68835771Y-104661904D02*
X68931009Y-104614285D01*
X68931009Y-104614285D02*
X69026247Y-104614285D01*
X69026247Y-104614285D02*
X69121485Y-105090475D01*
X69454819Y-103757142D02*
X68454819Y-103757142D01*
X69407200Y-103757142D02*
X69454819Y-103852380D01*
X69454819Y-103852380D02*
X69454819Y-104042856D01*
X69454819Y-104042856D02*
X69407200Y-104138094D01*
X69407200Y-104138094D02*
X69359580Y-104185713D01*
X69359580Y-104185713D02*
X69264342Y-104233332D01*
X69264342Y-104233332D02*
X68978628Y-104233332D01*
X68978628Y-104233332D02*
X68883390Y-104185713D01*
X68883390Y-104185713D02*
X68835771Y-104138094D01*
X68835771Y-104138094D02*
X68788152Y-104042856D01*
X68788152Y-104042856D02*
X68788152Y-103852380D01*
X68788152Y-103852380D02*
X68835771Y-103757142D01*
X69454819Y-102519046D02*
X68788152Y-102519046D01*
X68883390Y-102519046D02*
X68835771Y-102471427D01*
X68835771Y-102471427D02*
X68788152Y-102376189D01*
X68788152Y-102376189D02*
X68788152Y-102233332D01*
X68788152Y-102233332D02*
X68835771Y-102138094D01*
X68835771Y-102138094D02*
X68931009Y-102090475D01*
X68931009Y-102090475D02*
X69454819Y-102090475D01*
X68931009Y-102090475D02*
X68835771Y-102042856D01*
X68835771Y-102042856D02*
X68788152Y-101947618D01*
X68788152Y-101947618D02*
X68788152Y-101804761D01*
X68788152Y-101804761D02*
X68835771Y-101709522D01*
X68835771Y-101709522D02*
X68931009Y-101661903D01*
X68931009Y-101661903D02*
X69454819Y-101661903D01*
X69454819Y-101185713D02*
X68788152Y-101185713D01*
X68454819Y-101185713D02*
X68502438Y-101233332D01*
X68502438Y-101233332D02*
X68550057Y-101185713D01*
X68550057Y-101185713D02*
X68502438Y-101138094D01*
X68502438Y-101138094D02*
X68454819Y-101185713D01*
X68454819Y-101185713D02*
X68550057Y-101185713D01*
X69454819Y-100804761D02*
X68788152Y-100280952D01*
X68788152Y-100804761D02*
X69454819Y-100280952D01*
X69407200Y-99519047D02*
X69454819Y-99614285D01*
X69454819Y-99614285D02*
X69454819Y-99804761D01*
X69454819Y-99804761D02*
X69407200Y-99899999D01*
X69407200Y-99899999D02*
X69311961Y-99947618D01*
X69311961Y-99947618D02*
X68931009Y-99947618D01*
X68931009Y-99947618D02*
X68835771Y-99899999D01*
X68835771Y-99899999D02*
X68788152Y-99804761D01*
X68788152Y-99804761D02*
X68788152Y-99614285D01*
X68788152Y-99614285D02*
X68835771Y-99519047D01*
X68835771Y-99519047D02*
X68931009Y-99471428D01*
X68931009Y-99471428D02*
X69026247Y-99471428D01*
X69026247Y-99471428D02*
X69121485Y-99947618D01*
X69454819Y-99042856D02*
X68788152Y-99042856D01*
X68978628Y-99042856D02*
X68883390Y-98995237D01*
X68883390Y-98995237D02*
X68835771Y-98947618D01*
X68835771Y-98947618D02*
X68788152Y-98852380D01*
X68788152Y-98852380D02*
X68788152Y-98757142D01*
X67954819Y-93547619D02*
X68954819Y-93214286D01*
X68954819Y-93214286D02*
X67954819Y-92880953D01*
X68954819Y-92023810D02*
X68954819Y-92595238D01*
X68954819Y-92309524D02*
X67954819Y-92309524D01*
X67954819Y-92309524D02*
X68097676Y-92404762D01*
X68097676Y-92404762D02*
X68192914Y-92500000D01*
X68192914Y-92500000D02*
X68240533Y-92595238D01*
X68859580Y-91595238D02*
X68907200Y-91547619D01*
X68907200Y-91547619D02*
X68954819Y-91595238D01*
X68954819Y-91595238D02*
X68907200Y-91642857D01*
X68907200Y-91642857D02*
X68859580Y-91595238D01*
X68859580Y-91595238D02*
X68954819Y-91595238D01*
X68954819Y-90595239D02*
X68954819Y-91166667D01*
X68954819Y-90880953D02*
X67954819Y-90880953D01*
X67954819Y-90880953D02*
X68097676Y-90976191D01*
X68097676Y-90976191D02*
X68192914Y-91071429D01*
X68192914Y-91071429D02*
X68240533Y-91166667D01*
X68431009Y-89071429D02*
X68478628Y-88928572D01*
X68478628Y-88928572D02*
X68526247Y-88880953D01*
X68526247Y-88880953D02*
X68621485Y-88833334D01*
X68621485Y-88833334D02*
X68764342Y-88833334D01*
X68764342Y-88833334D02*
X68859580Y-88880953D01*
X68859580Y-88880953D02*
X68907200Y-88928572D01*
X68907200Y-88928572D02*
X68954819Y-89023810D01*
X68954819Y-89023810D02*
X68954819Y-89404762D01*
X68954819Y-89404762D02*
X67954819Y-89404762D01*
X67954819Y-89404762D02*
X67954819Y-89071429D01*
X67954819Y-89071429D02*
X68002438Y-88976191D01*
X68002438Y-88976191D02*
X68050057Y-88928572D01*
X68050057Y-88928572D02*
X68145295Y-88880953D01*
X68145295Y-88880953D02*
X68240533Y-88880953D01*
X68240533Y-88880953D02*
X68335771Y-88928572D01*
X68335771Y-88928572D02*
X68383390Y-88976191D01*
X68383390Y-88976191D02*
X68431009Y-89071429D01*
X68431009Y-89071429D02*
X68431009Y-89404762D01*
X68954819Y-88261905D02*
X68907200Y-88357143D01*
X68907200Y-88357143D02*
X68811961Y-88404762D01*
X68811961Y-88404762D02*
X67954819Y-88404762D01*
X68907200Y-87500000D02*
X68954819Y-87595238D01*
X68954819Y-87595238D02*
X68954819Y-87785714D01*
X68954819Y-87785714D02*
X68907200Y-87880952D01*
X68907200Y-87880952D02*
X68811961Y-87928571D01*
X68811961Y-87928571D02*
X68431009Y-87928571D01*
X68431009Y-87928571D02*
X68335771Y-87880952D01*
X68335771Y-87880952D02*
X68288152Y-87785714D01*
X68288152Y-87785714D02*
X68288152Y-87595238D01*
X68288152Y-87595238D02*
X68335771Y-87500000D01*
X68335771Y-87500000D02*
X68431009Y-87452381D01*
X68431009Y-87452381D02*
X68526247Y-87452381D01*
X68526247Y-87452381D02*
X68621485Y-87928571D01*
X68907200Y-86642857D02*
X68954819Y-86738095D01*
X68954819Y-86738095D02*
X68954819Y-86928571D01*
X68954819Y-86928571D02*
X68907200Y-87023809D01*
X68907200Y-87023809D02*
X68811961Y-87071428D01*
X68811961Y-87071428D02*
X68431009Y-87071428D01*
X68431009Y-87071428D02*
X68335771Y-87023809D01*
X68335771Y-87023809D02*
X68288152Y-86928571D01*
X68288152Y-86928571D02*
X68288152Y-86738095D01*
X68288152Y-86738095D02*
X68335771Y-86642857D01*
X68335771Y-86642857D02*
X68431009Y-86595238D01*
X68431009Y-86595238D02*
X68526247Y-86595238D01*
X68526247Y-86595238D02*
X68621485Y-87071428D01*
X68288152Y-86166666D02*
X69288152Y-86166666D01*
X68335771Y-86166666D02*
X68288152Y-86071428D01*
X68288152Y-86071428D02*
X68288152Y-85880952D01*
X68288152Y-85880952D02*
X68335771Y-85785714D01*
X68335771Y-85785714D02*
X68383390Y-85738095D01*
X68383390Y-85738095D02*
X68478628Y-85690476D01*
X68478628Y-85690476D02*
X68764342Y-85690476D01*
X68764342Y-85690476D02*
X68859580Y-85738095D01*
X68859580Y-85738095D02*
X68907200Y-85785714D01*
X68907200Y-85785714D02*
X68954819Y-85880952D01*
X68954819Y-85880952D02*
X68954819Y-86071428D01*
X68954819Y-86071428D02*
X68907200Y-86166666D01*
X68907200Y-85309523D02*
X68954819Y-85166666D01*
X68954819Y-85166666D02*
X68954819Y-84928571D01*
X68954819Y-84928571D02*
X68907200Y-84833333D01*
X68907200Y-84833333D02*
X68859580Y-84785714D01*
X68859580Y-84785714D02*
X68764342Y-84738095D01*
X68764342Y-84738095D02*
X68669104Y-84738095D01*
X68669104Y-84738095D02*
X68573866Y-84785714D01*
X68573866Y-84785714D02*
X68526247Y-84833333D01*
X68526247Y-84833333D02*
X68478628Y-84928571D01*
X68478628Y-84928571D02*
X68431009Y-85119047D01*
X68431009Y-85119047D02*
X68383390Y-85214285D01*
X68383390Y-85214285D02*
X68335771Y-85261904D01*
X68335771Y-85261904D02*
X68240533Y-85309523D01*
X68240533Y-85309523D02*
X68145295Y-85309523D01*
X68145295Y-85309523D02*
X68050057Y-85261904D01*
X68050057Y-85261904D02*
X68002438Y-85214285D01*
X68002438Y-85214285D02*
X67954819Y-85119047D01*
X67954819Y-85119047D02*
X67954819Y-84880952D01*
X67954819Y-84880952D02*
X68002438Y-84738095D01*
X68954819Y-84166666D02*
X68907200Y-84261904D01*
X68907200Y-84261904D02*
X68859580Y-84309523D01*
X68859580Y-84309523D02*
X68764342Y-84357142D01*
X68764342Y-84357142D02*
X68478628Y-84357142D01*
X68478628Y-84357142D02*
X68383390Y-84309523D01*
X68383390Y-84309523D02*
X68335771Y-84261904D01*
X68335771Y-84261904D02*
X68288152Y-84166666D01*
X68288152Y-84166666D02*
X68288152Y-84023809D01*
X68288152Y-84023809D02*
X68335771Y-83928571D01*
X68335771Y-83928571D02*
X68383390Y-83880952D01*
X68383390Y-83880952D02*
X68478628Y-83833333D01*
X68478628Y-83833333D02*
X68764342Y-83833333D01*
X68764342Y-83833333D02*
X68859580Y-83880952D01*
X68859580Y-83880952D02*
X68907200Y-83928571D01*
X68907200Y-83928571D02*
X68954819Y-84023809D01*
X68954819Y-84023809D02*
X68954819Y-84166666D01*
X68288152Y-82976190D02*
X68954819Y-82976190D01*
X68288152Y-83404761D02*
X68811961Y-83404761D01*
X68811961Y-83404761D02*
X68907200Y-83357142D01*
X68907200Y-83357142D02*
X68954819Y-83261904D01*
X68954819Y-83261904D02*
X68954819Y-83119047D01*
X68954819Y-83119047D02*
X68907200Y-83023809D01*
X68907200Y-83023809D02*
X68859580Y-82976190D01*
X68288152Y-82499999D02*
X68954819Y-82499999D01*
X68383390Y-82499999D02*
X68335771Y-82452380D01*
X68335771Y-82452380D02*
X68288152Y-82357142D01*
X68288152Y-82357142D02*
X68288152Y-82214285D01*
X68288152Y-82214285D02*
X68335771Y-82119047D01*
X68335771Y-82119047D02*
X68431009Y-82071428D01*
X68431009Y-82071428D02*
X68954819Y-82071428D01*
X68954819Y-81166666D02*
X67954819Y-81166666D01*
X68907200Y-81166666D02*
X68954819Y-81261904D01*
X68954819Y-81261904D02*
X68954819Y-81452380D01*
X68954819Y-81452380D02*
X68907200Y-81547618D01*
X68907200Y-81547618D02*
X68859580Y-81595237D01*
X68859580Y-81595237D02*
X68764342Y-81642856D01*
X68764342Y-81642856D02*
X68478628Y-81642856D01*
X68478628Y-81642856D02*
X68383390Y-81595237D01*
X68383390Y-81595237D02*
X68335771Y-81547618D01*
X68335771Y-81547618D02*
X68288152Y-81452380D01*
X68288152Y-81452380D02*
X68288152Y-81261904D01*
X68288152Y-81261904D02*
X68335771Y-81166666D01*
X68050057Y-79976189D02*
X68002438Y-79928570D01*
X68002438Y-79928570D02*
X67954819Y-79833332D01*
X67954819Y-79833332D02*
X67954819Y-79595237D01*
X67954819Y-79595237D02*
X68002438Y-79499999D01*
X68002438Y-79499999D02*
X68050057Y-79452380D01*
X68050057Y-79452380D02*
X68145295Y-79404761D01*
X68145295Y-79404761D02*
X68240533Y-79404761D01*
X68240533Y-79404761D02*
X68383390Y-79452380D01*
X68383390Y-79452380D02*
X68954819Y-80023808D01*
X68954819Y-80023808D02*
X68954819Y-79404761D01*
X67954819Y-78785713D02*
X67954819Y-78690475D01*
X67954819Y-78690475D02*
X68002438Y-78595237D01*
X68002438Y-78595237D02*
X68050057Y-78547618D01*
X68050057Y-78547618D02*
X68145295Y-78499999D01*
X68145295Y-78499999D02*
X68335771Y-78452380D01*
X68335771Y-78452380D02*
X68573866Y-78452380D01*
X68573866Y-78452380D02*
X68764342Y-78499999D01*
X68764342Y-78499999D02*
X68859580Y-78547618D01*
X68859580Y-78547618D02*
X68907200Y-78595237D01*
X68907200Y-78595237D02*
X68954819Y-78690475D01*
X68954819Y-78690475D02*
X68954819Y-78785713D01*
X68954819Y-78785713D02*
X68907200Y-78880951D01*
X68907200Y-78880951D02*
X68859580Y-78928570D01*
X68859580Y-78928570D02*
X68764342Y-78976189D01*
X68764342Y-78976189D02*
X68573866Y-79023808D01*
X68573866Y-79023808D02*
X68335771Y-79023808D01*
X68335771Y-79023808D02*
X68145295Y-78976189D01*
X68145295Y-78976189D02*
X68050057Y-78928570D01*
X68050057Y-78928570D02*
X68002438Y-78880951D01*
X68002438Y-78880951D02*
X67954819Y-78785713D01*
X68050057Y-78071427D02*
X68002438Y-78023808D01*
X68002438Y-78023808D02*
X67954819Y-77928570D01*
X67954819Y-77928570D02*
X67954819Y-77690475D01*
X67954819Y-77690475D02*
X68002438Y-77595237D01*
X68002438Y-77595237D02*
X68050057Y-77547618D01*
X68050057Y-77547618D02*
X68145295Y-77499999D01*
X68145295Y-77499999D02*
X68240533Y-77499999D01*
X68240533Y-77499999D02*
X68383390Y-77547618D01*
X68383390Y-77547618D02*
X68954819Y-78119046D01*
X68954819Y-78119046D02*
X68954819Y-77499999D01*
X67954819Y-77166665D02*
X67954819Y-76547618D01*
X67954819Y-76547618D02*
X68335771Y-76880951D01*
X68335771Y-76880951D02*
X68335771Y-76738094D01*
X68335771Y-76738094D02*
X68383390Y-76642856D01*
X68383390Y-76642856D02*
X68431009Y-76595237D01*
X68431009Y-76595237D02*
X68526247Y-76547618D01*
X68526247Y-76547618D02*
X68764342Y-76547618D01*
X68764342Y-76547618D02*
X68859580Y-76595237D01*
X68859580Y-76595237D02*
X68907200Y-76642856D01*
X68907200Y-76642856D02*
X68954819Y-76738094D01*
X68954819Y-76738094D02*
X68954819Y-77023808D01*
X68954819Y-77023808D02*
X68907200Y-77119046D01*
X68907200Y-77119046D02*
X68859580Y-77166665D01*
X59476190Y-77954819D02*
X59809523Y-78954819D01*
X59809523Y-78954819D02*
X60142856Y-77954819D01*
X60619047Y-78954819D02*
X60523809Y-78907200D01*
X60523809Y-78907200D02*
X60476190Y-78859580D01*
X60476190Y-78859580D02*
X60428571Y-78764342D01*
X60428571Y-78764342D02*
X60428571Y-78478628D01*
X60428571Y-78478628D02*
X60476190Y-78383390D01*
X60476190Y-78383390D02*
X60523809Y-78335771D01*
X60523809Y-78335771D02*
X60619047Y-78288152D01*
X60619047Y-78288152D02*
X60761904Y-78288152D01*
X60761904Y-78288152D02*
X60857142Y-78335771D01*
X60857142Y-78335771D02*
X60904761Y-78383390D01*
X60904761Y-78383390D02*
X60952380Y-78478628D01*
X60952380Y-78478628D02*
X60952380Y-78764342D01*
X60952380Y-78764342D02*
X60904761Y-78859580D01*
X60904761Y-78859580D02*
X60857142Y-78907200D01*
X60857142Y-78907200D02*
X60761904Y-78954819D01*
X60761904Y-78954819D02*
X60619047Y-78954819D01*
X61523809Y-78954819D02*
X61428571Y-78907200D01*
X61428571Y-78907200D02*
X61380952Y-78811961D01*
X61380952Y-78811961D02*
X61380952Y-77954819D01*
X61809524Y-77954819D02*
X62428571Y-77954819D01*
X62428571Y-77954819D02*
X62095238Y-78335771D01*
X62095238Y-78335771D02*
X62238095Y-78335771D01*
X62238095Y-78335771D02*
X62333333Y-78383390D01*
X62333333Y-78383390D02*
X62380952Y-78431009D01*
X62380952Y-78431009D02*
X62428571Y-78526247D01*
X62428571Y-78526247D02*
X62428571Y-78764342D01*
X62428571Y-78764342D02*
X62380952Y-78859580D01*
X62380952Y-78859580D02*
X62333333Y-78907200D01*
X62333333Y-78907200D02*
X62238095Y-78954819D01*
X62238095Y-78954819D02*
X61952381Y-78954819D01*
X61952381Y-78954819D02*
X61857143Y-78907200D01*
X61857143Y-78907200D02*
X61809524Y-78859580D01*
X59476190Y-100454819D02*
X59809523Y-101454819D01*
X59809523Y-101454819D02*
X60142856Y-100454819D01*
X60619047Y-101454819D02*
X60523809Y-101407200D01*
X60523809Y-101407200D02*
X60476190Y-101359580D01*
X60476190Y-101359580D02*
X60428571Y-101264342D01*
X60428571Y-101264342D02*
X60428571Y-100978628D01*
X60428571Y-100978628D02*
X60476190Y-100883390D01*
X60476190Y-100883390D02*
X60523809Y-100835771D01*
X60523809Y-100835771D02*
X60619047Y-100788152D01*
X60619047Y-100788152D02*
X60761904Y-100788152D01*
X60761904Y-100788152D02*
X60857142Y-100835771D01*
X60857142Y-100835771D02*
X60904761Y-100883390D01*
X60904761Y-100883390D02*
X60952380Y-100978628D01*
X60952380Y-100978628D02*
X60952380Y-101264342D01*
X60952380Y-101264342D02*
X60904761Y-101359580D01*
X60904761Y-101359580D02*
X60857142Y-101407200D01*
X60857142Y-101407200D02*
X60761904Y-101454819D01*
X60761904Y-101454819D02*
X60619047Y-101454819D01*
X61523809Y-101454819D02*
X61428571Y-101407200D01*
X61428571Y-101407200D02*
X61380952Y-101311961D01*
X61380952Y-101311961D02*
X61380952Y-100454819D01*
X62333333Y-100788152D02*
X62333333Y-101454819D01*
X62095238Y-100407200D02*
X61857143Y-101121485D01*
X61857143Y-101121485D02*
X62476190Y-101121485D01*
X45166667Y-100407200D02*
X45309524Y-100454819D01*
X45309524Y-100454819D02*
X45547619Y-100454819D01*
X45547619Y-100454819D02*
X45642857Y-100407200D01*
X45642857Y-100407200D02*
X45690476Y-100359580D01*
X45690476Y-100359580D02*
X45738095Y-100264342D01*
X45738095Y-100264342D02*
X45738095Y-100169104D01*
X45738095Y-100169104D02*
X45690476Y-100073866D01*
X45690476Y-100073866D02*
X45642857Y-100026247D01*
X45642857Y-100026247D02*
X45547619Y-99978628D01*
X45547619Y-99978628D02*
X45357143Y-99931009D01*
X45357143Y-99931009D02*
X45261905Y-99883390D01*
X45261905Y-99883390D02*
X45214286Y-99835771D01*
X45214286Y-99835771D02*
X45166667Y-99740533D01*
X45166667Y-99740533D02*
X45166667Y-99645295D01*
X45166667Y-99645295D02*
X45214286Y-99550057D01*
X45214286Y-99550057D02*
X45261905Y-99502438D01*
X45261905Y-99502438D02*
X45357143Y-99454819D01*
X45357143Y-99454819D02*
X45595238Y-99454819D01*
X45595238Y-99454819D02*
X45738095Y-99502438D01*
X46071429Y-99454819D02*
X46309524Y-100454819D01*
X46309524Y-100454819D02*
X46500000Y-99740533D01*
X46500000Y-99740533D02*
X46690476Y-100454819D01*
X46690476Y-100454819D02*
X46928572Y-99454819D01*
X47738095Y-99788152D02*
X47738095Y-100454819D01*
X47500000Y-99407200D02*
X47261905Y-100121485D01*
X47261905Y-100121485D02*
X47880952Y-100121485D01*
X42954819Y-128666666D02*
X42478628Y-128999999D01*
X42954819Y-129238094D02*
X41954819Y-129238094D01*
X41954819Y-129238094D02*
X41954819Y-128857142D01*
X41954819Y-128857142D02*
X42002438Y-128761904D01*
X42002438Y-128761904D02*
X42050057Y-128714285D01*
X42050057Y-128714285D02*
X42145295Y-128666666D01*
X42145295Y-128666666D02*
X42288152Y-128666666D01*
X42288152Y-128666666D02*
X42383390Y-128714285D01*
X42383390Y-128714285D02*
X42431009Y-128761904D01*
X42431009Y-128761904D02*
X42478628Y-128857142D01*
X42478628Y-128857142D02*
X42478628Y-129238094D01*
X42383390Y-128095237D02*
X42335771Y-128190475D01*
X42335771Y-128190475D02*
X42288152Y-128238094D01*
X42288152Y-128238094D02*
X42192914Y-128285713D01*
X42192914Y-128285713D02*
X42145295Y-128285713D01*
X42145295Y-128285713D02*
X42050057Y-128238094D01*
X42050057Y-128238094D02*
X42002438Y-128190475D01*
X42002438Y-128190475D02*
X41954819Y-128095237D01*
X41954819Y-128095237D02*
X41954819Y-127904761D01*
X41954819Y-127904761D02*
X42002438Y-127809523D01*
X42002438Y-127809523D02*
X42050057Y-127761904D01*
X42050057Y-127761904D02*
X42145295Y-127714285D01*
X42145295Y-127714285D02*
X42192914Y-127714285D01*
X42192914Y-127714285D02*
X42288152Y-127761904D01*
X42288152Y-127761904D02*
X42335771Y-127809523D01*
X42335771Y-127809523D02*
X42383390Y-127904761D01*
X42383390Y-127904761D02*
X42383390Y-128095237D01*
X42383390Y-128095237D02*
X42431009Y-128190475D01*
X42431009Y-128190475D02*
X42478628Y-128238094D01*
X42478628Y-128238094D02*
X42573866Y-128285713D01*
X42573866Y-128285713D02*
X42764342Y-128285713D01*
X42764342Y-128285713D02*
X42859580Y-128238094D01*
X42859580Y-128238094D02*
X42907200Y-128190475D01*
X42907200Y-128190475D02*
X42954819Y-128095237D01*
X42954819Y-128095237D02*
X42954819Y-127904761D01*
X42954819Y-127904761D02*
X42907200Y-127809523D01*
X42907200Y-127809523D02*
X42859580Y-127761904D01*
X42859580Y-127761904D02*
X42764342Y-127714285D01*
X42764342Y-127714285D02*
X42573866Y-127714285D01*
X42573866Y-127714285D02*
X42478628Y-127761904D01*
X42478628Y-127761904D02*
X42431009Y-127809523D01*
X42431009Y-127809523D02*
X42383390Y-127904761D01*
X48761905Y-70454819D02*
X48761905Y-69454819D01*
X48761905Y-69454819D02*
X49000000Y-69454819D01*
X49000000Y-69454819D02*
X49142857Y-69502438D01*
X49142857Y-69502438D02*
X49238095Y-69597676D01*
X49238095Y-69597676D02*
X49285714Y-69692914D01*
X49285714Y-69692914D02*
X49333333Y-69883390D01*
X49333333Y-69883390D02*
X49333333Y-70026247D01*
X49333333Y-70026247D02*
X49285714Y-70216723D01*
X49285714Y-70216723D02*
X49238095Y-70311961D01*
X49238095Y-70311961D02*
X49142857Y-70407200D01*
X49142857Y-70407200D02*
X49000000Y-70454819D01*
X49000000Y-70454819D02*
X48761905Y-70454819D01*
X49714286Y-69550057D02*
X49761905Y-69502438D01*
X49761905Y-69502438D02*
X49857143Y-69454819D01*
X49857143Y-69454819D02*
X50095238Y-69454819D01*
X50095238Y-69454819D02*
X50190476Y-69502438D01*
X50190476Y-69502438D02*
X50238095Y-69550057D01*
X50238095Y-69550057D02*
X50285714Y-69645295D01*
X50285714Y-69645295D02*
X50285714Y-69740533D01*
X50285714Y-69740533D02*
X50238095Y-69883390D01*
X50238095Y-69883390D02*
X49666667Y-70454819D01*
X49666667Y-70454819D02*
X50285714Y-70454819D01*
X62357142Y-118954819D02*
X62023809Y-118478628D01*
X61785714Y-118954819D02*
X61785714Y-117954819D01*
X61785714Y-117954819D02*
X62166666Y-117954819D01*
X62166666Y-117954819D02*
X62261904Y-118002438D01*
X62261904Y-118002438D02*
X62309523Y-118050057D01*
X62309523Y-118050057D02*
X62357142Y-118145295D01*
X62357142Y-118145295D02*
X62357142Y-118288152D01*
X62357142Y-118288152D02*
X62309523Y-118383390D01*
X62309523Y-118383390D02*
X62261904Y-118431009D01*
X62261904Y-118431009D02*
X62166666Y-118478628D01*
X62166666Y-118478628D02*
X61785714Y-118478628D01*
X63309523Y-118954819D02*
X62738095Y-118954819D01*
X63023809Y-118954819D02*
X63023809Y-117954819D01*
X63023809Y-117954819D02*
X62928571Y-118097676D01*
X62928571Y-118097676D02*
X62833333Y-118192914D01*
X62833333Y-118192914D02*
X62738095Y-118240533D01*
X64261904Y-118954819D02*
X63690476Y-118954819D01*
X63976190Y-118954819D02*
X63976190Y-117954819D01*
X63976190Y-117954819D02*
X63880952Y-118097676D01*
X63880952Y-118097676D02*
X63785714Y-118192914D01*
X63785714Y-118192914D02*
X63690476Y-118240533D01*
X62833333Y-96454819D02*
X62500000Y-95978628D01*
X62261905Y-96454819D02*
X62261905Y-95454819D01*
X62261905Y-95454819D02*
X62642857Y-95454819D01*
X62642857Y-95454819D02*
X62738095Y-95502438D01*
X62738095Y-95502438D02*
X62785714Y-95550057D01*
X62785714Y-95550057D02*
X62833333Y-95645295D01*
X62833333Y-95645295D02*
X62833333Y-95788152D01*
X62833333Y-95788152D02*
X62785714Y-95883390D01*
X62785714Y-95883390D02*
X62738095Y-95931009D01*
X62738095Y-95931009D02*
X62642857Y-95978628D01*
X62642857Y-95978628D02*
X62261905Y-95978628D01*
X63309524Y-96454819D02*
X63500000Y-96454819D01*
X63500000Y-96454819D02*
X63595238Y-96407200D01*
X63595238Y-96407200D02*
X63642857Y-96359580D01*
X63642857Y-96359580D02*
X63738095Y-96216723D01*
X63738095Y-96216723D02*
X63785714Y-96026247D01*
X63785714Y-96026247D02*
X63785714Y-95645295D01*
X63785714Y-95645295D02*
X63738095Y-95550057D01*
X63738095Y-95550057D02*
X63690476Y-95502438D01*
X63690476Y-95502438D02*
X63595238Y-95454819D01*
X63595238Y-95454819D02*
X63404762Y-95454819D01*
X63404762Y-95454819D02*
X63309524Y-95502438D01*
X63309524Y-95502438D02*
X63261905Y-95550057D01*
X63261905Y-95550057D02*
X63214286Y-95645295D01*
X63214286Y-95645295D02*
X63214286Y-95883390D01*
X63214286Y-95883390D02*
X63261905Y-95978628D01*
X63261905Y-95978628D02*
X63309524Y-96026247D01*
X63309524Y-96026247D02*
X63404762Y-96073866D01*
X63404762Y-96073866D02*
X63595238Y-96073866D01*
X63595238Y-96073866D02*
X63690476Y-96026247D01*
X63690476Y-96026247D02*
X63738095Y-95978628D01*
X63738095Y-95978628D02*
X63785714Y-95883390D01*
X59476190Y-55454819D02*
X59809523Y-56454819D01*
X59809523Y-56454819D02*
X60142856Y-55454819D01*
X60619047Y-56454819D02*
X60523809Y-56407200D01*
X60523809Y-56407200D02*
X60476190Y-56359580D01*
X60476190Y-56359580D02*
X60428571Y-56264342D01*
X60428571Y-56264342D02*
X60428571Y-55978628D01*
X60428571Y-55978628D02*
X60476190Y-55883390D01*
X60476190Y-55883390D02*
X60523809Y-55835771D01*
X60523809Y-55835771D02*
X60619047Y-55788152D01*
X60619047Y-55788152D02*
X60761904Y-55788152D01*
X60761904Y-55788152D02*
X60857142Y-55835771D01*
X60857142Y-55835771D02*
X60904761Y-55883390D01*
X60904761Y-55883390D02*
X60952380Y-55978628D01*
X60952380Y-55978628D02*
X60952380Y-56264342D01*
X60952380Y-56264342D02*
X60904761Y-56359580D01*
X60904761Y-56359580D02*
X60857142Y-56407200D01*
X60857142Y-56407200D02*
X60761904Y-56454819D01*
X60761904Y-56454819D02*
X60619047Y-56454819D01*
X61523809Y-56454819D02*
X61428571Y-56407200D01*
X61428571Y-56407200D02*
X61380952Y-56311961D01*
X61380952Y-56311961D02*
X61380952Y-55454819D01*
X61857143Y-55550057D02*
X61904762Y-55502438D01*
X61904762Y-55502438D02*
X62000000Y-55454819D01*
X62000000Y-55454819D02*
X62238095Y-55454819D01*
X62238095Y-55454819D02*
X62333333Y-55502438D01*
X62333333Y-55502438D02*
X62380952Y-55550057D01*
X62380952Y-55550057D02*
X62428571Y-55645295D01*
X62428571Y-55645295D02*
X62428571Y-55740533D01*
X62428571Y-55740533D02*
X62380952Y-55883390D01*
X62380952Y-55883390D02*
X61809524Y-56454819D01*
X61809524Y-56454819D02*
X62428571Y-56454819D01*
X36833333Y-48954819D02*
X36500000Y-48478628D01*
X36261905Y-48954819D02*
X36261905Y-47954819D01*
X36261905Y-47954819D02*
X36642857Y-47954819D01*
X36642857Y-47954819D02*
X36738095Y-48002438D01*
X36738095Y-48002438D02*
X36785714Y-48050057D01*
X36785714Y-48050057D02*
X36833333Y-48145295D01*
X36833333Y-48145295D02*
X36833333Y-48288152D01*
X36833333Y-48288152D02*
X36785714Y-48383390D01*
X36785714Y-48383390D02*
X36738095Y-48431009D01*
X36738095Y-48431009D02*
X36642857Y-48478628D01*
X36642857Y-48478628D02*
X36261905Y-48478628D01*
X37785714Y-48954819D02*
X37214286Y-48954819D01*
X37500000Y-48954819D02*
X37500000Y-47954819D01*
X37500000Y-47954819D02*
X37404762Y-48097676D01*
X37404762Y-48097676D02*
X37309524Y-48192914D01*
X37309524Y-48192914D02*
X37214286Y-48240533D01*
X36357142Y-116454819D02*
X36023809Y-115978628D01*
X35785714Y-116454819D02*
X35785714Y-115454819D01*
X35785714Y-115454819D02*
X36166666Y-115454819D01*
X36166666Y-115454819D02*
X36261904Y-115502438D01*
X36261904Y-115502438D02*
X36309523Y-115550057D01*
X36309523Y-115550057D02*
X36357142Y-115645295D01*
X36357142Y-115645295D02*
X36357142Y-115788152D01*
X36357142Y-115788152D02*
X36309523Y-115883390D01*
X36309523Y-115883390D02*
X36261904Y-115931009D01*
X36261904Y-115931009D02*
X36166666Y-115978628D01*
X36166666Y-115978628D02*
X35785714Y-115978628D01*
X37309523Y-116454819D02*
X36738095Y-116454819D01*
X37023809Y-116454819D02*
X37023809Y-115454819D01*
X37023809Y-115454819D02*
X36928571Y-115597676D01*
X36928571Y-115597676D02*
X36833333Y-115692914D01*
X36833333Y-115692914D02*
X36738095Y-115740533D01*
X37928571Y-115454819D02*
X38023809Y-115454819D01*
X38023809Y-115454819D02*
X38119047Y-115502438D01*
X38119047Y-115502438D02*
X38166666Y-115550057D01*
X38166666Y-115550057D02*
X38214285Y-115645295D01*
X38214285Y-115645295D02*
X38261904Y-115835771D01*
X38261904Y-115835771D02*
X38261904Y-116073866D01*
X38261904Y-116073866D02*
X38214285Y-116264342D01*
X38214285Y-116264342D02*
X38166666Y-116359580D01*
X38166666Y-116359580D02*
X38119047Y-116407200D01*
X38119047Y-116407200D02*
X38023809Y-116454819D01*
X38023809Y-116454819D02*
X37928571Y-116454819D01*
X37928571Y-116454819D02*
X37833333Y-116407200D01*
X37833333Y-116407200D02*
X37785714Y-116359580D01*
X37785714Y-116359580D02*
X37738095Y-116264342D01*
X37738095Y-116264342D02*
X37690476Y-116073866D01*
X37690476Y-116073866D02*
X37690476Y-115835771D01*
X37690476Y-115835771D02*
X37738095Y-115645295D01*
X37738095Y-115645295D02*
X37785714Y-115550057D01*
X37785714Y-115550057D02*
X37833333Y-115502438D01*
X37833333Y-115502438D02*
X37928571Y-115454819D01*
X48761905Y-92954819D02*
X48761905Y-91954819D01*
X48761905Y-91954819D02*
X49000000Y-91954819D01*
X49000000Y-91954819D02*
X49142857Y-92002438D01*
X49142857Y-92002438D02*
X49238095Y-92097676D01*
X49238095Y-92097676D02*
X49285714Y-92192914D01*
X49285714Y-92192914D02*
X49333333Y-92383390D01*
X49333333Y-92383390D02*
X49333333Y-92526247D01*
X49333333Y-92526247D02*
X49285714Y-92716723D01*
X49285714Y-92716723D02*
X49238095Y-92811961D01*
X49238095Y-92811961D02*
X49142857Y-92907200D01*
X49142857Y-92907200D02*
X49000000Y-92954819D01*
X49000000Y-92954819D02*
X48761905Y-92954819D01*
X49666667Y-91954819D02*
X50285714Y-91954819D01*
X50285714Y-91954819D02*
X49952381Y-92335771D01*
X49952381Y-92335771D02*
X50095238Y-92335771D01*
X50095238Y-92335771D02*
X50190476Y-92383390D01*
X50190476Y-92383390D02*
X50238095Y-92431009D01*
X50238095Y-92431009D02*
X50285714Y-92526247D01*
X50285714Y-92526247D02*
X50285714Y-92764342D01*
X50285714Y-92764342D02*
X50238095Y-92859580D01*
X50238095Y-92859580D02*
X50190476Y-92907200D01*
X50190476Y-92907200D02*
X50095238Y-92954819D01*
X50095238Y-92954819D02*
X49809524Y-92954819D01*
X49809524Y-92954819D02*
X49714286Y-92907200D01*
X49714286Y-92907200D02*
X49666667Y-92859580D01*
X50636666Y-122534819D02*
X50636666Y-123249104D01*
X50636666Y-123249104D02*
X50589047Y-123391961D01*
X50589047Y-123391961D02*
X50493809Y-123487200D01*
X50493809Y-123487200D02*
X50350952Y-123534819D01*
X50350952Y-123534819D02*
X50255714Y-123534819D01*
X51541428Y-122868152D02*
X51541428Y-123534819D01*
X51303333Y-122487200D02*
X51065238Y-123201485D01*
X51065238Y-123201485D02*
X51684285Y-123201485D01*
X36833333Y-71454819D02*
X36500000Y-70978628D01*
X36261905Y-71454819D02*
X36261905Y-70454819D01*
X36261905Y-70454819D02*
X36642857Y-70454819D01*
X36642857Y-70454819D02*
X36738095Y-70502438D01*
X36738095Y-70502438D02*
X36785714Y-70550057D01*
X36785714Y-70550057D02*
X36833333Y-70645295D01*
X36833333Y-70645295D02*
X36833333Y-70788152D01*
X36833333Y-70788152D02*
X36785714Y-70883390D01*
X36785714Y-70883390D02*
X36738095Y-70931009D01*
X36738095Y-70931009D02*
X36642857Y-70978628D01*
X36642857Y-70978628D02*
X36261905Y-70978628D01*
X37166667Y-70454819D02*
X37785714Y-70454819D01*
X37785714Y-70454819D02*
X37452381Y-70835771D01*
X37452381Y-70835771D02*
X37595238Y-70835771D01*
X37595238Y-70835771D02*
X37690476Y-70883390D01*
X37690476Y-70883390D02*
X37738095Y-70931009D01*
X37738095Y-70931009D02*
X37785714Y-71026247D01*
X37785714Y-71026247D02*
X37785714Y-71264342D01*
X37785714Y-71264342D02*
X37738095Y-71359580D01*
X37738095Y-71359580D02*
X37690476Y-71407200D01*
X37690476Y-71407200D02*
X37595238Y-71454819D01*
X37595238Y-71454819D02*
X37309524Y-71454819D01*
X37309524Y-71454819D02*
X37214286Y-71407200D01*
X37214286Y-71407200D02*
X37166667Y-71359580D01*
X31136666Y-101534819D02*
X31136666Y-102249104D01*
X31136666Y-102249104D02*
X31089047Y-102391961D01*
X31089047Y-102391961D02*
X30993809Y-102487200D01*
X30993809Y-102487200D02*
X30850952Y-102534819D01*
X30850952Y-102534819D02*
X30755714Y-102534819D01*
X31517619Y-101534819D02*
X32184285Y-101534819D01*
X32184285Y-101534819D02*
X31755714Y-102534819D01*
X48954819Y-128666666D02*
X48478628Y-128999999D01*
X48954819Y-129238094D02*
X47954819Y-129238094D01*
X47954819Y-129238094D02*
X47954819Y-128857142D01*
X47954819Y-128857142D02*
X48002438Y-128761904D01*
X48002438Y-128761904D02*
X48050057Y-128714285D01*
X48050057Y-128714285D02*
X48145295Y-128666666D01*
X48145295Y-128666666D02*
X48288152Y-128666666D01*
X48288152Y-128666666D02*
X48383390Y-128714285D01*
X48383390Y-128714285D02*
X48431009Y-128761904D01*
X48431009Y-128761904D02*
X48478628Y-128857142D01*
X48478628Y-128857142D02*
X48478628Y-129238094D01*
X47954819Y-128333332D02*
X47954819Y-127666666D01*
X47954819Y-127666666D02*
X48954819Y-128095237D01*
X45166667Y-32407200D02*
X45309524Y-32454819D01*
X45309524Y-32454819D02*
X45547619Y-32454819D01*
X45547619Y-32454819D02*
X45642857Y-32407200D01*
X45642857Y-32407200D02*
X45690476Y-32359580D01*
X45690476Y-32359580D02*
X45738095Y-32264342D01*
X45738095Y-32264342D02*
X45738095Y-32169104D01*
X45738095Y-32169104D02*
X45690476Y-32073866D01*
X45690476Y-32073866D02*
X45642857Y-32026247D01*
X45642857Y-32026247D02*
X45547619Y-31978628D01*
X45547619Y-31978628D02*
X45357143Y-31931009D01*
X45357143Y-31931009D02*
X45261905Y-31883390D01*
X45261905Y-31883390D02*
X45214286Y-31835771D01*
X45214286Y-31835771D02*
X45166667Y-31740533D01*
X45166667Y-31740533D02*
X45166667Y-31645295D01*
X45166667Y-31645295D02*
X45214286Y-31550057D01*
X45214286Y-31550057D02*
X45261905Y-31502438D01*
X45261905Y-31502438D02*
X45357143Y-31454819D01*
X45357143Y-31454819D02*
X45595238Y-31454819D01*
X45595238Y-31454819D02*
X45738095Y-31502438D01*
X46071429Y-31454819D02*
X46309524Y-32454819D01*
X46309524Y-32454819D02*
X46500000Y-31740533D01*
X46500000Y-31740533D02*
X46690476Y-32454819D01*
X46690476Y-32454819D02*
X46928572Y-31454819D01*
X47833333Y-32454819D02*
X47261905Y-32454819D01*
X47547619Y-32454819D02*
X47547619Y-31454819D01*
X47547619Y-31454819D02*
X47452381Y-31597676D01*
X47452381Y-31597676D02*
X47357143Y-31692914D01*
X47357143Y-31692914D02*
X47261905Y-31740533D01*
X59476190Y-32954819D02*
X59809523Y-33954819D01*
X59809523Y-33954819D02*
X60142856Y-32954819D01*
X60619047Y-33954819D02*
X60523809Y-33907200D01*
X60523809Y-33907200D02*
X60476190Y-33859580D01*
X60476190Y-33859580D02*
X60428571Y-33764342D01*
X60428571Y-33764342D02*
X60428571Y-33478628D01*
X60428571Y-33478628D02*
X60476190Y-33383390D01*
X60476190Y-33383390D02*
X60523809Y-33335771D01*
X60523809Y-33335771D02*
X60619047Y-33288152D01*
X60619047Y-33288152D02*
X60761904Y-33288152D01*
X60761904Y-33288152D02*
X60857142Y-33335771D01*
X60857142Y-33335771D02*
X60904761Y-33383390D01*
X60904761Y-33383390D02*
X60952380Y-33478628D01*
X60952380Y-33478628D02*
X60952380Y-33764342D01*
X60952380Y-33764342D02*
X60904761Y-33859580D01*
X60904761Y-33859580D02*
X60857142Y-33907200D01*
X60857142Y-33907200D02*
X60761904Y-33954819D01*
X60761904Y-33954819D02*
X60619047Y-33954819D01*
X61523809Y-33954819D02*
X61428571Y-33907200D01*
X61428571Y-33907200D02*
X61380952Y-33811961D01*
X61380952Y-33811961D02*
X61380952Y-32954819D01*
X62428571Y-33954819D02*
X61857143Y-33954819D01*
X62142857Y-33954819D02*
X62142857Y-32954819D01*
X62142857Y-32954819D02*
X62047619Y-33097676D01*
X62047619Y-33097676D02*
X61952381Y-33192914D01*
X61952381Y-33192914D02*
X61857143Y-33240533D01*
X36833333Y-93954819D02*
X36500000Y-93478628D01*
X36261905Y-93954819D02*
X36261905Y-92954819D01*
X36261905Y-92954819D02*
X36642857Y-92954819D01*
X36642857Y-92954819D02*
X36738095Y-93002438D01*
X36738095Y-93002438D02*
X36785714Y-93050057D01*
X36785714Y-93050057D02*
X36833333Y-93145295D01*
X36833333Y-93145295D02*
X36833333Y-93288152D01*
X36833333Y-93288152D02*
X36785714Y-93383390D01*
X36785714Y-93383390D02*
X36738095Y-93431009D01*
X36738095Y-93431009D02*
X36642857Y-93478628D01*
X36642857Y-93478628D02*
X36261905Y-93478628D01*
X37738095Y-92954819D02*
X37261905Y-92954819D01*
X37261905Y-92954819D02*
X37214286Y-93431009D01*
X37214286Y-93431009D02*
X37261905Y-93383390D01*
X37261905Y-93383390D02*
X37357143Y-93335771D01*
X37357143Y-93335771D02*
X37595238Y-93335771D01*
X37595238Y-93335771D02*
X37690476Y-93383390D01*
X37690476Y-93383390D02*
X37738095Y-93431009D01*
X37738095Y-93431009D02*
X37785714Y-93526247D01*
X37785714Y-93526247D02*
X37785714Y-93764342D01*
X37785714Y-93764342D02*
X37738095Y-93859580D01*
X37738095Y-93859580D02*
X37690476Y-93907200D01*
X37690476Y-93907200D02*
X37595238Y-93954819D01*
X37595238Y-93954819D02*
X37357143Y-93954819D01*
X37357143Y-93954819D02*
X37261905Y-93907200D01*
X37261905Y-93907200D02*
X37214286Y-93859580D01*
X48761905Y-115454819D02*
X48761905Y-114454819D01*
X48761905Y-114454819D02*
X49000000Y-114454819D01*
X49000000Y-114454819D02*
X49142857Y-114502438D01*
X49142857Y-114502438D02*
X49238095Y-114597676D01*
X49238095Y-114597676D02*
X49285714Y-114692914D01*
X49285714Y-114692914D02*
X49333333Y-114883390D01*
X49333333Y-114883390D02*
X49333333Y-115026247D01*
X49333333Y-115026247D02*
X49285714Y-115216723D01*
X49285714Y-115216723D02*
X49238095Y-115311961D01*
X49238095Y-115311961D02*
X49142857Y-115407200D01*
X49142857Y-115407200D02*
X49000000Y-115454819D01*
X49000000Y-115454819D02*
X48761905Y-115454819D01*
X50190476Y-114788152D02*
X50190476Y-115454819D01*
X49952381Y-114407200D02*
X49714286Y-115121485D01*
X49714286Y-115121485D02*
X50333333Y-115121485D01*
X62833333Y-73954819D02*
X62500000Y-73478628D01*
X62261905Y-73954819D02*
X62261905Y-72954819D01*
X62261905Y-72954819D02*
X62642857Y-72954819D01*
X62642857Y-72954819D02*
X62738095Y-73002438D01*
X62738095Y-73002438D02*
X62785714Y-73050057D01*
X62785714Y-73050057D02*
X62833333Y-73145295D01*
X62833333Y-73145295D02*
X62833333Y-73288152D01*
X62833333Y-73288152D02*
X62785714Y-73383390D01*
X62785714Y-73383390D02*
X62738095Y-73431009D01*
X62738095Y-73431009D02*
X62642857Y-73478628D01*
X62642857Y-73478628D02*
X62261905Y-73478628D01*
X63690476Y-73288152D02*
X63690476Y-73954819D01*
X63452381Y-72907200D02*
X63214286Y-73621485D01*
X63214286Y-73621485D02*
X63833333Y-73621485D01*
X62833333Y-51454819D02*
X62500000Y-50978628D01*
X62261905Y-51454819D02*
X62261905Y-50454819D01*
X62261905Y-50454819D02*
X62642857Y-50454819D01*
X62642857Y-50454819D02*
X62738095Y-50502438D01*
X62738095Y-50502438D02*
X62785714Y-50550057D01*
X62785714Y-50550057D02*
X62833333Y-50645295D01*
X62833333Y-50645295D02*
X62833333Y-50788152D01*
X62833333Y-50788152D02*
X62785714Y-50883390D01*
X62785714Y-50883390D02*
X62738095Y-50931009D01*
X62738095Y-50931009D02*
X62642857Y-50978628D01*
X62642857Y-50978628D02*
X62261905Y-50978628D01*
X63214286Y-50550057D02*
X63261905Y-50502438D01*
X63261905Y-50502438D02*
X63357143Y-50454819D01*
X63357143Y-50454819D02*
X63595238Y-50454819D01*
X63595238Y-50454819D02*
X63690476Y-50502438D01*
X63690476Y-50502438D02*
X63738095Y-50550057D01*
X63738095Y-50550057D02*
X63785714Y-50645295D01*
X63785714Y-50645295D02*
X63785714Y-50740533D01*
X63785714Y-50740533D02*
X63738095Y-50883390D01*
X63738095Y-50883390D02*
X63166667Y-51454819D01*
X63166667Y-51454819D02*
X63785714Y-51454819D01*
X31136666Y-56534819D02*
X31136666Y-57249104D01*
X31136666Y-57249104D02*
X31089047Y-57391961D01*
X31089047Y-57391961D02*
X30993809Y-57487200D01*
X30993809Y-57487200D02*
X30850952Y-57534819D01*
X30850952Y-57534819D02*
X30755714Y-57534819D01*
X31517619Y-56534819D02*
X32136666Y-56534819D01*
X32136666Y-56534819D02*
X31803333Y-56915771D01*
X31803333Y-56915771D02*
X31946190Y-56915771D01*
X31946190Y-56915771D02*
X32041428Y-56963390D01*
X32041428Y-56963390D02*
X32089047Y-57011009D01*
X32089047Y-57011009D02*
X32136666Y-57106247D01*
X32136666Y-57106247D02*
X32136666Y-57344342D01*
X32136666Y-57344342D02*
X32089047Y-57439580D01*
X32089047Y-57439580D02*
X32041428Y-57487200D01*
X32041428Y-57487200D02*
X31946190Y-57534819D01*
X31946190Y-57534819D02*
X31660476Y-57534819D01*
X31660476Y-57534819D02*
X31565238Y-57487200D01*
X31565238Y-57487200D02*
X31517619Y-57439580D01*
X45166667Y-77907200D02*
X45309524Y-77954819D01*
X45309524Y-77954819D02*
X45547619Y-77954819D01*
X45547619Y-77954819D02*
X45642857Y-77907200D01*
X45642857Y-77907200D02*
X45690476Y-77859580D01*
X45690476Y-77859580D02*
X45738095Y-77764342D01*
X45738095Y-77764342D02*
X45738095Y-77669104D01*
X45738095Y-77669104D02*
X45690476Y-77573866D01*
X45690476Y-77573866D02*
X45642857Y-77526247D01*
X45642857Y-77526247D02*
X45547619Y-77478628D01*
X45547619Y-77478628D02*
X45357143Y-77431009D01*
X45357143Y-77431009D02*
X45261905Y-77383390D01*
X45261905Y-77383390D02*
X45214286Y-77335771D01*
X45214286Y-77335771D02*
X45166667Y-77240533D01*
X45166667Y-77240533D02*
X45166667Y-77145295D01*
X45166667Y-77145295D02*
X45214286Y-77050057D01*
X45214286Y-77050057D02*
X45261905Y-77002438D01*
X45261905Y-77002438D02*
X45357143Y-76954819D01*
X45357143Y-76954819D02*
X45595238Y-76954819D01*
X45595238Y-76954819D02*
X45738095Y-77002438D01*
X46071429Y-76954819D02*
X46309524Y-77954819D01*
X46309524Y-77954819D02*
X46500000Y-77240533D01*
X46500000Y-77240533D02*
X46690476Y-77954819D01*
X46690476Y-77954819D02*
X46928572Y-76954819D01*
X47214286Y-76954819D02*
X47833333Y-76954819D01*
X47833333Y-76954819D02*
X47500000Y-77335771D01*
X47500000Y-77335771D02*
X47642857Y-77335771D01*
X47642857Y-77335771D02*
X47738095Y-77383390D01*
X47738095Y-77383390D02*
X47785714Y-77431009D01*
X47785714Y-77431009D02*
X47833333Y-77526247D01*
X47833333Y-77526247D02*
X47833333Y-77764342D01*
X47833333Y-77764342D02*
X47785714Y-77859580D01*
X47785714Y-77859580D02*
X47738095Y-77907200D01*
X47738095Y-77907200D02*
X47642857Y-77954819D01*
X47642857Y-77954819D02*
X47357143Y-77954819D01*
X47357143Y-77954819D02*
X47261905Y-77907200D01*
X47261905Y-77907200D02*
X47214286Y-77859580D01*
X45166667Y-55407200D02*
X45309524Y-55454819D01*
X45309524Y-55454819D02*
X45547619Y-55454819D01*
X45547619Y-55454819D02*
X45642857Y-55407200D01*
X45642857Y-55407200D02*
X45690476Y-55359580D01*
X45690476Y-55359580D02*
X45738095Y-55264342D01*
X45738095Y-55264342D02*
X45738095Y-55169104D01*
X45738095Y-55169104D02*
X45690476Y-55073866D01*
X45690476Y-55073866D02*
X45642857Y-55026247D01*
X45642857Y-55026247D02*
X45547619Y-54978628D01*
X45547619Y-54978628D02*
X45357143Y-54931009D01*
X45357143Y-54931009D02*
X45261905Y-54883390D01*
X45261905Y-54883390D02*
X45214286Y-54835771D01*
X45214286Y-54835771D02*
X45166667Y-54740533D01*
X45166667Y-54740533D02*
X45166667Y-54645295D01*
X45166667Y-54645295D02*
X45214286Y-54550057D01*
X45214286Y-54550057D02*
X45261905Y-54502438D01*
X45261905Y-54502438D02*
X45357143Y-54454819D01*
X45357143Y-54454819D02*
X45595238Y-54454819D01*
X45595238Y-54454819D02*
X45738095Y-54502438D01*
X46071429Y-54454819D02*
X46309524Y-55454819D01*
X46309524Y-55454819D02*
X46500000Y-54740533D01*
X46500000Y-54740533D02*
X46690476Y-55454819D01*
X46690476Y-55454819D02*
X46928572Y-54454819D01*
X47261905Y-54550057D02*
X47309524Y-54502438D01*
X47309524Y-54502438D02*
X47404762Y-54454819D01*
X47404762Y-54454819D02*
X47642857Y-54454819D01*
X47642857Y-54454819D02*
X47738095Y-54502438D01*
X47738095Y-54502438D02*
X47785714Y-54550057D01*
X47785714Y-54550057D02*
X47833333Y-54645295D01*
X47833333Y-54645295D02*
X47833333Y-54740533D01*
X47833333Y-54740533D02*
X47785714Y-54883390D01*
X47785714Y-54883390D02*
X47214286Y-55454819D01*
X47214286Y-55454819D02*
X47833333Y-55454819D01*
X31136666Y-34034819D02*
X31136666Y-34749104D01*
X31136666Y-34749104D02*
X31089047Y-34891961D01*
X31089047Y-34891961D02*
X30993809Y-34987200D01*
X30993809Y-34987200D02*
X30850952Y-35034819D01*
X30850952Y-35034819D02*
X30755714Y-35034819D01*
X32136666Y-35034819D02*
X31565238Y-35034819D01*
X31850952Y-35034819D02*
X31850952Y-34034819D01*
X31850952Y-34034819D02*
X31755714Y-34177676D01*
X31755714Y-34177676D02*
X31660476Y-34272914D01*
X31660476Y-34272914D02*
X31565238Y-34320533D01*
X45954819Y-128666666D02*
X45478628Y-128999999D01*
X45954819Y-129238094D02*
X44954819Y-129238094D01*
X44954819Y-129238094D02*
X44954819Y-128857142D01*
X44954819Y-128857142D02*
X45002438Y-128761904D01*
X45002438Y-128761904D02*
X45050057Y-128714285D01*
X45050057Y-128714285D02*
X45145295Y-128666666D01*
X45145295Y-128666666D02*
X45288152Y-128666666D01*
X45288152Y-128666666D02*
X45383390Y-128714285D01*
X45383390Y-128714285D02*
X45431009Y-128761904D01*
X45431009Y-128761904D02*
X45478628Y-128857142D01*
X45478628Y-128857142D02*
X45478628Y-129238094D01*
X44954819Y-127809523D02*
X44954819Y-127999999D01*
X44954819Y-127999999D02*
X45002438Y-128095237D01*
X45002438Y-128095237D02*
X45050057Y-128142856D01*
X45050057Y-128142856D02*
X45192914Y-128238094D01*
X45192914Y-128238094D02*
X45383390Y-128285713D01*
X45383390Y-128285713D02*
X45764342Y-128285713D01*
X45764342Y-128285713D02*
X45859580Y-128238094D01*
X45859580Y-128238094D02*
X45907200Y-128190475D01*
X45907200Y-128190475D02*
X45954819Y-128095237D01*
X45954819Y-128095237D02*
X45954819Y-127904761D01*
X45954819Y-127904761D02*
X45907200Y-127809523D01*
X45907200Y-127809523D02*
X45859580Y-127761904D01*
X45859580Y-127761904D02*
X45764342Y-127714285D01*
X45764342Y-127714285D02*
X45526247Y-127714285D01*
X45526247Y-127714285D02*
X45431009Y-127761904D01*
X45431009Y-127761904D02*
X45383390Y-127809523D01*
X45383390Y-127809523D02*
X45335771Y-127904761D01*
X45335771Y-127904761D02*
X45335771Y-128095237D01*
X45335771Y-128095237D02*
X45383390Y-128190475D01*
X45383390Y-128190475D02*
X45431009Y-128238094D01*
X45431009Y-128238094D02*
X45526247Y-128285713D01*
X48761905Y-47954819D02*
X48761905Y-46954819D01*
X48761905Y-46954819D02*
X49000000Y-46954819D01*
X49000000Y-46954819D02*
X49142857Y-47002438D01*
X49142857Y-47002438D02*
X49238095Y-47097676D01*
X49238095Y-47097676D02*
X49285714Y-47192914D01*
X49285714Y-47192914D02*
X49333333Y-47383390D01*
X49333333Y-47383390D02*
X49333333Y-47526247D01*
X49333333Y-47526247D02*
X49285714Y-47716723D01*
X49285714Y-47716723D02*
X49238095Y-47811961D01*
X49238095Y-47811961D02*
X49142857Y-47907200D01*
X49142857Y-47907200D02*
X49000000Y-47954819D01*
X49000000Y-47954819D02*
X48761905Y-47954819D01*
X50285714Y-47954819D02*
X49714286Y-47954819D01*
X50000000Y-47954819D02*
X50000000Y-46954819D01*
X50000000Y-46954819D02*
X49904762Y-47097676D01*
X49904762Y-47097676D02*
X49809524Y-47192914D01*
X49809524Y-47192914D02*
X49714286Y-47240533D01*
X31136666Y-79034819D02*
X31136666Y-79749104D01*
X31136666Y-79749104D02*
X31089047Y-79891961D01*
X31089047Y-79891961D02*
X30993809Y-79987200D01*
X30993809Y-79987200D02*
X30850952Y-80034819D01*
X30850952Y-80034819D02*
X30755714Y-80034819D01*
X32041428Y-79034819D02*
X31850952Y-79034819D01*
X31850952Y-79034819D02*
X31755714Y-79082438D01*
X31755714Y-79082438D02*
X31708095Y-79130057D01*
X31708095Y-79130057D02*
X31612857Y-79272914D01*
X31612857Y-79272914D02*
X31565238Y-79463390D01*
X31565238Y-79463390D02*
X31565238Y-79844342D01*
X31565238Y-79844342D02*
X31612857Y-79939580D01*
X31612857Y-79939580D02*
X31660476Y-79987200D01*
X31660476Y-79987200D02*
X31755714Y-80034819D01*
X31755714Y-80034819D02*
X31946190Y-80034819D01*
X31946190Y-80034819D02*
X32041428Y-79987200D01*
X32041428Y-79987200D02*
X32089047Y-79939580D01*
X32089047Y-79939580D02*
X32136666Y-79844342D01*
X32136666Y-79844342D02*
X32136666Y-79606247D01*
X32136666Y-79606247D02*
X32089047Y-79511009D01*
X32089047Y-79511009D02*
X32041428Y-79463390D01*
X32041428Y-79463390D02*
X31946190Y-79415771D01*
X31946190Y-79415771D02*
X31755714Y-79415771D01*
X31755714Y-79415771D02*
X31660476Y-79463390D01*
X31660476Y-79463390D02*
X31612857Y-79511009D01*
X31612857Y-79511009D02*
X31565238Y-79606247D01*
X30954819Y-136261904D02*
X31764342Y-136261904D01*
X31764342Y-136261904D02*
X31859580Y-136214285D01*
X31859580Y-136214285D02*
X31907200Y-136166666D01*
X31907200Y-136166666D02*
X31954819Y-136071428D01*
X31954819Y-136071428D02*
X31954819Y-135880952D01*
X31954819Y-135880952D02*
X31907200Y-135785714D01*
X31907200Y-135785714D02*
X31859580Y-135738095D01*
X31859580Y-135738095D02*
X31764342Y-135690476D01*
X31764342Y-135690476D02*
X30954819Y-135690476D01*
X31954819Y-134690476D02*
X31954819Y-135261904D01*
X31954819Y-134976190D02*
X30954819Y-134976190D01*
X30954819Y-134976190D02*
X31097676Y-135071428D01*
X31097676Y-135071428D02*
X31192914Y-135166666D01*
X31192914Y-135166666D02*
X31240533Y-135261904D01*
X60636666Y-122534819D02*
X60636666Y-123249104D01*
X60636666Y-123249104D02*
X60589047Y-123391961D01*
X60589047Y-123391961D02*
X60493809Y-123487200D01*
X60493809Y-123487200D02*
X60350952Y-123534819D01*
X60350952Y-123534819D02*
X60255714Y-123534819D01*
X61589047Y-122534819D02*
X61112857Y-122534819D01*
X61112857Y-122534819D02*
X61065238Y-123011009D01*
X61065238Y-123011009D02*
X61112857Y-122963390D01*
X61112857Y-122963390D02*
X61208095Y-122915771D01*
X61208095Y-122915771D02*
X61446190Y-122915771D01*
X61446190Y-122915771D02*
X61541428Y-122963390D01*
X61541428Y-122963390D02*
X61589047Y-123011009D01*
X61589047Y-123011009D02*
X61636666Y-123106247D01*
X61636666Y-123106247D02*
X61636666Y-123344342D01*
X61636666Y-123344342D02*
X61589047Y-123439580D01*
X61589047Y-123439580D02*
X61541428Y-123487200D01*
X61541428Y-123487200D02*
X61446190Y-123534819D01*
X61446190Y-123534819D02*
X61208095Y-123534819D01*
X61208095Y-123534819D02*
X61112857Y-123487200D01*
X61112857Y-123487200D02*
X61065238Y-123439580D01*
D11*
X56030000Y-91670000D02*
X57629000Y-91670000D01*
X56030000Y-91670000D02*
X56030000Y-87805000D01*
X59371000Y-91670000D02*
X60130000Y-91670000D01*
X61871000Y-91670000D02*
X62630000Y-91670000D01*
X64370000Y-91670000D02*
X65970000Y-91670000D01*
X65970000Y-91670000D02*
X65970000Y-87805000D01*
X56030000Y-83295000D02*
X56030000Y-79430000D01*
X65970000Y-83295000D02*
X65970000Y-79430000D01*
X56030000Y-79430000D02*
X65970000Y-79430000D01*
X56030000Y-114170000D02*
X57629000Y-114170000D01*
X56030000Y-114170000D02*
X56030000Y-110305000D01*
X59371000Y-114170000D02*
X60130000Y-114170000D01*
X61871000Y-114170000D02*
X62630000Y-114170000D01*
X64370000Y-114170000D02*
X65970000Y-114170000D01*
X65970000Y-114170000D02*
X65970000Y-110305000D01*
X56030000Y-105795000D02*
X56030000Y-101930000D01*
X65970000Y-105795000D02*
X65970000Y-101930000D01*
X56030000Y-101930000D02*
X65970000Y-101930000D01*
X49850000Y-114100000D02*
X40150000Y-114100000D01*
X52850000Y-114100000D02*
X49850000Y-114100000D01*
X40150000Y-113900000D02*
X40150000Y-114100000D01*
X40150000Y-113500000D02*
X40150000Y-113900000D01*
X46500000Y-110500000D02*
X43750000Y-108700000D01*
X43750000Y-108700000D02*
X43750000Y-106300000D01*
X49250000Y-108700000D02*
X46500000Y-110500000D01*
X49250000Y-108700000D02*
X49250000Y-106300000D01*
X40150000Y-107500000D02*
X40150000Y-113500000D01*
X40150000Y-107500000D02*
X40150000Y-100900000D01*
X46500000Y-104500000D02*
X43750000Y-106300000D01*
X46500000Y-104500000D02*
X49250000Y-106300000D01*
X40150000Y-100900000D02*
X49850000Y-100900000D01*
X52850000Y-100900000D02*
X52850000Y-114100000D01*
X52850000Y-100900000D02*
X49850000Y-100900000D01*
X49500000Y-107500000D02*
G75*
G03*
X49500000Y-107500000I-3000000J0D01*
G01*
X42500000Y-132540000D02*
X42500000Y-131770000D01*
X41130000Y-131770000D02*
X43870000Y-131770000D01*
X43870000Y-131770000D02*
X43870000Y-125230000D01*
X41130000Y-125230000D02*
X41130000Y-131770000D01*
X43870000Y-125230000D02*
X41130000Y-125230000D01*
X42500000Y-124460000D02*
X42500000Y-125230000D01*
X44435000Y-71101000D02*
X44435000Y-71420000D01*
X44435000Y-73580000D02*
X44435000Y-73899000D01*
X48738241Y-71419276D02*
G75*
G03*
X44435001Y-71101251I-2243241J-1080724D01*
G01*
X48177712Y-71419040D02*
G75*
G03*
X44811671Y-71420001I-1682712J-1080960D01*
G01*
X44811671Y-73579999D02*
G75*
G03*
X48177712Y-73580960I1683329J1079999D01*
G01*
X44435001Y-73898749D02*
G75*
G03*
X48738241Y-73580724I2059999J1398749D01*
G01*
X67040000Y-118500000D02*
X66270000Y-118500000D01*
X66270000Y-119870000D02*
X66270000Y-117130000D01*
X66270000Y-117130000D02*
X59730000Y-117130000D01*
X59730000Y-119870000D02*
X66270000Y-119870000D01*
X59730000Y-117130000D02*
X59730000Y-119870000D01*
X58960000Y-118500000D02*
X59730000Y-118500000D01*
X67040000Y-96000000D02*
X66270000Y-96000000D01*
X66270000Y-97370000D02*
X66270000Y-94630000D01*
X66270000Y-94630000D02*
X59730000Y-94630000D01*
X59730000Y-97370000D02*
X66270000Y-97370000D01*
X59730000Y-94630000D02*
X59730000Y-97370000D01*
X58960000Y-96000000D02*
X59730000Y-96000000D01*
X56030000Y-69170000D02*
X57629000Y-69170000D01*
X56030000Y-69170000D02*
X56030000Y-65305000D01*
X59371000Y-69170000D02*
X60130000Y-69170000D01*
X61871000Y-69170000D02*
X62630000Y-69170000D01*
X64370000Y-69170000D02*
X65970000Y-69170000D01*
X65970000Y-69170000D02*
X65970000Y-65305000D01*
X56030000Y-60795000D02*
X56030000Y-56930000D01*
X65970000Y-60795000D02*
X65970000Y-56930000D01*
X56030000Y-56930000D02*
X65970000Y-56930000D01*
X32960000Y-48500000D02*
X33730000Y-48500000D01*
X33730000Y-47130000D02*
X33730000Y-49870000D01*
X33730000Y-49870000D02*
X40270000Y-49870000D01*
X40270000Y-47130000D02*
X33730000Y-47130000D01*
X40270000Y-49870000D02*
X40270000Y-47130000D01*
X41040000Y-48500000D02*
X40270000Y-48500000D01*
X32960000Y-116000000D02*
X33730000Y-116000000D01*
X33730000Y-114630000D02*
X33730000Y-117370000D01*
X33730000Y-117370000D02*
X40270000Y-117370000D01*
X40270000Y-114630000D02*
X33730000Y-114630000D01*
X40270000Y-117370000D02*
X40270000Y-114630000D01*
X41040000Y-116000000D02*
X40270000Y-116000000D01*
X44435000Y-93601000D02*
X44435000Y-93920000D01*
X44435000Y-96080000D02*
X44435000Y-96399000D01*
X48738241Y-93919276D02*
G75*
G03*
X44435001Y-93601251I-2243241J-1080724D01*
G01*
X48177712Y-93919040D02*
G75*
G03*
X44811671Y-93920001I-1682712J-1080960D01*
G01*
X44811671Y-96079999D02*
G75*
G03*
X48177712Y-96080960I1683329J1079999D01*
G01*
X44435001Y-96398749D02*
G75*
G03*
X48738241Y-96080724I2059999J1398749D01*
G01*
X50500000Y-123980000D02*
X50500000Y-134480000D01*
X53940000Y-121000000D02*
X53940000Y-121800000D01*
X53940000Y-121000000D02*
X54800000Y-121000000D01*
X54500000Y-134480000D02*
X50500000Y-134480000D01*
X54650000Y-123980000D02*
X50500000Y-123980000D01*
X59500000Y-123980000D02*
X55350000Y-123980000D01*
X59500000Y-123980000D02*
X59500000Y-134480000D01*
X59500000Y-134480000D02*
X55500000Y-134480000D01*
X56800000Y-128480000D02*
G75*
G03*
X56800000Y-128480000I-1800000J0D01*
G01*
X32960000Y-71000000D02*
X33730000Y-71000000D01*
X33730000Y-69630000D02*
X33730000Y-72370000D01*
X33730000Y-72370000D02*
X40270000Y-72370000D01*
X40270000Y-69630000D02*
X33730000Y-69630000D01*
X40270000Y-72370000D02*
X40270000Y-69630000D01*
X41040000Y-71000000D02*
X40270000Y-71000000D01*
X31000000Y-102980000D02*
X31000000Y-113480000D01*
X34440000Y-100000000D02*
X34440000Y-100800000D01*
X34440000Y-100000000D02*
X35300000Y-100000000D01*
X35000000Y-113480000D02*
X31000000Y-113480000D01*
X35150000Y-102980000D02*
X31000000Y-102980000D01*
X40000000Y-102980000D02*
X35850000Y-102980000D01*
X40000000Y-102980000D02*
X40000000Y-113480000D01*
X40000000Y-113480000D02*
X36000000Y-113480000D01*
X37300000Y-107480000D02*
G75*
G03*
X37300000Y-107480000I-1800000J0D01*
G01*
X48500000Y-132540000D02*
X48500000Y-131770000D01*
X47130000Y-131770000D02*
X49870000Y-131770000D01*
X49870000Y-131770000D02*
X49870000Y-125230000D01*
X47130000Y-125230000D02*
X47130000Y-131770000D01*
X49870000Y-125230000D02*
X47130000Y-125230000D01*
X48500000Y-124460000D02*
X48500000Y-125230000D01*
X49850000Y-46600000D02*
X40150000Y-46600000D01*
X52850000Y-46600000D02*
X49850000Y-46600000D01*
X40150000Y-46400000D02*
X40150000Y-46600000D01*
X40150000Y-46000000D02*
X40150000Y-46400000D01*
X46500000Y-43000000D02*
X43750000Y-41200000D01*
X43750000Y-41200000D02*
X43750000Y-38800000D01*
X49250000Y-41200000D02*
X46500000Y-43000000D01*
X49250000Y-41200000D02*
X49250000Y-38800000D01*
X40150000Y-40000000D02*
X40150000Y-46000000D01*
X40150000Y-40000000D02*
X40150000Y-33400000D01*
X46500000Y-37000000D02*
X43750000Y-38800000D01*
X46500000Y-37000000D02*
X49250000Y-38800000D01*
X40150000Y-33400000D02*
X49850000Y-33400000D01*
X52850000Y-33400000D02*
X52850000Y-46600000D01*
X52850000Y-33400000D02*
X49850000Y-33400000D01*
X49500000Y-40000000D02*
G75*
G03*
X49500000Y-40000000I-3000000J0D01*
G01*
X56030000Y-46670000D02*
X57629000Y-46670000D01*
X56030000Y-46670000D02*
X56030000Y-42805000D01*
X59371000Y-46670000D02*
X60130000Y-46670000D01*
X61871000Y-46670000D02*
X62630000Y-46670000D01*
X64370000Y-46670000D02*
X65970000Y-46670000D01*
X65970000Y-46670000D02*
X65970000Y-42805000D01*
X56030000Y-38295000D02*
X56030000Y-34430000D01*
X65970000Y-38295000D02*
X65970000Y-34430000D01*
X56030000Y-34430000D02*
X65970000Y-34430000D01*
X32960000Y-93500000D02*
X33730000Y-93500000D01*
X33730000Y-92130000D02*
X33730000Y-94870000D01*
X33730000Y-94870000D02*
X40270000Y-94870000D01*
X40270000Y-92130000D02*
X33730000Y-92130000D01*
X40270000Y-94870000D02*
X40270000Y-92130000D01*
X41040000Y-93500000D02*
X40270000Y-93500000D01*
X44435000Y-116101000D02*
X44435000Y-116420000D01*
X44435000Y-118580000D02*
X44435000Y-118899000D01*
X48738241Y-116419276D02*
G75*
G03*
X44435001Y-116101251I-2243241J-1080724D01*
G01*
X48177712Y-116419040D02*
G75*
G03*
X44811671Y-116420001I-1682712J-1080960D01*
G01*
X44811671Y-118579999D02*
G75*
G03*
X48177712Y-118580960I1683329J1079999D01*
G01*
X44435001Y-118898749D02*
G75*
G03*
X48738241Y-118580724I2059999J1398749D01*
G01*
X67040000Y-73500000D02*
X66270000Y-73500000D01*
X66270000Y-74870000D02*
X66270000Y-72130000D01*
X66270000Y-72130000D02*
X59730000Y-72130000D01*
X59730000Y-74870000D02*
X66270000Y-74870000D01*
X59730000Y-72130000D02*
X59730000Y-74870000D01*
X58960000Y-73500000D02*
X59730000Y-73500000D01*
X67040000Y-51000000D02*
X66270000Y-51000000D01*
X66270000Y-52370000D02*
X66270000Y-49630000D01*
X66270000Y-49630000D02*
X59730000Y-49630000D01*
X59730000Y-52370000D02*
X66270000Y-52370000D01*
X59730000Y-49630000D02*
X59730000Y-52370000D01*
X58960000Y-51000000D02*
X59730000Y-51000000D01*
X31000000Y-57980000D02*
X31000000Y-68480000D01*
X34440000Y-55000000D02*
X34440000Y-55800000D01*
X34440000Y-55000000D02*
X35300000Y-55000000D01*
X35000000Y-68480000D02*
X31000000Y-68480000D01*
X35150000Y-57980000D02*
X31000000Y-57980000D01*
X40000000Y-57980000D02*
X35850000Y-57980000D01*
X40000000Y-57980000D02*
X40000000Y-68480000D01*
X40000000Y-68480000D02*
X36000000Y-68480000D01*
X37300000Y-62480000D02*
G75*
G03*
X37300000Y-62480000I-1800000J0D01*
G01*
X49850000Y-91600000D02*
X40150000Y-91600000D01*
X52850000Y-91600000D02*
X49850000Y-91600000D01*
X40150000Y-91400000D02*
X40150000Y-91600000D01*
X40150000Y-91000000D02*
X40150000Y-91400000D01*
X46500000Y-88000000D02*
X43750000Y-86200000D01*
X43750000Y-86200000D02*
X43750000Y-83800000D01*
X49250000Y-86200000D02*
X46500000Y-88000000D01*
X49250000Y-86200000D02*
X49250000Y-83800000D01*
X40150000Y-85000000D02*
X40150000Y-91000000D01*
X40150000Y-85000000D02*
X40150000Y-78400000D01*
X46500000Y-82000000D02*
X43750000Y-83800000D01*
X46500000Y-82000000D02*
X49250000Y-83800000D01*
X40150000Y-78400000D02*
X49850000Y-78400000D01*
X52850000Y-78400000D02*
X52850000Y-91600000D01*
X52850000Y-78400000D02*
X49850000Y-78400000D01*
X49500000Y-85000000D02*
G75*
G03*
X49500000Y-85000000I-3000000J0D01*
G01*
X49850000Y-69100000D02*
X40150000Y-69100000D01*
X52850000Y-69100000D02*
X49850000Y-69100000D01*
X40150000Y-68900000D02*
X40150000Y-69100000D01*
X40150000Y-68500000D02*
X40150000Y-68900000D01*
X46500000Y-65500000D02*
X43750000Y-63700000D01*
X43750000Y-63700000D02*
X43750000Y-61300000D01*
X49250000Y-63700000D02*
X46500000Y-65500000D01*
X49250000Y-63700000D02*
X49250000Y-61300000D01*
X40150000Y-62500000D02*
X40150000Y-68500000D01*
X40150000Y-62500000D02*
X40150000Y-55900000D01*
X46500000Y-59500000D02*
X43750000Y-61300000D01*
X46500000Y-59500000D02*
X49250000Y-61300000D01*
X40150000Y-55900000D02*
X49850000Y-55900000D01*
X52850000Y-55900000D02*
X52850000Y-69100000D01*
X52850000Y-55900000D02*
X49850000Y-55900000D01*
X49500000Y-62500000D02*
G75*
G03*
X49500000Y-62500000I-3000000J0D01*
G01*
X31000000Y-35480000D02*
X31000000Y-45980000D01*
X34440000Y-32500000D02*
X34440000Y-33300000D01*
X34440000Y-32500000D02*
X35300000Y-32500000D01*
X35000000Y-45980000D02*
X31000000Y-45980000D01*
X35150000Y-35480000D02*
X31000000Y-35480000D01*
X40000000Y-35480000D02*
X35850000Y-35480000D01*
X40000000Y-35480000D02*
X40000000Y-45980000D01*
X40000000Y-45980000D02*
X36000000Y-45980000D01*
X37300000Y-39980000D02*
G75*
G03*
X37300000Y-39980000I-1800000J0D01*
G01*
X45500000Y-124460000D02*
X45500000Y-125230000D01*
X46870000Y-125230000D02*
X44130000Y-125230000D01*
X44130000Y-125230000D02*
X44130000Y-131770000D01*
X46870000Y-131770000D02*
X46870000Y-125230000D01*
X44130000Y-131770000D02*
X46870000Y-131770000D01*
X45500000Y-132540000D02*
X45500000Y-131770000D01*
X44435000Y-48601000D02*
X44435000Y-48920000D01*
X44435000Y-51080000D02*
X44435000Y-51399000D01*
X48738241Y-48919276D02*
G75*
G03*
X44435001Y-48601251I-2243241J-1080724D01*
G01*
X48177712Y-48919040D02*
G75*
G03*
X44811671Y-48920001I-1682712J-1080960D01*
G01*
X44811671Y-51079999D02*
G75*
G03*
X48177712Y-51080960I1683329J1079999D01*
G01*
X44435001Y-51398749D02*
G75*
G03*
X48738241Y-51080724I2059999J1398749D01*
G01*
X31000000Y-80480000D02*
X31000000Y-90980000D01*
X34440000Y-77500000D02*
X34440000Y-78300000D01*
X34440000Y-77500000D02*
X35300000Y-77500000D01*
X35000000Y-90980000D02*
X31000000Y-90980000D01*
X35150000Y-80480000D02*
X31000000Y-80480000D01*
X40000000Y-80480000D02*
X35850000Y-80480000D01*
X40000000Y-80480000D02*
X40000000Y-90980000D01*
X40000000Y-90980000D02*
X36000000Y-90980000D01*
X37300000Y-84980000D02*
G75*
G03*
X37300000Y-84980000I-1800000J0D01*
G01*
X30310000Y-134130000D02*
X40710000Y-134130000D01*
X40710000Y-134130000D02*
X40710000Y-123850000D01*
X30370000Y-131640000D02*
X40650000Y-131640000D01*
X40650000Y-131640000D02*
X40650000Y-126340000D01*
X30370000Y-129990000D02*
X30370000Y-131640000D01*
X30370000Y-126340000D02*
X30370000Y-127990000D01*
X40650000Y-126340000D02*
X30370000Y-126340000D01*
X30310000Y-123850000D02*
X30310000Y-134130000D01*
X40710000Y-123850000D02*
X30310000Y-123850000D01*
X30370000Y-129990000D02*
G75*
G03*
X30370000Y-127990000I0J1000000D01*
G01*
X60500000Y-123980000D02*
X60500000Y-134480000D01*
X63940000Y-121000000D02*
X63940000Y-121800000D01*
X63940000Y-121000000D02*
X64800000Y-121000000D01*
X64500000Y-134480000D02*
X60500000Y-134480000D01*
X64650000Y-123980000D02*
X60500000Y-123980000D01*
X69500000Y-123980000D02*
X65350000Y-123980000D01*
X69500000Y-123980000D02*
X69500000Y-134480000D01*
X69500000Y-134480000D02*
X65500000Y-134480000D01*
X66800000Y-128480000D02*
G75*
G03*
X66800000Y-128480000I-1800000J0D01*
G01*
%LPC*%
D12*
X56600000Y-85550000D03*
X65400000Y-85550000D03*
D13*
X63500000Y-92550000D03*
X61000000Y-92550000D03*
X58500000Y-92550000D03*
D12*
X56600000Y-108050000D03*
X65400000Y-108050000D03*
D13*
X63500000Y-115050000D03*
X61000000Y-115050000D03*
X58500000Y-115050000D03*
D14*
X44100000Y-102800000D03*
X44100000Y-107500000D03*
X44100000Y-112200000D03*
X48900000Y-102800000D03*
X48900000Y-107500000D03*
X48900000Y-112200000D03*
D15*
X42500000Y-133580000D03*
D16*
X42500000Y-123420000D03*
D17*
X45225000Y-72500000D03*
D13*
X47765000Y-72500000D03*
D15*
X68080000Y-118500000D03*
D16*
X57920000Y-118500000D03*
D15*
X68080000Y-96000000D03*
D16*
X57920000Y-96000000D03*
D12*
X56600000Y-63050000D03*
X65400000Y-63050000D03*
D13*
X63500000Y-70050000D03*
X61000000Y-70050000D03*
X58500000Y-70050000D03*
D15*
X31920000Y-48500000D03*
D16*
X42080000Y-48500000D03*
D15*
X31920000Y-116000000D03*
D16*
X42080000Y-116000000D03*
D17*
X45225000Y-95000000D03*
D13*
X47765000Y-95000000D03*
D18*
X55000000Y-122000000D03*
D19*
X55000000Y-133400000D03*
X55000000Y-125100000D03*
D15*
X31920000Y-71000000D03*
D16*
X42080000Y-71000000D03*
D18*
X35500000Y-101000000D03*
D19*
X35500000Y-112400000D03*
X35500000Y-104100000D03*
D15*
X48500000Y-133580000D03*
D16*
X48500000Y-123420000D03*
D14*
X44100000Y-35300000D03*
X44100000Y-40000000D03*
X44100000Y-44700000D03*
X48900000Y-35300000D03*
X48900000Y-40000000D03*
X48900000Y-44700000D03*
D12*
X56600000Y-40550000D03*
X65400000Y-40550000D03*
D13*
X63500000Y-47550000D03*
X61000000Y-47550000D03*
X58500000Y-47550000D03*
D15*
X31920000Y-93500000D03*
D16*
X42080000Y-93500000D03*
D17*
X45225000Y-117500000D03*
D13*
X47765000Y-117500000D03*
D15*
X68080000Y-73500000D03*
D16*
X57920000Y-73500000D03*
D15*
X68080000Y-51000000D03*
D16*
X57920000Y-51000000D03*
D18*
X35500000Y-56000000D03*
D19*
X35500000Y-67400000D03*
X35500000Y-59100000D03*
D14*
X44100000Y-80300000D03*
X44100000Y-85000000D03*
X44100000Y-89700000D03*
X48900000Y-80300000D03*
X48900000Y-85000000D03*
X48900000Y-89700000D03*
X44100000Y-57800000D03*
X44100000Y-62500000D03*
X44100000Y-67200000D03*
X48900000Y-57800000D03*
X48900000Y-62500000D03*
X48900000Y-67200000D03*
D18*
X35500000Y-33500000D03*
D19*
X35500000Y-44900000D03*
X35500000Y-36600000D03*
D15*
X45500000Y-123420000D03*
D16*
X45500000Y-133580000D03*
D17*
X45225000Y-50000000D03*
D13*
X47765000Y-50000000D03*
D18*
X35500000Y-78500000D03*
D19*
X35500000Y-89900000D03*
X35500000Y-81600000D03*
D20*
X31700000Y-132800000D03*
D16*
X34240000Y-132800000D03*
X36780000Y-132800000D03*
X39320000Y-132800000D03*
X39320000Y-125180000D03*
X36780000Y-125180000D03*
X34240000Y-125180000D03*
X31700000Y-125180000D03*
D18*
X65000000Y-122000000D03*
D19*
X65000000Y-133400000D03*
X65000000Y-125100000D03*
D20*
X32044888Y-120500000D03*
D15*
X34044888Y-120500000D03*
D21*
X43925000Y-136725000D03*
D22*
X43925000Y-139265000D03*
X46465000Y-136725000D03*
X46465000Y-139265000D03*
X49005000Y-136725000D03*
X49005000Y-139265000D03*
X51545000Y-136725000D03*
X51545000Y-139265000D03*
X54085000Y-136725000D03*
X54085000Y-139265000D03*
D20*
X34044888Y-137500000D03*
D15*
X36044888Y-137500000D03*
%LPD*%
M02*
