G04 #@! TF.GenerationSoftware,KiCad,Pcbnew,7.0.5.1-1-g8f565ef7f0-dirty-deb11*
G04 #@! TF.CreationDate,2023-06-10T15:43:27+00:00*
G04 #@! TF.ProjectId,Basic-DC-mixer,42617369-632d-4444-932d-6d697865722e,rev?*
G04 #@! TF.SameCoordinates,Original*
G04 #@! TF.FileFunction,Copper,L2,Bot*
G04 #@! TF.FilePolarity,Positive*
%FSLAX46Y46*%
G04 Gerber Fmt 4.6, Leading zero omitted, Abs format (unit mm)*
G04 Created by KiCad (PCBNEW 7.0.5.1-1-g8f565ef7f0-dirty-deb11) date 2023-06-10 15:43:27*
%MOMM*%
%LPD*%
G01*
G04 APERTURE LIST*
G04 #@! TA.AperFunction,WasherPad*
%ADD10C,4.000000*%
G04 #@! TD*
G04 #@! TA.AperFunction,ComponentPad*
%ADD11C,1.800000*%
G04 #@! TD*
G04 #@! TA.AperFunction,ComponentPad*
%ADD12O,3.700000X2.400000*%
G04 #@! TD*
G04 #@! TA.AperFunction,ComponentPad*
%ADD13C,1.600000*%
G04 #@! TD*
G04 #@! TA.AperFunction,ComponentPad*
%ADD14O,1.600000X1.600000*%
G04 #@! TD*
G04 #@! TA.AperFunction,ComponentPad*
%ADD15R,1.800000X1.800000*%
G04 #@! TD*
G04 #@! TA.AperFunction,ComponentPad*
%ADD16R,1.930000X1.830000*%
G04 #@! TD*
G04 #@! TA.AperFunction,ComponentPad*
%ADD17C,2.130000*%
G04 #@! TD*
G04 #@! TA.AperFunction,ComponentPad*
%ADD18R,1.600000X1.600000*%
G04 #@! TD*
G04 #@! TA.AperFunction,ComponentPad*
%ADD19R,1.700000X1.700000*%
G04 #@! TD*
G04 #@! TA.AperFunction,ComponentPad*
%ADD20O,1.700000X1.700000*%
G04 #@! TD*
G04 #@! TA.AperFunction,Conductor*
%ADD21C,0.250000*%
G04 #@! TD*
G04 APERTURE END LIST*
D10*
X56600000Y-85550000D03*
X65400000Y-85550000D03*
D11*
X63500000Y-92550000D03*
X61000000Y-92550000D03*
X58500000Y-92550000D03*
D10*
X56600000Y-108050000D03*
X65400000Y-108050000D03*
D11*
X63500000Y-115050000D03*
X61000000Y-115050000D03*
X58500000Y-115050000D03*
D12*
X44100000Y-102800000D03*
X44100000Y-107500000D03*
X44100000Y-112200000D03*
X48900000Y-102800000D03*
X48900000Y-107500000D03*
X48900000Y-112200000D03*
D13*
X42500000Y-133580000D03*
D14*
X42500000Y-123420000D03*
D15*
X45225000Y-72500000D03*
D11*
X47765000Y-72500000D03*
D13*
X68080000Y-118500000D03*
D14*
X57920000Y-118500000D03*
D13*
X68080000Y-96000000D03*
D14*
X57920000Y-96000000D03*
D10*
X56600000Y-63050000D03*
X65400000Y-63050000D03*
D11*
X63500000Y-70050000D03*
X61000000Y-70050000D03*
X58500000Y-70050000D03*
D13*
X31920000Y-48500000D03*
D14*
X42080000Y-48500000D03*
D13*
X31920000Y-116000000D03*
D14*
X42080000Y-116000000D03*
D15*
X45225000Y-95000000D03*
D11*
X47765000Y-95000000D03*
D16*
X55000000Y-122000000D03*
D17*
X55000000Y-133400000D03*
X55000000Y-125100000D03*
D13*
X31920000Y-71000000D03*
D14*
X42080000Y-71000000D03*
D16*
X35500000Y-101000000D03*
D17*
X35500000Y-112400000D03*
X35500000Y-104100000D03*
D13*
X48500000Y-133580000D03*
D14*
X48500000Y-123420000D03*
D12*
X44100000Y-35300000D03*
X44100000Y-40000000D03*
X44100000Y-44700000D03*
X48900000Y-35300000D03*
X48900000Y-40000000D03*
X48900000Y-44700000D03*
D10*
X56600000Y-40550000D03*
X65400000Y-40550000D03*
D11*
X63500000Y-47550000D03*
X61000000Y-47550000D03*
X58500000Y-47550000D03*
D13*
X31920000Y-93500000D03*
D14*
X42080000Y-93500000D03*
D15*
X45225000Y-117500000D03*
D11*
X47765000Y-117500000D03*
D13*
X68080000Y-73500000D03*
D14*
X57920000Y-73500000D03*
D13*
X68080000Y-51000000D03*
D14*
X57920000Y-51000000D03*
D16*
X35500000Y-56000000D03*
D17*
X35500000Y-67400000D03*
X35500000Y-59100000D03*
D12*
X44100000Y-80300000D03*
X44100000Y-85000000D03*
X44100000Y-89700000D03*
X48900000Y-80300000D03*
X48900000Y-85000000D03*
X48900000Y-89700000D03*
X44100000Y-57800000D03*
X44100000Y-62500000D03*
X44100000Y-67200000D03*
X48900000Y-57800000D03*
X48900000Y-62500000D03*
X48900000Y-67200000D03*
D16*
X35500000Y-33500000D03*
D17*
X35500000Y-44900000D03*
X35500000Y-36600000D03*
D13*
X45500000Y-123420000D03*
D14*
X45500000Y-133580000D03*
D15*
X45225000Y-50000000D03*
D11*
X47765000Y-50000000D03*
D16*
X35500000Y-78500000D03*
D17*
X35500000Y-89900000D03*
X35500000Y-81600000D03*
D18*
X31700000Y-132800000D03*
D14*
X34240000Y-132800000D03*
X36780000Y-132800000D03*
X39320000Y-132800000D03*
X39320000Y-125180000D03*
X36780000Y-125180000D03*
X34240000Y-125180000D03*
X31700000Y-125180000D03*
D16*
X65000000Y-122000000D03*
D17*
X65000000Y-133400000D03*
X65000000Y-125100000D03*
D18*
X32044888Y-120500000D03*
D13*
X34044888Y-120500000D03*
D19*
X43925000Y-136725000D03*
D20*
X43925000Y-139265000D03*
X46465000Y-136725000D03*
X46465000Y-139265000D03*
X49005000Y-136725000D03*
X49005000Y-139265000D03*
X51545000Y-136725000D03*
X51545000Y-139265000D03*
X54085000Y-136725000D03*
X54085000Y-139265000D03*
D18*
X34044888Y-137500000D03*
D13*
X36044888Y-137500000D03*
D21*
X32044888Y-120500000D02*
X32044888Y-116124888D01*
X32044888Y-116124888D02*
X31920000Y-116000000D01*
X31700000Y-125180000D02*
X31700000Y-120844888D01*
X42690000Y-140500000D02*
X33000000Y-140500000D01*
X43925000Y-139265000D02*
X42690000Y-140500000D01*
X30575489Y-138075489D02*
X30575489Y-126304511D01*
X33000000Y-140500000D02*
X30575489Y-138075489D01*
X31920000Y-71000000D02*
X31920000Y-48500000D01*
X31920000Y-116000000D02*
X31920000Y-93500000D01*
X30575489Y-126304511D02*
X31700000Y-125180000D01*
X31700000Y-120844888D02*
X32044888Y-120500000D01*
X43925000Y-136725000D02*
X43925000Y-139265000D01*
X31920000Y-93500000D02*
X31920000Y-71000000D01*
X39320000Y-134224888D02*
X36044888Y-137500000D01*
X54085000Y-136725000D02*
X54085000Y-139265000D01*
X39320000Y-132800000D02*
X39320000Y-134224888D01*
X34240000Y-125180000D02*
X42500000Y-133440000D01*
X42500000Y-133440000D02*
X42500000Y-133580000D01*
G04 #@! TA.AperFunction,Conductor*
G36*
X69936499Y-31017381D02*
G01*
X69982618Y-31063500D01*
X69999499Y-31126500D01*
X69999500Y-140873500D01*
X69982619Y-140936500D01*
X69936500Y-140982619D01*
X69873500Y-140999500D01*
X43390593Y-140999500D01*
X43333390Y-140985767D01*
X43288657Y-140947561D01*
X43266144Y-140893211D01*
X43270760Y-140834564D01*
X43301495Y-140784407D01*
X43467077Y-140618825D01*
X43527766Y-140585166D01*
X43579545Y-140587842D01*
X43580066Y-140584725D01*
X43590362Y-140586443D01*
X43590365Y-140586444D01*
X43812431Y-140623500D01*
X44037566Y-140623500D01*
X44037569Y-140623500D01*
X44259635Y-140586444D01*
X44472574Y-140513342D01*
X44670576Y-140406189D01*
X44848240Y-140267906D01*
X45000722Y-140102268D01*
X45089818Y-139965896D01*
X45135329Y-139923999D01*
X45195299Y-139908813D01*
X45255268Y-139923999D01*
X45300782Y-139965897D01*
X45389678Y-140101962D01*
X45542096Y-140267533D01*
X45719697Y-140405766D01*
X45917631Y-140512883D01*
X46130485Y-140585955D01*
X46211000Y-140599391D01*
X46211000Y-139519000D01*
X46719000Y-139519000D01*
X46719000Y-140599391D01*
X46799514Y-140585955D01*
X47012368Y-140512883D01*
X47210302Y-140405766D01*
X47387903Y-140267533D01*
X47540323Y-140101960D01*
X47629516Y-139965440D01*
X47675029Y-139923542D01*
X47734998Y-139908355D01*
X47794968Y-139923541D01*
X47840482Y-139965439D01*
X47929678Y-140101962D01*
X48082096Y-140267533D01*
X48259697Y-140405766D01*
X48457631Y-140512883D01*
X48670485Y-140585955D01*
X48751000Y-140599391D01*
X48751000Y-139519000D01*
X49259000Y-139519000D01*
X49259000Y-140599391D01*
X49339514Y-140585955D01*
X49552368Y-140512883D01*
X49750302Y-140405766D01*
X49927903Y-140267533D01*
X50080323Y-140101960D01*
X50169516Y-139965440D01*
X50215029Y-139923542D01*
X50274998Y-139908355D01*
X50334968Y-139923541D01*
X50380482Y-139965439D01*
X50469678Y-140101962D01*
X50622096Y-140267533D01*
X50799697Y-140405766D01*
X50997631Y-140512883D01*
X51210485Y-140585955D01*
X51291000Y-140599391D01*
X51799000Y-140599391D01*
X51879514Y-140585955D01*
X52092368Y-140512883D01*
X52290302Y-140405766D01*
X52467903Y-140267533D01*
X52620323Y-140101960D01*
X52709217Y-139965899D01*
X52754730Y-139924000D01*
X52814700Y-139908814D01*
X52874669Y-139924000D01*
X52920183Y-139965898D01*
X53009278Y-140102268D01*
X53161762Y-140267908D01*
X53339421Y-140406187D01*
X53339424Y-140406189D01*
X53537426Y-140513342D01*
X53750365Y-140586444D01*
X53972431Y-140623500D01*
X54197566Y-140623500D01*
X54197569Y-140623500D01*
X54419635Y-140586444D01*
X54632574Y-140513342D01*
X54830576Y-140406189D01*
X55008240Y-140267906D01*
X55160722Y-140102268D01*
X55283860Y-139913791D01*
X55374296Y-139707616D01*
X55429564Y-139489368D01*
X55448156Y-139265000D01*
X55429564Y-139040632D01*
X55374296Y-138822384D01*
X55283860Y-138616209D01*
X55160722Y-138427732D01*
X55008240Y-138262094D01*
X55008239Y-138262093D01*
X55008237Y-138262091D01*
X54830579Y-138123813D01*
X54830577Y-138123812D01*
X54830576Y-138123811D01*
X54797317Y-138105812D01*
X54749047Y-138059498D01*
X54731288Y-137995000D01*
X54749047Y-137930502D01*
X54797317Y-137884187D01*
X54830576Y-137866189D01*
X55008240Y-137727906D01*
X55160722Y-137562268D01*
X55283860Y-137373791D01*
X55374296Y-137167616D01*
X55429564Y-136949368D01*
X55448156Y-136725000D01*
X55429564Y-136500632D01*
X55374296Y-136282384D01*
X55283860Y-136076209D01*
X55160722Y-135887732D01*
X55008240Y-135722094D01*
X55008239Y-135722093D01*
X55008237Y-135722091D01*
X54830578Y-135583812D01*
X54632573Y-135476657D01*
X54421056Y-135404044D01*
X54419635Y-135403556D01*
X54197569Y-135366500D01*
X53972431Y-135366500D01*
X53750365Y-135403556D01*
X53750362Y-135403556D01*
X53750362Y-135403557D01*
X53537426Y-135476657D01*
X53339421Y-135583812D01*
X53161762Y-135722091D01*
X53009275Y-135887735D01*
X52920182Y-136024101D01*
X52874669Y-136065999D01*
X52814700Y-136081185D01*
X52754731Y-136065999D01*
X52709217Y-136024101D01*
X52620321Y-135888037D01*
X52467903Y-135722466D01*
X52290302Y-135584233D01*
X52092368Y-135477116D01*
X51879514Y-135404044D01*
X51799000Y-135390609D01*
X51799000Y-140599391D01*
X51291000Y-140599391D01*
X51291000Y-139519000D01*
X49259000Y-139519000D01*
X48751000Y-139519000D01*
X46719000Y-139519000D01*
X46211000Y-139519000D01*
X46211000Y-136979000D01*
X46719000Y-136979000D01*
X46719000Y-139011000D01*
X48751000Y-139011000D01*
X48751000Y-136979000D01*
X49259000Y-136979000D01*
X49259000Y-139011000D01*
X51291000Y-139011000D01*
X51291000Y-136979000D01*
X49259000Y-136979000D01*
X48751000Y-136979000D01*
X46719000Y-136979000D01*
X46211000Y-136979000D01*
X46211000Y-136471000D01*
X46719000Y-136471000D01*
X48751000Y-136471000D01*
X49259000Y-136471000D01*
X51291000Y-136471000D01*
X51291000Y-135390609D01*
X51210485Y-135404044D01*
X50997631Y-135477116D01*
X50799697Y-135584233D01*
X50622096Y-135722466D01*
X50469678Y-135888037D01*
X50380483Y-136024560D01*
X50334969Y-136066458D01*
X50275000Y-136081644D01*
X50215031Y-136066458D01*
X50169517Y-136024560D01*
X50080321Y-135888037D01*
X49927903Y-135722466D01*
X49750302Y-135584233D01*
X49552368Y-135477116D01*
X49339514Y-135404044D01*
X49259000Y-135390609D01*
X49259000Y-136471000D01*
X48751000Y-136471000D01*
X48751000Y-135390609D01*
X48670485Y-135404044D01*
X48457631Y-135477116D01*
X48259697Y-135584233D01*
X48082096Y-135722466D01*
X47929678Y-135888037D01*
X47840483Y-136024560D01*
X47794969Y-136066458D01*
X47735000Y-136081644D01*
X47675031Y-136066458D01*
X47629517Y-136024560D01*
X47540321Y-135888037D01*
X47387903Y-135722466D01*
X47210302Y-135584233D01*
X47012368Y-135477116D01*
X46799514Y-135404044D01*
X46719000Y-135390609D01*
X46719000Y-136471000D01*
X46211000Y-136471000D01*
X46211000Y-135390609D01*
X46130485Y-135404044D01*
X45917631Y-135477116D01*
X45719697Y-135584233D01*
X45542099Y-135722463D01*
X45480951Y-135788888D01*
X45427478Y-135823288D01*
X45364017Y-135827198D01*
X45306726Y-135799622D01*
X45270194Y-135747582D01*
X45260687Y-135722094D01*
X45225889Y-135628796D01*
X45225888Y-135628794D01*
X45138261Y-135511738D01*
X45021205Y-135424111D01*
X44952702Y-135398561D01*
X44884201Y-135373011D01*
X44823638Y-135366500D01*
X43026362Y-135366500D01*
X42965799Y-135373011D01*
X42828794Y-135424111D01*
X42711738Y-135511738D01*
X42624111Y-135628794D01*
X42579806Y-135747582D01*
X42573011Y-135765799D01*
X42566500Y-135826362D01*
X42566500Y-137623638D01*
X42573011Y-137684201D01*
X42589173Y-137727533D01*
X42624111Y-137821205D01*
X42711738Y-137938261D01*
X42828794Y-138025888D01*
X42828795Y-138025888D01*
X42828796Y-138025889D01*
X42943809Y-138068787D01*
X42994140Y-138103348D01*
X43022315Y-138157519D01*
X43021712Y-138218574D01*
X42992475Y-138272178D01*
X42849281Y-138427728D01*
X42726139Y-138616209D01*
X42635702Y-138822388D01*
X42580437Y-139040627D01*
X42580436Y-139040632D01*
X42561844Y-139264999D01*
X42561844Y-139265000D01*
X42580436Y-139489368D01*
X42608182Y-139598935D01*
X42607516Y-139663314D01*
X42575133Y-139718960D01*
X42464500Y-139829595D01*
X42423623Y-139856909D01*
X42375404Y-139866500D01*
X33314595Y-139866500D01*
X33266377Y-139856909D01*
X33225500Y-139829595D01*
X31245894Y-137849989D01*
X31218580Y-137809112D01*
X31208989Y-137760894D01*
X31208989Y-137754000D01*
X32736888Y-137754000D01*
X32736888Y-138348589D01*
X32743393Y-138409093D01*
X32794442Y-138545962D01*
X32881983Y-138662904D01*
X32998925Y-138750445D01*
X33135794Y-138801494D01*
X33196299Y-138808000D01*
X33790888Y-138808000D01*
X33790888Y-137754000D01*
X32736888Y-137754000D01*
X31208989Y-137754000D01*
X31208989Y-137246000D01*
X32736888Y-137246000D01*
X33790888Y-137246000D01*
X33790888Y-136192000D01*
X33196299Y-136192000D01*
X33135794Y-136198505D01*
X32998925Y-136249554D01*
X32881983Y-136337095D01*
X32794442Y-136454037D01*
X32743393Y-136590906D01*
X32736888Y-136651411D01*
X32736888Y-137246000D01*
X31208989Y-137246000D01*
X31208989Y-134234500D01*
X31225870Y-134171500D01*
X31271989Y-134125381D01*
X31334989Y-134108500D01*
X32548638Y-134108500D01*
X32609201Y-134101989D01*
X32746204Y-134050889D01*
X32863261Y-133963261D01*
X32950889Y-133846204D01*
X33001989Y-133709201D01*
X33002999Y-133699800D01*
X33023706Y-133642978D01*
X33068506Y-133602348D01*
X33127077Y-133587275D01*
X33185924Y-133601230D01*
X33231490Y-133640998D01*
X33233804Y-133644303D01*
X33395696Y-133806195D01*
X33583249Y-133937522D01*
X33790756Y-134034284D01*
X33850015Y-134050162D01*
X34011913Y-134093543D01*
X34240000Y-134113498D01*
X34468087Y-134093543D01*
X34689243Y-134034284D01*
X34896749Y-133937523D01*
X35084300Y-133806198D01*
X35246198Y-133644300D01*
X35377523Y-133456749D01*
X35396080Y-133416951D01*
X35442576Y-133363933D01*
X35510276Y-133344200D01*
X35577976Y-133363933D01*
X35624471Y-133416951D01*
X35642911Y-133456497D01*
X35774189Y-133643981D01*
X35936018Y-133805810D01*
X36123501Y-133937087D01*
X36330929Y-134033813D01*
X36526000Y-134086082D01*
X36526000Y-131513917D01*
X36330929Y-131566186D01*
X36123501Y-131662912D01*
X35936018Y-131794189D01*
X35774189Y-131956018D01*
X35642911Y-132143502D01*
X35624469Y-132183051D01*
X35577973Y-132236067D01*
X35510273Y-132255799D01*
X35442573Y-132236065D01*
X35396081Y-132183049D01*
X35377523Y-132143251D01*
X35246198Y-131955700D01*
X35246196Y-131955698D01*
X35246195Y-131955696D01*
X35084303Y-131793804D01*
X34896750Y-131662477D01*
X34689243Y-131565715D01*
X34468087Y-131506457D01*
X34240000Y-131486502D01*
X34011912Y-131506457D01*
X33790756Y-131565715D01*
X33583249Y-131662477D01*
X33395696Y-131793804D01*
X33233802Y-131955698D01*
X33231487Y-131959005D01*
X33185921Y-131998771D01*
X33127074Y-132012724D01*
X33068504Y-131997650D01*
X33023705Y-131957021D01*
X33002999Y-131900197D01*
X33002858Y-131898885D01*
X33001989Y-131890799D01*
X32950889Y-131753796D01*
X32950888Y-131753794D01*
X32863261Y-131636738D01*
X32746205Y-131549111D01*
X32631845Y-131506457D01*
X32609201Y-131498011D01*
X32548638Y-131491500D01*
X31334989Y-131491500D01*
X31271989Y-131474619D01*
X31225870Y-131428500D01*
X31208989Y-131365500D01*
X31208989Y-126619106D01*
X31218580Y-126570889D01*
X31245892Y-126530012D01*
X31262959Y-126512944D01*
X31286750Y-126489152D01*
X31343235Y-126456541D01*
X31408457Y-126456540D01*
X31471913Y-126473543D01*
X31700000Y-126493498D01*
X31928087Y-126473543D01*
X32149243Y-126414284D01*
X32356749Y-126317523D01*
X32544300Y-126186198D01*
X32706198Y-126024300D01*
X32837523Y-125836749D01*
X32855804Y-125797543D01*
X32902300Y-125744525D01*
X32970000Y-125724792D01*
X33037700Y-125744525D01*
X33084195Y-125797543D01*
X33102476Y-125836748D01*
X33233804Y-126024303D01*
X33395696Y-126186195D01*
X33583249Y-126317522D01*
X33790756Y-126414284D01*
X33844621Y-126428717D01*
X34011913Y-126473543D01*
X34240000Y-126493498D01*
X34468087Y-126473543D01*
X34531542Y-126456540D01*
X34596764Y-126456540D01*
X34653248Y-126489152D01*
X39437507Y-131273411D01*
X39468906Y-131325667D01*
X39472097Y-131386547D01*
X39446334Y-131441799D01*
X39397646Y-131478489D01*
X39337434Y-131488027D01*
X39320002Y-131486502D01*
X39320000Y-131486502D01*
X39167942Y-131499805D01*
X39091912Y-131506457D01*
X38870756Y-131565715D01*
X38663249Y-131662477D01*
X38475696Y-131793804D01*
X38313804Y-131955696D01*
X38182477Y-132143250D01*
X38163919Y-132183049D01*
X38117424Y-132236066D01*
X38049724Y-132255799D01*
X37982024Y-132236066D01*
X37935529Y-132183049D01*
X37917087Y-132143501D01*
X37785810Y-131956018D01*
X37623981Y-131794189D01*
X37436498Y-131662912D01*
X37229070Y-131566186D01*
X37034000Y-131513918D01*
X37034000Y-134086082D01*
X37229070Y-134033813D01*
X37436498Y-133937087D01*
X37623981Y-133805810D01*
X37785810Y-133643981D01*
X37917088Y-133456497D01*
X37935529Y-133416951D01*
X37982024Y-133363933D01*
X38049724Y-133344200D01*
X38117424Y-133363933D01*
X38163919Y-133416951D01*
X38182476Y-133456748D01*
X38313804Y-133644303D01*
X38475696Y-133806195D01*
X38568602Y-133871249D01*
X38605450Y-133911462D01*
X38621852Y-133963481D01*
X38614732Y-134017557D01*
X38585426Y-134063557D01*
X36458134Y-136190847D01*
X36401650Y-136223459D01*
X36336428Y-136223459D01*
X36272975Y-136206457D01*
X36044888Y-136186502D01*
X35816800Y-136206457D01*
X35595645Y-136265715D01*
X35388137Y-136362478D01*
X35382265Y-136366590D01*
X35322303Y-136388772D01*
X35259173Y-136378668D01*
X35209128Y-136338881D01*
X35207790Y-136337093D01*
X35090850Y-136249554D01*
X34953981Y-136198505D01*
X34893477Y-136192000D01*
X34298888Y-136192000D01*
X34298888Y-138808000D01*
X34893477Y-138808000D01*
X34953981Y-138801494D01*
X35090850Y-138750445D01*
X35207788Y-138662906D01*
X35209124Y-138661122D01*
X35259170Y-138621331D01*
X35322304Y-138611227D01*
X35382269Y-138633413D01*
X35388139Y-138637523D01*
X35523396Y-138700594D01*
X35595644Y-138734284D01*
X35654902Y-138750162D01*
X35816801Y-138793543D01*
X36044888Y-138813498D01*
X36272975Y-138793543D01*
X36494131Y-138734284D01*
X36701637Y-138637523D01*
X36889188Y-138506198D01*
X37051086Y-138344300D01*
X37182411Y-138156749D01*
X37279172Y-137949243D01*
X37338431Y-137728087D01*
X37358386Y-137500000D01*
X37338431Y-137271913D01*
X37321427Y-137208457D01*
X37321427Y-137143235D01*
X37354037Y-137086753D01*
X39708659Y-134732132D01*
X39724980Y-134719057D01*
X39727014Y-134716889D01*
X39727018Y-134716888D01*
X39773660Y-134667217D01*
X39776351Y-134664440D01*
X39796135Y-134644658D01*
X39798621Y-134641452D01*
X39806310Y-134632449D01*
X39836586Y-134600209D01*
X39846342Y-134582459D01*
X39857195Y-134565938D01*
X39869614Y-134549929D01*
X39887175Y-134509342D01*
X39892388Y-134498701D01*
X39913695Y-134459948D01*
X39918733Y-134440322D01*
X39925137Y-134421620D01*
X39933181Y-134403032D01*
X39940096Y-134359370D01*
X39942504Y-134347741D01*
X39953500Y-134304917D01*
X39953500Y-134284664D01*
X39955051Y-134264954D01*
X39958220Y-134244945D01*
X39954059Y-134200927D01*
X39953500Y-134189069D01*
X39953500Y-134019393D01*
X39967737Y-133961213D01*
X40007227Y-133916181D01*
X40164300Y-133806198D01*
X40326198Y-133644300D01*
X40457523Y-133456749D01*
X40554284Y-133249243D01*
X40613543Y-133028087D01*
X40633498Y-132800000D01*
X40631973Y-132782570D01*
X40641509Y-132722357D01*
X40678198Y-132673668D01*
X40733451Y-132647903D01*
X40794332Y-132651094D01*
X40846588Y-132682493D01*
X41220433Y-133056338D01*
X41253045Y-133112822D01*
X41253045Y-133178044D01*
X41206457Y-133351912D01*
X41206457Y-133351913D01*
X41186502Y-133580000D01*
X41188359Y-133601230D01*
X41206457Y-133808087D01*
X41265715Y-134029243D01*
X41362477Y-134236750D01*
X41493804Y-134424303D01*
X41655696Y-134586195D01*
X41843249Y-134717522D01*
X42050756Y-134814284D01*
X42110014Y-134830162D01*
X42271913Y-134873543D01*
X42500000Y-134893498D01*
X42728087Y-134873543D01*
X42949243Y-134814284D01*
X43156749Y-134717523D01*
X43344300Y-134586198D01*
X43506198Y-134424300D01*
X43637523Y-134236749D01*
X43734284Y-134029243D01*
X43793543Y-133808087D01*
X43813498Y-133580000D01*
X44186502Y-133580000D01*
X44188359Y-133601230D01*
X44206457Y-133808087D01*
X44265715Y-134029243D01*
X44362477Y-134236750D01*
X44493804Y-134424303D01*
X44655696Y-134586195D01*
X44843249Y-134717522D01*
X45050756Y-134814284D01*
X45110014Y-134830162D01*
X45271913Y-134873543D01*
X45500000Y-134893498D01*
X45728087Y-134873543D01*
X45949243Y-134814284D01*
X46156749Y-134717523D01*
X46344300Y-134586198D01*
X46506198Y-134424300D01*
X46637523Y-134236749D01*
X46734284Y-134029243D01*
X46793543Y-133808087D01*
X46813498Y-133580000D01*
X47186502Y-133580000D01*
X47188359Y-133601230D01*
X47206457Y-133808087D01*
X47265715Y-134029243D01*
X47362477Y-134236750D01*
X47493804Y-134424303D01*
X47655696Y-134586195D01*
X47843249Y-134717522D01*
X48050756Y-134814284D01*
X48110014Y-134830162D01*
X48271913Y-134873543D01*
X48500000Y-134893498D01*
X48728087Y-134873543D01*
X48949243Y-134814284D01*
X49156749Y-134717523D01*
X49344300Y-134586198D01*
X49506198Y-134424300D01*
X49637523Y-134236749D01*
X49734284Y-134029243D01*
X49793543Y-133808087D01*
X49813498Y-133580000D01*
X49797750Y-133400000D01*
X53421634Y-133400000D01*
X53441066Y-133646911D01*
X53498885Y-133887743D01*
X53559585Y-134034284D01*
X53593666Y-134116563D01*
X53723075Y-134327740D01*
X53723076Y-134327742D01*
X53723078Y-134327744D01*
X53883926Y-134516073D01*
X54072255Y-134676921D01*
X54072260Y-134676925D01*
X54283437Y-134806334D01*
X54512258Y-134901115D01*
X54753089Y-134958934D01*
X55000000Y-134978366D01*
X55246911Y-134958934D01*
X55487742Y-134901115D01*
X55716563Y-134806334D01*
X55927740Y-134676925D01*
X56116073Y-134516073D01*
X56276925Y-134327740D01*
X56406334Y-134116563D01*
X56501115Y-133887742D01*
X56558934Y-133646911D01*
X56578366Y-133400000D01*
X56578366Y-133399999D01*
X63421634Y-133399999D01*
X63441066Y-133646911D01*
X63498885Y-133887743D01*
X63559585Y-134034284D01*
X63593666Y-134116563D01*
X63723075Y-134327740D01*
X63723076Y-134327742D01*
X63723078Y-134327744D01*
X63883926Y-134516073D01*
X64072255Y-134676921D01*
X64072260Y-134676925D01*
X64283437Y-134806334D01*
X64512258Y-134901115D01*
X64753089Y-134958934D01*
X65000000Y-134978366D01*
X65246911Y-134958934D01*
X65487742Y-134901115D01*
X65716563Y-134806334D01*
X65927740Y-134676925D01*
X66116073Y-134516073D01*
X66276925Y-134327740D01*
X66406334Y-134116563D01*
X66501115Y-133887742D01*
X66558934Y-133646911D01*
X66578366Y-133400000D01*
X66558934Y-133153089D01*
X66501115Y-132912258D01*
X66406334Y-132683437D01*
X66276925Y-132472260D01*
X66219157Y-132404622D01*
X66116073Y-132283926D01*
X65927744Y-132123078D01*
X65927742Y-132123076D01*
X65927740Y-132123075D01*
X65716563Y-131993666D01*
X65716561Y-131993665D01*
X65487743Y-131898885D01*
X65246911Y-131841066D01*
X65000000Y-131821634D01*
X64753088Y-131841066D01*
X64512256Y-131898885D01*
X64283438Y-131993665D01*
X64072255Y-132123078D01*
X63883926Y-132283926D01*
X63723078Y-132472255D01*
X63593665Y-132683438D01*
X63498885Y-132912256D01*
X63441066Y-133153088D01*
X63421634Y-133399999D01*
X56578366Y-133399999D01*
X56558934Y-133153089D01*
X56501115Y-132912258D01*
X56406334Y-132683437D01*
X56276925Y-132472260D01*
X56219157Y-132404622D01*
X56116073Y-132283926D01*
X55927744Y-132123078D01*
X55927742Y-132123076D01*
X55927740Y-132123075D01*
X55716563Y-131993666D01*
X55716561Y-131993665D01*
X55487743Y-131898885D01*
X55246911Y-131841066D01*
X55000000Y-131821634D01*
X54753088Y-131841066D01*
X54512256Y-131898885D01*
X54283438Y-131993665D01*
X54072255Y-132123078D01*
X53883926Y-132283926D01*
X53723078Y-132472255D01*
X53593665Y-132683438D01*
X53498885Y-132912256D01*
X53441066Y-133153088D01*
X53421634Y-133400000D01*
X49797750Y-133400000D01*
X49793543Y-133351913D01*
X49734284Y-133130757D01*
X49637523Y-132923251D01*
X49629824Y-132912256D01*
X49549817Y-132797995D01*
X49506198Y-132735700D01*
X49506197Y-132735699D01*
X49506195Y-132735696D01*
X49344303Y-132573804D01*
X49156750Y-132442477D01*
X48949243Y-132345715D01*
X48728087Y-132286457D01*
X48500000Y-132266502D01*
X48271912Y-132286457D01*
X48050756Y-132345715D01*
X47843249Y-132442477D01*
X47655696Y-132573804D01*
X47493804Y-132735696D01*
X47362477Y-132923249D01*
X47265715Y-133130756D01*
X47206457Y-133351912D01*
X47206457Y-133351913D01*
X47186502Y-133580000D01*
X46813498Y-133580000D01*
X46793543Y-133351913D01*
X46734284Y-133130757D01*
X46637523Y-132923251D01*
X46629824Y-132912256D01*
X46549817Y-132797995D01*
X46506198Y-132735700D01*
X46506197Y-132735699D01*
X46506195Y-132735696D01*
X46344303Y-132573804D01*
X46156750Y-132442477D01*
X45949243Y-132345715D01*
X45728087Y-132286457D01*
X45500000Y-132266502D01*
X45271912Y-132286457D01*
X45050756Y-132345715D01*
X44843249Y-132442477D01*
X44655696Y-132573804D01*
X44493804Y-132735696D01*
X44362477Y-132923249D01*
X44265715Y-133130756D01*
X44206457Y-133351912D01*
X44206457Y-133351913D01*
X44186502Y-133580000D01*
X43813498Y-133580000D01*
X43793543Y-133351913D01*
X43734284Y-133130757D01*
X43637523Y-132923251D01*
X43629824Y-132912256D01*
X43549817Y-132797995D01*
X43506198Y-132735700D01*
X43506197Y-132735699D01*
X43506195Y-132735696D01*
X43344303Y-132573804D01*
X43156750Y-132442477D01*
X42949243Y-132345715D01*
X42728087Y-132286457D01*
X42615352Y-132276594D01*
X42500000Y-132266502D01*
X42499999Y-132266502D01*
X42440821Y-132271679D01*
X42303267Y-132283713D01*
X42249192Y-132276594D01*
X42203192Y-132247288D01*
X36662492Y-126706588D01*
X36631093Y-126654332D01*
X36627902Y-126593451D01*
X36653667Y-126538198D01*
X36702355Y-126501509D01*
X36762569Y-126491973D01*
X36780000Y-126493498D01*
X37008087Y-126473543D01*
X37229243Y-126414284D01*
X37436749Y-126317523D01*
X37624300Y-126186198D01*
X37786198Y-126024300D01*
X37917523Y-125836749D01*
X37936080Y-125796951D01*
X37982576Y-125743933D01*
X38050276Y-125724200D01*
X38117976Y-125743933D01*
X38164471Y-125796951D01*
X38182911Y-125836497D01*
X38314189Y-126023981D01*
X38476018Y-126185810D01*
X38663501Y-126317087D01*
X38870929Y-126413813D01*
X39066000Y-126466082D01*
X39066000Y-125434000D01*
X39574000Y-125434000D01*
X39574000Y-126466082D01*
X39769070Y-126413813D01*
X39976498Y-126317087D01*
X40163981Y-126185810D01*
X40325810Y-126023981D01*
X40457087Y-125836498D01*
X40553813Y-125629070D01*
X40606082Y-125434000D01*
X39574000Y-125434000D01*
X39066000Y-125434000D01*
X39066000Y-125100000D01*
X53421634Y-125100000D01*
X53441066Y-125346911D01*
X53498885Y-125587743D01*
X53593665Y-125816561D01*
X53593666Y-125816563D01*
X53723075Y-126027740D01*
X53723076Y-126027742D01*
X53723078Y-126027744D01*
X53883926Y-126216073D01*
X54002708Y-126317522D01*
X54072260Y-126376925D01*
X54283437Y-126506334D01*
X54512258Y-126601115D01*
X54753089Y-126658934D01*
X55000000Y-126678366D01*
X55246911Y-126658934D01*
X55487742Y-126601115D01*
X55716563Y-126506334D01*
X55927740Y-126376925D01*
X56116073Y-126216073D01*
X56276925Y-126027740D01*
X56406334Y-125816563D01*
X56501115Y-125587742D01*
X56558934Y-125346911D01*
X56578366Y-125100000D01*
X63421634Y-125100000D01*
X63441066Y-125346911D01*
X63498885Y-125587743D01*
X63593665Y-125816561D01*
X63593666Y-125816563D01*
X63723075Y-126027740D01*
X63723076Y-126027742D01*
X63723078Y-126027744D01*
X63883926Y-126216073D01*
X64002708Y-126317522D01*
X64072260Y-126376925D01*
X64283437Y-126506334D01*
X64512258Y-126601115D01*
X64753089Y-126658934D01*
X65000000Y-126678366D01*
X65246911Y-126658934D01*
X65487742Y-126601115D01*
X65716563Y-126506334D01*
X65927740Y-126376925D01*
X66116073Y-126216073D01*
X66276925Y-126027740D01*
X66406334Y-125816563D01*
X66501115Y-125587742D01*
X66558934Y-125346911D01*
X66578366Y-125100000D01*
X66558934Y-124853089D01*
X66501115Y-124612258D01*
X66406334Y-124383437D01*
X66276925Y-124172260D01*
X66195351Y-124076749D01*
X66116073Y-123983926D01*
X65927744Y-123823078D01*
X65927742Y-123823076D01*
X65927740Y-123823075D01*
X65716563Y-123693666D01*
X65648345Y-123665409D01*
X65594627Y-123623061D01*
X65570951Y-123558886D01*
X65584296Y-123491797D01*
X65630728Y-123441567D01*
X65696563Y-123423000D01*
X66013589Y-123423000D01*
X66074093Y-123416494D01*
X66210962Y-123365445D01*
X66327904Y-123277904D01*
X66415445Y-123160962D01*
X66466494Y-123024093D01*
X66473000Y-122963589D01*
X66473000Y-122254000D01*
X63527000Y-122254000D01*
X63527000Y-122963589D01*
X63533505Y-123024093D01*
X63584554Y-123160962D01*
X63672095Y-123277904D01*
X63789037Y-123365445D01*
X63925906Y-123416494D01*
X63986411Y-123423000D01*
X64303437Y-123423000D01*
X64369272Y-123441567D01*
X64415704Y-123491797D01*
X64429049Y-123558886D01*
X64405373Y-123623061D01*
X64351655Y-123665409D01*
X64283438Y-123693665D01*
X64072255Y-123823078D01*
X63883926Y-123983926D01*
X63723078Y-124172255D01*
X63593665Y-124383438D01*
X63498885Y-124612256D01*
X63441066Y-124853088D01*
X63421634Y-125100000D01*
X56578366Y-125100000D01*
X56558934Y-124853089D01*
X56501115Y-124612258D01*
X56406334Y-124383437D01*
X56276925Y-124172260D01*
X56195351Y-124076749D01*
X56116073Y-123983926D01*
X55927744Y-123823078D01*
X55927742Y-123823076D01*
X55927740Y-123823075D01*
X55716563Y-123693666D01*
X55648345Y-123665409D01*
X55594627Y-123623061D01*
X55570951Y-123558886D01*
X55584296Y-123491797D01*
X55630728Y-123441567D01*
X55696563Y-123423000D01*
X56013589Y-123423000D01*
X56074093Y-123416494D01*
X56210962Y-123365445D01*
X56327904Y-123277904D01*
X56415445Y-123160962D01*
X56466494Y-123024093D01*
X56473000Y-122963589D01*
X56473000Y-122254000D01*
X53527000Y-122254000D01*
X53527000Y-122963589D01*
X53533505Y-123024093D01*
X53584554Y-123160962D01*
X53672095Y-123277904D01*
X53789037Y-123365445D01*
X53925906Y-123416494D01*
X53986411Y-123423000D01*
X54303437Y-123423000D01*
X54369272Y-123441567D01*
X54415704Y-123491797D01*
X54429049Y-123558886D01*
X54405373Y-123623061D01*
X54351655Y-123665409D01*
X54283438Y-123693665D01*
X54072255Y-123823078D01*
X53883926Y-123983926D01*
X53723078Y-124172255D01*
X53593665Y-124383438D01*
X53498885Y-124612256D01*
X53441066Y-124853088D01*
X53421634Y-125100000D01*
X39066000Y-125100000D01*
X39066000Y-123893917D01*
X39573999Y-123893917D01*
X39574000Y-123893918D01*
X39574000Y-124926000D01*
X40606082Y-124926000D01*
X40553813Y-124730929D01*
X40457087Y-124523501D01*
X40325810Y-124336018D01*
X40163981Y-124174189D01*
X39976498Y-124042912D01*
X39769070Y-123946186D01*
X39573999Y-123893917D01*
X39066000Y-123893917D01*
X38870929Y-123946186D01*
X38663501Y-124042912D01*
X38476018Y-124174189D01*
X38314189Y-124336018D01*
X38182911Y-124523502D01*
X38164469Y-124563051D01*
X38117973Y-124616067D01*
X38050273Y-124635799D01*
X37982573Y-124616065D01*
X37936081Y-124563049D01*
X37917523Y-124523251D01*
X37786198Y-124335700D01*
X37786197Y-124335699D01*
X37786195Y-124335696D01*
X37624303Y-124173804D01*
X37436750Y-124042477D01*
X37229243Y-123945715D01*
X37008087Y-123886457D01*
X36780000Y-123866502D01*
X36551912Y-123886457D01*
X36330756Y-123945715D01*
X36123249Y-124042477D01*
X35935696Y-124173804D01*
X35773804Y-124335696D01*
X35642477Y-124523250D01*
X35624195Y-124562457D01*
X35577700Y-124615474D01*
X35510000Y-124635207D01*
X35442300Y-124615474D01*
X35395805Y-124562457D01*
X35377640Y-124523502D01*
X35377523Y-124523251D01*
X35246198Y-124335700D01*
X35246197Y-124335699D01*
X35246195Y-124335696D01*
X35084303Y-124173804D01*
X34896750Y-124042477D01*
X34689243Y-123945715D01*
X34468087Y-123886457D01*
X34240000Y-123866502D01*
X34011912Y-123886457D01*
X33790756Y-123945715D01*
X33583249Y-124042477D01*
X33395696Y-124173804D01*
X33233804Y-124335696D01*
X33102477Y-124523250D01*
X33084195Y-124562457D01*
X33037700Y-124615474D01*
X32970000Y-124635207D01*
X32902300Y-124615474D01*
X32855805Y-124562457D01*
X32837640Y-124523502D01*
X32837523Y-124523251D01*
X32706198Y-124335700D01*
X32706197Y-124335699D01*
X32706195Y-124335696D01*
X32544303Y-124173804D01*
X32522158Y-124158297D01*
X32387227Y-124063818D01*
X32347737Y-124018787D01*
X32333500Y-123960607D01*
X32333500Y-123420000D01*
X41186502Y-123420000D01*
X41188389Y-123441567D01*
X41206457Y-123648087D01*
X41265715Y-123869243D01*
X41362477Y-124076750D01*
X41493804Y-124264303D01*
X41655696Y-124426195D01*
X41843249Y-124557522D01*
X42050756Y-124654284D01*
X42110014Y-124670162D01*
X42271913Y-124713543D01*
X42500000Y-124733498D01*
X42728087Y-124713543D01*
X42949243Y-124654284D01*
X43156749Y-124557523D01*
X43344300Y-124426198D01*
X43506198Y-124264300D01*
X43637523Y-124076749D01*
X43734284Y-123869243D01*
X43793543Y-123648087D01*
X43813498Y-123420000D01*
X44186502Y-123420000D01*
X44188389Y-123441567D01*
X44206457Y-123648087D01*
X44265715Y-123869243D01*
X44362477Y-124076750D01*
X44493804Y-124264303D01*
X44655696Y-124426195D01*
X44843249Y-124557522D01*
X45050756Y-124654284D01*
X45110014Y-124670162D01*
X45271913Y-124713543D01*
X45500000Y-124733498D01*
X45728087Y-124713543D01*
X45949243Y-124654284D01*
X46156749Y-124557523D01*
X46344300Y-124426198D01*
X46506198Y-124264300D01*
X46637523Y-124076749D01*
X46734284Y-123869243D01*
X46793543Y-123648087D01*
X46813498Y-123420000D01*
X47186502Y-123420000D01*
X47188389Y-123441567D01*
X47206457Y-123648087D01*
X47265715Y-123869243D01*
X47362477Y-124076750D01*
X47493804Y-124264303D01*
X47655696Y-124426195D01*
X47843249Y-124557522D01*
X48050756Y-124654284D01*
X48110014Y-124670162D01*
X48271913Y-124713543D01*
X48500000Y-124733498D01*
X48728087Y-124713543D01*
X48949243Y-124654284D01*
X49156749Y-124557523D01*
X49344300Y-124426198D01*
X49506198Y-124264300D01*
X49637523Y-124076749D01*
X49734284Y-123869243D01*
X49793543Y-123648087D01*
X49813498Y-123420000D01*
X49793543Y-123191913D01*
X49734284Y-122970757D01*
X49637523Y-122763251D01*
X49506198Y-122575700D01*
X49506197Y-122575699D01*
X49506195Y-122575696D01*
X49344303Y-122413804D01*
X49156750Y-122282477D01*
X48949243Y-122185715D01*
X48728087Y-122126457D01*
X48500000Y-122106502D01*
X48271912Y-122126457D01*
X48050756Y-122185715D01*
X47843249Y-122282477D01*
X47655696Y-122413804D01*
X47493804Y-122575696D01*
X47362477Y-122763249D01*
X47265715Y-122970756D01*
X47214750Y-123160962D01*
X47206457Y-123191913D01*
X47186502Y-123420000D01*
X46813498Y-123420000D01*
X46793543Y-123191913D01*
X46734284Y-122970757D01*
X46637523Y-122763251D01*
X46506198Y-122575700D01*
X46506197Y-122575699D01*
X46506195Y-122575696D01*
X46344303Y-122413804D01*
X46156750Y-122282477D01*
X45949243Y-122185715D01*
X45728087Y-122126457D01*
X45500000Y-122106502D01*
X45271912Y-122126457D01*
X45050756Y-122185715D01*
X44843249Y-122282477D01*
X44655696Y-122413804D01*
X44493804Y-122575696D01*
X44362477Y-122763249D01*
X44265715Y-122970756D01*
X44214750Y-123160962D01*
X44206457Y-123191913D01*
X44186502Y-123420000D01*
X43813498Y-123420000D01*
X43793543Y-123191913D01*
X43734284Y-122970757D01*
X43637523Y-122763251D01*
X43506198Y-122575700D01*
X43506197Y-122575699D01*
X43506195Y-122575696D01*
X43344303Y-122413804D01*
X43156750Y-122282477D01*
X42949243Y-122185715D01*
X42728087Y-122126457D01*
X42500000Y-122106502D01*
X42271912Y-122126457D01*
X42050756Y-122185715D01*
X41843249Y-122282477D01*
X41655696Y-122413804D01*
X41493804Y-122575696D01*
X41362477Y-122763249D01*
X41265715Y-122970756D01*
X41214750Y-123160962D01*
X41206457Y-123191913D01*
X41186502Y-123420000D01*
X32333500Y-123420000D01*
X32333500Y-121934500D01*
X32350381Y-121871500D01*
X32396500Y-121825381D01*
X32459500Y-121808500D01*
X32893526Y-121808500D01*
X32954089Y-121801989D01*
X33091092Y-121750889D01*
X33208149Y-121663261D01*
X33209838Y-121661003D01*
X33259882Y-121621216D01*
X33323016Y-121611114D01*
X33382981Y-121633300D01*
X33388391Y-121637088D01*
X33595817Y-121733813D01*
X33816888Y-121793048D01*
X34044888Y-121812995D01*
X34272887Y-121793048D01*
X34448475Y-121746000D01*
X53527000Y-121746000D01*
X54746000Y-121746000D01*
X54746000Y-120577000D01*
X55254000Y-120577000D01*
X55254000Y-121746000D01*
X56473000Y-121746000D01*
X63527000Y-121746000D01*
X64746000Y-121746000D01*
X64746000Y-120577000D01*
X65254000Y-120577000D01*
X65254000Y-121746000D01*
X66473000Y-121746000D01*
X66473000Y-121036411D01*
X66466494Y-120975906D01*
X66415445Y-120839037D01*
X66327904Y-120722095D01*
X66210962Y-120634554D01*
X66074093Y-120583505D01*
X66013589Y-120577000D01*
X65254000Y-120577000D01*
X64746000Y-120577000D01*
X63986411Y-120577000D01*
X63925906Y-120583505D01*
X63789037Y-120634554D01*
X63672095Y-120722095D01*
X63584554Y-120839037D01*
X63533505Y-120975906D01*
X63527000Y-121036411D01*
X63527000Y-121746000D01*
X56473000Y-121746000D01*
X56473000Y-121036411D01*
X56466494Y-120975906D01*
X56415445Y-120839037D01*
X56327904Y-120722095D01*
X56210962Y-120634554D01*
X56074093Y-120583505D01*
X56013589Y-120577000D01*
X55254000Y-120577000D01*
X54746000Y-120577000D01*
X53986411Y-120577000D01*
X53925906Y-120583505D01*
X53789037Y-120634554D01*
X53672095Y-120722095D01*
X53584554Y-120839037D01*
X53533505Y-120975906D01*
X53527000Y-121036411D01*
X53527000Y-121746000D01*
X34448475Y-121746000D01*
X34493958Y-121733813D01*
X34701386Y-121637087D01*
X34772776Y-121587099D01*
X34772776Y-121587097D01*
X33774773Y-120589094D01*
X33742161Y-120532610D01*
X33742161Y-120500001D01*
X34404098Y-120500001D01*
X35131985Y-121227888D01*
X35131987Y-121227888D01*
X35181975Y-121156498D01*
X35278701Y-120949070D01*
X35337936Y-120727999D01*
X35357883Y-120499999D01*
X35337936Y-120272000D01*
X35278701Y-120050929D01*
X35181973Y-119843497D01*
X35131988Y-119772110D01*
X35131986Y-119772110D01*
X34404098Y-120500000D01*
X34404098Y-120500001D01*
X33742161Y-120500001D01*
X33742161Y-120467388D01*
X33774773Y-120410903D01*
X34044888Y-120140789D01*
X34044891Y-120140786D01*
X34772776Y-119412899D01*
X34701385Y-119362912D01*
X34493958Y-119266186D01*
X34272887Y-119206951D01*
X34044888Y-119187004D01*
X33816888Y-119206951D01*
X33595817Y-119266186D01*
X33388386Y-119362914D01*
X33382972Y-119366705D01*
X33323011Y-119388886D01*
X33259882Y-119378782D01*
X33209839Y-119338997D01*
X33208149Y-119336739D01*
X33208148Y-119336738D01*
X33091091Y-119249110D01*
X33005187Y-119217070D01*
X32954089Y-119198011D01*
X32893526Y-119191500D01*
X32804388Y-119191500D01*
X32741388Y-119174619D01*
X32695269Y-119128500D01*
X32678388Y-119065500D01*
X32678388Y-118448638D01*
X43816500Y-118448638D01*
X43823011Y-118509201D01*
X43834431Y-118539818D01*
X43874111Y-118646205D01*
X43961738Y-118763261D01*
X44078794Y-118850888D01*
X44078795Y-118850888D01*
X44078796Y-118850889D01*
X44215799Y-118901989D01*
X44276362Y-118908500D01*
X46173638Y-118908500D01*
X46234201Y-118901989D01*
X46371204Y-118850889D01*
X46488261Y-118763261D01*
X46575889Y-118646204D01*
X46599258Y-118583549D01*
X46635788Y-118531512D01*
X46693077Y-118503936D01*
X46756538Y-118507844D01*
X46798450Y-118534805D01*
X46799541Y-118533405D01*
X46807779Y-118539816D01*
X46807780Y-118539818D01*
X46991983Y-118683190D01*
X47197273Y-118794287D01*
X47418049Y-118870080D01*
X47648288Y-118908500D01*
X47881709Y-118908500D01*
X47881712Y-118908500D01*
X48111951Y-118870080D01*
X48332727Y-118794287D01*
X48538017Y-118683190D01*
X48722220Y-118539818D01*
X48758876Y-118499999D01*
X56606502Y-118499999D01*
X56626457Y-118728087D01*
X56685715Y-118949243D01*
X56782477Y-119156750D01*
X56913804Y-119344303D01*
X57075696Y-119506195D01*
X57263249Y-119637522D01*
X57470756Y-119734284D01*
X57530014Y-119750162D01*
X57691913Y-119793543D01*
X57920000Y-119813498D01*
X58148087Y-119793543D01*
X58369243Y-119734284D01*
X58576749Y-119637523D01*
X58764300Y-119506198D01*
X58926198Y-119344300D01*
X59057523Y-119156749D01*
X59154284Y-118949243D01*
X59213543Y-118728087D01*
X59233498Y-118500000D01*
X66766502Y-118500000D01*
X66786457Y-118728087D01*
X66845715Y-118949243D01*
X66942477Y-119156750D01*
X67073804Y-119344303D01*
X67235696Y-119506195D01*
X67423249Y-119637522D01*
X67630756Y-119734284D01*
X67690014Y-119750162D01*
X67851913Y-119793543D01*
X68080000Y-119813498D01*
X68308087Y-119793543D01*
X68529243Y-119734284D01*
X68736749Y-119637523D01*
X68924300Y-119506198D01*
X69086198Y-119344300D01*
X69217523Y-119156749D01*
X69314284Y-118949243D01*
X69373543Y-118728087D01*
X69393498Y-118500000D01*
X69373543Y-118271913D01*
X69314284Y-118050757D01*
X69217523Y-117843251D01*
X69086198Y-117655700D01*
X69086197Y-117655699D01*
X69086195Y-117655696D01*
X68924303Y-117493804D01*
X68736750Y-117362477D01*
X68529243Y-117265715D01*
X68308087Y-117206457D01*
X68080000Y-117186502D01*
X67851912Y-117206457D01*
X67630756Y-117265715D01*
X67423249Y-117362477D01*
X67235696Y-117493804D01*
X67073804Y-117655696D01*
X66942477Y-117843249D01*
X66845715Y-118050756D01*
X66786457Y-118271912D01*
X66766502Y-118500000D01*
X59233498Y-118500000D01*
X59213543Y-118271913D01*
X59154284Y-118050757D01*
X59057523Y-117843251D01*
X58926198Y-117655700D01*
X58926197Y-117655699D01*
X58926195Y-117655696D01*
X58764303Y-117493804D01*
X58576750Y-117362477D01*
X58369243Y-117265715D01*
X58148087Y-117206457D01*
X57920000Y-117186502D01*
X57691912Y-117206457D01*
X57470756Y-117265715D01*
X57263249Y-117362477D01*
X57075696Y-117493804D01*
X56913804Y-117655696D01*
X56782477Y-117843249D01*
X56685715Y-118050756D01*
X56626457Y-118271912D01*
X56606502Y-118499999D01*
X48758876Y-118499999D01*
X48880314Y-118368083D01*
X49007984Y-118172669D01*
X49101749Y-117958907D01*
X49159051Y-117732626D01*
X49178327Y-117500000D01*
X49159051Y-117267374D01*
X49101749Y-117041093D01*
X49007984Y-116827331D01*
X48880314Y-116631917D01*
X48722220Y-116460182D01*
X48538017Y-116316810D01*
X48506779Y-116299904D01*
X48341625Y-116210528D01*
X57698680Y-116210528D01*
X57698681Y-116210529D01*
X57727254Y-116232768D01*
X57932474Y-116343828D01*
X58153169Y-116419592D01*
X58383332Y-116458000D01*
X58616668Y-116458000D01*
X58846830Y-116419592D01*
X59067525Y-116343828D01*
X59272744Y-116232770D01*
X59301317Y-116210529D01*
X59301317Y-116210528D01*
X58500000Y-115409210D01*
X58499999Y-115409210D01*
X57698680Y-116210528D01*
X48341625Y-116210528D01*
X48332726Y-116205712D01*
X48167852Y-116149111D01*
X48111951Y-116129920D01*
X47881712Y-116091500D01*
X47648288Y-116091500D01*
X47418049Y-116129920D01*
X47418046Y-116129920D01*
X47418046Y-116129921D01*
X47197273Y-116205712D01*
X46991984Y-116316809D01*
X46956681Y-116344287D01*
X46810584Y-116458000D01*
X46799541Y-116466595D01*
X46798451Y-116465195D01*
X46756530Y-116492158D01*
X46693072Y-116496062D01*
X46635786Y-116468485D01*
X46599257Y-116416448D01*
X46575888Y-116353794D01*
X46488261Y-116236738D01*
X46371205Y-116149111D01*
X46302702Y-116123561D01*
X46234201Y-116098011D01*
X46173638Y-116091500D01*
X44276362Y-116091500D01*
X44215799Y-116098011D01*
X44078794Y-116149111D01*
X43961738Y-116236738D01*
X43874111Y-116353794D01*
X43835058Y-116458500D01*
X43823011Y-116490799D01*
X43816500Y-116551362D01*
X43816500Y-118448638D01*
X32678388Y-118448638D01*
X32678388Y-117131945D01*
X32692625Y-117073764D01*
X32732115Y-117028733D01*
X32764300Y-117006198D01*
X32926198Y-116844300D01*
X33057523Y-116656749D01*
X33154284Y-116449243D01*
X33213543Y-116228087D01*
X33233498Y-116000000D01*
X40766502Y-116000000D01*
X40786457Y-116228087D01*
X40845715Y-116449243D01*
X40942477Y-116656750D01*
X41073804Y-116844303D01*
X41235696Y-117006195D01*
X41235699Y-117006197D01*
X41235700Y-117006198D01*
X41285535Y-117041093D01*
X41423249Y-117137522D01*
X41630756Y-117234284D01*
X41690015Y-117250162D01*
X41851913Y-117293543D01*
X42080000Y-117313498D01*
X42308087Y-117293543D01*
X42529243Y-117234284D01*
X42736749Y-117137523D01*
X42924300Y-117006198D01*
X43086198Y-116844300D01*
X43217523Y-116656749D01*
X43314284Y-116449243D01*
X43373543Y-116228087D01*
X43393498Y-116000000D01*
X43373543Y-115771913D01*
X43314284Y-115550757D01*
X43294769Y-115508907D01*
X43217522Y-115343249D01*
X43086195Y-115155696D01*
X42980498Y-115049999D01*
X57087174Y-115049999D01*
X57106444Y-115282548D01*
X57163723Y-115508739D01*
X57257458Y-115722434D01*
X57340795Y-115849991D01*
X57340796Y-115849991D01*
X58140789Y-115050000D01*
X58859210Y-115050000D01*
X59659203Y-115849991D01*
X59670392Y-115848831D01*
X59689730Y-115831029D01*
X59749699Y-115815842D01*
X59809669Y-115831028D01*
X59855182Y-115872924D01*
X59884686Y-115918083D01*
X60042780Y-116089818D01*
X60226983Y-116233190D01*
X60432273Y-116344287D01*
X60653049Y-116420080D01*
X60883288Y-116458500D01*
X61116709Y-116458500D01*
X61116712Y-116458500D01*
X61346951Y-116420080D01*
X61567727Y-116344287D01*
X61773017Y-116233190D01*
X61957220Y-116089818D01*
X62115314Y-115918083D01*
X62144517Y-115873383D01*
X62190031Y-115831485D01*
X62250000Y-115816299D01*
X62309969Y-115831485D01*
X62355482Y-115873383D01*
X62384686Y-115918083D01*
X62542780Y-116089818D01*
X62726983Y-116233190D01*
X62932273Y-116344287D01*
X63153049Y-116420080D01*
X63383288Y-116458500D01*
X63616709Y-116458500D01*
X63616712Y-116458500D01*
X63846951Y-116420080D01*
X64067727Y-116344287D01*
X64273017Y-116233190D01*
X64457220Y-116089818D01*
X64615314Y-115918083D01*
X64742984Y-115722669D01*
X64836749Y-115508907D01*
X64894051Y-115282626D01*
X64913327Y-115050000D01*
X64894051Y-114817374D01*
X64836749Y-114591093D01*
X64742984Y-114377331D01*
X64615314Y-114181917D01*
X64457220Y-114010182D01*
X64273017Y-113866810D01*
X64161267Y-113806334D01*
X64067726Y-113755712D01*
X63918275Y-113704405D01*
X63846951Y-113679920D01*
X63616712Y-113641500D01*
X63383288Y-113641500D01*
X63153049Y-113679920D01*
X63153046Y-113679920D01*
X63153046Y-113679921D01*
X62932273Y-113755712D01*
X62726984Y-113866809D01*
X62542779Y-114010182D01*
X62384683Y-114181920D01*
X62355482Y-114226616D01*
X62309969Y-114268514D01*
X62250000Y-114283700D01*
X62190031Y-114268514D01*
X62144518Y-114226616D01*
X62115316Y-114181920D01*
X62115315Y-114181919D01*
X62115314Y-114181917D01*
X61957220Y-114010182D01*
X61773017Y-113866810D01*
X61661267Y-113806334D01*
X61567726Y-113755712D01*
X61418275Y-113704405D01*
X61346951Y-113679920D01*
X61116712Y-113641500D01*
X60883288Y-113641500D01*
X60653049Y-113679920D01*
X60653046Y-113679920D01*
X60653046Y-113679921D01*
X60432273Y-113755712D01*
X60226984Y-113866809D01*
X60042779Y-114010182D01*
X59884685Y-114181918D01*
X59855183Y-114227074D01*
X59809669Y-114268972D01*
X59749699Y-114284157D01*
X59689730Y-114268970D01*
X59670392Y-114251167D01*
X59659202Y-114250006D01*
X58859210Y-115049999D01*
X58859210Y-115050000D01*
X58140789Y-115050000D01*
X58140789Y-115049999D01*
X57340796Y-114250006D01*
X57257456Y-114377571D01*
X57163723Y-114591260D01*
X57106444Y-114817451D01*
X57087174Y-115049999D01*
X42980498Y-115049999D01*
X42924303Y-114993804D01*
X42736750Y-114862477D01*
X42529243Y-114765715D01*
X42308087Y-114706457D01*
X42080000Y-114686502D01*
X41851912Y-114706457D01*
X41630756Y-114765715D01*
X41423249Y-114862477D01*
X41235696Y-114993804D01*
X41073804Y-115155696D01*
X40942477Y-115343249D01*
X40845715Y-115550756D01*
X40786457Y-115771912D01*
X40766502Y-116000000D01*
X33233498Y-116000000D01*
X33213543Y-115771913D01*
X33154284Y-115550757D01*
X33134769Y-115508907D01*
X33057522Y-115343249D01*
X32926195Y-115155696D01*
X32764303Y-114993804D01*
X32742158Y-114978297D01*
X32607227Y-114883818D01*
X32567737Y-114838787D01*
X32553500Y-114780607D01*
X32553500Y-112400000D01*
X33921634Y-112400000D01*
X33941066Y-112646911D01*
X33998885Y-112887743D01*
X34053082Y-113018586D01*
X34093666Y-113116563D01*
X34223075Y-113327740D01*
X34223076Y-113327742D01*
X34223078Y-113327744D01*
X34383926Y-113516073D01*
X34572255Y-113676921D01*
X34572260Y-113676925D01*
X34783437Y-113806334D01*
X35012258Y-113901115D01*
X35253089Y-113958934D01*
X35500000Y-113978366D01*
X35746911Y-113958934D01*
X35987742Y-113901115D01*
X36216563Y-113806334D01*
X36427740Y-113676925D01*
X36616073Y-113516073D01*
X36776925Y-113327740D01*
X36906334Y-113116563D01*
X37001115Y-112887742D01*
X37058934Y-112646911D01*
X37078366Y-112400000D01*
X37058934Y-112153089D01*
X37054439Y-112134366D01*
X41737729Y-112134366D01*
X41747778Y-112396516D01*
X41797724Y-112654050D01*
X41886401Y-112900954D01*
X42011723Y-113131417D01*
X42170759Y-113340054D01*
X42359780Y-113521968D01*
X42574354Y-113672897D01*
X42701005Y-113735605D01*
X42809454Y-113789301D01*
X42934510Y-113828877D01*
X43059569Y-113868455D01*
X43318829Y-113908500D01*
X43318831Y-113908500D01*
X44815490Y-113908500D01*
X44815494Y-113908500D01*
X44893921Y-113902478D01*
X45011569Y-113893446D01*
X45267007Y-113833671D01*
X45510326Y-113735605D01*
X45735825Y-113601545D01*
X45938216Y-113434634D01*
X46112757Y-113238784D01*
X46255355Y-113018586D01*
X46362670Y-112779201D01*
X46378542Y-112721441D01*
X46409925Y-112666763D01*
X46463867Y-112634132D01*
X46526865Y-112631717D01*
X46583147Y-112660123D01*
X46618623Y-112712238D01*
X46686401Y-112900954D01*
X46811723Y-113131417D01*
X46970759Y-113340054D01*
X47159780Y-113521968D01*
X47374354Y-113672897D01*
X47501005Y-113735605D01*
X47609454Y-113789301D01*
X47734510Y-113828877D01*
X47859569Y-113868455D01*
X48118829Y-113908500D01*
X48118831Y-113908500D01*
X49615490Y-113908500D01*
X49615494Y-113908500D01*
X49693921Y-113902478D01*
X49811569Y-113893446D01*
X49828560Y-113889470D01*
X57698680Y-113889470D01*
X58499999Y-114690789D01*
X58500000Y-114690789D01*
X59301318Y-113889470D01*
X59301317Y-113889469D01*
X59272745Y-113867230D01*
X59067525Y-113756171D01*
X58846830Y-113680407D01*
X58616668Y-113642000D01*
X58383332Y-113642000D01*
X58153169Y-113680407D01*
X57932474Y-113756171D01*
X57727255Y-113867230D01*
X57698681Y-113889469D01*
X57698680Y-113889470D01*
X49828560Y-113889470D01*
X50067007Y-113833671D01*
X50310326Y-113735605D01*
X50535825Y-113601545D01*
X50738216Y-113434634D01*
X50912757Y-113238784D01*
X51055355Y-113018586D01*
X51162670Y-112779201D01*
X51232185Y-112526240D01*
X51262271Y-112265633D01*
X51252222Y-112003487D01*
X51202275Y-111745947D01*
X51113600Y-111499049D01*
X50988276Y-111268582D01*
X50988275Y-111268581D01*
X50829240Y-111059945D01*
X50640219Y-110878031D01*
X50425645Y-110727102D01*
X50190547Y-110610699D01*
X49940430Y-110531544D01*
X49681171Y-110491500D01*
X49681169Y-110491500D01*
X48184510Y-110491500D01*
X48184506Y-110491500D01*
X47988436Y-110506553D01*
X47988432Y-110506553D01*
X47988431Y-110506554D01*
X47935502Y-110518940D01*
X47732988Y-110566330D01*
X47489675Y-110664394D01*
X47264174Y-110798455D01*
X47061784Y-110965364D01*
X46887240Y-111161218D01*
X46744645Y-111381413D01*
X46637330Y-111620795D01*
X46621456Y-111678560D01*
X46590073Y-111733238D01*
X46536130Y-111765868D01*
X46473133Y-111768282D01*
X46416852Y-111739876D01*
X46381378Y-111687764D01*
X46313600Y-111499049D01*
X46188276Y-111268582D01*
X46188275Y-111268581D01*
X46029240Y-111059945D01*
X45840219Y-110878031D01*
X45625645Y-110727102D01*
X45390547Y-110610699D01*
X45140430Y-110531544D01*
X44881171Y-110491500D01*
X44881169Y-110491500D01*
X43384510Y-110491500D01*
X43384506Y-110491500D01*
X43188436Y-110506553D01*
X43188432Y-110506553D01*
X43188431Y-110506554D01*
X43135502Y-110518940D01*
X42932988Y-110566330D01*
X42689675Y-110664394D01*
X42464174Y-110798455D01*
X42261784Y-110965364D01*
X42087240Y-111161218D01*
X41944645Y-111381413D01*
X41837329Y-111620797D01*
X41767815Y-111873756D01*
X41737729Y-112134366D01*
X37054439Y-112134366D01*
X37001115Y-111912258D01*
X36906334Y-111683437D01*
X36776925Y-111472260D01*
X36776921Y-111472255D01*
X36616073Y-111283926D01*
X36427744Y-111123078D01*
X36427742Y-111123076D01*
X36427740Y-111123075D01*
X36216563Y-110993666D01*
X36216561Y-110993665D01*
X35987743Y-110898885D01*
X35746911Y-110841066D01*
X35500000Y-110821634D01*
X35253088Y-110841066D01*
X35012256Y-110898885D01*
X34783438Y-110993665D01*
X34572255Y-111123078D01*
X34383926Y-111283926D01*
X34223078Y-111472255D01*
X34093665Y-111683438D01*
X33998885Y-111912256D01*
X33941066Y-112153088D01*
X33921634Y-112400000D01*
X32553500Y-112400000D01*
X32553500Y-107434366D01*
X41737729Y-107434366D01*
X41747778Y-107696516D01*
X41797724Y-107954050D01*
X41886401Y-108200954D01*
X42011723Y-108431417D01*
X42170759Y-108640054D01*
X42359780Y-108821968D01*
X42574354Y-108972897D01*
X42701005Y-109035605D01*
X42809454Y-109089301D01*
X42934510Y-109128877D01*
X43059569Y-109168455D01*
X43318829Y-109208500D01*
X43318831Y-109208500D01*
X44815490Y-109208500D01*
X44815494Y-109208500D01*
X44893921Y-109202478D01*
X45011569Y-109193446D01*
X45267007Y-109133671D01*
X45510326Y-109035605D01*
X45735825Y-108901545D01*
X45938216Y-108734634D01*
X46112757Y-108538784D01*
X46255355Y-108318586D01*
X46362670Y-108079201D01*
X46378542Y-108021441D01*
X46409925Y-107966763D01*
X46463867Y-107934132D01*
X46526865Y-107931717D01*
X46583147Y-107960123D01*
X46618623Y-108012238D01*
X46686401Y-108200954D01*
X46811723Y-108431417D01*
X46970759Y-108640054D01*
X47159780Y-108821968D01*
X47374354Y-108972897D01*
X47501005Y-109035605D01*
X47609454Y-109089301D01*
X47734510Y-109128877D01*
X47859569Y-109168455D01*
X48118829Y-109208500D01*
X48118831Y-109208500D01*
X49615490Y-109208500D01*
X49615494Y-109208500D01*
X49693921Y-109202478D01*
X49811569Y-109193446D01*
X50067007Y-109133671D01*
X50310326Y-109035605D01*
X50535825Y-108901545D01*
X50738216Y-108734634D01*
X50912757Y-108538784D01*
X51055355Y-108318586D01*
X51162670Y-108079201D01*
X51170695Y-108049999D01*
X54086539Y-108049999D01*
X54106358Y-108365018D01*
X54165504Y-108675071D01*
X54263044Y-108975266D01*
X54397438Y-109260869D01*
X54566565Y-109527372D01*
X54767766Y-109770582D01*
X54997860Y-109986654D01*
X55253221Y-110172184D01*
X55529821Y-110324247D01*
X55823298Y-110440443D01*
X55983804Y-110481653D01*
X56129024Y-110518940D01*
X56442176Y-110558500D01*
X56442179Y-110558500D01*
X56757821Y-110558500D01*
X56757824Y-110558500D01*
X57070975Y-110518940D01*
X57070975Y-110518939D01*
X57376702Y-110440443D01*
X57670179Y-110324247D01*
X57946779Y-110172184D01*
X58202140Y-109986654D01*
X58432233Y-109770582D01*
X58633432Y-109527375D01*
X58802562Y-109260869D01*
X58936956Y-108975266D01*
X59034495Y-108675072D01*
X59093641Y-108365020D01*
X59113460Y-108050000D01*
X62886539Y-108050000D01*
X62906358Y-108365018D01*
X62965504Y-108675071D01*
X63063044Y-108975266D01*
X63197438Y-109260869D01*
X63366565Y-109527372D01*
X63567766Y-109770582D01*
X63797860Y-109986654D01*
X64053221Y-110172184D01*
X64329821Y-110324247D01*
X64623298Y-110440443D01*
X64783804Y-110481653D01*
X64929024Y-110518940D01*
X65242176Y-110558500D01*
X65242179Y-110558500D01*
X65557821Y-110558500D01*
X65557824Y-110558500D01*
X65870975Y-110518940D01*
X65870975Y-110518939D01*
X66176702Y-110440443D01*
X66470179Y-110324247D01*
X66746779Y-110172184D01*
X67002140Y-109986654D01*
X67232233Y-109770582D01*
X67433432Y-109527375D01*
X67602562Y-109260869D01*
X67736956Y-108975266D01*
X67834495Y-108675072D01*
X67893641Y-108365020D01*
X67913460Y-108050000D01*
X67893641Y-107734980D01*
X67834495Y-107424928D01*
X67736956Y-107124734D01*
X67602562Y-106839131D01*
X67502471Y-106681413D01*
X67433434Y-106572627D01*
X67232233Y-106329417D01*
X67002139Y-106113345D01*
X66746781Y-105927817D01*
X66470178Y-105775752D01*
X66289210Y-105704102D01*
X66176702Y-105659557D01*
X66176699Y-105659556D01*
X66176696Y-105659555D01*
X65870975Y-105581059D01*
X65557824Y-105541500D01*
X65557821Y-105541500D01*
X65242179Y-105541500D01*
X65242176Y-105541500D01*
X64929024Y-105581059D01*
X64623303Y-105659555D01*
X64329821Y-105775752D01*
X64053218Y-105927817D01*
X63797860Y-106113345D01*
X63567766Y-106329417D01*
X63366565Y-106572627D01*
X63197438Y-106839130D01*
X63063044Y-107124733D01*
X62965504Y-107424928D01*
X62906358Y-107734981D01*
X62886539Y-108050000D01*
X59113460Y-108050000D01*
X59093641Y-107734980D01*
X59034495Y-107424928D01*
X58936956Y-107124734D01*
X58802562Y-106839131D01*
X58702471Y-106681413D01*
X58633434Y-106572627D01*
X58432233Y-106329417D01*
X58202139Y-106113345D01*
X57946781Y-105927817D01*
X57670178Y-105775752D01*
X57489210Y-105704102D01*
X57376702Y-105659557D01*
X57376699Y-105659556D01*
X57376696Y-105659555D01*
X57070975Y-105581059D01*
X56757824Y-105541500D01*
X56757821Y-105541500D01*
X56442179Y-105541500D01*
X56442176Y-105541500D01*
X56129024Y-105581059D01*
X55823303Y-105659555D01*
X55529821Y-105775752D01*
X55253218Y-105927817D01*
X54997860Y-106113345D01*
X54767766Y-106329417D01*
X54566565Y-106572627D01*
X54397438Y-106839130D01*
X54263044Y-107124733D01*
X54165504Y-107424928D01*
X54106358Y-107734981D01*
X54086539Y-108049999D01*
X51170695Y-108049999D01*
X51232185Y-107826240D01*
X51262271Y-107565633D01*
X51252222Y-107303487D01*
X51202275Y-107045947D01*
X51113600Y-106799049D01*
X50988276Y-106568582D01*
X50829240Y-106359945D01*
X50640219Y-106178031D01*
X50425645Y-106027102D01*
X50190547Y-105910699D01*
X49940430Y-105831544D01*
X49681171Y-105791500D01*
X49681169Y-105791500D01*
X48184510Y-105791500D01*
X48184506Y-105791500D01*
X47988436Y-105806553D01*
X47988432Y-105806553D01*
X47988431Y-105806554D01*
X47881641Y-105831544D01*
X47732988Y-105866330D01*
X47489675Y-105964394D01*
X47264174Y-106098455D01*
X47061784Y-106265364D01*
X46887240Y-106461218D01*
X46744645Y-106681413D01*
X46637330Y-106920795D01*
X46621456Y-106978560D01*
X46590073Y-107033238D01*
X46536130Y-107065868D01*
X46473133Y-107068282D01*
X46416852Y-107039876D01*
X46381378Y-106987764D01*
X46313600Y-106799049D01*
X46188276Y-106568582D01*
X46029240Y-106359945D01*
X45840219Y-106178031D01*
X45625645Y-106027102D01*
X45390547Y-105910699D01*
X45140430Y-105831544D01*
X44881171Y-105791500D01*
X44881169Y-105791500D01*
X43384510Y-105791500D01*
X43384506Y-105791500D01*
X43188436Y-105806553D01*
X43188432Y-105806553D01*
X43188431Y-105806554D01*
X43081641Y-105831544D01*
X42932988Y-105866330D01*
X42689675Y-105964394D01*
X42464174Y-106098455D01*
X42261784Y-106265364D01*
X42087240Y-106461218D01*
X41944645Y-106681413D01*
X41837329Y-106920797D01*
X41767815Y-107173756D01*
X41737729Y-107434366D01*
X32553500Y-107434366D01*
X32553500Y-104100000D01*
X33921634Y-104100000D01*
X33941066Y-104346911D01*
X33998885Y-104587742D01*
X34093666Y-104816563D01*
X34223075Y-105027740D01*
X34223076Y-105027742D01*
X34223078Y-105027744D01*
X34383926Y-105216073D01*
X34572255Y-105376921D01*
X34572260Y-105376925D01*
X34783437Y-105506334D01*
X35012258Y-105601115D01*
X35253089Y-105658934D01*
X35500000Y-105678366D01*
X35746911Y-105658934D01*
X35987742Y-105601115D01*
X36216563Y-105506334D01*
X36427740Y-105376925D01*
X36616073Y-105216073D01*
X36776925Y-105027740D01*
X36906334Y-104816563D01*
X37001115Y-104587742D01*
X37058934Y-104346911D01*
X37078366Y-104100000D01*
X37058934Y-103853089D01*
X37001115Y-103612258D01*
X36906334Y-103383437D01*
X36776925Y-103172260D01*
X36737623Y-103126243D01*
X36675922Y-103054000D01*
X41759436Y-103054000D01*
X41798208Y-103253917D01*
X41886857Y-103500743D01*
X42012148Y-103731148D01*
X42171134Y-103939720D01*
X42360100Y-104121581D01*
X42574609Y-104272463D01*
X42809642Y-104388836D01*
X43059683Y-104467967D01*
X43318867Y-104508000D01*
X43846000Y-104508000D01*
X44354000Y-104508000D01*
X44815468Y-104508000D01*
X45011486Y-104492950D01*
X45266859Y-104433190D01*
X45510102Y-104335155D01*
X45735537Y-104201133D01*
X45937867Y-104034273D01*
X46112359Y-103838477D01*
X46254913Y-103618346D01*
X46362194Y-103379038D01*
X46378247Y-103320622D01*
X46409629Y-103265944D01*
X46463571Y-103233312D01*
X46526569Y-103230897D01*
X46582851Y-103259302D01*
X46618328Y-103311418D01*
X46686401Y-103500954D01*
X46811723Y-103731417D01*
X46970759Y-103940054D01*
X47159780Y-104121968D01*
X47374354Y-104272897D01*
X47604914Y-104387053D01*
X47609454Y-104389301D01*
X47734510Y-104428877D01*
X47859569Y-104468455D01*
X48118829Y-104508500D01*
X48118831Y-104508500D01*
X49615490Y-104508500D01*
X49615494Y-104508500D01*
X49693921Y-104502478D01*
X49811569Y-104493446D01*
X50067007Y-104433671D01*
X50310326Y-104335605D01*
X50535825Y-104201545D01*
X50738216Y-104034634D01*
X50912757Y-103838784D01*
X51055355Y-103618586D01*
X51162670Y-103379201D01*
X51232185Y-103126240D01*
X51262271Y-102865633D01*
X51252222Y-102603487D01*
X51202275Y-102345947D01*
X51113600Y-102099049D01*
X50988276Y-101868582D01*
X50906668Y-101761522D01*
X50829240Y-101659945D01*
X50640219Y-101478031D01*
X50425645Y-101327102D01*
X50190547Y-101210699D01*
X49940430Y-101131544D01*
X49681171Y-101091500D01*
X49681169Y-101091500D01*
X48184510Y-101091500D01*
X48184506Y-101091500D01*
X47988436Y-101106553D01*
X47988432Y-101106553D01*
X47988431Y-101106554D01*
X47986316Y-101107049D01*
X47732988Y-101166330D01*
X47489675Y-101264394D01*
X47264174Y-101398455D01*
X47061784Y-101565364D01*
X46887240Y-101761218D01*
X46744645Y-101981413D01*
X46637330Y-102220796D01*
X46621226Y-102279398D01*
X46589843Y-102334076D01*
X46535901Y-102366707D01*
X46472904Y-102369121D01*
X46416622Y-102340715D01*
X46381146Y-102288600D01*
X46313142Y-102099256D01*
X46187851Y-101868851D01*
X46028865Y-101660279D01*
X45839899Y-101478418D01*
X45625390Y-101327536D01*
X45390357Y-101211163D01*
X45140316Y-101132032D01*
X44881133Y-101092000D01*
X44354000Y-101092000D01*
X44354000Y-104508000D01*
X43846000Y-104508000D01*
X43846000Y-103054000D01*
X41759436Y-103054000D01*
X36675922Y-103054000D01*
X36616073Y-102983926D01*
X36427744Y-102823078D01*
X36427742Y-102823076D01*
X36427740Y-102823075D01*
X36216563Y-102693666D01*
X36148345Y-102665409D01*
X36094627Y-102623061D01*
X36070951Y-102558886D01*
X36073514Y-102546000D01*
X41759979Y-102546000D01*
X43846000Y-102546000D01*
X43846000Y-101092000D01*
X43384532Y-101092000D01*
X43188513Y-101107049D01*
X42933140Y-101166809D01*
X42689897Y-101264844D01*
X42464462Y-101398866D01*
X42262132Y-101565726D01*
X42087640Y-101761522D01*
X41945086Y-101981653D01*
X41837803Y-102220965D01*
X41768308Y-102473853D01*
X41759979Y-102546000D01*
X36073514Y-102546000D01*
X36084296Y-102491797D01*
X36130728Y-102441567D01*
X36196563Y-102423000D01*
X36513589Y-102423000D01*
X36574093Y-102416494D01*
X36710962Y-102365445D01*
X36827904Y-102277904D01*
X36915445Y-102160962D01*
X36966494Y-102024093D01*
X36973000Y-101963589D01*
X36973000Y-101254000D01*
X34027000Y-101254000D01*
X34027000Y-101963589D01*
X34033505Y-102024093D01*
X34084554Y-102160962D01*
X34172095Y-102277904D01*
X34289037Y-102365445D01*
X34425906Y-102416494D01*
X34486411Y-102423000D01*
X34803437Y-102423000D01*
X34869272Y-102441567D01*
X34915704Y-102491797D01*
X34929049Y-102558886D01*
X34905373Y-102623061D01*
X34851655Y-102665409D01*
X34783438Y-102693665D01*
X34572255Y-102823078D01*
X34383926Y-102983926D01*
X34223078Y-103172255D01*
X34093665Y-103383438D01*
X33998885Y-103612256D01*
X33970277Y-103731417D01*
X33941066Y-103853089D01*
X33921634Y-104100000D01*
X32553500Y-104100000D01*
X32553500Y-100746000D01*
X34027000Y-100746000D01*
X35246000Y-100746000D01*
X35246000Y-99577000D01*
X35754000Y-99577000D01*
X35754000Y-100746000D01*
X36973000Y-100746000D01*
X36973000Y-100036411D01*
X36966494Y-99975906D01*
X36915445Y-99839037D01*
X36827904Y-99722095D01*
X36710962Y-99634554D01*
X36574093Y-99583505D01*
X36513589Y-99577000D01*
X35754000Y-99577000D01*
X35246000Y-99577000D01*
X34486411Y-99577000D01*
X34425906Y-99583505D01*
X34289037Y-99634554D01*
X34172095Y-99722095D01*
X34084554Y-99839037D01*
X34033505Y-99975906D01*
X34027000Y-100036411D01*
X34027000Y-100746000D01*
X32553500Y-100746000D01*
X32553500Y-95948638D01*
X43816500Y-95948638D01*
X43823011Y-96009201D01*
X43834431Y-96039818D01*
X43874111Y-96146205D01*
X43961738Y-96263261D01*
X44078794Y-96350888D01*
X44078795Y-96350888D01*
X44078796Y-96350889D01*
X44215799Y-96401989D01*
X44276362Y-96408500D01*
X46173638Y-96408500D01*
X46234201Y-96401989D01*
X46371204Y-96350889D01*
X46488261Y-96263261D01*
X46575889Y-96146204D01*
X46599258Y-96083549D01*
X46635788Y-96031512D01*
X46693077Y-96003936D01*
X46756538Y-96007844D01*
X46798450Y-96034805D01*
X46799541Y-96033405D01*
X46807779Y-96039816D01*
X46807780Y-96039818D01*
X46991983Y-96183190D01*
X47197273Y-96294287D01*
X47418049Y-96370080D01*
X47648288Y-96408500D01*
X47881709Y-96408500D01*
X47881712Y-96408500D01*
X48111951Y-96370080D01*
X48332727Y-96294287D01*
X48538017Y-96183190D01*
X48722220Y-96039818D01*
X48758875Y-96000000D01*
X56606502Y-96000000D01*
X56626457Y-96228087D01*
X56685715Y-96449243D01*
X56782477Y-96656750D01*
X56913804Y-96844303D01*
X57075696Y-97006195D01*
X57263249Y-97137522D01*
X57470756Y-97234284D01*
X57530015Y-97250162D01*
X57691913Y-97293543D01*
X57920000Y-97313498D01*
X58148087Y-97293543D01*
X58369243Y-97234284D01*
X58576749Y-97137523D01*
X58764300Y-97006198D01*
X58926198Y-96844300D01*
X59057523Y-96656749D01*
X59154284Y-96449243D01*
X59213543Y-96228087D01*
X59233498Y-96000000D01*
X59233498Y-95999999D01*
X66766502Y-95999999D01*
X66786457Y-96228087D01*
X66845715Y-96449243D01*
X66942477Y-96656750D01*
X67073804Y-96844303D01*
X67235696Y-97006195D01*
X67423249Y-97137522D01*
X67630756Y-97234284D01*
X67690015Y-97250162D01*
X67851913Y-97293543D01*
X68080000Y-97313498D01*
X68308087Y-97293543D01*
X68529243Y-97234284D01*
X68736749Y-97137523D01*
X68924300Y-97006198D01*
X69086198Y-96844300D01*
X69217523Y-96656749D01*
X69314284Y-96449243D01*
X69373543Y-96228087D01*
X69393498Y-96000000D01*
X69373543Y-95771913D01*
X69314284Y-95550757D01*
X69217523Y-95343251D01*
X69086198Y-95155700D01*
X69086197Y-95155699D01*
X69086195Y-95155696D01*
X68924303Y-94993804D01*
X68736750Y-94862477D01*
X68529243Y-94765715D01*
X68308087Y-94706457D01*
X68080000Y-94686502D01*
X67851912Y-94706457D01*
X67630756Y-94765715D01*
X67423249Y-94862477D01*
X67235696Y-94993804D01*
X67073804Y-95155696D01*
X66942477Y-95343249D01*
X66845715Y-95550756D01*
X66786457Y-95771912D01*
X66766502Y-95999999D01*
X59233498Y-95999999D01*
X59213543Y-95771913D01*
X59154284Y-95550757D01*
X59057523Y-95343251D01*
X58926198Y-95155700D01*
X58926197Y-95155699D01*
X58926195Y-95155696D01*
X58764303Y-94993804D01*
X58576750Y-94862477D01*
X58369243Y-94765715D01*
X58148087Y-94706457D01*
X57920000Y-94686502D01*
X57691912Y-94706457D01*
X57470756Y-94765715D01*
X57263249Y-94862477D01*
X57075696Y-94993804D01*
X56913804Y-95155696D01*
X56782477Y-95343249D01*
X56685715Y-95550756D01*
X56626457Y-95771912D01*
X56606502Y-96000000D01*
X48758875Y-96000000D01*
X48880314Y-95868083D01*
X49007984Y-95672669D01*
X49101749Y-95458907D01*
X49159051Y-95232626D01*
X49178327Y-95000000D01*
X49159051Y-94767374D01*
X49101749Y-94541093D01*
X49007984Y-94327331D01*
X48880314Y-94131917D01*
X48722220Y-93960182D01*
X48538017Y-93816810D01*
X48506779Y-93799904D01*
X48341625Y-93710528D01*
X57698680Y-93710528D01*
X57698681Y-93710529D01*
X57727254Y-93732768D01*
X57932474Y-93843828D01*
X58153169Y-93919592D01*
X58383332Y-93958000D01*
X58616668Y-93958000D01*
X58846830Y-93919592D01*
X59067525Y-93843828D01*
X59272744Y-93732770D01*
X59301317Y-93710529D01*
X59301317Y-93710528D01*
X58500000Y-92909210D01*
X58499999Y-92909210D01*
X57698680Y-93710528D01*
X48341625Y-93710528D01*
X48332726Y-93705712D01*
X48167852Y-93649111D01*
X48111951Y-93629920D01*
X47881712Y-93591500D01*
X47648288Y-93591500D01*
X47418049Y-93629920D01*
X47418046Y-93629920D01*
X47418046Y-93629921D01*
X47197273Y-93705712D01*
X46991984Y-93816809D01*
X46956681Y-93844287D01*
X46810584Y-93958000D01*
X46799541Y-93966595D01*
X46798451Y-93965195D01*
X46756530Y-93992158D01*
X46693072Y-93996062D01*
X46635786Y-93968485D01*
X46599257Y-93916448D01*
X46575888Y-93853794D01*
X46488261Y-93736738D01*
X46371205Y-93649111D01*
X46302702Y-93623560D01*
X46234201Y-93598011D01*
X46173638Y-93591500D01*
X44276362Y-93591500D01*
X44215799Y-93598011D01*
X44078794Y-93649111D01*
X43961738Y-93736738D01*
X43874111Y-93853794D01*
X43835058Y-93958500D01*
X43823011Y-93990799D01*
X43816500Y-94051362D01*
X43816500Y-95948638D01*
X32553500Y-95948638D01*
X32553500Y-94719393D01*
X32567737Y-94661213D01*
X32607227Y-94616181D01*
X32764300Y-94506198D01*
X32926198Y-94344300D01*
X33057523Y-94156749D01*
X33154284Y-93949243D01*
X33213543Y-93728087D01*
X33233498Y-93500000D01*
X33233498Y-93499999D01*
X40766502Y-93499999D01*
X40786457Y-93728087D01*
X40845715Y-93949243D01*
X40942477Y-94156750D01*
X41073804Y-94344303D01*
X41235696Y-94506195D01*
X41423249Y-94637522D01*
X41630756Y-94734284D01*
X41690014Y-94750162D01*
X41851913Y-94793543D01*
X42080000Y-94813498D01*
X42308087Y-94793543D01*
X42529243Y-94734284D01*
X42736749Y-94637523D01*
X42924300Y-94506198D01*
X43086198Y-94344300D01*
X43217523Y-94156749D01*
X43314284Y-93949243D01*
X43373543Y-93728087D01*
X43393498Y-93500000D01*
X43373543Y-93271913D01*
X43314284Y-93050757D01*
X43294769Y-93008907D01*
X43217522Y-92843249D01*
X43086195Y-92655696D01*
X42980498Y-92549999D01*
X57087174Y-92549999D01*
X57106444Y-92782548D01*
X57163723Y-93008739D01*
X57257458Y-93222434D01*
X57340795Y-93349991D01*
X57340796Y-93349991D01*
X58140789Y-92550000D01*
X58140789Y-92549999D01*
X58859210Y-92549999D01*
X59659203Y-93349991D01*
X59670392Y-93348831D01*
X59689730Y-93331029D01*
X59749699Y-93315842D01*
X59809669Y-93331028D01*
X59855182Y-93372924D01*
X59884686Y-93418083D01*
X60042780Y-93589818D01*
X60226983Y-93733190D01*
X60432273Y-93844287D01*
X60653049Y-93920080D01*
X60883288Y-93958500D01*
X61116709Y-93958500D01*
X61116712Y-93958500D01*
X61346951Y-93920080D01*
X61567727Y-93844287D01*
X61773017Y-93733190D01*
X61957220Y-93589818D01*
X62115314Y-93418083D01*
X62144518Y-93373381D01*
X62190028Y-93331486D01*
X62249997Y-93316299D01*
X62309967Y-93331485D01*
X62355481Y-93373382D01*
X62384686Y-93418083D01*
X62542780Y-93589818D01*
X62726983Y-93733190D01*
X62932273Y-93844287D01*
X63153049Y-93920080D01*
X63383288Y-93958500D01*
X63616709Y-93958500D01*
X63616712Y-93958500D01*
X63846951Y-93920080D01*
X64067727Y-93844287D01*
X64273017Y-93733190D01*
X64457220Y-93589818D01*
X64615314Y-93418083D01*
X64742984Y-93222669D01*
X64836749Y-93008907D01*
X64894051Y-92782626D01*
X64913327Y-92550000D01*
X64894051Y-92317374D01*
X64836749Y-92091093D01*
X64742984Y-91877331D01*
X64615314Y-91681917D01*
X64457220Y-91510182D01*
X64273017Y-91366810D01*
X64161267Y-91306334D01*
X64067726Y-91255712D01*
X63918275Y-91204405D01*
X63846951Y-91179920D01*
X63616712Y-91141500D01*
X63383288Y-91141500D01*
X63153049Y-91179920D01*
X63153046Y-91179920D01*
X63153046Y-91179921D01*
X62932273Y-91255712D01*
X62726984Y-91366809D01*
X62542779Y-91510182D01*
X62384683Y-91681920D01*
X62355482Y-91726616D01*
X62309969Y-91768514D01*
X62250000Y-91783700D01*
X62190031Y-91768514D01*
X62144518Y-91726616D01*
X62115316Y-91681920D01*
X62115315Y-91681919D01*
X62115314Y-91681917D01*
X61957220Y-91510182D01*
X61773017Y-91366810D01*
X61661267Y-91306334D01*
X61567726Y-91255712D01*
X61418275Y-91204405D01*
X61346951Y-91179920D01*
X61116712Y-91141500D01*
X60883288Y-91141500D01*
X60653049Y-91179920D01*
X60653046Y-91179920D01*
X60653046Y-91179921D01*
X60432273Y-91255712D01*
X60226984Y-91366809D01*
X60042779Y-91510182D01*
X59884685Y-91681918D01*
X59855183Y-91727074D01*
X59809669Y-91768972D01*
X59749699Y-91784157D01*
X59689730Y-91768970D01*
X59670392Y-91751167D01*
X59659202Y-91750007D01*
X58859210Y-92549999D01*
X58140789Y-92549999D01*
X57340796Y-91750006D01*
X57257456Y-91877571D01*
X57163723Y-92091260D01*
X57106444Y-92317451D01*
X57087174Y-92549999D01*
X42980498Y-92549999D01*
X42924303Y-92493804D01*
X42736750Y-92362477D01*
X42529243Y-92265715D01*
X42308087Y-92206457D01*
X42080000Y-92186502D01*
X42079999Y-92186502D01*
X41851912Y-92206457D01*
X41630756Y-92265715D01*
X41423249Y-92362477D01*
X41235696Y-92493804D01*
X41073804Y-92655696D01*
X40942477Y-92843249D01*
X40845715Y-93050756D01*
X40786457Y-93271912D01*
X40766502Y-93499999D01*
X33233498Y-93499999D01*
X33213543Y-93271913D01*
X33154284Y-93050757D01*
X33134769Y-93008907D01*
X33057522Y-92843249D01*
X32926195Y-92655696D01*
X32764303Y-92493804D01*
X32742158Y-92478297D01*
X32607227Y-92383818D01*
X32567737Y-92338787D01*
X32553500Y-92280607D01*
X32553500Y-89899999D01*
X33921634Y-89899999D01*
X33941066Y-90146911D01*
X33998885Y-90387743D01*
X34053082Y-90518586D01*
X34093666Y-90616563D01*
X34223075Y-90827740D01*
X34223076Y-90827742D01*
X34223078Y-90827744D01*
X34383926Y-91016073D01*
X34572255Y-91176921D01*
X34572260Y-91176925D01*
X34783437Y-91306334D01*
X35012258Y-91401115D01*
X35253089Y-91458934D01*
X35500000Y-91478366D01*
X35746911Y-91458934D01*
X35987742Y-91401115D01*
X36216563Y-91306334D01*
X36427740Y-91176925D01*
X36616073Y-91016073D01*
X36776925Y-90827740D01*
X36906334Y-90616563D01*
X37001115Y-90387742D01*
X37058934Y-90146911D01*
X37078366Y-89900000D01*
X37058934Y-89653089D01*
X37054439Y-89634366D01*
X41737729Y-89634366D01*
X41747778Y-89896516D01*
X41797724Y-90154050D01*
X41886401Y-90400954D01*
X42011723Y-90631417D01*
X42170759Y-90840054D01*
X42359780Y-91021968D01*
X42574354Y-91172897D01*
X42701005Y-91235605D01*
X42809454Y-91289301D01*
X42934510Y-91328877D01*
X43059569Y-91368455D01*
X43318829Y-91408500D01*
X43318831Y-91408500D01*
X44815490Y-91408500D01*
X44815494Y-91408500D01*
X44893921Y-91402478D01*
X45011569Y-91393446D01*
X45267007Y-91333671D01*
X45510326Y-91235605D01*
X45735825Y-91101545D01*
X45938216Y-90934634D01*
X46112757Y-90738784D01*
X46255355Y-90518586D01*
X46362670Y-90279201D01*
X46378542Y-90221441D01*
X46409925Y-90166763D01*
X46463867Y-90134132D01*
X46526865Y-90131717D01*
X46583147Y-90160123D01*
X46618623Y-90212238D01*
X46686401Y-90400954D01*
X46811723Y-90631417D01*
X46970759Y-90840054D01*
X47159780Y-91021968D01*
X47374354Y-91172897D01*
X47501005Y-91235605D01*
X47609454Y-91289301D01*
X47734510Y-91328877D01*
X47859569Y-91368455D01*
X48118829Y-91408500D01*
X48118831Y-91408500D01*
X49615490Y-91408500D01*
X49615494Y-91408500D01*
X49693921Y-91402478D01*
X49811569Y-91393446D01*
X49828560Y-91389470D01*
X57698681Y-91389470D01*
X58499999Y-92190789D01*
X58500000Y-92190789D01*
X59301318Y-91389470D01*
X59301317Y-91389469D01*
X59272745Y-91367230D01*
X59067525Y-91256171D01*
X58846830Y-91180407D01*
X58616668Y-91142000D01*
X58383332Y-91142000D01*
X58153169Y-91180407D01*
X57932474Y-91256171D01*
X57727255Y-91367230D01*
X57698681Y-91389469D01*
X57698681Y-91389470D01*
X49828560Y-91389470D01*
X50067007Y-91333671D01*
X50310326Y-91235605D01*
X50535825Y-91101545D01*
X50738216Y-90934634D01*
X50912757Y-90738784D01*
X51055355Y-90518586D01*
X51162670Y-90279201D01*
X51232185Y-90026240D01*
X51262271Y-89765633D01*
X51252222Y-89503487D01*
X51202275Y-89245947D01*
X51113600Y-88999049D01*
X50988276Y-88768582D01*
X50988275Y-88768581D01*
X50829240Y-88559945D01*
X50640219Y-88378031D01*
X50425645Y-88227102D01*
X50190547Y-88110699D01*
X49940430Y-88031544D01*
X49681171Y-87991500D01*
X49681169Y-87991500D01*
X48184510Y-87991500D01*
X48184506Y-87991500D01*
X47988436Y-88006553D01*
X47988432Y-88006553D01*
X47988431Y-88006554D01*
X47935502Y-88018940D01*
X47732988Y-88066330D01*
X47489675Y-88164394D01*
X47264174Y-88298455D01*
X47061784Y-88465364D01*
X46887240Y-88661218D01*
X46744645Y-88881413D01*
X46637330Y-89120795D01*
X46621456Y-89178560D01*
X46590073Y-89233238D01*
X46536130Y-89265868D01*
X46473133Y-89268282D01*
X46416852Y-89239876D01*
X46381378Y-89187764D01*
X46313600Y-88999049D01*
X46188276Y-88768582D01*
X46188275Y-88768581D01*
X46029240Y-88559945D01*
X45840219Y-88378031D01*
X45625645Y-88227102D01*
X45390547Y-88110699D01*
X45140430Y-88031544D01*
X44881171Y-87991500D01*
X44881169Y-87991500D01*
X43384510Y-87991500D01*
X43384506Y-87991500D01*
X43188436Y-88006553D01*
X43188432Y-88006553D01*
X43188431Y-88006554D01*
X43135502Y-88018940D01*
X42932988Y-88066330D01*
X42689675Y-88164394D01*
X42464174Y-88298455D01*
X42261784Y-88465364D01*
X42087240Y-88661218D01*
X41944645Y-88881413D01*
X41837329Y-89120797D01*
X41767815Y-89373756D01*
X41737729Y-89634366D01*
X37054439Y-89634366D01*
X37001115Y-89412258D01*
X36906334Y-89183437D01*
X36776925Y-88972260D01*
X36776921Y-88972255D01*
X36616073Y-88783926D01*
X36427744Y-88623078D01*
X36427742Y-88623076D01*
X36427740Y-88623075D01*
X36216563Y-88493666D01*
X36216561Y-88493665D01*
X35987743Y-88398885D01*
X35746911Y-88341066D01*
X35500000Y-88321634D01*
X35253088Y-88341066D01*
X35012256Y-88398885D01*
X34783438Y-88493665D01*
X34572255Y-88623078D01*
X34383926Y-88783926D01*
X34223078Y-88972255D01*
X34093665Y-89183438D01*
X33998885Y-89412256D01*
X33941066Y-89653088D01*
X33921634Y-89899999D01*
X32553500Y-89899999D01*
X32553500Y-84934366D01*
X41737729Y-84934366D01*
X41747778Y-85196516D01*
X41797724Y-85454050D01*
X41886401Y-85700954D01*
X42011723Y-85931417D01*
X42170759Y-86140054D01*
X42359780Y-86321968D01*
X42574354Y-86472897D01*
X42701005Y-86535605D01*
X42809454Y-86589301D01*
X42934510Y-86628877D01*
X43059569Y-86668455D01*
X43318829Y-86708500D01*
X43318831Y-86708500D01*
X44815490Y-86708500D01*
X44815494Y-86708500D01*
X44893921Y-86702478D01*
X45011569Y-86693446D01*
X45267007Y-86633671D01*
X45510326Y-86535605D01*
X45735825Y-86401545D01*
X45938216Y-86234634D01*
X46112757Y-86038784D01*
X46255355Y-85818586D01*
X46362670Y-85579201D01*
X46378542Y-85521441D01*
X46409925Y-85466763D01*
X46463867Y-85434132D01*
X46526865Y-85431717D01*
X46583147Y-85460123D01*
X46618623Y-85512238D01*
X46686401Y-85700954D01*
X46811723Y-85931417D01*
X46970759Y-86140054D01*
X47159780Y-86321968D01*
X47374354Y-86472897D01*
X47501005Y-86535605D01*
X47609454Y-86589301D01*
X47734510Y-86628877D01*
X47859569Y-86668455D01*
X48118829Y-86708500D01*
X48118831Y-86708500D01*
X49615490Y-86708500D01*
X49615494Y-86708500D01*
X49693921Y-86702478D01*
X49811569Y-86693446D01*
X50067007Y-86633671D01*
X50310326Y-86535605D01*
X50535825Y-86401545D01*
X50738216Y-86234634D01*
X50912757Y-86038784D01*
X51055355Y-85818586D01*
X51162670Y-85579201D01*
X51170695Y-85550000D01*
X54086539Y-85550000D01*
X54106358Y-85865018D01*
X54165504Y-86175071D01*
X54263044Y-86475266D01*
X54397438Y-86760869D01*
X54566565Y-87027372D01*
X54767766Y-87270582D01*
X54997859Y-87486653D01*
X54997860Y-87486654D01*
X55253221Y-87672184D01*
X55529821Y-87824247D01*
X55823298Y-87940443D01*
X55983804Y-87981653D01*
X56129024Y-88018940D01*
X56442176Y-88058500D01*
X56442179Y-88058500D01*
X56757821Y-88058500D01*
X56757824Y-88058500D01*
X57070975Y-88018940D01*
X57070974Y-88018940D01*
X57376702Y-87940443D01*
X57670179Y-87824247D01*
X57946779Y-87672184D01*
X58202140Y-87486654D01*
X58432233Y-87270582D01*
X58633432Y-87027375D01*
X58802562Y-86760869D01*
X58936956Y-86475266D01*
X59034495Y-86175072D01*
X59093641Y-85865020D01*
X59113460Y-85550000D01*
X62886539Y-85550000D01*
X62906358Y-85865018D01*
X62965504Y-86175071D01*
X63063044Y-86475266D01*
X63197438Y-86760869D01*
X63366565Y-87027372D01*
X63567766Y-87270582D01*
X63797859Y-87486653D01*
X63797860Y-87486654D01*
X64053221Y-87672184D01*
X64329821Y-87824247D01*
X64623298Y-87940443D01*
X64783804Y-87981653D01*
X64929024Y-88018940D01*
X65242176Y-88058500D01*
X65242179Y-88058500D01*
X65557821Y-88058500D01*
X65557824Y-88058500D01*
X65870975Y-88018940D01*
X65870974Y-88018940D01*
X66176702Y-87940443D01*
X66470179Y-87824247D01*
X66746779Y-87672184D01*
X67002140Y-87486654D01*
X67232233Y-87270582D01*
X67433432Y-87027375D01*
X67602562Y-86760869D01*
X67736956Y-86475266D01*
X67834495Y-86175072D01*
X67893641Y-85865020D01*
X67913460Y-85550000D01*
X67893641Y-85234980D01*
X67834495Y-84924928D01*
X67736956Y-84624734D01*
X67602562Y-84339131D01*
X67502471Y-84181413D01*
X67433434Y-84072627D01*
X67232233Y-83829417D01*
X67002139Y-83613345D01*
X66746781Y-83427817D01*
X66470178Y-83275752D01*
X66289210Y-83204102D01*
X66176702Y-83159557D01*
X66176699Y-83159556D01*
X66176696Y-83159555D01*
X65870975Y-83081059D01*
X65557824Y-83041500D01*
X65557821Y-83041500D01*
X65242179Y-83041500D01*
X65242176Y-83041500D01*
X64929024Y-83081059D01*
X64623303Y-83159555D01*
X64329821Y-83275752D01*
X64053218Y-83427817D01*
X63797860Y-83613345D01*
X63567766Y-83829417D01*
X63366565Y-84072627D01*
X63197438Y-84339130D01*
X63063044Y-84624733D01*
X62965504Y-84924928D01*
X62906358Y-85234981D01*
X62886539Y-85550000D01*
X59113460Y-85550000D01*
X59093641Y-85234980D01*
X59034495Y-84924928D01*
X58936956Y-84624734D01*
X58802562Y-84339131D01*
X58702471Y-84181413D01*
X58633434Y-84072627D01*
X58432233Y-83829417D01*
X58202139Y-83613345D01*
X57946781Y-83427817D01*
X57670178Y-83275752D01*
X57489210Y-83204102D01*
X57376702Y-83159557D01*
X57376699Y-83159556D01*
X57376696Y-83159555D01*
X57070975Y-83081059D01*
X56757824Y-83041500D01*
X56757821Y-83041500D01*
X56442179Y-83041500D01*
X56442176Y-83041500D01*
X56129024Y-83081059D01*
X55823303Y-83159555D01*
X55529821Y-83275752D01*
X55253218Y-83427817D01*
X54997860Y-83613345D01*
X54767766Y-83829417D01*
X54566565Y-84072627D01*
X54397438Y-84339130D01*
X54263044Y-84624733D01*
X54165504Y-84924928D01*
X54106358Y-85234981D01*
X54086539Y-85550000D01*
X51170695Y-85550000D01*
X51232185Y-85326240D01*
X51262271Y-85065633D01*
X51252222Y-84803487D01*
X51202275Y-84545947D01*
X51113600Y-84299049D01*
X50988276Y-84068582D01*
X50829240Y-83859945D01*
X50640219Y-83678031D01*
X50425645Y-83527102D01*
X50190547Y-83410699D01*
X49940430Y-83331544D01*
X49681171Y-83291500D01*
X49681169Y-83291500D01*
X48184510Y-83291500D01*
X48184506Y-83291500D01*
X47988436Y-83306553D01*
X47988432Y-83306553D01*
X47988431Y-83306554D01*
X47881641Y-83331544D01*
X47732988Y-83366330D01*
X47489675Y-83464394D01*
X47264174Y-83598455D01*
X47061784Y-83765364D01*
X46887240Y-83961218D01*
X46744645Y-84181413D01*
X46637330Y-84420795D01*
X46621456Y-84478560D01*
X46590073Y-84533238D01*
X46536130Y-84565868D01*
X46473133Y-84568282D01*
X46416852Y-84539876D01*
X46381378Y-84487764D01*
X46313600Y-84299049D01*
X46188276Y-84068582D01*
X46029240Y-83859945D01*
X45840219Y-83678031D01*
X45625645Y-83527102D01*
X45390547Y-83410699D01*
X45140430Y-83331544D01*
X44881171Y-83291500D01*
X44881169Y-83291500D01*
X43384510Y-83291500D01*
X43384506Y-83291500D01*
X43188436Y-83306553D01*
X43188432Y-83306553D01*
X43188431Y-83306554D01*
X43081641Y-83331544D01*
X42932988Y-83366330D01*
X42689675Y-83464394D01*
X42464174Y-83598455D01*
X42261784Y-83765364D01*
X42087240Y-83961218D01*
X41944645Y-84181413D01*
X41837329Y-84420797D01*
X41767815Y-84673756D01*
X41737729Y-84934366D01*
X32553500Y-84934366D01*
X32553500Y-81600000D01*
X33921634Y-81600000D01*
X33941066Y-81846911D01*
X33998885Y-82087742D01*
X34093666Y-82316563D01*
X34223075Y-82527740D01*
X34223076Y-82527742D01*
X34223078Y-82527744D01*
X34383926Y-82716073D01*
X34572255Y-82876921D01*
X34572260Y-82876925D01*
X34783437Y-83006334D01*
X35012258Y-83101115D01*
X35253089Y-83158934D01*
X35500000Y-83178366D01*
X35746911Y-83158934D01*
X35987742Y-83101115D01*
X36216563Y-83006334D01*
X36427740Y-82876925D01*
X36616073Y-82716073D01*
X36776925Y-82527740D01*
X36906334Y-82316563D01*
X37001115Y-82087742D01*
X37058934Y-81846911D01*
X37078366Y-81600000D01*
X37058934Y-81353089D01*
X37001115Y-81112258D01*
X36906334Y-80883437D01*
X36776925Y-80672260D01*
X36737623Y-80626243D01*
X36675922Y-80554000D01*
X41759436Y-80554000D01*
X41798208Y-80753917D01*
X41886857Y-81000743D01*
X42012148Y-81231148D01*
X42171134Y-81439720D01*
X42360100Y-81621581D01*
X42574609Y-81772463D01*
X42809642Y-81888836D01*
X43059683Y-81967967D01*
X43318867Y-82008000D01*
X43846000Y-82008000D01*
X44354000Y-82008000D01*
X44815468Y-82008000D01*
X45011486Y-81992950D01*
X45266859Y-81933190D01*
X45510102Y-81835155D01*
X45735537Y-81701133D01*
X45937867Y-81534273D01*
X46112359Y-81338477D01*
X46254913Y-81118346D01*
X46362194Y-80879038D01*
X46378247Y-80820622D01*
X46409629Y-80765944D01*
X46463571Y-80733312D01*
X46526569Y-80730897D01*
X46582851Y-80759302D01*
X46618328Y-80811418D01*
X46686401Y-81000954D01*
X46811723Y-81231417D01*
X46970759Y-81440054D01*
X47159780Y-81621968D01*
X47374354Y-81772897D01*
X47604914Y-81887053D01*
X47609454Y-81889301D01*
X47734510Y-81928877D01*
X47859569Y-81968455D01*
X48118829Y-82008500D01*
X48118831Y-82008500D01*
X49615490Y-82008500D01*
X49615494Y-82008500D01*
X49693921Y-82002478D01*
X49811569Y-81993446D01*
X50067007Y-81933671D01*
X50310326Y-81835605D01*
X50535825Y-81701545D01*
X50738216Y-81534634D01*
X50912757Y-81338784D01*
X51055355Y-81118586D01*
X51162670Y-80879201D01*
X51232185Y-80626240D01*
X51262271Y-80365633D01*
X51252222Y-80103487D01*
X51202275Y-79845947D01*
X51113600Y-79599049D01*
X50988276Y-79368582D01*
X50906668Y-79261522D01*
X50829240Y-79159945D01*
X50640219Y-78978031D01*
X50425645Y-78827102D01*
X50190547Y-78710699D01*
X49940430Y-78631544D01*
X49681171Y-78591500D01*
X49681169Y-78591500D01*
X48184510Y-78591500D01*
X48184506Y-78591500D01*
X47988436Y-78606553D01*
X47988432Y-78606553D01*
X47988431Y-78606554D01*
X47986316Y-78607049D01*
X47732988Y-78666330D01*
X47489675Y-78764394D01*
X47264174Y-78898455D01*
X47061784Y-79065364D01*
X46887240Y-79261218D01*
X46744645Y-79481413D01*
X46637330Y-79720796D01*
X46621226Y-79779398D01*
X46589843Y-79834076D01*
X46535901Y-79866707D01*
X46472904Y-79869121D01*
X46416622Y-79840715D01*
X46381146Y-79788600D01*
X46313142Y-79599256D01*
X46187851Y-79368851D01*
X46028865Y-79160279D01*
X45839899Y-78978418D01*
X45625390Y-78827536D01*
X45390357Y-78711163D01*
X45140316Y-78632032D01*
X44881133Y-78592000D01*
X44354000Y-78592000D01*
X44354000Y-82008000D01*
X43846000Y-82008000D01*
X43846000Y-80554000D01*
X41759436Y-80554000D01*
X36675922Y-80554000D01*
X36616073Y-80483926D01*
X36427744Y-80323078D01*
X36427742Y-80323076D01*
X36427740Y-80323075D01*
X36216563Y-80193666D01*
X36148345Y-80165409D01*
X36094627Y-80123061D01*
X36070951Y-80058886D01*
X36073514Y-80046000D01*
X41759979Y-80046000D01*
X43846000Y-80046000D01*
X43846000Y-78592000D01*
X43384532Y-78592000D01*
X43188513Y-78607049D01*
X42933140Y-78666809D01*
X42689897Y-78764844D01*
X42464462Y-78898866D01*
X42262132Y-79065726D01*
X42087640Y-79261522D01*
X41945086Y-79481653D01*
X41837803Y-79720965D01*
X41768308Y-79973853D01*
X41759979Y-80046000D01*
X36073514Y-80046000D01*
X36084296Y-79991797D01*
X36130728Y-79941567D01*
X36196563Y-79923000D01*
X36513589Y-79923000D01*
X36574093Y-79916494D01*
X36710962Y-79865445D01*
X36827904Y-79777904D01*
X36915445Y-79660962D01*
X36966494Y-79524093D01*
X36973000Y-79463589D01*
X36973000Y-78754000D01*
X34027000Y-78754000D01*
X34027000Y-79463589D01*
X34033505Y-79524093D01*
X34084554Y-79660962D01*
X34172095Y-79777904D01*
X34289037Y-79865445D01*
X34425906Y-79916494D01*
X34486411Y-79923000D01*
X34803437Y-79923000D01*
X34869272Y-79941567D01*
X34915704Y-79991797D01*
X34929049Y-80058886D01*
X34905373Y-80123061D01*
X34851655Y-80165409D01*
X34783438Y-80193665D01*
X34572255Y-80323078D01*
X34383926Y-80483926D01*
X34223078Y-80672255D01*
X34093665Y-80883438D01*
X33998885Y-81112256D01*
X33970277Y-81231417D01*
X33941066Y-81353089D01*
X33921634Y-81600000D01*
X32553500Y-81600000D01*
X32553500Y-78246000D01*
X34027000Y-78246000D01*
X35246000Y-78246000D01*
X35246000Y-77077000D01*
X35754000Y-77077000D01*
X35754000Y-78246000D01*
X36973000Y-78246000D01*
X36973000Y-77536411D01*
X36966494Y-77475906D01*
X36915445Y-77339037D01*
X36827904Y-77222095D01*
X36710962Y-77134554D01*
X36574093Y-77083505D01*
X36513589Y-77077000D01*
X35754000Y-77077000D01*
X35246000Y-77077000D01*
X34486411Y-77077000D01*
X34425906Y-77083505D01*
X34289037Y-77134554D01*
X34172095Y-77222095D01*
X34084554Y-77339037D01*
X34033505Y-77475906D01*
X34027000Y-77536411D01*
X34027000Y-78246000D01*
X32553500Y-78246000D01*
X32553500Y-73448638D01*
X43816500Y-73448638D01*
X43823011Y-73509201D01*
X43834431Y-73539818D01*
X43874111Y-73646205D01*
X43961738Y-73763261D01*
X44078794Y-73850888D01*
X44078795Y-73850888D01*
X44078796Y-73850889D01*
X44215799Y-73901989D01*
X44276362Y-73908500D01*
X46173638Y-73908500D01*
X46234201Y-73901989D01*
X46371204Y-73850889D01*
X46488261Y-73763261D01*
X46575889Y-73646204D01*
X46599258Y-73583549D01*
X46635788Y-73531512D01*
X46693077Y-73503936D01*
X46756538Y-73507844D01*
X46798450Y-73534805D01*
X46799541Y-73533405D01*
X46807779Y-73539816D01*
X46807780Y-73539818D01*
X46991983Y-73683190D01*
X47197273Y-73794287D01*
X47418049Y-73870080D01*
X47648288Y-73908500D01*
X47881709Y-73908500D01*
X47881712Y-73908500D01*
X48111951Y-73870080D01*
X48332727Y-73794287D01*
X48538017Y-73683190D01*
X48722220Y-73539818D01*
X48758876Y-73499999D01*
X56606502Y-73499999D01*
X56626457Y-73728087D01*
X56685715Y-73949243D01*
X56782477Y-74156750D01*
X56913804Y-74344303D01*
X57075696Y-74506195D01*
X57263249Y-74637522D01*
X57470756Y-74734284D01*
X57530015Y-74750162D01*
X57691913Y-74793543D01*
X57920000Y-74813498D01*
X58148087Y-74793543D01*
X58369243Y-74734284D01*
X58576749Y-74637523D01*
X58764300Y-74506198D01*
X58926198Y-74344300D01*
X59057523Y-74156749D01*
X59154284Y-73949243D01*
X59213543Y-73728087D01*
X59233498Y-73500000D01*
X59233498Y-73499999D01*
X66766502Y-73499999D01*
X66786457Y-73728087D01*
X66845715Y-73949243D01*
X66942477Y-74156750D01*
X67073804Y-74344303D01*
X67235696Y-74506195D01*
X67423249Y-74637522D01*
X67630756Y-74734284D01*
X67690015Y-74750162D01*
X67851913Y-74793543D01*
X68080000Y-74813498D01*
X68308087Y-74793543D01*
X68529243Y-74734284D01*
X68736749Y-74637523D01*
X68924300Y-74506198D01*
X69086198Y-74344300D01*
X69217523Y-74156749D01*
X69314284Y-73949243D01*
X69373543Y-73728087D01*
X69393498Y-73500000D01*
X69373543Y-73271913D01*
X69314284Y-73050757D01*
X69217523Y-72843251D01*
X69086198Y-72655700D01*
X69086197Y-72655699D01*
X69086195Y-72655696D01*
X68924303Y-72493804D01*
X68736750Y-72362477D01*
X68529243Y-72265715D01*
X68308087Y-72206457D01*
X68080000Y-72186502D01*
X67851912Y-72206457D01*
X67630756Y-72265715D01*
X67423249Y-72362477D01*
X67235696Y-72493804D01*
X67073804Y-72655696D01*
X66942477Y-72843249D01*
X66845715Y-73050756D01*
X66786457Y-73271912D01*
X66766502Y-73499999D01*
X59233498Y-73499999D01*
X59213543Y-73271913D01*
X59154284Y-73050757D01*
X59057523Y-72843251D01*
X58926198Y-72655700D01*
X58926197Y-72655699D01*
X58926195Y-72655696D01*
X58764303Y-72493804D01*
X58576750Y-72362477D01*
X58369243Y-72265715D01*
X58148087Y-72206457D01*
X57920000Y-72186502D01*
X57691912Y-72206457D01*
X57470756Y-72265715D01*
X57263249Y-72362477D01*
X57075696Y-72493804D01*
X56913804Y-72655696D01*
X56782477Y-72843249D01*
X56685715Y-73050756D01*
X56626457Y-73271912D01*
X56606502Y-73499999D01*
X48758876Y-73499999D01*
X48880314Y-73368083D01*
X49007984Y-73172669D01*
X49101749Y-72958907D01*
X49159051Y-72732626D01*
X49178327Y-72500000D01*
X49159051Y-72267374D01*
X49101749Y-72041093D01*
X49007984Y-71827331D01*
X48880314Y-71631917D01*
X48722220Y-71460182D01*
X48538017Y-71316810D01*
X48506779Y-71299904D01*
X48341625Y-71210528D01*
X57698680Y-71210528D01*
X57698681Y-71210529D01*
X57727254Y-71232768D01*
X57932474Y-71343828D01*
X58153169Y-71419592D01*
X58383332Y-71458000D01*
X58616668Y-71458000D01*
X58846830Y-71419592D01*
X59067525Y-71343828D01*
X59272744Y-71232770D01*
X59301317Y-71210529D01*
X59301317Y-71210528D01*
X58500000Y-70409210D01*
X58499999Y-70409210D01*
X57698680Y-71210528D01*
X48341625Y-71210528D01*
X48332726Y-71205712D01*
X48167852Y-71149111D01*
X48111951Y-71129920D01*
X47881712Y-71091500D01*
X47648288Y-71091500D01*
X47418049Y-71129920D01*
X47418046Y-71129920D01*
X47418046Y-71129921D01*
X47197273Y-71205712D01*
X46991984Y-71316809D01*
X46956681Y-71344287D01*
X46810584Y-71458000D01*
X46799541Y-71466595D01*
X46798451Y-71465195D01*
X46756530Y-71492158D01*
X46693072Y-71496062D01*
X46635786Y-71468485D01*
X46599257Y-71416448D01*
X46575888Y-71353794D01*
X46488261Y-71236738D01*
X46371205Y-71149111D01*
X46302702Y-71123561D01*
X46234201Y-71098011D01*
X46173638Y-71091500D01*
X44276362Y-71091500D01*
X44215799Y-71098011D01*
X44078794Y-71149111D01*
X43961738Y-71236738D01*
X43874111Y-71353794D01*
X43835058Y-71458500D01*
X43823011Y-71490799D01*
X43816500Y-71551362D01*
X43816500Y-73448638D01*
X32553500Y-73448638D01*
X32553500Y-72219393D01*
X32567737Y-72161213D01*
X32607227Y-72116181D01*
X32764300Y-72006198D01*
X32926198Y-71844300D01*
X33057523Y-71656749D01*
X33154284Y-71449243D01*
X33213543Y-71228087D01*
X33233498Y-71000000D01*
X40766502Y-71000000D01*
X40786457Y-71228087D01*
X40845715Y-71449243D01*
X40942477Y-71656750D01*
X41073804Y-71844303D01*
X41235696Y-72006195D01*
X41423249Y-72137522D01*
X41630756Y-72234284D01*
X41690014Y-72250162D01*
X41851913Y-72293543D01*
X42080000Y-72313498D01*
X42308087Y-72293543D01*
X42529243Y-72234284D01*
X42736749Y-72137523D01*
X42924300Y-72006198D01*
X43086198Y-71844300D01*
X43217523Y-71656749D01*
X43314284Y-71449243D01*
X43373543Y-71228087D01*
X43393498Y-71000000D01*
X43373543Y-70771913D01*
X43314284Y-70550757D01*
X43294769Y-70508907D01*
X43217522Y-70343249D01*
X43086195Y-70155696D01*
X42980498Y-70049999D01*
X57087174Y-70049999D01*
X57106444Y-70282548D01*
X57163723Y-70508739D01*
X57257458Y-70722434D01*
X57340795Y-70849991D01*
X57340796Y-70849991D01*
X58140789Y-70050000D01*
X58859210Y-70050000D01*
X59659203Y-70849991D01*
X59670392Y-70848831D01*
X59689730Y-70831029D01*
X59749699Y-70815842D01*
X59809669Y-70831028D01*
X59855182Y-70872924D01*
X59884686Y-70918083D01*
X60042780Y-71089818D01*
X60226983Y-71233190D01*
X60432273Y-71344287D01*
X60653049Y-71420080D01*
X60883288Y-71458500D01*
X61116709Y-71458500D01*
X61116712Y-71458500D01*
X61346951Y-71420080D01*
X61567727Y-71344287D01*
X61773017Y-71233190D01*
X61957220Y-71089818D01*
X62115314Y-70918083D01*
X62144518Y-70873381D01*
X62190028Y-70831486D01*
X62249997Y-70816299D01*
X62309967Y-70831485D01*
X62355481Y-70873382D01*
X62384686Y-70918083D01*
X62542780Y-71089818D01*
X62726983Y-71233190D01*
X62932273Y-71344287D01*
X63153049Y-71420080D01*
X63383288Y-71458500D01*
X63616709Y-71458500D01*
X63616712Y-71458500D01*
X63846951Y-71420080D01*
X64067727Y-71344287D01*
X64273017Y-71233190D01*
X64457220Y-71089818D01*
X64615314Y-70918083D01*
X64742984Y-70722669D01*
X64836749Y-70508907D01*
X64894051Y-70282626D01*
X64913327Y-70050000D01*
X64894051Y-69817374D01*
X64836749Y-69591093D01*
X64742984Y-69377331D01*
X64615314Y-69181917D01*
X64457220Y-69010182D01*
X64273017Y-68866810D01*
X64161267Y-68806334D01*
X64067726Y-68755712D01*
X63918275Y-68704405D01*
X63846951Y-68679920D01*
X63616712Y-68641500D01*
X63383288Y-68641500D01*
X63153049Y-68679920D01*
X63153046Y-68679920D01*
X63153046Y-68679921D01*
X62932273Y-68755712D01*
X62726984Y-68866809D01*
X62542779Y-69010182D01*
X62384683Y-69181920D01*
X62355482Y-69226616D01*
X62309969Y-69268514D01*
X62250000Y-69283700D01*
X62190031Y-69268514D01*
X62144518Y-69226616D01*
X62115316Y-69181920D01*
X62115315Y-69181919D01*
X62115314Y-69181917D01*
X61957220Y-69010182D01*
X61773017Y-68866810D01*
X61661267Y-68806334D01*
X61567726Y-68755712D01*
X61418275Y-68704405D01*
X61346951Y-68679920D01*
X61116712Y-68641500D01*
X60883288Y-68641500D01*
X60653049Y-68679920D01*
X60653046Y-68679920D01*
X60653046Y-68679921D01*
X60432273Y-68755712D01*
X60226984Y-68866809D01*
X60042779Y-69010182D01*
X59884685Y-69181918D01*
X59855183Y-69227074D01*
X59809669Y-69268972D01*
X59749699Y-69284157D01*
X59689730Y-69268970D01*
X59670392Y-69251167D01*
X59659202Y-69250007D01*
X58859210Y-70049999D01*
X58859210Y-70050000D01*
X58140789Y-70050000D01*
X58140789Y-70049999D01*
X57340796Y-69250006D01*
X57257456Y-69377571D01*
X57163723Y-69591260D01*
X57106444Y-69817451D01*
X57087174Y-70049999D01*
X42980498Y-70049999D01*
X42924303Y-69993804D01*
X42736750Y-69862477D01*
X42529243Y-69765715D01*
X42308087Y-69706457D01*
X42080000Y-69686502D01*
X41851912Y-69706457D01*
X41630756Y-69765715D01*
X41423249Y-69862477D01*
X41235696Y-69993804D01*
X41073804Y-70155696D01*
X40942477Y-70343249D01*
X40845715Y-70550756D01*
X40786457Y-70771912D01*
X40766502Y-71000000D01*
X33233498Y-71000000D01*
X33213543Y-70771913D01*
X33154284Y-70550757D01*
X33134769Y-70508907D01*
X33057522Y-70343249D01*
X32926195Y-70155696D01*
X32764303Y-69993804D01*
X32742158Y-69978297D01*
X32607227Y-69883818D01*
X32567737Y-69838787D01*
X32553500Y-69780607D01*
X32553500Y-67399999D01*
X33921634Y-67399999D01*
X33941066Y-67646911D01*
X33998885Y-67887743D01*
X34053082Y-68018586D01*
X34093666Y-68116563D01*
X34223075Y-68327740D01*
X34223076Y-68327742D01*
X34223078Y-68327744D01*
X34383926Y-68516073D01*
X34572255Y-68676921D01*
X34572260Y-68676925D01*
X34783437Y-68806334D01*
X35012258Y-68901115D01*
X35253089Y-68958934D01*
X35500000Y-68978366D01*
X35746911Y-68958934D01*
X35987742Y-68901115D01*
X36216563Y-68806334D01*
X36427740Y-68676925D01*
X36616073Y-68516073D01*
X36776925Y-68327740D01*
X36906334Y-68116563D01*
X37001115Y-67887742D01*
X37058934Y-67646911D01*
X37078366Y-67400000D01*
X37058934Y-67153089D01*
X37054439Y-67134366D01*
X41737729Y-67134366D01*
X41747778Y-67396516D01*
X41797724Y-67654050D01*
X41886401Y-67900954D01*
X42011723Y-68131417D01*
X42170759Y-68340054D01*
X42359780Y-68521968D01*
X42574354Y-68672897D01*
X42701005Y-68735605D01*
X42809454Y-68789301D01*
X42934510Y-68828877D01*
X43059569Y-68868455D01*
X43318829Y-68908500D01*
X43318831Y-68908500D01*
X44815490Y-68908500D01*
X44815494Y-68908500D01*
X44893921Y-68902478D01*
X45011569Y-68893446D01*
X45267007Y-68833671D01*
X45510326Y-68735605D01*
X45735825Y-68601545D01*
X45938216Y-68434634D01*
X46112757Y-68238784D01*
X46255355Y-68018586D01*
X46362670Y-67779201D01*
X46378542Y-67721441D01*
X46409925Y-67666763D01*
X46463867Y-67634132D01*
X46526865Y-67631717D01*
X46583147Y-67660123D01*
X46618623Y-67712238D01*
X46686401Y-67900954D01*
X46811723Y-68131417D01*
X46970759Y-68340054D01*
X47159780Y-68521968D01*
X47374354Y-68672897D01*
X47501005Y-68735605D01*
X47609454Y-68789301D01*
X47734510Y-68828877D01*
X47859569Y-68868455D01*
X48118829Y-68908500D01*
X48118831Y-68908500D01*
X49615490Y-68908500D01*
X49615494Y-68908500D01*
X49693921Y-68902478D01*
X49811569Y-68893446D01*
X49828560Y-68889470D01*
X57698680Y-68889470D01*
X58499999Y-69690789D01*
X58500000Y-69690789D01*
X59301318Y-68889470D01*
X59301317Y-68889469D01*
X59272745Y-68867230D01*
X59067525Y-68756171D01*
X58846830Y-68680407D01*
X58616668Y-68642000D01*
X58383332Y-68642000D01*
X58153169Y-68680407D01*
X57932474Y-68756171D01*
X57727255Y-68867230D01*
X57698681Y-68889469D01*
X57698680Y-68889470D01*
X49828560Y-68889470D01*
X50067007Y-68833671D01*
X50310326Y-68735605D01*
X50535825Y-68601545D01*
X50738216Y-68434634D01*
X50912757Y-68238784D01*
X51055355Y-68018586D01*
X51162670Y-67779201D01*
X51232185Y-67526240D01*
X51262271Y-67265633D01*
X51252222Y-67003487D01*
X51202275Y-66745947D01*
X51113600Y-66499049D01*
X50988276Y-66268582D01*
X50988275Y-66268581D01*
X50829240Y-66059945D01*
X50640219Y-65878031D01*
X50425645Y-65727102D01*
X50190547Y-65610699D01*
X49940430Y-65531544D01*
X49681171Y-65491500D01*
X49681169Y-65491500D01*
X48184510Y-65491500D01*
X48184506Y-65491500D01*
X47988436Y-65506553D01*
X47988432Y-65506553D01*
X47988431Y-65506554D01*
X47935502Y-65518940D01*
X47732988Y-65566330D01*
X47489675Y-65664394D01*
X47264174Y-65798455D01*
X47061784Y-65965364D01*
X46887240Y-66161218D01*
X46744645Y-66381413D01*
X46637330Y-66620795D01*
X46621456Y-66678560D01*
X46590073Y-66733238D01*
X46536130Y-66765868D01*
X46473133Y-66768282D01*
X46416852Y-66739876D01*
X46381378Y-66687764D01*
X46313600Y-66499049D01*
X46188276Y-66268582D01*
X46188275Y-66268581D01*
X46029240Y-66059945D01*
X45840219Y-65878031D01*
X45625645Y-65727102D01*
X45390547Y-65610699D01*
X45140430Y-65531544D01*
X44881171Y-65491500D01*
X44881169Y-65491500D01*
X43384510Y-65491500D01*
X43384506Y-65491500D01*
X43188436Y-65506553D01*
X43188432Y-65506553D01*
X43188431Y-65506554D01*
X43135502Y-65518940D01*
X42932988Y-65566330D01*
X42689675Y-65664394D01*
X42464174Y-65798455D01*
X42261784Y-65965364D01*
X42087240Y-66161218D01*
X41944645Y-66381413D01*
X41837329Y-66620797D01*
X41767815Y-66873756D01*
X41737729Y-67134366D01*
X37054439Y-67134366D01*
X37001115Y-66912258D01*
X36906334Y-66683437D01*
X36776925Y-66472260D01*
X36776921Y-66472255D01*
X36616073Y-66283926D01*
X36427744Y-66123078D01*
X36427742Y-66123076D01*
X36427740Y-66123075D01*
X36216563Y-65993666D01*
X36216561Y-65993665D01*
X35987743Y-65898885D01*
X35746911Y-65841066D01*
X35500000Y-65821634D01*
X35253088Y-65841066D01*
X35012256Y-65898885D01*
X34783438Y-65993665D01*
X34572255Y-66123078D01*
X34383926Y-66283926D01*
X34223078Y-66472255D01*
X34093665Y-66683438D01*
X33998885Y-66912256D01*
X33941066Y-67153088D01*
X33921634Y-67399999D01*
X32553500Y-67399999D01*
X32553500Y-62434366D01*
X41737729Y-62434366D01*
X41747778Y-62696516D01*
X41797724Y-62954050D01*
X41886401Y-63200954D01*
X42011723Y-63431417D01*
X42170759Y-63640054D01*
X42359780Y-63821968D01*
X42574354Y-63972897D01*
X42701005Y-64035605D01*
X42809454Y-64089301D01*
X42934510Y-64128877D01*
X43059569Y-64168455D01*
X43318829Y-64208500D01*
X43318831Y-64208500D01*
X44815490Y-64208500D01*
X44815494Y-64208500D01*
X44893921Y-64202478D01*
X45011569Y-64193446D01*
X45267007Y-64133671D01*
X45510326Y-64035605D01*
X45735825Y-63901545D01*
X45938216Y-63734634D01*
X46112757Y-63538784D01*
X46255355Y-63318586D01*
X46362670Y-63079201D01*
X46378542Y-63021441D01*
X46409925Y-62966763D01*
X46463867Y-62934132D01*
X46526865Y-62931717D01*
X46583147Y-62960123D01*
X46618623Y-63012238D01*
X46686401Y-63200954D01*
X46811723Y-63431417D01*
X46970759Y-63640054D01*
X47159780Y-63821968D01*
X47374354Y-63972897D01*
X47501005Y-64035605D01*
X47609454Y-64089301D01*
X47734510Y-64128877D01*
X47859569Y-64168455D01*
X48118829Y-64208500D01*
X48118831Y-64208500D01*
X49615490Y-64208500D01*
X49615494Y-64208500D01*
X49693921Y-64202478D01*
X49811569Y-64193446D01*
X50067007Y-64133671D01*
X50310326Y-64035605D01*
X50535825Y-63901545D01*
X50738216Y-63734634D01*
X50912757Y-63538784D01*
X51055355Y-63318586D01*
X51162670Y-63079201D01*
X51170695Y-63049999D01*
X54086539Y-63049999D01*
X54106358Y-63365018D01*
X54165504Y-63675071D01*
X54263044Y-63975266D01*
X54397438Y-64260869D01*
X54566565Y-64527372D01*
X54767766Y-64770582D01*
X54997860Y-64986654D01*
X55253221Y-65172184D01*
X55529821Y-65324247D01*
X55823298Y-65440443D01*
X55983804Y-65481653D01*
X56129024Y-65518940D01*
X56442176Y-65558500D01*
X56442179Y-65558500D01*
X56757821Y-65558500D01*
X56757824Y-65558500D01*
X57070975Y-65518940D01*
X57070975Y-65518939D01*
X57376702Y-65440443D01*
X57670179Y-65324247D01*
X57946779Y-65172184D01*
X58202140Y-64986654D01*
X58432233Y-64770582D01*
X58633432Y-64527375D01*
X58802562Y-64260869D01*
X58936956Y-63975266D01*
X59034495Y-63675072D01*
X59093641Y-63365020D01*
X59113460Y-63050000D01*
X59113460Y-63049999D01*
X62886539Y-63049999D01*
X62906358Y-63365018D01*
X62965504Y-63675071D01*
X63063044Y-63975266D01*
X63197438Y-64260869D01*
X63366565Y-64527372D01*
X63567766Y-64770582D01*
X63797860Y-64986654D01*
X64053221Y-65172184D01*
X64329821Y-65324247D01*
X64623298Y-65440443D01*
X64783804Y-65481653D01*
X64929024Y-65518940D01*
X65242176Y-65558500D01*
X65242179Y-65558500D01*
X65557821Y-65558500D01*
X65557824Y-65558500D01*
X65870975Y-65518940D01*
X65870975Y-65518939D01*
X66176702Y-65440443D01*
X66470179Y-65324247D01*
X66746779Y-65172184D01*
X67002140Y-64986654D01*
X67232233Y-64770582D01*
X67433432Y-64527375D01*
X67602562Y-64260869D01*
X67736956Y-63975266D01*
X67834495Y-63675072D01*
X67893641Y-63365020D01*
X67913460Y-63050000D01*
X67893641Y-62734980D01*
X67834495Y-62424928D01*
X67736956Y-62124734D01*
X67602562Y-61839131D01*
X67502471Y-61681413D01*
X67433434Y-61572627D01*
X67232233Y-61329417D01*
X67002139Y-61113345D01*
X66746781Y-60927817D01*
X66470178Y-60775752D01*
X66289210Y-60704102D01*
X66176702Y-60659557D01*
X66176699Y-60659556D01*
X66176696Y-60659555D01*
X65870975Y-60581059D01*
X65557824Y-60541500D01*
X65557821Y-60541500D01*
X65242179Y-60541500D01*
X65242176Y-60541500D01*
X64929024Y-60581059D01*
X64623303Y-60659555D01*
X64329821Y-60775752D01*
X64053218Y-60927817D01*
X63797860Y-61113345D01*
X63567766Y-61329417D01*
X63366565Y-61572627D01*
X63197438Y-61839130D01*
X63063044Y-62124733D01*
X62965504Y-62424928D01*
X62906358Y-62734981D01*
X62886539Y-63049999D01*
X59113460Y-63049999D01*
X59093641Y-62734980D01*
X59034495Y-62424928D01*
X58936956Y-62124734D01*
X58802562Y-61839131D01*
X58702471Y-61681413D01*
X58633434Y-61572627D01*
X58432233Y-61329417D01*
X58202139Y-61113345D01*
X57946781Y-60927817D01*
X57670178Y-60775752D01*
X57489210Y-60704102D01*
X57376702Y-60659557D01*
X57376699Y-60659556D01*
X57376696Y-60659555D01*
X57070975Y-60581059D01*
X56757824Y-60541500D01*
X56757821Y-60541500D01*
X56442179Y-60541500D01*
X56442176Y-60541500D01*
X56129024Y-60581059D01*
X55823303Y-60659555D01*
X55529821Y-60775752D01*
X55253218Y-60927817D01*
X54997860Y-61113345D01*
X54767766Y-61329417D01*
X54566565Y-61572627D01*
X54397438Y-61839130D01*
X54263044Y-62124733D01*
X54165504Y-62424928D01*
X54106358Y-62734981D01*
X54086539Y-63049999D01*
X51170695Y-63049999D01*
X51232185Y-62826240D01*
X51262271Y-62565633D01*
X51252222Y-62303487D01*
X51202275Y-62045947D01*
X51113600Y-61799049D01*
X50988276Y-61568582D01*
X50988275Y-61568581D01*
X50829240Y-61359945D01*
X50640219Y-61178031D01*
X50425645Y-61027102D01*
X50190547Y-60910699D01*
X49940430Y-60831544D01*
X49681171Y-60791500D01*
X49681169Y-60791500D01*
X48184510Y-60791500D01*
X48184506Y-60791500D01*
X47988436Y-60806553D01*
X47988432Y-60806553D01*
X47988431Y-60806554D01*
X47881641Y-60831544D01*
X47732988Y-60866330D01*
X47489675Y-60964394D01*
X47264174Y-61098455D01*
X47061784Y-61265364D01*
X46887240Y-61461218D01*
X46744645Y-61681413D01*
X46637330Y-61920795D01*
X46621456Y-61978560D01*
X46590073Y-62033238D01*
X46536130Y-62065868D01*
X46473133Y-62068282D01*
X46416852Y-62039876D01*
X46381378Y-61987764D01*
X46313600Y-61799049D01*
X46188276Y-61568582D01*
X46188275Y-61568581D01*
X46029240Y-61359945D01*
X45840219Y-61178031D01*
X45625645Y-61027102D01*
X45390547Y-60910699D01*
X45140430Y-60831544D01*
X44881171Y-60791500D01*
X44881169Y-60791500D01*
X43384510Y-60791500D01*
X43384506Y-60791500D01*
X43188436Y-60806553D01*
X43188432Y-60806553D01*
X43188431Y-60806554D01*
X43081641Y-60831544D01*
X42932988Y-60866330D01*
X42689675Y-60964394D01*
X42464174Y-61098455D01*
X42261784Y-61265364D01*
X42087240Y-61461218D01*
X41944645Y-61681413D01*
X41837329Y-61920797D01*
X41767815Y-62173756D01*
X41737729Y-62434366D01*
X32553500Y-62434366D01*
X32553500Y-59100000D01*
X33921634Y-59100000D01*
X33941066Y-59346911D01*
X33998885Y-59587742D01*
X34093666Y-59816563D01*
X34223075Y-60027740D01*
X34223076Y-60027742D01*
X34223078Y-60027744D01*
X34383926Y-60216073D01*
X34572255Y-60376921D01*
X34572260Y-60376925D01*
X34783437Y-60506334D01*
X35012258Y-60601115D01*
X35253089Y-60658934D01*
X35500000Y-60678366D01*
X35746911Y-60658934D01*
X35987742Y-60601115D01*
X36216563Y-60506334D01*
X36427740Y-60376925D01*
X36616073Y-60216073D01*
X36776925Y-60027740D01*
X36906334Y-59816563D01*
X37001115Y-59587742D01*
X37058934Y-59346911D01*
X37078366Y-59100000D01*
X37058934Y-58853089D01*
X37001115Y-58612258D01*
X36906334Y-58383437D01*
X36776925Y-58172260D01*
X36737623Y-58126243D01*
X36675922Y-58054000D01*
X41759436Y-58054000D01*
X41798208Y-58253917D01*
X41886857Y-58500743D01*
X42012148Y-58731148D01*
X42171134Y-58939720D01*
X42360100Y-59121581D01*
X42574609Y-59272463D01*
X42809642Y-59388836D01*
X43059683Y-59467967D01*
X43318867Y-59508000D01*
X43846000Y-59508000D01*
X44354000Y-59508000D01*
X44815468Y-59508000D01*
X45011486Y-59492950D01*
X45266859Y-59433190D01*
X45510102Y-59335155D01*
X45735537Y-59201133D01*
X45937867Y-59034273D01*
X46112359Y-58838477D01*
X46254913Y-58618346D01*
X46362194Y-58379038D01*
X46378247Y-58320622D01*
X46409629Y-58265944D01*
X46463571Y-58233312D01*
X46526569Y-58230897D01*
X46582851Y-58259302D01*
X46618328Y-58311418D01*
X46686401Y-58500954D01*
X46811723Y-58731417D01*
X46970759Y-58940054D01*
X47159780Y-59121968D01*
X47374354Y-59272897D01*
X47604914Y-59387053D01*
X47609454Y-59389301D01*
X47734510Y-59428877D01*
X47859569Y-59468455D01*
X48118829Y-59508500D01*
X48118831Y-59508500D01*
X49615490Y-59508500D01*
X49615494Y-59508500D01*
X49693921Y-59502478D01*
X49811569Y-59493446D01*
X50067007Y-59433671D01*
X50310326Y-59335605D01*
X50535825Y-59201545D01*
X50738216Y-59034634D01*
X50912757Y-58838784D01*
X51055355Y-58618586D01*
X51162670Y-58379201D01*
X51232185Y-58126240D01*
X51262271Y-57865633D01*
X51252222Y-57603487D01*
X51202275Y-57345947D01*
X51113600Y-57099049D01*
X50988276Y-56868582D01*
X50906668Y-56761522D01*
X50829240Y-56659945D01*
X50640219Y-56478031D01*
X50425645Y-56327102D01*
X50190547Y-56210699D01*
X49940430Y-56131544D01*
X49681171Y-56091500D01*
X49681169Y-56091500D01*
X48184510Y-56091500D01*
X48184506Y-56091500D01*
X47988436Y-56106553D01*
X47988432Y-56106553D01*
X47988431Y-56106554D01*
X47986316Y-56107049D01*
X47732988Y-56166330D01*
X47489675Y-56264394D01*
X47264174Y-56398455D01*
X47061784Y-56565364D01*
X46887240Y-56761218D01*
X46744645Y-56981413D01*
X46637330Y-57220796D01*
X46621226Y-57279398D01*
X46589843Y-57334076D01*
X46535901Y-57366707D01*
X46472904Y-57369121D01*
X46416622Y-57340715D01*
X46381146Y-57288600D01*
X46313142Y-57099256D01*
X46187851Y-56868851D01*
X46028865Y-56660279D01*
X45839899Y-56478418D01*
X45625390Y-56327536D01*
X45390357Y-56211163D01*
X45140316Y-56132032D01*
X44881133Y-56092000D01*
X44354000Y-56092000D01*
X44354000Y-59508000D01*
X43846000Y-59508000D01*
X43846000Y-58054000D01*
X41759436Y-58054000D01*
X36675922Y-58054000D01*
X36616073Y-57983926D01*
X36427744Y-57823078D01*
X36427742Y-57823076D01*
X36427740Y-57823075D01*
X36216563Y-57693666D01*
X36148345Y-57665409D01*
X36094627Y-57623061D01*
X36070951Y-57558886D01*
X36073514Y-57546000D01*
X41759979Y-57546000D01*
X43846000Y-57546000D01*
X43846000Y-56092000D01*
X43384532Y-56092000D01*
X43188513Y-56107049D01*
X42933140Y-56166809D01*
X42689897Y-56264844D01*
X42464462Y-56398866D01*
X42262132Y-56565726D01*
X42087640Y-56761522D01*
X41945086Y-56981653D01*
X41837803Y-57220965D01*
X41768308Y-57473853D01*
X41759979Y-57546000D01*
X36073514Y-57546000D01*
X36084296Y-57491797D01*
X36130728Y-57441567D01*
X36196563Y-57423000D01*
X36513589Y-57423000D01*
X36574093Y-57416494D01*
X36710962Y-57365445D01*
X36827904Y-57277904D01*
X36915445Y-57160962D01*
X36966494Y-57024093D01*
X36973000Y-56963589D01*
X36973000Y-56254000D01*
X34027000Y-56254000D01*
X34027000Y-56963589D01*
X34033505Y-57024093D01*
X34084554Y-57160962D01*
X34172095Y-57277904D01*
X34289037Y-57365445D01*
X34425906Y-57416494D01*
X34486411Y-57423000D01*
X34803437Y-57423000D01*
X34869272Y-57441567D01*
X34915704Y-57491797D01*
X34929049Y-57558886D01*
X34905373Y-57623061D01*
X34851655Y-57665409D01*
X34783438Y-57693665D01*
X34572255Y-57823078D01*
X34383926Y-57983926D01*
X34223078Y-58172255D01*
X34093665Y-58383438D01*
X33998885Y-58612256D01*
X33970277Y-58731417D01*
X33941066Y-58853089D01*
X33921634Y-59100000D01*
X32553500Y-59100000D01*
X32553500Y-55746000D01*
X34027000Y-55746000D01*
X35246000Y-55746000D01*
X35246000Y-54577000D01*
X35754000Y-54577000D01*
X35754000Y-55746000D01*
X36973000Y-55746000D01*
X36973000Y-55036411D01*
X36966494Y-54975906D01*
X36915445Y-54839037D01*
X36827904Y-54722095D01*
X36710962Y-54634554D01*
X36574093Y-54583505D01*
X36513589Y-54577000D01*
X35754000Y-54577000D01*
X35246000Y-54577000D01*
X34486411Y-54577000D01*
X34425906Y-54583505D01*
X34289037Y-54634554D01*
X34172095Y-54722095D01*
X34084554Y-54839037D01*
X34033505Y-54975906D01*
X34027000Y-55036411D01*
X34027000Y-55746000D01*
X32553500Y-55746000D01*
X32553500Y-50948638D01*
X43816500Y-50948638D01*
X43823011Y-51009201D01*
X43834431Y-51039818D01*
X43874111Y-51146205D01*
X43961738Y-51263261D01*
X44078794Y-51350888D01*
X44078795Y-51350888D01*
X44078796Y-51350889D01*
X44215799Y-51401989D01*
X44276362Y-51408500D01*
X46173638Y-51408500D01*
X46234201Y-51401989D01*
X46371204Y-51350889D01*
X46488261Y-51263261D01*
X46575889Y-51146204D01*
X46599258Y-51083549D01*
X46635788Y-51031512D01*
X46693077Y-51003936D01*
X46756538Y-51007844D01*
X46798450Y-51034805D01*
X46799541Y-51033405D01*
X46807779Y-51039816D01*
X46807780Y-51039818D01*
X46991983Y-51183190D01*
X47197273Y-51294287D01*
X47418049Y-51370080D01*
X47648288Y-51408500D01*
X47881709Y-51408500D01*
X47881712Y-51408500D01*
X48111951Y-51370080D01*
X48332727Y-51294287D01*
X48538017Y-51183190D01*
X48722220Y-51039818D01*
X48758875Y-51000000D01*
X56606502Y-51000000D01*
X56626457Y-51228087D01*
X56685715Y-51449243D01*
X56782477Y-51656750D01*
X56913804Y-51844303D01*
X57075696Y-52006195D01*
X57263249Y-52137522D01*
X57470756Y-52234284D01*
X57530015Y-52250162D01*
X57691913Y-52293543D01*
X57920000Y-52313498D01*
X58148087Y-52293543D01*
X58369243Y-52234284D01*
X58576749Y-52137523D01*
X58764300Y-52006198D01*
X58926198Y-51844300D01*
X59057523Y-51656749D01*
X59154284Y-51449243D01*
X59213543Y-51228087D01*
X59233498Y-51000000D01*
X66766502Y-51000000D01*
X66786457Y-51228087D01*
X66845715Y-51449243D01*
X66942477Y-51656750D01*
X67073804Y-51844303D01*
X67235696Y-52006195D01*
X67423249Y-52137522D01*
X67630756Y-52234284D01*
X67690015Y-52250162D01*
X67851913Y-52293543D01*
X68080000Y-52313498D01*
X68308087Y-52293543D01*
X68529243Y-52234284D01*
X68736749Y-52137523D01*
X68924300Y-52006198D01*
X69086198Y-51844300D01*
X69217523Y-51656749D01*
X69314284Y-51449243D01*
X69373543Y-51228087D01*
X69393498Y-51000000D01*
X69373543Y-50771913D01*
X69314284Y-50550757D01*
X69217523Y-50343251D01*
X69086198Y-50155700D01*
X69086197Y-50155699D01*
X69086195Y-50155696D01*
X68924303Y-49993804D01*
X68736750Y-49862477D01*
X68529243Y-49765715D01*
X68308087Y-49706457D01*
X68080000Y-49686502D01*
X67851912Y-49706457D01*
X67630756Y-49765715D01*
X67423249Y-49862477D01*
X67235696Y-49993804D01*
X67073804Y-50155696D01*
X66942477Y-50343249D01*
X66845715Y-50550756D01*
X66786457Y-50771912D01*
X66766502Y-51000000D01*
X59233498Y-51000000D01*
X59213543Y-50771913D01*
X59154284Y-50550757D01*
X59057523Y-50343251D01*
X58926198Y-50155700D01*
X58926197Y-50155699D01*
X58926195Y-50155696D01*
X58764303Y-49993804D01*
X58576750Y-49862477D01*
X58369243Y-49765715D01*
X58148087Y-49706457D01*
X57920000Y-49686502D01*
X57691912Y-49706457D01*
X57470756Y-49765715D01*
X57263249Y-49862477D01*
X57075696Y-49993804D01*
X56913804Y-50155696D01*
X56782477Y-50343249D01*
X56685715Y-50550756D01*
X56626457Y-50771912D01*
X56606502Y-51000000D01*
X48758875Y-51000000D01*
X48880314Y-50868083D01*
X49007984Y-50672669D01*
X49101749Y-50458907D01*
X49159051Y-50232626D01*
X49178327Y-50000000D01*
X49159051Y-49767374D01*
X49101749Y-49541093D01*
X49007984Y-49327331D01*
X48880314Y-49131917D01*
X48722220Y-48960182D01*
X48538017Y-48816810D01*
X48506779Y-48799905D01*
X48341625Y-48710528D01*
X57698680Y-48710528D01*
X57698681Y-48710529D01*
X57727254Y-48732768D01*
X57932474Y-48843828D01*
X58153169Y-48919592D01*
X58383332Y-48958000D01*
X58616668Y-48958000D01*
X58846830Y-48919592D01*
X59067525Y-48843828D01*
X59272744Y-48732770D01*
X59301317Y-48710529D01*
X59301317Y-48710528D01*
X58500000Y-47909210D01*
X58499999Y-47909210D01*
X57698680Y-48710528D01*
X48341625Y-48710528D01*
X48332726Y-48705712D01*
X48167852Y-48649111D01*
X48111951Y-48629920D01*
X47881712Y-48591500D01*
X47648288Y-48591500D01*
X47418049Y-48629920D01*
X47418046Y-48629920D01*
X47418046Y-48629921D01*
X47197273Y-48705712D01*
X46991984Y-48816809D01*
X46956681Y-48844287D01*
X46810584Y-48958000D01*
X46799541Y-48966595D01*
X46798451Y-48965195D01*
X46756530Y-48992158D01*
X46693072Y-48996062D01*
X46635786Y-48968485D01*
X46599257Y-48916448D01*
X46575888Y-48853794D01*
X46488261Y-48736738D01*
X46371205Y-48649111D01*
X46302702Y-48623560D01*
X46234201Y-48598011D01*
X46173638Y-48591500D01*
X44276362Y-48591500D01*
X44215799Y-48598011D01*
X44078794Y-48649111D01*
X43961738Y-48736738D01*
X43874111Y-48853794D01*
X43835058Y-48958500D01*
X43823011Y-48990799D01*
X43816500Y-49051362D01*
X43816500Y-50948638D01*
X32553500Y-50948638D01*
X32553500Y-49719393D01*
X32567737Y-49661213D01*
X32607227Y-49616181D01*
X32764300Y-49506198D01*
X32926198Y-49344300D01*
X33057523Y-49156749D01*
X33154284Y-48949243D01*
X33213543Y-48728087D01*
X33233498Y-48500000D01*
X40766502Y-48500000D01*
X40786457Y-48728087D01*
X40845715Y-48949243D01*
X40942477Y-49156750D01*
X41073804Y-49344303D01*
X41235696Y-49506195D01*
X41423249Y-49637522D01*
X41630756Y-49734284D01*
X41690014Y-49750162D01*
X41851913Y-49793543D01*
X42080000Y-49813498D01*
X42308087Y-49793543D01*
X42529243Y-49734284D01*
X42736749Y-49637523D01*
X42924300Y-49506198D01*
X43086198Y-49344300D01*
X43217523Y-49156749D01*
X43314284Y-48949243D01*
X43373543Y-48728087D01*
X43393498Y-48500000D01*
X43373543Y-48271913D01*
X43314284Y-48050757D01*
X43294769Y-48008907D01*
X43217522Y-47843249D01*
X43086195Y-47655696D01*
X42980499Y-47550000D01*
X57087174Y-47550000D01*
X57106444Y-47782548D01*
X57163723Y-48008739D01*
X57257458Y-48222434D01*
X57340795Y-48349991D01*
X57340796Y-48349991D01*
X58140789Y-47550000D01*
X58859210Y-47550000D01*
X59659203Y-48349991D01*
X59670392Y-48348831D01*
X59689730Y-48331029D01*
X59749699Y-48315842D01*
X59809669Y-48331028D01*
X59855182Y-48372924D01*
X59884686Y-48418083D01*
X60042780Y-48589818D01*
X60226983Y-48733190D01*
X60432273Y-48844287D01*
X60653049Y-48920080D01*
X60883288Y-48958500D01*
X61116709Y-48958500D01*
X61116712Y-48958500D01*
X61346951Y-48920080D01*
X61567727Y-48844287D01*
X61773017Y-48733190D01*
X61957220Y-48589818D01*
X62115314Y-48418083D01*
X62144517Y-48373383D01*
X62190031Y-48331485D01*
X62250000Y-48316299D01*
X62309969Y-48331485D01*
X62355482Y-48373383D01*
X62384686Y-48418083D01*
X62542780Y-48589818D01*
X62726983Y-48733190D01*
X62932273Y-48844287D01*
X63153049Y-48920080D01*
X63383288Y-48958500D01*
X63616709Y-48958500D01*
X63616712Y-48958500D01*
X63846951Y-48920080D01*
X64067727Y-48844287D01*
X64273017Y-48733190D01*
X64457220Y-48589818D01*
X64615314Y-48418083D01*
X64742984Y-48222669D01*
X64836749Y-48008907D01*
X64894051Y-47782626D01*
X64913327Y-47550000D01*
X64894051Y-47317374D01*
X64836749Y-47091093D01*
X64742984Y-46877331D01*
X64615314Y-46681917D01*
X64457220Y-46510182D01*
X64273017Y-46366810D01*
X64161267Y-46306334D01*
X64067726Y-46255712D01*
X63918275Y-46204405D01*
X63846951Y-46179920D01*
X63616712Y-46141500D01*
X63383288Y-46141500D01*
X63153049Y-46179920D01*
X63153046Y-46179920D01*
X63153046Y-46179921D01*
X62932273Y-46255712D01*
X62726984Y-46366809D01*
X62542779Y-46510182D01*
X62384683Y-46681920D01*
X62355482Y-46726616D01*
X62309969Y-46768514D01*
X62250000Y-46783700D01*
X62190031Y-46768514D01*
X62144518Y-46726616D01*
X62115316Y-46681920D01*
X62115315Y-46681919D01*
X62115314Y-46681917D01*
X61957220Y-46510182D01*
X61773017Y-46366810D01*
X61661267Y-46306334D01*
X61567726Y-46255712D01*
X61418275Y-46204405D01*
X61346951Y-46179920D01*
X61116712Y-46141500D01*
X60883288Y-46141500D01*
X60653049Y-46179920D01*
X60653046Y-46179920D01*
X60653046Y-46179921D01*
X60432273Y-46255712D01*
X60226984Y-46366809D01*
X60042779Y-46510182D01*
X59884685Y-46681918D01*
X59855183Y-46727074D01*
X59809669Y-46768972D01*
X59749699Y-46784157D01*
X59689730Y-46768970D01*
X59670392Y-46751167D01*
X59659202Y-46750007D01*
X58859210Y-47549999D01*
X58859210Y-47550000D01*
X58140789Y-47550000D01*
X58140789Y-47549999D01*
X57340796Y-46750006D01*
X57257456Y-46877571D01*
X57163723Y-47091260D01*
X57106444Y-47317451D01*
X57087174Y-47550000D01*
X42980499Y-47550000D01*
X42924303Y-47493804D01*
X42736750Y-47362477D01*
X42529243Y-47265715D01*
X42308087Y-47206457D01*
X42080000Y-47186502D01*
X41851912Y-47206457D01*
X41630756Y-47265715D01*
X41423249Y-47362477D01*
X41235696Y-47493804D01*
X41073804Y-47655696D01*
X40942477Y-47843249D01*
X40845715Y-48050756D01*
X40786457Y-48271912D01*
X40766502Y-48500000D01*
X33233498Y-48500000D01*
X33213543Y-48271913D01*
X33154284Y-48050757D01*
X33134769Y-48008907D01*
X33057522Y-47843249D01*
X32926195Y-47655696D01*
X32764303Y-47493804D01*
X32576750Y-47362477D01*
X32369243Y-47265715D01*
X32148087Y-47206457D01*
X31920000Y-47186502D01*
X31691912Y-47206457D01*
X31470756Y-47265715D01*
X31263249Y-47362477D01*
X31075696Y-47493804D01*
X30913804Y-47655696D01*
X30782477Y-47843249D01*
X30685715Y-48050756D01*
X30626457Y-48271912D01*
X30606502Y-48500000D01*
X30626457Y-48728087D01*
X30685715Y-48949243D01*
X30782477Y-49156750D01*
X30913804Y-49344303D01*
X31075696Y-49506195D01*
X31075699Y-49506197D01*
X31075700Y-49506198D01*
X31232772Y-49616181D01*
X31272263Y-49661213D01*
X31286500Y-49719393D01*
X31286500Y-69780607D01*
X31272263Y-69838787D01*
X31232772Y-69883818D01*
X31164659Y-69931511D01*
X31075696Y-69993804D01*
X30913804Y-70155696D01*
X30782477Y-70343249D01*
X30685715Y-70550756D01*
X30626457Y-70771912D01*
X30606502Y-71000000D01*
X30626457Y-71228087D01*
X30685715Y-71449243D01*
X30782477Y-71656750D01*
X30913804Y-71844303D01*
X31075696Y-72006195D01*
X31075699Y-72006197D01*
X31075700Y-72006198D01*
X31232772Y-72116181D01*
X31272263Y-72161213D01*
X31286500Y-72219393D01*
X31286500Y-92280607D01*
X31272263Y-92338787D01*
X31232772Y-92383818D01*
X31164659Y-92431511D01*
X31075696Y-92493804D01*
X30913804Y-92655696D01*
X30782477Y-92843249D01*
X30685715Y-93050756D01*
X30626457Y-93271912D01*
X30606502Y-93499999D01*
X30626457Y-93728087D01*
X30685715Y-93949243D01*
X30782477Y-94156750D01*
X30913804Y-94344303D01*
X31075696Y-94506195D01*
X31075699Y-94506197D01*
X31075700Y-94506198D01*
X31232772Y-94616181D01*
X31272263Y-94661213D01*
X31286500Y-94719393D01*
X31286500Y-114780607D01*
X31272263Y-114838787D01*
X31232772Y-114883818D01*
X31164659Y-114931511D01*
X31075696Y-114993804D01*
X30913804Y-115155696D01*
X30782477Y-115343249D01*
X30685715Y-115550756D01*
X30626457Y-115771912D01*
X30606502Y-116000000D01*
X30626457Y-116228087D01*
X30685715Y-116449243D01*
X30782477Y-116656750D01*
X30913804Y-116844303D01*
X31075696Y-117006195D01*
X31075699Y-117006197D01*
X31075700Y-117006198D01*
X31172194Y-117073764D01*
X31263251Y-117137523D01*
X31338637Y-117172676D01*
X31391655Y-117219171D01*
X31411388Y-117286871D01*
X31411388Y-119065500D01*
X31394507Y-119128500D01*
X31348388Y-119174619D01*
X31285388Y-119191500D01*
X31196250Y-119191500D01*
X31135687Y-119198011D01*
X30998682Y-119249111D01*
X30881626Y-119336738D01*
X30793999Y-119453794D01*
X30742899Y-119590799D01*
X30736388Y-119651362D01*
X30736388Y-121348638D01*
X30742899Y-121409200D01*
X30793999Y-121546205D01*
X30881626Y-121663261D01*
X31013187Y-121761746D01*
X31012268Y-121762973D01*
X31027458Y-121772485D01*
X31056329Y-121814072D01*
X31066500Y-121863667D01*
X31066500Y-123960607D01*
X31052263Y-124018787D01*
X31012772Y-124063818D01*
X30944659Y-124111511D01*
X30855696Y-124173804D01*
X30693804Y-124335696D01*
X30562477Y-124523249D01*
X30465715Y-124730756D01*
X30406457Y-124951912D01*
X30386502Y-125180000D01*
X30406457Y-125408087D01*
X30423459Y-125471540D01*
X30423459Y-125536762D01*
X30390848Y-125593245D01*
X30215593Y-125768500D01*
X30165436Y-125799237D01*
X30106789Y-125803853D01*
X30052439Y-125781340D01*
X30014233Y-125736607D01*
X30000500Y-125679404D01*
X30000500Y-44900000D01*
X33921634Y-44900000D01*
X33941066Y-45146911D01*
X33998885Y-45387743D01*
X34053082Y-45518586D01*
X34093666Y-45616563D01*
X34223075Y-45827740D01*
X34223076Y-45827742D01*
X34223078Y-45827744D01*
X34383926Y-46016073D01*
X34572255Y-46176921D01*
X34572260Y-46176925D01*
X34783437Y-46306334D01*
X35012258Y-46401115D01*
X35253089Y-46458934D01*
X35500000Y-46478366D01*
X35746911Y-46458934D01*
X35987742Y-46401115D01*
X36216563Y-46306334D01*
X36427740Y-46176925D01*
X36616073Y-46016073D01*
X36776925Y-45827740D01*
X36906334Y-45616563D01*
X37001115Y-45387742D01*
X37058934Y-45146911D01*
X37078366Y-44900000D01*
X37058934Y-44653089D01*
X37054439Y-44634366D01*
X41737729Y-44634366D01*
X41747778Y-44896516D01*
X41797724Y-45154050D01*
X41886401Y-45400954D01*
X42011723Y-45631417D01*
X42170759Y-45840054D01*
X42359780Y-46021968D01*
X42574354Y-46172897D01*
X42701005Y-46235605D01*
X42809454Y-46289301D01*
X42934510Y-46328877D01*
X43059569Y-46368455D01*
X43318829Y-46408500D01*
X43318831Y-46408500D01*
X44815490Y-46408500D01*
X44815494Y-46408500D01*
X44893921Y-46402478D01*
X45011569Y-46393446D01*
X45267007Y-46333671D01*
X45510326Y-46235605D01*
X45735825Y-46101545D01*
X45938216Y-45934634D01*
X46112757Y-45738784D01*
X46255355Y-45518586D01*
X46362670Y-45279201D01*
X46378542Y-45221441D01*
X46409925Y-45166763D01*
X46463867Y-45134132D01*
X46526865Y-45131717D01*
X46583147Y-45160123D01*
X46618623Y-45212238D01*
X46686401Y-45400954D01*
X46811723Y-45631417D01*
X46970759Y-45840054D01*
X47159780Y-46021968D01*
X47374354Y-46172897D01*
X47501005Y-46235605D01*
X47609454Y-46289301D01*
X47734510Y-46328877D01*
X47859569Y-46368455D01*
X48118829Y-46408500D01*
X48118831Y-46408500D01*
X49615490Y-46408500D01*
X49615494Y-46408500D01*
X49693921Y-46402478D01*
X49811569Y-46393446D01*
X49828560Y-46389470D01*
X57698680Y-46389470D01*
X58499999Y-47190789D01*
X58500000Y-47190789D01*
X59301318Y-46389470D01*
X59301317Y-46389469D01*
X59272745Y-46367230D01*
X59067525Y-46256171D01*
X58846830Y-46180407D01*
X58616668Y-46142000D01*
X58383332Y-46142000D01*
X58153169Y-46180407D01*
X57932474Y-46256171D01*
X57727255Y-46367230D01*
X57698681Y-46389469D01*
X57698680Y-46389470D01*
X49828560Y-46389470D01*
X50067007Y-46333671D01*
X50310326Y-46235605D01*
X50535825Y-46101545D01*
X50738216Y-45934634D01*
X50912757Y-45738784D01*
X51055355Y-45518586D01*
X51162670Y-45279201D01*
X51232185Y-45026240D01*
X51262271Y-44765633D01*
X51252222Y-44503487D01*
X51202275Y-44245947D01*
X51113600Y-43999049D01*
X50988276Y-43768582D01*
X50829240Y-43559945D01*
X50640219Y-43378031D01*
X50425645Y-43227102D01*
X50190547Y-43110699D01*
X49940430Y-43031544D01*
X49681171Y-42991500D01*
X49681169Y-42991500D01*
X48184510Y-42991500D01*
X48184506Y-42991500D01*
X47988436Y-43006553D01*
X47988432Y-43006553D01*
X47988431Y-43006554D01*
X47935502Y-43018940D01*
X47732988Y-43066330D01*
X47489675Y-43164394D01*
X47264174Y-43298455D01*
X47061784Y-43465364D01*
X46887240Y-43661218D01*
X46744645Y-43881413D01*
X46637330Y-44120795D01*
X46621456Y-44178560D01*
X46590073Y-44233238D01*
X46536130Y-44265868D01*
X46473133Y-44268282D01*
X46416852Y-44239876D01*
X46381378Y-44187764D01*
X46313600Y-43999049D01*
X46188276Y-43768582D01*
X46029240Y-43559945D01*
X45840219Y-43378031D01*
X45625645Y-43227102D01*
X45390547Y-43110699D01*
X45140430Y-43031544D01*
X44881171Y-42991500D01*
X44881169Y-42991500D01*
X43384510Y-42991500D01*
X43384506Y-42991500D01*
X43188436Y-43006553D01*
X43188432Y-43006553D01*
X43188431Y-43006554D01*
X43135502Y-43018940D01*
X42932988Y-43066330D01*
X42689675Y-43164394D01*
X42464174Y-43298455D01*
X42261784Y-43465364D01*
X42087240Y-43661218D01*
X41944645Y-43881413D01*
X41837329Y-44120797D01*
X41767815Y-44373756D01*
X41737729Y-44634366D01*
X37054439Y-44634366D01*
X37001115Y-44412258D01*
X36906334Y-44183437D01*
X36776925Y-43972260D01*
X36776921Y-43972255D01*
X36616073Y-43783926D01*
X36427744Y-43623078D01*
X36427742Y-43623076D01*
X36427740Y-43623075D01*
X36216563Y-43493666D01*
X36216561Y-43493665D01*
X35987743Y-43398885D01*
X35746911Y-43341066D01*
X35500000Y-43321634D01*
X35253088Y-43341066D01*
X35012256Y-43398885D01*
X34783438Y-43493665D01*
X34572255Y-43623078D01*
X34383926Y-43783926D01*
X34223078Y-43972255D01*
X34093665Y-44183438D01*
X33998885Y-44412256D01*
X33941066Y-44653088D01*
X33921634Y-44900000D01*
X30000500Y-44900000D01*
X30000500Y-39934366D01*
X41737729Y-39934366D01*
X41747778Y-40196516D01*
X41797724Y-40454050D01*
X41886401Y-40700954D01*
X42011723Y-40931417D01*
X42170759Y-41140054D01*
X42359780Y-41321968D01*
X42574354Y-41472897D01*
X42701005Y-41535605D01*
X42809454Y-41589301D01*
X42934510Y-41628877D01*
X43059569Y-41668455D01*
X43318829Y-41708500D01*
X43318831Y-41708500D01*
X44815490Y-41708500D01*
X44815494Y-41708500D01*
X44893921Y-41702478D01*
X45011569Y-41693446D01*
X45267007Y-41633671D01*
X45510326Y-41535605D01*
X45735825Y-41401545D01*
X45938216Y-41234634D01*
X46112757Y-41038784D01*
X46255355Y-40818586D01*
X46362670Y-40579201D01*
X46378542Y-40521441D01*
X46409925Y-40466763D01*
X46463867Y-40434132D01*
X46526865Y-40431717D01*
X46583147Y-40460123D01*
X46618623Y-40512238D01*
X46686401Y-40700954D01*
X46811723Y-40931417D01*
X46970759Y-41140054D01*
X47159780Y-41321968D01*
X47374354Y-41472897D01*
X47501005Y-41535605D01*
X47609454Y-41589301D01*
X47734510Y-41628877D01*
X47859569Y-41668455D01*
X48118829Y-41708500D01*
X48118831Y-41708500D01*
X49615490Y-41708500D01*
X49615494Y-41708500D01*
X49693921Y-41702478D01*
X49811569Y-41693446D01*
X50067007Y-41633671D01*
X50310326Y-41535605D01*
X50535825Y-41401545D01*
X50738216Y-41234634D01*
X50912757Y-41038784D01*
X51055355Y-40818586D01*
X51162670Y-40579201D01*
X51170695Y-40549999D01*
X54086539Y-40549999D01*
X54106358Y-40865018D01*
X54165504Y-41175071D01*
X54263044Y-41475266D01*
X54397438Y-41760869D01*
X54566565Y-42027372D01*
X54767766Y-42270582D01*
X54997860Y-42486654D01*
X55253221Y-42672184D01*
X55529821Y-42824247D01*
X55823298Y-42940443D01*
X55983804Y-42981653D01*
X56129024Y-43018940D01*
X56442176Y-43058500D01*
X56442179Y-43058500D01*
X56757821Y-43058500D01*
X56757824Y-43058500D01*
X57070975Y-43018940D01*
X57070975Y-43018939D01*
X57376702Y-42940443D01*
X57670179Y-42824247D01*
X57946779Y-42672184D01*
X58202140Y-42486654D01*
X58432233Y-42270582D01*
X58633432Y-42027375D01*
X58802562Y-41760869D01*
X58936956Y-41475266D01*
X59034495Y-41175072D01*
X59093641Y-40865020D01*
X59113460Y-40550000D01*
X59113460Y-40549999D01*
X62886539Y-40549999D01*
X62906358Y-40865018D01*
X62965504Y-41175071D01*
X63063044Y-41475266D01*
X63197438Y-41760869D01*
X63366565Y-42027372D01*
X63567766Y-42270582D01*
X63797860Y-42486654D01*
X64053221Y-42672184D01*
X64329821Y-42824247D01*
X64623298Y-42940443D01*
X64783804Y-42981653D01*
X64929024Y-43018940D01*
X65242176Y-43058500D01*
X65242179Y-43058500D01*
X65557821Y-43058500D01*
X65557824Y-43058500D01*
X65870975Y-43018940D01*
X65870975Y-43018939D01*
X66176702Y-42940443D01*
X66470179Y-42824247D01*
X66746779Y-42672184D01*
X67002140Y-42486654D01*
X67232233Y-42270582D01*
X67433432Y-42027375D01*
X67602562Y-41760869D01*
X67736956Y-41475266D01*
X67834495Y-41175072D01*
X67893641Y-40865020D01*
X67913460Y-40550000D01*
X67893641Y-40234980D01*
X67834495Y-39924928D01*
X67736956Y-39624734D01*
X67602562Y-39339131D01*
X67502471Y-39181413D01*
X67433434Y-39072627D01*
X67232233Y-38829417D01*
X67002139Y-38613345D01*
X66746781Y-38427817D01*
X66470178Y-38275752D01*
X66289210Y-38204102D01*
X66176702Y-38159557D01*
X66176699Y-38159556D01*
X66176696Y-38159555D01*
X65870975Y-38081059D01*
X65557824Y-38041500D01*
X65557821Y-38041500D01*
X65242179Y-38041500D01*
X65242176Y-38041500D01*
X64929024Y-38081059D01*
X64623303Y-38159555D01*
X64329821Y-38275752D01*
X64053218Y-38427817D01*
X63797860Y-38613345D01*
X63567766Y-38829417D01*
X63366565Y-39072627D01*
X63197438Y-39339130D01*
X63063044Y-39624733D01*
X62965504Y-39924928D01*
X62906358Y-40234981D01*
X62886539Y-40549999D01*
X59113460Y-40549999D01*
X59093641Y-40234980D01*
X59034495Y-39924928D01*
X58936956Y-39624734D01*
X58802562Y-39339131D01*
X58702471Y-39181413D01*
X58633434Y-39072627D01*
X58432233Y-38829417D01*
X58202139Y-38613345D01*
X57946781Y-38427817D01*
X57670178Y-38275752D01*
X57489210Y-38204102D01*
X57376702Y-38159557D01*
X57376699Y-38159556D01*
X57376696Y-38159555D01*
X57070975Y-38081059D01*
X56757824Y-38041500D01*
X56757821Y-38041500D01*
X56442179Y-38041500D01*
X56442176Y-38041500D01*
X56129024Y-38081059D01*
X55823303Y-38159555D01*
X55529821Y-38275752D01*
X55253218Y-38427817D01*
X54997860Y-38613345D01*
X54767766Y-38829417D01*
X54566565Y-39072627D01*
X54397438Y-39339130D01*
X54263044Y-39624733D01*
X54165504Y-39924928D01*
X54106358Y-40234981D01*
X54086539Y-40549999D01*
X51170695Y-40549999D01*
X51232185Y-40326240D01*
X51262271Y-40065633D01*
X51252222Y-39803487D01*
X51202275Y-39545947D01*
X51113600Y-39299049D01*
X50988276Y-39068582D01*
X50988275Y-39068581D01*
X50829240Y-38859945D01*
X50640219Y-38678031D01*
X50425645Y-38527102D01*
X50190547Y-38410699D01*
X49940430Y-38331544D01*
X49681171Y-38291500D01*
X49681169Y-38291500D01*
X48184510Y-38291500D01*
X48184506Y-38291500D01*
X47988436Y-38306553D01*
X47988432Y-38306553D01*
X47988431Y-38306554D01*
X47881641Y-38331544D01*
X47732988Y-38366330D01*
X47489675Y-38464394D01*
X47264174Y-38598455D01*
X47061784Y-38765364D01*
X46887240Y-38961218D01*
X46744645Y-39181413D01*
X46637330Y-39420795D01*
X46621456Y-39478560D01*
X46590073Y-39533238D01*
X46536130Y-39565868D01*
X46473133Y-39568282D01*
X46416852Y-39539876D01*
X46381378Y-39487764D01*
X46313600Y-39299049D01*
X46188276Y-39068582D01*
X46188275Y-39068581D01*
X46029240Y-38859945D01*
X45840219Y-38678031D01*
X45625645Y-38527102D01*
X45390547Y-38410699D01*
X45140430Y-38331544D01*
X44881171Y-38291500D01*
X44881169Y-38291500D01*
X43384510Y-38291500D01*
X43384506Y-38291500D01*
X43188436Y-38306553D01*
X43188432Y-38306553D01*
X43188431Y-38306554D01*
X43081641Y-38331544D01*
X42932988Y-38366330D01*
X42689675Y-38464394D01*
X42464174Y-38598455D01*
X42261784Y-38765364D01*
X42087240Y-38961218D01*
X41944645Y-39181413D01*
X41837329Y-39420797D01*
X41767815Y-39673756D01*
X41737729Y-39934366D01*
X30000500Y-39934366D01*
X30000500Y-36600000D01*
X33921634Y-36600000D01*
X33941066Y-36846911D01*
X33998885Y-37087742D01*
X34093666Y-37316563D01*
X34223075Y-37527740D01*
X34223076Y-37527742D01*
X34223078Y-37527744D01*
X34383926Y-37716073D01*
X34572255Y-37876921D01*
X34572260Y-37876925D01*
X34783437Y-38006334D01*
X35012258Y-38101115D01*
X35253089Y-38158934D01*
X35500000Y-38178366D01*
X35746911Y-38158934D01*
X35987742Y-38101115D01*
X36216563Y-38006334D01*
X36427740Y-37876925D01*
X36616073Y-37716073D01*
X36776925Y-37527740D01*
X36906334Y-37316563D01*
X37001115Y-37087742D01*
X37058934Y-36846911D01*
X37078366Y-36600000D01*
X37058934Y-36353089D01*
X37001115Y-36112258D01*
X36906334Y-35883437D01*
X36776925Y-35672260D01*
X36737623Y-35626243D01*
X36675922Y-35554000D01*
X41759436Y-35554000D01*
X41798208Y-35753917D01*
X41886857Y-36000743D01*
X42012148Y-36231148D01*
X42171134Y-36439720D01*
X42360100Y-36621581D01*
X42574609Y-36772463D01*
X42809642Y-36888836D01*
X43059683Y-36967967D01*
X43318867Y-37008000D01*
X43846000Y-37008000D01*
X44354000Y-37008000D01*
X44815468Y-37008000D01*
X45011486Y-36992950D01*
X45266859Y-36933190D01*
X45510102Y-36835155D01*
X45735537Y-36701133D01*
X45937867Y-36534273D01*
X46112359Y-36338477D01*
X46254913Y-36118346D01*
X46362194Y-35879038D01*
X46378247Y-35820622D01*
X46409629Y-35765944D01*
X46463571Y-35733312D01*
X46526569Y-35730897D01*
X46582851Y-35759302D01*
X46618328Y-35811418D01*
X46686401Y-36000954D01*
X46811723Y-36231417D01*
X46970759Y-36440054D01*
X47159780Y-36621968D01*
X47374354Y-36772897D01*
X47604914Y-36887053D01*
X47609454Y-36889301D01*
X47734510Y-36928877D01*
X47859569Y-36968455D01*
X48118829Y-37008500D01*
X48118831Y-37008500D01*
X49615490Y-37008500D01*
X49615494Y-37008500D01*
X49693921Y-37002478D01*
X49811569Y-36993446D01*
X50067007Y-36933671D01*
X50310326Y-36835605D01*
X50535825Y-36701545D01*
X50738216Y-36534634D01*
X50912757Y-36338784D01*
X51055355Y-36118586D01*
X51162670Y-35879201D01*
X51232185Y-35626240D01*
X51262271Y-35365633D01*
X51252222Y-35103487D01*
X51202275Y-34845947D01*
X51113600Y-34599049D01*
X50988276Y-34368582D01*
X50906668Y-34261522D01*
X50829240Y-34159945D01*
X50640219Y-33978031D01*
X50425645Y-33827102D01*
X50190547Y-33710699D01*
X49940430Y-33631544D01*
X49681171Y-33591500D01*
X49681169Y-33591500D01*
X48184510Y-33591500D01*
X48184506Y-33591500D01*
X47988436Y-33606553D01*
X47988432Y-33606553D01*
X47988431Y-33606554D01*
X47986316Y-33607049D01*
X47732988Y-33666330D01*
X47489675Y-33764394D01*
X47264174Y-33898455D01*
X47061784Y-34065364D01*
X46887240Y-34261218D01*
X46744645Y-34481413D01*
X46637330Y-34720796D01*
X46621226Y-34779398D01*
X46589843Y-34834076D01*
X46535901Y-34866707D01*
X46472904Y-34869121D01*
X46416622Y-34840715D01*
X46381146Y-34788600D01*
X46313142Y-34599256D01*
X46187851Y-34368851D01*
X46028865Y-34160279D01*
X45839899Y-33978418D01*
X45625390Y-33827536D01*
X45390357Y-33711163D01*
X45140316Y-33632032D01*
X44881133Y-33592000D01*
X44354000Y-33592000D01*
X44354000Y-37008000D01*
X43846000Y-37008000D01*
X43846000Y-35554000D01*
X41759436Y-35554000D01*
X36675922Y-35554000D01*
X36616073Y-35483926D01*
X36427744Y-35323078D01*
X36427742Y-35323076D01*
X36427740Y-35323075D01*
X36216563Y-35193666D01*
X36148345Y-35165409D01*
X36094627Y-35123061D01*
X36070951Y-35058886D01*
X36073514Y-35046000D01*
X41759979Y-35046000D01*
X43846000Y-35046000D01*
X43846000Y-33592000D01*
X43384532Y-33592000D01*
X43188513Y-33607049D01*
X42933140Y-33666809D01*
X42689897Y-33764844D01*
X42464462Y-33898866D01*
X42262132Y-34065726D01*
X42087640Y-34261522D01*
X41945086Y-34481653D01*
X41837803Y-34720965D01*
X41768308Y-34973853D01*
X41759979Y-35046000D01*
X36073514Y-35046000D01*
X36084296Y-34991797D01*
X36130728Y-34941567D01*
X36196563Y-34923000D01*
X36513589Y-34923000D01*
X36574093Y-34916494D01*
X36710962Y-34865445D01*
X36827904Y-34777904D01*
X36915445Y-34660962D01*
X36966494Y-34524093D01*
X36973000Y-34463589D01*
X36973000Y-33754000D01*
X34027000Y-33754000D01*
X34027000Y-34463589D01*
X34033505Y-34524093D01*
X34084554Y-34660962D01*
X34172095Y-34777904D01*
X34289037Y-34865445D01*
X34425906Y-34916494D01*
X34486411Y-34923000D01*
X34803437Y-34923000D01*
X34869272Y-34941567D01*
X34915704Y-34991797D01*
X34929049Y-35058886D01*
X34905373Y-35123061D01*
X34851655Y-35165409D01*
X34783438Y-35193665D01*
X34572255Y-35323078D01*
X34383926Y-35483926D01*
X34223078Y-35672255D01*
X34093665Y-35883438D01*
X33998885Y-36112256D01*
X33970277Y-36231417D01*
X33941066Y-36353089D01*
X33921634Y-36600000D01*
X30000500Y-36600000D01*
X30000500Y-33246000D01*
X34027000Y-33246000D01*
X35246000Y-33246000D01*
X35246000Y-32077000D01*
X35754000Y-32077000D01*
X35754000Y-33246000D01*
X36973000Y-33246000D01*
X36973000Y-32536411D01*
X36966494Y-32475906D01*
X36915445Y-32339037D01*
X36827904Y-32222095D01*
X36710962Y-32134554D01*
X36574093Y-32083505D01*
X36513589Y-32077000D01*
X35754000Y-32077000D01*
X35246000Y-32077000D01*
X34486411Y-32077000D01*
X34425906Y-32083505D01*
X34289037Y-32134554D01*
X34172095Y-32222095D01*
X34084554Y-32339037D01*
X34033505Y-32475906D01*
X34027000Y-32536411D01*
X34027000Y-33246000D01*
X30000500Y-33246000D01*
X30000500Y-31126500D01*
X30017381Y-31063500D01*
X30063500Y-31017381D01*
X30126500Y-31000500D01*
X69873499Y-31000500D01*
X69936499Y-31017381D01*
G37*
G04 #@! TD.AperFunction*
M02*
