%TF.GenerationSoftware,KiCad,Pcbnew,7.0.5.1-1-g8f565ef7f0-dirty-deb11*%
%TF.CreationDate,Date%
%TF.ProjectId,Basic-DC-mixer,42617369-632d-4444-932d-6d697865722e,rev?*%
%TF.SameCoordinates,Original*%
%TF.FileFunction,Drillmap*%
%TF.FilePolarity,Positive*%
%FSLAX45Y45*%
G04 Gerber Fmt 4.5, Leading zero omitted, Abs format (unit mm)*
G04 Created by KiCad*
%MOMM*%
%LPD*%
G01*
G04 APERTURE LIST*
%ADD10C,0.050000*%
%ADD11C,0.200000*%
%ADD12C,0.300000*%
%ADD13C,0.620000*%
%ADD14C,0.680000*%
G04 APERTURE END LIST*
D10*
X7200000Y-2200000D02*
X7200000Y-15000000D01*
X7200000Y-2200000D02*
X11200000Y-2200000D01*
X11200000Y-2200000D02*
X11200000Y-15000000D01*
X11200000Y-15000000D02*
X7200000Y-15000000D01*
D11*
D12*
X7800000Y-2350000D02*
X8100000Y-2650000D01*
X8100000Y-2350000D02*
X7800000Y-2650000D01*
D11*
X7825000Y-2650000D02*
X8075000Y-2650000D01*
X8075000Y-2650000D02*
G75*
G03*
X8075000Y-2350000I0J150000D01*
G01*
X8075000Y-2350000D02*
X7825000Y-2350000D01*
X7825000Y-2350000D02*
G75*
G03*
X7825000Y-2650000I0J-150000D01*
G01*
D12*
X7800000Y-14550000D02*
X8100000Y-14850000D01*
X8100000Y-14550000D02*
X7800000Y-14850000D01*
D11*
X7825000Y-14850000D02*
X8075000Y-14850000D01*
X8075000Y-14850000D02*
G75*
G03*
X8075000Y-14550000I0J150000D01*
G01*
X8075000Y-14550000D02*
X7825000Y-14550000D01*
X7825000Y-14550000D02*
G75*
G03*
X7825000Y-14850000I0J-150000D01*
G01*
D12*
X10300000Y-2350000D02*
X10600000Y-2650000D01*
X10600000Y-2350000D02*
X10300000Y-2650000D01*
D11*
X10325000Y-2650000D02*
X10575000Y-2650000D01*
X10575000Y-2650000D02*
G75*
G03*
X10575000Y-2350000I0J150000D01*
G01*
X10575000Y-2350000D02*
X10325000Y-2350000D01*
X10325000Y-2350000D02*
G75*
G03*
X10325000Y-2650000I0J-150000D01*
G01*
D12*
X10300000Y-14550000D02*
X10600000Y-14850000D01*
X10600000Y-14550000D02*
X10300000Y-14850000D01*
D11*
X10325000Y-14850000D02*
X10575000Y-14850000D01*
X10575000Y-14850000D02*
G75*
G03*
X10575000Y-14550000I0J150000D01*
G01*
X10575000Y-14550000D02*
X10325000Y-14550000D01*
X10325000Y-14550000D02*
G75*
G03*
X10325000Y-14850000I0J-150000D01*
G01*
D13*
X8060000Y-4000000D02*
G75*
G03*
X8060000Y-4000000I-310000J0D01*
G01*
X8060000Y-6250000D02*
G75*
G03*
X8060000Y-6250000I-310000J0D01*
G01*
X8060000Y-8500000D02*
G75*
G03*
X8060000Y-8500000I-310000J0D01*
G01*
X8060000Y-10750000D02*
G75*
G03*
X8060000Y-10750000I-310000J0D01*
G01*
X9160000Y-4000000D02*
G75*
G03*
X9160000Y-4000000I-310000J0D01*
G01*
X9160000Y-6250000D02*
G75*
G03*
X9160000Y-6250000I-310000J0D01*
G01*
X9160000Y-8500000D02*
G75*
G03*
X9160000Y-8500000I-310000J0D01*
G01*
X9160000Y-10750000D02*
G75*
G03*
X9160000Y-10750000I-310000J0D01*
G01*
X10010000Y-12850000D02*
G75*
G03*
X10010000Y-12850000I-310000J0D01*
G01*
X11010000Y-12850000D02*
G75*
G03*
X11010000Y-12850000I-310000J0D01*
G01*
D14*
X10300000Y-3660000D02*
X10300000Y-4340000D01*
X9960000Y-4000000D02*
X10640000Y-4000000D01*
X10300000Y-5910000D02*
X10300000Y-6590000D01*
X9960000Y-6250000D02*
X10640000Y-6250000D01*
X10300000Y-8160000D02*
X10300000Y-8840000D01*
X9960000Y-8500000D02*
X10640000Y-8500000D01*
X10300000Y-10410000D02*
X10300000Y-11090000D01*
X9960000Y-10750000D02*
X10640000Y-10750000D01*
D11*
X7458277Y-15313984D02*
X7458277Y-15113984D01*
X7458277Y-15113984D02*
X7505896Y-15113984D01*
X7505896Y-15113984D02*
X7534467Y-15123508D01*
X7534467Y-15123508D02*
X7553515Y-15142555D01*
X7553515Y-15142555D02*
X7563039Y-15161603D01*
X7563039Y-15161603D02*
X7572562Y-15199698D01*
X7572562Y-15199698D02*
X7572562Y-15228269D01*
X7572562Y-15228269D02*
X7563039Y-15266365D01*
X7563039Y-15266365D02*
X7553515Y-15285412D01*
X7553515Y-15285412D02*
X7534467Y-15304460D01*
X7534467Y-15304460D02*
X7505896Y-15313984D01*
X7505896Y-15313984D02*
X7458277Y-15313984D01*
X7658277Y-15313984D02*
X7658277Y-15180650D01*
X7658277Y-15218746D02*
X7667801Y-15199698D01*
X7667801Y-15199698D02*
X7677324Y-15190174D01*
X7677324Y-15190174D02*
X7696372Y-15180650D01*
X7696372Y-15180650D02*
X7715420Y-15180650D01*
X7782086Y-15313984D02*
X7782086Y-15180650D01*
X7782086Y-15113984D02*
X7772562Y-15123508D01*
X7772562Y-15123508D02*
X7782086Y-15133031D01*
X7782086Y-15133031D02*
X7791610Y-15123508D01*
X7791610Y-15123508D02*
X7782086Y-15113984D01*
X7782086Y-15113984D02*
X7782086Y-15133031D01*
X7905896Y-15313984D02*
X7886848Y-15304460D01*
X7886848Y-15304460D02*
X7877324Y-15285412D01*
X7877324Y-15285412D02*
X7877324Y-15113984D01*
X8010658Y-15313984D02*
X7991610Y-15304460D01*
X7991610Y-15304460D02*
X7982086Y-15285412D01*
X7982086Y-15285412D02*
X7982086Y-15113984D01*
X8239229Y-15313984D02*
X8239229Y-15113984D01*
X8239229Y-15113984D02*
X8305896Y-15256841D01*
X8305896Y-15256841D02*
X8372562Y-15113984D01*
X8372562Y-15113984D02*
X8372562Y-15313984D01*
X8553515Y-15313984D02*
X8553515Y-15209222D01*
X8553515Y-15209222D02*
X8543991Y-15190174D01*
X8543991Y-15190174D02*
X8524944Y-15180650D01*
X8524944Y-15180650D02*
X8486848Y-15180650D01*
X8486848Y-15180650D02*
X8467801Y-15190174D01*
X8553515Y-15304460D02*
X8534467Y-15313984D01*
X8534467Y-15313984D02*
X8486848Y-15313984D01*
X8486848Y-15313984D02*
X8467801Y-15304460D01*
X8467801Y-15304460D02*
X8458277Y-15285412D01*
X8458277Y-15285412D02*
X8458277Y-15266365D01*
X8458277Y-15266365D02*
X8467801Y-15247317D01*
X8467801Y-15247317D02*
X8486848Y-15237793D01*
X8486848Y-15237793D02*
X8534467Y-15237793D01*
X8534467Y-15237793D02*
X8553515Y-15228269D01*
X8648753Y-15180650D02*
X8648753Y-15380650D01*
X8648753Y-15190174D02*
X8667801Y-15180650D01*
X8667801Y-15180650D02*
X8705896Y-15180650D01*
X8705896Y-15180650D02*
X8724944Y-15190174D01*
X8724944Y-15190174D02*
X8734467Y-15199698D01*
X8734467Y-15199698D02*
X8743991Y-15218746D01*
X8743991Y-15218746D02*
X8743991Y-15275888D01*
X8743991Y-15275888D02*
X8734467Y-15294936D01*
X8734467Y-15294936D02*
X8724944Y-15304460D01*
X8724944Y-15304460D02*
X8705896Y-15313984D01*
X8705896Y-15313984D02*
X8667801Y-15313984D01*
X8667801Y-15313984D02*
X8648753Y-15304460D01*
X8829705Y-15294936D02*
X8839229Y-15304460D01*
X8839229Y-15304460D02*
X8829705Y-15313984D01*
X8829705Y-15313984D02*
X8820182Y-15304460D01*
X8820182Y-15304460D02*
X8829705Y-15294936D01*
X8829705Y-15294936D02*
X8829705Y-15313984D01*
X8829705Y-15190174D02*
X8839229Y-15199698D01*
X8839229Y-15199698D02*
X8829705Y-15209222D01*
X8829705Y-15209222D02*
X8820182Y-15199698D01*
X8820182Y-15199698D02*
X8829705Y-15190174D01*
X8829705Y-15190174D02*
X8829705Y-15209222D01*
X6997500Y-15542500D02*
X7197500Y-15742500D01*
X7197500Y-15542500D02*
X6997500Y-15742500D01*
X7439229Y-15533984D02*
X7563039Y-15533984D01*
X7563039Y-15533984D02*
X7496372Y-15610174D01*
X7496372Y-15610174D02*
X7524943Y-15610174D01*
X7524943Y-15610174D02*
X7543991Y-15619698D01*
X7543991Y-15619698D02*
X7553515Y-15629222D01*
X7553515Y-15629222D02*
X7563039Y-15648269D01*
X7563039Y-15648269D02*
X7563039Y-15695888D01*
X7563039Y-15695888D02*
X7553515Y-15714936D01*
X7553515Y-15714936D02*
X7543991Y-15724460D01*
X7543991Y-15724460D02*
X7524943Y-15733984D01*
X7524943Y-15733984D02*
X7467801Y-15733984D01*
X7467801Y-15733984D02*
X7448753Y-15724460D01*
X7448753Y-15724460D02*
X7439229Y-15714936D01*
X7648753Y-15714936D02*
X7658277Y-15724460D01*
X7658277Y-15724460D02*
X7648753Y-15733984D01*
X7648753Y-15733984D02*
X7639229Y-15724460D01*
X7639229Y-15724460D02*
X7648753Y-15714936D01*
X7648753Y-15714936D02*
X7648753Y-15733984D01*
X7782086Y-15533984D02*
X7801134Y-15533984D01*
X7801134Y-15533984D02*
X7820182Y-15543508D01*
X7820182Y-15543508D02*
X7829705Y-15553031D01*
X7829705Y-15553031D02*
X7839229Y-15572079D01*
X7839229Y-15572079D02*
X7848753Y-15610174D01*
X7848753Y-15610174D02*
X7848753Y-15657793D01*
X7848753Y-15657793D02*
X7839229Y-15695888D01*
X7839229Y-15695888D02*
X7829705Y-15714936D01*
X7829705Y-15714936D02*
X7820182Y-15724460D01*
X7820182Y-15724460D02*
X7801134Y-15733984D01*
X7801134Y-15733984D02*
X7782086Y-15733984D01*
X7782086Y-15733984D02*
X7763039Y-15724460D01*
X7763039Y-15724460D02*
X7753515Y-15714936D01*
X7753515Y-15714936D02*
X7743991Y-15695888D01*
X7743991Y-15695888D02*
X7734467Y-15657793D01*
X7734467Y-15657793D02*
X7734467Y-15610174D01*
X7734467Y-15610174D02*
X7743991Y-15572079D01*
X7743991Y-15572079D02*
X7753515Y-15553031D01*
X7753515Y-15553031D02*
X7763039Y-15543508D01*
X7763039Y-15543508D02*
X7782086Y-15533984D01*
X7972562Y-15533984D02*
X7991610Y-15533984D01*
X7991610Y-15533984D02*
X8010658Y-15543508D01*
X8010658Y-15543508D02*
X8020182Y-15553031D01*
X8020182Y-15553031D02*
X8029705Y-15572079D01*
X8029705Y-15572079D02*
X8039229Y-15610174D01*
X8039229Y-15610174D02*
X8039229Y-15657793D01*
X8039229Y-15657793D02*
X8029705Y-15695888D01*
X8029705Y-15695888D02*
X8020182Y-15714936D01*
X8020182Y-15714936D02*
X8010658Y-15724460D01*
X8010658Y-15724460D02*
X7991610Y-15733984D01*
X7991610Y-15733984D02*
X7972562Y-15733984D01*
X7972562Y-15733984D02*
X7953515Y-15724460D01*
X7953515Y-15724460D02*
X7943991Y-15714936D01*
X7943991Y-15714936D02*
X7934467Y-15695888D01*
X7934467Y-15695888D02*
X7924943Y-15657793D01*
X7924943Y-15657793D02*
X7924943Y-15610174D01*
X7924943Y-15610174D02*
X7934467Y-15572079D01*
X7934467Y-15572079D02*
X7943991Y-15553031D01*
X7943991Y-15553031D02*
X7953515Y-15543508D01*
X7953515Y-15543508D02*
X7972562Y-15533984D01*
X8163039Y-15533984D02*
X8182086Y-15533984D01*
X8182086Y-15533984D02*
X8201134Y-15543508D01*
X8201134Y-15543508D02*
X8210658Y-15553031D01*
X8210658Y-15553031D02*
X8220182Y-15572079D01*
X8220182Y-15572079D02*
X8229705Y-15610174D01*
X8229705Y-15610174D02*
X8229705Y-15657793D01*
X8229705Y-15657793D02*
X8220182Y-15695888D01*
X8220182Y-15695888D02*
X8210658Y-15714936D01*
X8210658Y-15714936D02*
X8201134Y-15724460D01*
X8201134Y-15724460D02*
X8182086Y-15733984D01*
X8182086Y-15733984D02*
X8163039Y-15733984D01*
X8163039Y-15733984D02*
X8143991Y-15724460D01*
X8143991Y-15724460D02*
X8134467Y-15714936D01*
X8134467Y-15714936D02*
X8124943Y-15695888D01*
X8124943Y-15695888D02*
X8115420Y-15657793D01*
X8115420Y-15657793D02*
X8115420Y-15610174D01*
X8115420Y-15610174D02*
X8124943Y-15572079D01*
X8124943Y-15572079D02*
X8134467Y-15553031D01*
X8134467Y-15553031D02*
X8143991Y-15543508D01*
X8143991Y-15543508D02*
X8163039Y-15533984D01*
X8315420Y-15733984D02*
X8315420Y-15600650D01*
X8315420Y-15619698D02*
X8324943Y-15610174D01*
X8324943Y-15610174D02*
X8343991Y-15600650D01*
X8343991Y-15600650D02*
X8372563Y-15600650D01*
X8372563Y-15600650D02*
X8391610Y-15610174D01*
X8391610Y-15610174D02*
X8401134Y-15629222D01*
X8401134Y-15629222D02*
X8401134Y-15733984D01*
X8401134Y-15629222D02*
X8410658Y-15610174D01*
X8410658Y-15610174D02*
X8429705Y-15600650D01*
X8429705Y-15600650D02*
X8458277Y-15600650D01*
X8458277Y-15600650D02*
X8477325Y-15610174D01*
X8477325Y-15610174D02*
X8486848Y-15629222D01*
X8486848Y-15629222D02*
X8486848Y-15733984D01*
X8582086Y-15733984D02*
X8582086Y-15600650D01*
X8582086Y-15619698D02*
X8591610Y-15610174D01*
X8591610Y-15610174D02*
X8610658Y-15600650D01*
X8610658Y-15600650D02*
X8639229Y-15600650D01*
X8639229Y-15600650D02*
X8658277Y-15610174D01*
X8658277Y-15610174D02*
X8667801Y-15629222D01*
X8667801Y-15629222D02*
X8667801Y-15733984D01*
X8667801Y-15629222D02*
X8677325Y-15610174D01*
X8677325Y-15610174D02*
X8696372Y-15600650D01*
X8696372Y-15600650D02*
X8724944Y-15600650D01*
X8724944Y-15600650D02*
X8743991Y-15610174D01*
X8743991Y-15610174D02*
X8753515Y-15629222D01*
X8753515Y-15629222D02*
X8753515Y-15733984D01*
X9143991Y-15524460D02*
X8972563Y-15781603D01*
X9401134Y-15533984D02*
X9420182Y-15533984D01*
X9420182Y-15533984D02*
X9439229Y-15543508D01*
X9439229Y-15543508D02*
X9448753Y-15553031D01*
X9448753Y-15553031D02*
X9458277Y-15572079D01*
X9458277Y-15572079D02*
X9467801Y-15610174D01*
X9467801Y-15610174D02*
X9467801Y-15657793D01*
X9467801Y-15657793D02*
X9458277Y-15695888D01*
X9458277Y-15695888D02*
X9448753Y-15714936D01*
X9448753Y-15714936D02*
X9439229Y-15724460D01*
X9439229Y-15724460D02*
X9420182Y-15733984D01*
X9420182Y-15733984D02*
X9401134Y-15733984D01*
X9401134Y-15733984D02*
X9382087Y-15724460D01*
X9382087Y-15724460D02*
X9372563Y-15714936D01*
X9372563Y-15714936D02*
X9363039Y-15695888D01*
X9363039Y-15695888D02*
X9353515Y-15657793D01*
X9353515Y-15657793D02*
X9353515Y-15610174D01*
X9353515Y-15610174D02*
X9363039Y-15572079D01*
X9363039Y-15572079D02*
X9372563Y-15553031D01*
X9372563Y-15553031D02*
X9382087Y-15543508D01*
X9382087Y-15543508D02*
X9401134Y-15533984D01*
X9553515Y-15714936D02*
X9563039Y-15724460D01*
X9563039Y-15724460D02*
X9553515Y-15733984D01*
X9553515Y-15733984D02*
X9543991Y-15724460D01*
X9543991Y-15724460D02*
X9553515Y-15714936D01*
X9553515Y-15714936D02*
X9553515Y-15733984D01*
X9753515Y-15733984D02*
X9639229Y-15733984D01*
X9696372Y-15733984D02*
X9696372Y-15533984D01*
X9696372Y-15533984D02*
X9677325Y-15562555D01*
X9677325Y-15562555D02*
X9658277Y-15581603D01*
X9658277Y-15581603D02*
X9639229Y-15591127D01*
X9943991Y-15733984D02*
X9829706Y-15733984D01*
X9886848Y-15733984D02*
X9886848Y-15533984D01*
X9886848Y-15533984D02*
X9867801Y-15562555D01*
X9867801Y-15562555D02*
X9848753Y-15581603D01*
X9848753Y-15581603D02*
X9829706Y-15591127D01*
X10058277Y-15619698D02*
X10039229Y-15610174D01*
X10039229Y-15610174D02*
X10029706Y-15600650D01*
X10029706Y-15600650D02*
X10020182Y-15581603D01*
X10020182Y-15581603D02*
X10020182Y-15572079D01*
X10020182Y-15572079D02*
X10029706Y-15553031D01*
X10029706Y-15553031D02*
X10039229Y-15543508D01*
X10039229Y-15543508D02*
X10058277Y-15533984D01*
X10058277Y-15533984D02*
X10096372Y-15533984D01*
X10096372Y-15533984D02*
X10115420Y-15543508D01*
X10115420Y-15543508D02*
X10124944Y-15553031D01*
X10124944Y-15553031D02*
X10134468Y-15572079D01*
X10134468Y-15572079D02*
X10134468Y-15581603D01*
X10134468Y-15581603D02*
X10124944Y-15600650D01*
X10124944Y-15600650D02*
X10115420Y-15610174D01*
X10115420Y-15610174D02*
X10096372Y-15619698D01*
X10096372Y-15619698D02*
X10058277Y-15619698D01*
X10058277Y-15619698D02*
X10039229Y-15629222D01*
X10039229Y-15629222D02*
X10029706Y-15638746D01*
X10029706Y-15638746D02*
X10020182Y-15657793D01*
X10020182Y-15657793D02*
X10020182Y-15695888D01*
X10020182Y-15695888D02*
X10029706Y-15714936D01*
X10029706Y-15714936D02*
X10039229Y-15724460D01*
X10039229Y-15724460D02*
X10058277Y-15733984D01*
X10058277Y-15733984D02*
X10096372Y-15733984D01*
X10096372Y-15733984D02*
X10115420Y-15724460D01*
X10115420Y-15724460D02*
X10124944Y-15714936D01*
X10124944Y-15714936D02*
X10134468Y-15695888D01*
X10134468Y-15695888D02*
X10134468Y-15657793D01*
X10134468Y-15657793D02*
X10124944Y-15638746D01*
X10124944Y-15638746D02*
X10115420Y-15629222D01*
X10115420Y-15629222D02*
X10096372Y-15619698D01*
X10324944Y-15733984D02*
X10210658Y-15733984D01*
X10267801Y-15733984D02*
X10267801Y-15533984D01*
X10267801Y-15533984D02*
X10248753Y-15562555D01*
X10248753Y-15562555D02*
X10229706Y-15581603D01*
X10229706Y-15581603D02*
X10210658Y-15591127D01*
X10401134Y-15533984D02*
X10401134Y-15572079D01*
X10477325Y-15533984D02*
X10477325Y-15572079D01*
X10772563Y-15810174D02*
X10763039Y-15800650D01*
X10763039Y-15800650D02*
X10743991Y-15772079D01*
X10743991Y-15772079D02*
X10734468Y-15753031D01*
X10734468Y-15753031D02*
X10724944Y-15724460D01*
X10724944Y-15724460D02*
X10715420Y-15676841D01*
X10715420Y-15676841D02*
X10715420Y-15638746D01*
X10715420Y-15638746D02*
X10724944Y-15591127D01*
X10724944Y-15591127D02*
X10734468Y-15562555D01*
X10734468Y-15562555D02*
X10743991Y-15543508D01*
X10743991Y-15543508D02*
X10763039Y-15514936D01*
X10763039Y-15514936D02*
X10772563Y-15505412D01*
X10886849Y-15533984D02*
X10905896Y-15533984D01*
X10905896Y-15533984D02*
X10924944Y-15543508D01*
X10924944Y-15543508D02*
X10934468Y-15553031D01*
X10934468Y-15553031D02*
X10943991Y-15572079D01*
X10943991Y-15572079D02*
X10953515Y-15610174D01*
X10953515Y-15610174D02*
X10953515Y-15657793D01*
X10953515Y-15657793D02*
X10943991Y-15695888D01*
X10943991Y-15695888D02*
X10934468Y-15714936D01*
X10934468Y-15714936D02*
X10924944Y-15724460D01*
X10924944Y-15724460D02*
X10905896Y-15733984D01*
X10905896Y-15733984D02*
X10886849Y-15733984D01*
X10886849Y-15733984D02*
X10867801Y-15724460D01*
X10867801Y-15724460D02*
X10858277Y-15714936D01*
X10858277Y-15714936D02*
X10848753Y-15695888D01*
X10848753Y-15695888D02*
X10839230Y-15657793D01*
X10839230Y-15657793D02*
X10839230Y-15610174D01*
X10839230Y-15610174D02*
X10848753Y-15572079D01*
X10848753Y-15572079D02*
X10858277Y-15553031D01*
X10858277Y-15553031D02*
X10867801Y-15543508D01*
X10867801Y-15543508D02*
X10886849Y-15533984D01*
X11191610Y-15733984D02*
X11191610Y-15533984D01*
X11277325Y-15733984D02*
X11277325Y-15629222D01*
X11277325Y-15629222D02*
X11267801Y-15610174D01*
X11267801Y-15610174D02*
X11248753Y-15600650D01*
X11248753Y-15600650D02*
X11220182Y-15600650D01*
X11220182Y-15600650D02*
X11201134Y-15610174D01*
X11201134Y-15610174D02*
X11191610Y-15619698D01*
X11401134Y-15733984D02*
X11382087Y-15724460D01*
X11382087Y-15724460D02*
X11372563Y-15714936D01*
X11372563Y-15714936D02*
X11363039Y-15695888D01*
X11363039Y-15695888D02*
X11363039Y-15638746D01*
X11363039Y-15638746D02*
X11372563Y-15619698D01*
X11372563Y-15619698D02*
X11382087Y-15610174D01*
X11382087Y-15610174D02*
X11401134Y-15600650D01*
X11401134Y-15600650D02*
X11429706Y-15600650D01*
X11429706Y-15600650D02*
X11448753Y-15610174D01*
X11448753Y-15610174D02*
X11458277Y-15619698D01*
X11458277Y-15619698D02*
X11467801Y-15638746D01*
X11467801Y-15638746D02*
X11467801Y-15695888D01*
X11467801Y-15695888D02*
X11458277Y-15714936D01*
X11458277Y-15714936D02*
X11448753Y-15724460D01*
X11448753Y-15724460D02*
X11429706Y-15733984D01*
X11429706Y-15733984D02*
X11401134Y-15733984D01*
X11582087Y-15733984D02*
X11563039Y-15724460D01*
X11563039Y-15724460D02*
X11553515Y-15705412D01*
X11553515Y-15705412D02*
X11553515Y-15533984D01*
X11734468Y-15724460D02*
X11715420Y-15733984D01*
X11715420Y-15733984D02*
X11677325Y-15733984D01*
X11677325Y-15733984D02*
X11658277Y-15724460D01*
X11658277Y-15724460D02*
X11648753Y-15705412D01*
X11648753Y-15705412D02*
X11648753Y-15629222D01*
X11648753Y-15629222D02*
X11658277Y-15610174D01*
X11658277Y-15610174D02*
X11677325Y-15600650D01*
X11677325Y-15600650D02*
X11715420Y-15600650D01*
X11715420Y-15600650D02*
X11734468Y-15610174D01*
X11734468Y-15610174D02*
X11743991Y-15629222D01*
X11743991Y-15629222D02*
X11743991Y-15648269D01*
X11743991Y-15648269D02*
X11648753Y-15667317D01*
X11820182Y-15724460D02*
X11839230Y-15733984D01*
X11839230Y-15733984D02*
X11877325Y-15733984D01*
X11877325Y-15733984D02*
X11896372Y-15724460D01*
X11896372Y-15724460D02*
X11905896Y-15705412D01*
X11905896Y-15705412D02*
X11905896Y-15695888D01*
X11905896Y-15695888D02*
X11896372Y-15676841D01*
X11896372Y-15676841D02*
X11877325Y-15667317D01*
X11877325Y-15667317D02*
X11848753Y-15667317D01*
X11848753Y-15667317D02*
X11829706Y-15657793D01*
X11829706Y-15657793D02*
X11820182Y-15638746D01*
X11820182Y-15638746D02*
X11820182Y-15629222D01*
X11820182Y-15629222D02*
X11829706Y-15610174D01*
X11829706Y-15610174D02*
X11848753Y-15600650D01*
X11848753Y-15600650D02*
X11877325Y-15600650D01*
X11877325Y-15600650D02*
X11896372Y-15610174D01*
X12143992Y-15657793D02*
X12296373Y-15657793D01*
X12220182Y-15733984D02*
X12220182Y-15581603D01*
X12629706Y-15600650D02*
X12629706Y-15733984D01*
X12582087Y-15524460D02*
X12534468Y-15667317D01*
X12534468Y-15667317D02*
X12658277Y-15667317D01*
X12877325Y-15724460D02*
X12896373Y-15733984D01*
X12896373Y-15733984D02*
X12934468Y-15733984D01*
X12934468Y-15733984D02*
X12953515Y-15724460D01*
X12953515Y-15724460D02*
X12963039Y-15705412D01*
X12963039Y-15705412D02*
X12963039Y-15695888D01*
X12963039Y-15695888D02*
X12953515Y-15676841D01*
X12953515Y-15676841D02*
X12934468Y-15667317D01*
X12934468Y-15667317D02*
X12905896Y-15667317D01*
X12905896Y-15667317D02*
X12886849Y-15657793D01*
X12886849Y-15657793D02*
X12877325Y-15638746D01*
X12877325Y-15638746D02*
X12877325Y-15629222D01*
X12877325Y-15629222D02*
X12886849Y-15610174D01*
X12886849Y-15610174D02*
X12905896Y-15600650D01*
X12905896Y-15600650D02*
X12934468Y-15600650D01*
X12934468Y-15600650D02*
X12953515Y-15610174D01*
X13077325Y-15733984D02*
X13058277Y-15724460D01*
X13058277Y-15724460D02*
X13048754Y-15705412D01*
X13048754Y-15705412D02*
X13048754Y-15533984D01*
X13182087Y-15733984D02*
X13163039Y-15724460D01*
X13163039Y-15724460D02*
X13153515Y-15714936D01*
X13153515Y-15714936D02*
X13143992Y-15695888D01*
X13143992Y-15695888D02*
X13143992Y-15638746D01*
X13143992Y-15638746D02*
X13153515Y-15619698D01*
X13153515Y-15619698D02*
X13163039Y-15610174D01*
X13163039Y-15610174D02*
X13182087Y-15600650D01*
X13182087Y-15600650D02*
X13210658Y-15600650D01*
X13210658Y-15600650D02*
X13229706Y-15610174D01*
X13229706Y-15610174D02*
X13239230Y-15619698D01*
X13239230Y-15619698D02*
X13248754Y-15638746D01*
X13248754Y-15638746D02*
X13248754Y-15695888D01*
X13248754Y-15695888D02*
X13239230Y-15714936D01*
X13239230Y-15714936D02*
X13229706Y-15724460D01*
X13229706Y-15724460D02*
X13210658Y-15733984D01*
X13210658Y-15733984D02*
X13182087Y-15733984D01*
X13305896Y-15600650D02*
X13382087Y-15600650D01*
X13334468Y-15533984D02*
X13334468Y-15705412D01*
X13334468Y-15705412D02*
X13343992Y-15724460D01*
X13343992Y-15724460D02*
X13363039Y-15733984D01*
X13363039Y-15733984D02*
X13382087Y-15733984D01*
X13439230Y-15724460D02*
X13458277Y-15733984D01*
X13458277Y-15733984D02*
X13496373Y-15733984D01*
X13496373Y-15733984D02*
X13515420Y-15724460D01*
X13515420Y-15724460D02*
X13524944Y-15705412D01*
X13524944Y-15705412D02*
X13524944Y-15695888D01*
X13524944Y-15695888D02*
X13515420Y-15676841D01*
X13515420Y-15676841D02*
X13496373Y-15667317D01*
X13496373Y-15667317D02*
X13467801Y-15667317D01*
X13467801Y-15667317D02*
X13448754Y-15657793D01*
X13448754Y-15657793D02*
X13439230Y-15638746D01*
X13439230Y-15638746D02*
X13439230Y-15629222D01*
X13439230Y-15629222D02*
X13448754Y-15610174D01*
X13448754Y-15610174D02*
X13467801Y-15600650D01*
X13467801Y-15600650D02*
X13496373Y-15600650D01*
X13496373Y-15600650D02*
X13515420Y-15610174D01*
X13591611Y-15810174D02*
X13601135Y-15800650D01*
X13601135Y-15800650D02*
X13620182Y-15772079D01*
X13620182Y-15772079D02*
X13629706Y-15753031D01*
X13629706Y-15753031D02*
X13639230Y-15724460D01*
X13639230Y-15724460D02*
X13648754Y-15676841D01*
X13648754Y-15676841D02*
X13648754Y-15638746D01*
X13648754Y-15638746D02*
X13639230Y-15591127D01*
X13639230Y-15591127D02*
X13629706Y-15562555D01*
X13629706Y-15562555D02*
X13620182Y-15543508D01*
X13620182Y-15543508D02*
X13601135Y-15514936D01*
X13601135Y-15514936D02*
X13591611Y-15505412D01*
X7197500Y-15962500D02*
G75*
G03*
X7197500Y-15962500I-100000J0D01*
G01*
X7543991Y-15853984D02*
X7505896Y-15853984D01*
X7505896Y-15853984D02*
X7486848Y-15863508D01*
X7486848Y-15863508D02*
X7477324Y-15873031D01*
X7477324Y-15873031D02*
X7458277Y-15901603D01*
X7458277Y-15901603D02*
X7448753Y-15939698D01*
X7448753Y-15939698D02*
X7448753Y-16015888D01*
X7448753Y-16015888D02*
X7458277Y-16034936D01*
X7458277Y-16034936D02*
X7467801Y-16044460D01*
X7467801Y-16044460D02*
X7486848Y-16053984D01*
X7486848Y-16053984D02*
X7524943Y-16053984D01*
X7524943Y-16053984D02*
X7543991Y-16044460D01*
X7543991Y-16044460D02*
X7553515Y-16034936D01*
X7553515Y-16034936D02*
X7563039Y-16015888D01*
X7563039Y-16015888D02*
X7563039Y-15968269D01*
X7563039Y-15968269D02*
X7553515Y-15949222D01*
X7553515Y-15949222D02*
X7543991Y-15939698D01*
X7543991Y-15939698D02*
X7524943Y-15930174D01*
X7524943Y-15930174D02*
X7486848Y-15930174D01*
X7486848Y-15930174D02*
X7467801Y-15939698D01*
X7467801Y-15939698D02*
X7458277Y-15949222D01*
X7458277Y-15949222D02*
X7448753Y-15968269D01*
X7648753Y-16034936D02*
X7658277Y-16044460D01*
X7658277Y-16044460D02*
X7648753Y-16053984D01*
X7648753Y-16053984D02*
X7639229Y-16044460D01*
X7639229Y-16044460D02*
X7648753Y-16034936D01*
X7648753Y-16034936D02*
X7648753Y-16053984D01*
X7734467Y-15873031D02*
X7743991Y-15863508D01*
X7743991Y-15863508D02*
X7763039Y-15853984D01*
X7763039Y-15853984D02*
X7810658Y-15853984D01*
X7810658Y-15853984D02*
X7829705Y-15863508D01*
X7829705Y-15863508D02*
X7839229Y-15873031D01*
X7839229Y-15873031D02*
X7848753Y-15892079D01*
X7848753Y-15892079D02*
X7848753Y-15911127D01*
X7848753Y-15911127D02*
X7839229Y-15939698D01*
X7839229Y-15939698D02*
X7724943Y-16053984D01*
X7724943Y-16053984D02*
X7848753Y-16053984D01*
X7972562Y-15853984D02*
X7991610Y-15853984D01*
X7991610Y-15853984D02*
X8010658Y-15863508D01*
X8010658Y-15863508D02*
X8020182Y-15873031D01*
X8020182Y-15873031D02*
X8029705Y-15892079D01*
X8029705Y-15892079D02*
X8039229Y-15930174D01*
X8039229Y-15930174D02*
X8039229Y-15977793D01*
X8039229Y-15977793D02*
X8029705Y-16015888D01*
X8029705Y-16015888D02*
X8020182Y-16034936D01*
X8020182Y-16034936D02*
X8010658Y-16044460D01*
X8010658Y-16044460D02*
X7991610Y-16053984D01*
X7991610Y-16053984D02*
X7972562Y-16053984D01*
X7972562Y-16053984D02*
X7953515Y-16044460D01*
X7953515Y-16044460D02*
X7943991Y-16034936D01*
X7943991Y-16034936D02*
X7934467Y-16015888D01*
X7934467Y-16015888D02*
X7924943Y-15977793D01*
X7924943Y-15977793D02*
X7924943Y-15930174D01*
X7924943Y-15930174D02*
X7934467Y-15892079D01*
X7934467Y-15892079D02*
X7943991Y-15873031D01*
X7943991Y-15873031D02*
X7953515Y-15863508D01*
X7953515Y-15863508D02*
X7972562Y-15853984D01*
X8163039Y-15853984D02*
X8182086Y-15853984D01*
X8182086Y-15853984D02*
X8201134Y-15863508D01*
X8201134Y-15863508D02*
X8210658Y-15873031D01*
X8210658Y-15873031D02*
X8220182Y-15892079D01*
X8220182Y-15892079D02*
X8229705Y-15930174D01*
X8229705Y-15930174D02*
X8229705Y-15977793D01*
X8229705Y-15977793D02*
X8220182Y-16015888D01*
X8220182Y-16015888D02*
X8210658Y-16034936D01*
X8210658Y-16034936D02*
X8201134Y-16044460D01*
X8201134Y-16044460D02*
X8182086Y-16053984D01*
X8182086Y-16053984D02*
X8163039Y-16053984D01*
X8163039Y-16053984D02*
X8143991Y-16044460D01*
X8143991Y-16044460D02*
X8134467Y-16034936D01*
X8134467Y-16034936D02*
X8124943Y-16015888D01*
X8124943Y-16015888D02*
X8115420Y-15977793D01*
X8115420Y-15977793D02*
X8115420Y-15930174D01*
X8115420Y-15930174D02*
X8124943Y-15892079D01*
X8124943Y-15892079D02*
X8134467Y-15873031D01*
X8134467Y-15873031D02*
X8143991Y-15863508D01*
X8143991Y-15863508D02*
X8163039Y-15853984D01*
X8315420Y-16053984D02*
X8315420Y-15920650D01*
X8315420Y-15939698D02*
X8324943Y-15930174D01*
X8324943Y-15930174D02*
X8343991Y-15920650D01*
X8343991Y-15920650D02*
X8372563Y-15920650D01*
X8372563Y-15920650D02*
X8391610Y-15930174D01*
X8391610Y-15930174D02*
X8401134Y-15949222D01*
X8401134Y-15949222D02*
X8401134Y-16053984D01*
X8401134Y-15949222D02*
X8410658Y-15930174D01*
X8410658Y-15930174D02*
X8429705Y-15920650D01*
X8429705Y-15920650D02*
X8458277Y-15920650D01*
X8458277Y-15920650D02*
X8477325Y-15930174D01*
X8477325Y-15930174D02*
X8486848Y-15949222D01*
X8486848Y-15949222D02*
X8486848Y-16053984D01*
X8582086Y-16053984D02*
X8582086Y-15920650D01*
X8582086Y-15939698D02*
X8591610Y-15930174D01*
X8591610Y-15930174D02*
X8610658Y-15920650D01*
X8610658Y-15920650D02*
X8639229Y-15920650D01*
X8639229Y-15920650D02*
X8658277Y-15930174D01*
X8658277Y-15930174D02*
X8667801Y-15949222D01*
X8667801Y-15949222D02*
X8667801Y-16053984D01*
X8667801Y-15949222D02*
X8677325Y-15930174D01*
X8677325Y-15930174D02*
X8696372Y-15920650D01*
X8696372Y-15920650D02*
X8724944Y-15920650D01*
X8724944Y-15920650D02*
X8743991Y-15930174D01*
X8743991Y-15930174D02*
X8753515Y-15949222D01*
X8753515Y-15949222D02*
X8753515Y-16053984D01*
X9143991Y-15844460D02*
X8972563Y-16101603D01*
X9401134Y-15853984D02*
X9420182Y-15853984D01*
X9420182Y-15853984D02*
X9439229Y-15863508D01*
X9439229Y-15863508D02*
X9448753Y-15873031D01*
X9448753Y-15873031D02*
X9458277Y-15892079D01*
X9458277Y-15892079D02*
X9467801Y-15930174D01*
X9467801Y-15930174D02*
X9467801Y-15977793D01*
X9467801Y-15977793D02*
X9458277Y-16015888D01*
X9458277Y-16015888D02*
X9448753Y-16034936D01*
X9448753Y-16034936D02*
X9439229Y-16044460D01*
X9439229Y-16044460D02*
X9420182Y-16053984D01*
X9420182Y-16053984D02*
X9401134Y-16053984D01*
X9401134Y-16053984D02*
X9382087Y-16044460D01*
X9382087Y-16044460D02*
X9372563Y-16034936D01*
X9372563Y-16034936D02*
X9363039Y-16015888D01*
X9363039Y-16015888D02*
X9353515Y-15977793D01*
X9353515Y-15977793D02*
X9353515Y-15930174D01*
X9353515Y-15930174D02*
X9363039Y-15892079D01*
X9363039Y-15892079D02*
X9372563Y-15873031D01*
X9372563Y-15873031D02*
X9382087Y-15863508D01*
X9382087Y-15863508D02*
X9401134Y-15853984D01*
X9553515Y-16034936D02*
X9563039Y-16044460D01*
X9563039Y-16044460D02*
X9553515Y-16053984D01*
X9553515Y-16053984D02*
X9543991Y-16044460D01*
X9543991Y-16044460D02*
X9553515Y-16034936D01*
X9553515Y-16034936D02*
X9553515Y-16053984D01*
X9639229Y-15873031D02*
X9648753Y-15863508D01*
X9648753Y-15863508D02*
X9667801Y-15853984D01*
X9667801Y-15853984D02*
X9715420Y-15853984D01*
X9715420Y-15853984D02*
X9734468Y-15863508D01*
X9734468Y-15863508D02*
X9743991Y-15873031D01*
X9743991Y-15873031D02*
X9753515Y-15892079D01*
X9753515Y-15892079D02*
X9753515Y-15911127D01*
X9753515Y-15911127D02*
X9743991Y-15939698D01*
X9743991Y-15939698D02*
X9629706Y-16053984D01*
X9629706Y-16053984D02*
X9753515Y-16053984D01*
X9924944Y-15920650D02*
X9924944Y-16053984D01*
X9877325Y-15844460D02*
X9829706Y-15987317D01*
X9829706Y-15987317D02*
X9953515Y-15987317D01*
X10115420Y-15920650D02*
X10115420Y-16053984D01*
X10067801Y-15844460D02*
X10020182Y-15987317D01*
X10020182Y-15987317D02*
X10143991Y-15987317D01*
X10324944Y-16053984D02*
X10210658Y-16053984D01*
X10267801Y-16053984D02*
X10267801Y-15853984D01*
X10267801Y-15853984D02*
X10248753Y-15882555D01*
X10248753Y-15882555D02*
X10229706Y-15901603D01*
X10229706Y-15901603D02*
X10210658Y-15911127D01*
X10401134Y-15853984D02*
X10401134Y-15892079D01*
X10477325Y-15853984D02*
X10477325Y-15892079D01*
X10772563Y-16130174D02*
X10763039Y-16120650D01*
X10763039Y-16120650D02*
X10743991Y-16092079D01*
X10743991Y-16092079D02*
X10734468Y-16073031D01*
X10734468Y-16073031D02*
X10724944Y-16044460D01*
X10724944Y-16044460D02*
X10715420Y-15996841D01*
X10715420Y-15996841D02*
X10715420Y-15958746D01*
X10715420Y-15958746D02*
X10724944Y-15911127D01*
X10724944Y-15911127D02*
X10734468Y-15882555D01*
X10734468Y-15882555D02*
X10743991Y-15863508D01*
X10743991Y-15863508D02*
X10763039Y-15834936D01*
X10763039Y-15834936D02*
X10772563Y-15825412D01*
X10953515Y-16053984D02*
X10839230Y-16053984D01*
X10896372Y-16053984D02*
X10896372Y-15853984D01*
X10896372Y-15853984D02*
X10877325Y-15882555D01*
X10877325Y-15882555D02*
X10858277Y-15901603D01*
X10858277Y-15901603D02*
X10839230Y-15911127D01*
X11077325Y-15853984D02*
X11096372Y-15853984D01*
X11096372Y-15853984D02*
X11115420Y-15863508D01*
X11115420Y-15863508D02*
X11124944Y-15873031D01*
X11124944Y-15873031D02*
X11134468Y-15892079D01*
X11134468Y-15892079D02*
X11143991Y-15930174D01*
X11143991Y-15930174D02*
X11143991Y-15977793D01*
X11143991Y-15977793D02*
X11134468Y-16015888D01*
X11134468Y-16015888D02*
X11124944Y-16034936D01*
X11124944Y-16034936D02*
X11115420Y-16044460D01*
X11115420Y-16044460D02*
X11096372Y-16053984D01*
X11096372Y-16053984D02*
X11077325Y-16053984D01*
X11077325Y-16053984D02*
X11058277Y-16044460D01*
X11058277Y-16044460D02*
X11048753Y-16034936D01*
X11048753Y-16034936D02*
X11039230Y-16015888D01*
X11039230Y-16015888D02*
X11029706Y-15977793D01*
X11029706Y-15977793D02*
X11029706Y-15930174D01*
X11029706Y-15930174D02*
X11039230Y-15892079D01*
X11039230Y-15892079D02*
X11048753Y-15873031D01*
X11048753Y-15873031D02*
X11058277Y-15863508D01*
X11058277Y-15863508D02*
X11077325Y-15853984D01*
X11382087Y-16053984D02*
X11382087Y-15853984D01*
X11467801Y-16053984D02*
X11467801Y-15949222D01*
X11467801Y-15949222D02*
X11458277Y-15930174D01*
X11458277Y-15930174D02*
X11439230Y-15920650D01*
X11439230Y-15920650D02*
X11410658Y-15920650D01*
X11410658Y-15920650D02*
X11391610Y-15930174D01*
X11391610Y-15930174D02*
X11382087Y-15939698D01*
X11591610Y-16053984D02*
X11572563Y-16044460D01*
X11572563Y-16044460D02*
X11563039Y-16034936D01*
X11563039Y-16034936D02*
X11553515Y-16015888D01*
X11553515Y-16015888D02*
X11553515Y-15958746D01*
X11553515Y-15958746D02*
X11563039Y-15939698D01*
X11563039Y-15939698D02*
X11572563Y-15930174D01*
X11572563Y-15930174D02*
X11591610Y-15920650D01*
X11591610Y-15920650D02*
X11620182Y-15920650D01*
X11620182Y-15920650D02*
X11639230Y-15930174D01*
X11639230Y-15930174D02*
X11648753Y-15939698D01*
X11648753Y-15939698D02*
X11658277Y-15958746D01*
X11658277Y-15958746D02*
X11658277Y-16015888D01*
X11658277Y-16015888D02*
X11648753Y-16034936D01*
X11648753Y-16034936D02*
X11639230Y-16044460D01*
X11639230Y-16044460D02*
X11620182Y-16053984D01*
X11620182Y-16053984D02*
X11591610Y-16053984D01*
X11772563Y-16053984D02*
X11753515Y-16044460D01*
X11753515Y-16044460D02*
X11743991Y-16025412D01*
X11743991Y-16025412D02*
X11743991Y-15853984D01*
X11924944Y-16044460D02*
X11905896Y-16053984D01*
X11905896Y-16053984D02*
X11867801Y-16053984D01*
X11867801Y-16053984D02*
X11848753Y-16044460D01*
X11848753Y-16044460D02*
X11839230Y-16025412D01*
X11839230Y-16025412D02*
X11839230Y-15949222D01*
X11839230Y-15949222D02*
X11848753Y-15930174D01*
X11848753Y-15930174D02*
X11867801Y-15920650D01*
X11867801Y-15920650D02*
X11905896Y-15920650D01*
X11905896Y-15920650D02*
X11924944Y-15930174D01*
X11924944Y-15930174D02*
X11934468Y-15949222D01*
X11934468Y-15949222D02*
X11934468Y-15968269D01*
X11934468Y-15968269D02*
X11839230Y-15987317D01*
X12010658Y-16044460D02*
X12029706Y-16053984D01*
X12029706Y-16053984D02*
X12067801Y-16053984D01*
X12067801Y-16053984D02*
X12086849Y-16044460D01*
X12086849Y-16044460D02*
X12096372Y-16025412D01*
X12096372Y-16025412D02*
X12096372Y-16015888D01*
X12096372Y-16015888D02*
X12086849Y-15996841D01*
X12086849Y-15996841D02*
X12067801Y-15987317D01*
X12067801Y-15987317D02*
X12039230Y-15987317D01*
X12039230Y-15987317D02*
X12020182Y-15977793D01*
X12020182Y-15977793D02*
X12010658Y-15958746D01*
X12010658Y-15958746D02*
X12010658Y-15949222D01*
X12010658Y-15949222D02*
X12020182Y-15930174D01*
X12020182Y-15930174D02*
X12039230Y-15920650D01*
X12039230Y-15920650D02*
X12067801Y-15920650D01*
X12067801Y-15920650D02*
X12086849Y-15930174D01*
X12163039Y-16130174D02*
X12172563Y-16120650D01*
X12172563Y-16120650D02*
X12191611Y-16092079D01*
X12191611Y-16092079D02*
X12201134Y-16073031D01*
X12201134Y-16073031D02*
X12210658Y-16044460D01*
X12210658Y-16044460D02*
X12220182Y-15996841D01*
X12220182Y-15996841D02*
X12220182Y-15958746D01*
X12220182Y-15958746D02*
X12210658Y-15911127D01*
X12210658Y-15911127D02*
X12201134Y-15882555D01*
X12201134Y-15882555D02*
X12191611Y-15863508D01*
X12191611Y-15863508D02*
X12172563Y-15834936D01*
X12172563Y-15834936D02*
X12163039Y-15825412D01*
X7097500Y-16182500D02*
X7097500Y-16382500D01*
X6997500Y-16282500D02*
X7197500Y-16282500D01*
X7543991Y-16173984D02*
X7505896Y-16173984D01*
X7505896Y-16173984D02*
X7486848Y-16183508D01*
X7486848Y-16183508D02*
X7477324Y-16193031D01*
X7477324Y-16193031D02*
X7458277Y-16221603D01*
X7458277Y-16221603D02*
X7448753Y-16259698D01*
X7448753Y-16259698D02*
X7448753Y-16335888D01*
X7448753Y-16335888D02*
X7458277Y-16354936D01*
X7458277Y-16354936D02*
X7467801Y-16364460D01*
X7467801Y-16364460D02*
X7486848Y-16373984D01*
X7486848Y-16373984D02*
X7524943Y-16373984D01*
X7524943Y-16373984D02*
X7543991Y-16364460D01*
X7543991Y-16364460D02*
X7553515Y-16354936D01*
X7553515Y-16354936D02*
X7563039Y-16335888D01*
X7563039Y-16335888D02*
X7563039Y-16288269D01*
X7563039Y-16288269D02*
X7553515Y-16269222D01*
X7553515Y-16269222D02*
X7543991Y-16259698D01*
X7543991Y-16259698D02*
X7524943Y-16250174D01*
X7524943Y-16250174D02*
X7486848Y-16250174D01*
X7486848Y-16250174D02*
X7467801Y-16259698D01*
X7467801Y-16259698D02*
X7458277Y-16269222D01*
X7458277Y-16269222D02*
X7448753Y-16288269D01*
X7648753Y-16354936D02*
X7658277Y-16364460D01*
X7658277Y-16364460D02*
X7648753Y-16373984D01*
X7648753Y-16373984D02*
X7639229Y-16364460D01*
X7639229Y-16364460D02*
X7648753Y-16354936D01*
X7648753Y-16354936D02*
X7648753Y-16373984D01*
X7772562Y-16259698D02*
X7753515Y-16250174D01*
X7753515Y-16250174D02*
X7743991Y-16240650D01*
X7743991Y-16240650D02*
X7734467Y-16221603D01*
X7734467Y-16221603D02*
X7734467Y-16212079D01*
X7734467Y-16212079D02*
X7743991Y-16193031D01*
X7743991Y-16193031D02*
X7753515Y-16183508D01*
X7753515Y-16183508D02*
X7772562Y-16173984D01*
X7772562Y-16173984D02*
X7810658Y-16173984D01*
X7810658Y-16173984D02*
X7829705Y-16183508D01*
X7829705Y-16183508D02*
X7839229Y-16193031D01*
X7839229Y-16193031D02*
X7848753Y-16212079D01*
X7848753Y-16212079D02*
X7848753Y-16221603D01*
X7848753Y-16221603D02*
X7839229Y-16240650D01*
X7839229Y-16240650D02*
X7829705Y-16250174D01*
X7829705Y-16250174D02*
X7810658Y-16259698D01*
X7810658Y-16259698D02*
X7772562Y-16259698D01*
X7772562Y-16259698D02*
X7753515Y-16269222D01*
X7753515Y-16269222D02*
X7743991Y-16278746D01*
X7743991Y-16278746D02*
X7734467Y-16297793D01*
X7734467Y-16297793D02*
X7734467Y-16335888D01*
X7734467Y-16335888D02*
X7743991Y-16354936D01*
X7743991Y-16354936D02*
X7753515Y-16364460D01*
X7753515Y-16364460D02*
X7772562Y-16373984D01*
X7772562Y-16373984D02*
X7810658Y-16373984D01*
X7810658Y-16373984D02*
X7829705Y-16364460D01*
X7829705Y-16364460D02*
X7839229Y-16354936D01*
X7839229Y-16354936D02*
X7848753Y-16335888D01*
X7848753Y-16335888D02*
X7848753Y-16297793D01*
X7848753Y-16297793D02*
X7839229Y-16278746D01*
X7839229Y-16278746D02*
X7829705Y-16269222D01*
X7829705Y-16269222D02*
X7810658Y-16259698D01*
X7972562Y-16173984D02*
X7991610Y-16173984D01*
X7991610Y-16173984D02*
X8010658Y-16183508D01*
X8010658Y-16183508D02*
X8020182Y-16193031D01*
X8020182Y-16193031D02*
X8029705Y-16212079D01*
X8029705Y-16212079D02*
X8039229Y-16250174D01*
X8039229Y-16250174D02*
X8039229Y-16297793D01*
X8039229Y-16297793D02*
X8029705Y-16335888D01*
X8029705Y-16335888D02*
X8020182Y-16354936D01*
X8020182Y-16354936D02*
X8010658Y-16364460D01*
X8010658Y-16364460D02*
X7991610Y-16373984D01*
X7991610Y-16373984D02*
X7972562Y-16373984D01*
X7972562Y-16373984D02*
X7953515Y-16364460D01*
X7953515Y-16364460D02*
X7943991Y-16354936D01*
X7943991Y-16354936D02*
X7934467Y-16335888D01*
X7934467Y-16335888D02*
X7924943Y-16297793D01*
X7924943Y-16297793D02*
X7924943Y-16250174D01*
X7924943Y-16250174D02*
X7934467Y-16212079D01*
X7934467Y-16212079D02*
X7943991Y-16193031D01*
X7943991Y-16193031D02*
X7953515Y-16183508D01*
X7953515Y-16183508D02*
X7972562Y-16173984D01*
X8163039Y-16173984D02*
X8182086Y-16173984D01*
X8182086Y-16173984D02*
X8201134Y-16183508D01*
X8201134Y-16183508D02*
X8210658Y-16193031D01*
X8210658Y-16193031D02*
X8220182Y-16212079D01*
X8220182Y-16212079D02*
X8229705Y-16250174D01*
X8229705Y-16250174D02*
X8229705Y-16297793D01*
X8229705Y-16297793D02*
X8220182Y-16335888D01*
X8220182Y-16335888D02*
X8210658Y-16354936D01*
X8210658Y-16354936D02*
X8201134Y-16364460D01*
X8201134Y-16364460D02*
X8182086Y-16373984D01*
X8182086Y-16373984D02*
X8163039Y-16373984D01*
X8163039Y-16373984D02*
X8143991Y-16364460D01*
X8143991Y-16364460D02*
X8134467Y-16354936D01*
X8134467Y-16354936D02*
X8124943Y-16335888D01*
X8124943Y-16335888D02*
X8115420Y-16297793D01*
X8115420Y-16297793D02*
X8115420Y-16250174D01*
X8115420Y-16250174D02*
X8124943Y-16212079D01*
X8124943Y-16212079D02*
X8134467Y-16193031D01*
X8134467Y-16193031D02*
X8143991Y-16183508D01*
X8143991Y-16183508D02*
X8163039Y-16173984D01*
X8315420Y-16373984D02*
X8315420Y-16240650D01*
X8315420Y-16259698D02*
X8324943Y-16250174D01*
X8324943Y-16250174D02*
X8343991Y-16240650D01*
X8343991Y-16240650D02*
X8372563Y-16240650D01*
X8372563Y-16240650D02*
X8391610Y-16250174D01*
X8391610Y-16250174D02*
X8401134Y-16269222D01*
X8401134Y-16269222D02*
X8401134Y-16373984D01*
X8401134Y-16269222D02*
X8410658Y-16250174D01*
X8410658Y-16250174D02*
X8429705Y-16240650D01*
X8429705Y-16240650D02*
X8458277Y-16240650D01*
X8458277Y-16240650D02*
X8477325Y-16250174D01*
X8477325Y-16250174D02*
X8486848Y-16269222D01*
X8486848Y-16269222D02*
X8486848Y-16373984D01*
X8582086Y-16373984D02*
X8582086Y-16240650D01*
X8582086Y-16259698D02*
X8591610Y-16250174D01*
X8591610Y-16250174D02*
X8610658Y-16240650D01*
X8610658Y-16240650D02*
X8639229Y-16240650D01*
X8639229Y-16240650D02*
X8658277Y-16250174D01*
X8658277Y-16250174D02*
X8667801Y-16269222D01*
X8667801Y-16269222D02*
X8667801Y-16373984D01*
X8667801Y-16269222D02*
X8677325Y-16250174D01*
X8677325Y-16250174D02*
X8696372Y-16240650D01*
X8696372Y-16240650D02*
X8724944Y-16240650D01*
X8724944Y-16240650D02*
X8743991Y-16250174D01*
X8743991Y-16250174D02*
X8753515Y-16269222D01*
X8753515Y-16269222D02*
X8753515Y-16373984D01*
X9143991Y-16164460D02*
X8972563Y-16421603D01*
X9401134Y-16173984D02*
X9420182Y-16173984D01*
X9420182Y-16173984D02*
X9439229Y-16183508D01*
X9439229Y-16183508D02*
X9448753Y-16193031D01*
X9448753Y-16193031D02*
X9458277Y-16212079D01*
X9458277Y-16212079D02*
X9467801Y-16250174D01*
X9467801Y-16250174D02*
X9467801Y-16297793D01*
X9467801Y-16297793D02*
X9458277Y-16335888D01*
X9458277Y-16335888D02*
X9448753Y-16354936D01*
X9448753Y-16354936D02*
X9439229Y-16364460D01*
X9439229Y-16364460D02*
X9420182Y-16373984D01*
X9420182Y-16373984D02*
X9401134Y-16373984D01*
X9401134Y-16373984D02*
X9382087Y-16364460D01*
X9382087Y-16364460D02*
X9372563Y-16354936D01*
X9372563Y-16354936D02*
X9363039Y-16335888D01*
X9363039Y-16335888D02*
X9353515Y-16297793D01*
X9353515Y-16297793D02*
X9353515Y-16250174D01*
X9353515Y-16250174D02*
X9363039Y-16212079D01*
X9363039Y-16212079D02*
X9372563Y-16193031D01*
X9372563Y-16193031D02*
X9382087Y-16183508D01*
X9382087Y-16183508D02*
X9401134Y-16173984D01*
X9553515Y-16354936D02*
X9563039Y-16364460D01*
X9563039Y-16364460D02*
X9553515Y-16373984D01*
X9553515Y-16373984D02*
X9543991Y-16364460D01*
X9543991Y-16364460D02*
X9553515Y-16354936D01*
X9553515Y-16354936D02*
X9553515Y-16373984D01*
X9639229Y-16193031D02*
X9648753Y-16183508D01*
X9648753Y-16183508D02*
X9667801Y-16173984D01*
X9667801Y-16173984D02*
X9715420Y-16173984D01*
X9715420Y-16173984D02*
X9734468Y-16183508D01*
X9734468Y-16183508D02*
X9743991Y-16193031D01*
X9743991Y-16193031D02*
X9753515Y-16212079D01*
X9753515Y-16212079D02*
X9753515Y-16231127D01*
X9753515Y-16231127D02*
X9743991Y-16259698D01*
X9743991Y-16259698D02*
X9629706Y-16373984D01*
X9629706Y-16373984D02*
X9753515Y-16373984D01*
X9924944Y-16173984D02*
X9886848Y-16173984D01*
X9886848Y-16173984D02*
X9867801Y-16183508D01*
X9867801Y-16183508D02*
X9858277Y-16193031D01*
X9858277Y-16193031D02*
X9839229Y-16221603D01*
X9839229Y-16221603D02*
X9829706Y-16259698D01*
X9829706Y-16259698D02*
X9829706Y-16335888D01*
X9829706Y-16335888D02*
X9839229Y-16354936D01*
X9839229Y-16354936D02*
X9848753Y-16364460D01*
X9848753Y-16364460D02*
X9867801Y-16373984D01*
X9867801Y-16373984D02*
X9905896Y-16373984D01*
X9905896Y-16373984D02*
X9924944Y-16364460D01*
X9924944Y-16364460D02*
X9934468Y-16354936D01*
X9934468Y-16354936D02*
X9943991Y-16335888D01*
X9943991Y-16335888D02*
X9943991Y-16288269D01*
X9943991Y-16288269D02*
X9934468Y-16269222D01*
X9934468Y-16269222D02*
X9924944Y-16259698D01*
X9924944Y-16259698D02*
X9905896Y-16250174D01*
X9905896Y-16250174D02*
X9867801Y-16250174D01*
X9867801Y-16250174D02*
X9848753Y-16259698D01*
X9848753Y-16259698D02*
X9839229Y-16269222D01*
X9839229Y-16269222D02*
X9829706Y-16288269D01*
X10010658Y-16173984D02*
X10143991Y-16173984D01*
X10143991Y-16173984D02*
X10058277Y-16373984D01*
X10201134Y-16173984D02*
X10334468Y-16173984D01*
X10334468Y-16173984D02*
X10248753Y-16373984D01*
X10401134Y-16173984D02*
X10401134Y-16212079D01*
X10477325Y-16173984D02*
X10477325Y-16212079D01*
X10772563Y-16450174D02*
X10763039Y-16440650D01*
X10763039Y-16440650D02*
X10743991Y-16412079D01*
X10743991Y-16412079D02*
X10734468Y-16393031D01*
X10734468Y-16393031D02*
X10724944Y-16364460D01*
X10724944Y-16364460D02*
X10715420Y-16316841D01*
X10715420Y-16316841D02*
X10715420Y-16278746D01*
X10715420Y-16278746D02*
X10724944Y-16231127D01*
X10724944Y-16231127D02*
X10734468Y-16202555D01*
X10734468Y-16202555D02*
X10743991Y-16183508D01*
X10743991Y-16183508D02*
X10763039Y-16154936D01*
X10763039Y-16154936D02*
X10772563Y-16145412D01*
X10934468Y-16240650D02*
X10934468Y-16373984D01*
X10886849Y-16164460D02*
X10839230Y-16307317D01*
X10839230Y-16307317D02*
X10963039Y-16307317D01*
X11191610Y-16373984D02*
X11191610Y-16173984D01*
X11277325Y-16373984D02*
X11277325Y-16269222D01*
X11277325Y-16269222D02*
X11267801Y-16250174D01*
X11267801Y-16250174D02*
X11248753Y-16240650D01*
X11248753Y-16240650D02*
X11220182Y-16240650D01*
X11220182Y-16240650D02*
X11201134Y-16250174D01*
X11201134Y-16250174D02*
X11191610Y-16259698D01*
X11401134Y-16373984D02*
X11382087Y-16364460D01*
X11382087Y-16364460D02*
X11372563Y-16354936D01*
X11372563Y-16354936D02*
X11363039Y-16335888D01*
X11363039Y-16335888D02*
X11363039Y-16278746D01*
X11363039Y-16278746D02*
X11372563Y-16259698D01*
X11372563Y-16259698D02*
X11382087Y-16250174D01*
X11382087Y-16250174D02*
X11401134Y-16240650D01*
X11401134Y-16240650D02*
X11429706Y-16240650D01*
X11429706Y-16240650D02*
X11448753Y-16250174D01*
X11448753Y-16250174D02*
X11458277Y-16259698D01*
X11458277Y-16259698D02*
X11467801Y-16278746D01*
X11467801Y-16278746D02*
X11467801Y-16335888D01*
X11467801Y-16335888D02*
X11458277Y-16354936D01*
X11458277Y-16354936D02*
X11448753Y-16364460D01*
X11448753Y-16364460D02*
X11429706Y-16373984D01*
X11429706Y-16373984D02*
X11401134Y-16373984D01*
X11582087Y-16373984D02*
X11563039Y-16364460D01*
X11563039Y-16364460D02*
X11553515Y-16345412D01*
X11553515Y-16345412D02*
X11553515Y-16173984D01*
X11734468Y-16364460D02*
X11715420Y-16373984D01*
X11715420Y-16373984D02*
X11677325Y-16373984D01*
X11677325Y-16373984D02*
X11658277Y-16364460D01*
X11658277Y-16364460D02*
X11648753Y-16345412D01*
X11648753Y-16345412D02*
X11648753Y-16269222D01*
X11648753Y-16269222D02*
X11658277Y-16250174D01*
X11658277Y-16250174D02*
X11677325Y-16240650D01*
X11677325Y-16240650D02*
X11715420Y-16240650D01*
X11715420Y-16240650D02*
X11734468Y-16250174D01*
X11734468Y-16250174D02*
X11743991Y-16269222D01*
X11743991Y-16269222D02*
X11743991Y-16288269D01*
X11743991Y-16288269D02*
X11648753Y-16307317D01*
X11820182Y-16364460D02*
X11839230Y-16373984D01*
X11839230Y-16373984D02*
X11877325Y-16373984D01*
X11877325Y-16373984D02*
X11896372Y-16364460D01*
X11896372Y-16364460D02*
X11905896Y-16345412D01*
X11905896Y-16345412D02*
X11905896Y-16335888D01*
X11905896Y-16335888D02*
X11896372Y-16316841D01*
X11896372Y-16316841D02*
X11877325Y-16307317D01*
X11877325Y-16307317D02*
X11848753Y-16307317D01*
X11848753Y-16307317D02*
X11829706Y-16297793D01*
X11829706Y-16297793D02*
X11820182Y-16278746D01*
X11820182Y-16278746D02*
X11820182Y-16269222D01*
X11820182Y-16269222D02*
X11829706Y-16250174D01*
X11829706Y-16250174D02*
X11848753Y-16240650D01*
X11848753Y-16240650D02*
X11877325Y-16240650D01*
X11877325Y-16240650D02*
X11896372Y-16250174D01*
X11972563Y-16450174D02*
X11982087Y-16440650D01*
X11982087Y-16440650D02*
X12001134Y-16412079D01*
X12001134Y-16412079D02*
X12010658Y-16393031D01*
X12010658Y-16393031D02*
X12020182Y-16364460D01*
X12020182Y-16364460D02*
X12029706Y-16316841D01*
X12029706Y-16316841D02*
X12029706Y-16278746D01*
X12029706Y-16278746D02*
X12020182Y-16231127D01*
X12020182Y-16231127D02*
X12010658Y-16202555D01*
X12010658Y-16202555D02*
X12001134Y-16183508D01*
X12001134Y-16183508D02*
X11982087Y-16154936D01*
X11982087Y-16154936D02*
X11972563Y-16145412D01*
M02*
