G04 #@! TF.GenerationSoftware,KiCad,Pcbnew,7.0.5.1-1-g8f565ef7f0-dirty-deb11*
G04 #@! TF.CreationDate,2023-06-10T15:43:30+00:00*
G04 #@! TF.ProjectId,Basic-DC-mixer,42617369-632d-4444-932d-6d697865722e,rev?*
G04 #@! TF.SameCoordinates,Original*
G04 #@! TF.FileFunction,Copper,L2,Bot*
G04 #@! TF.FilePolarity,Positive*
%FSLAX46Y46*%
G04 Gerber Fmt 4.6, Leading zero omitted, Abs format (unit mm)*
G04 Created by KiCad (PCBNEW 7.0.5.1-1-g8f565ef7f0-dirty-deb11) date 2023-06-10 15:43:30*
%MOMM*%
%LPD*%
G01*
G04 APERTURE LIST*
G04 #@! TA.AperFunction,ComponentPad*
%ADD10O,6.700000X4.200000*%
G04 #@! TD*
G04 #@! TA.AperFunction,ViaPad*
%ADD11C,8.500000*%
G04 #@! TD*
G04 #@! TA.AperFunction,ViaPad*
%ADD12C,8.000000*%
G04 #@! TD*
G04 APERTURE END LIST*
D10*
X79500000Y-147000000D03*
X79500000Y-25000000D03*
X104500000Y-147000000D03*
X104500000Y-25000000D03*
D11*
X103000000Y-107500000D03*
X103000000Y-85000000D03*
X103000000Y-40000000D03*
X103000000Y-62500000D03*
D12*
X107000000Y-128500000D03*
X77500000Y-62500000D03*
X97000000Y-128500000D03*
X77500000Y-107500000D03*
X77500000Y-85000000D03*
X88500000Y-107500000D03*
X88500000Y-62500000D03*
X88500000Y-40000000D03*
X77500000Y-40000000D03*
X88500000Y-85000000D03*
G04 #@! TA.AperFunction,Conductor*
G36*
X111937500Y-22017113D02*
G01*
X111982887Y-22062500D01*
X111999500Y-22124500D01*
X111999500Y-149875500D01*
X111982887Y-149937500D01*
X111937500Y-149982887D01*
X111875500Y-149999500D01*
X72124500Y-149999500D01*
X72062500Y-149982887D01*
X72017113Y-149937500D01*
X72000500Y-149875500D01*
X72000500Y-147080481D01*
X75637782Y-147080481D01*
X75667472Y-147400882D01*
X75736309Y-147715206D01*
X75843252Y-148018687D01*
X75986679Y-148306728D01*
X76164416Y-148574960D01*
X76373769Y-148819318D01*
X76496683Y-148931368D01*
X76611562Y-149036094D01*
X76874192Y-149222006D01*
X77157679Y-149374235D01*
X77457724Y-149490473D01*
X77769779Y-149568958D01*
X77969163Y-149593647D01*
X78089112Y-149608500D01*
X78089113Y-149608500D01*
X80830364Y-149608500D01*
X80830368Y-149608500D01*
X81071163Y-149593648D01*
X81387458Y-149534523D01*
X81694090Y-149436976D01*
X81986410Y-149302487D01*
X82259987Y-149133096D01*
X82510675Y-148931368D01*
X82734672Y-148700363D01*
X82928584Y-148443582D01*
X83089471Y-148164918D01*
X83214894Y-147868595D01*
X83302951Y-147559105D01*
X83352308Y-147241139D01*
X83357258Y-147080481D01*
X100637782Y-147080481D01*
X100667472Y-147400882D01*
X100736309Y-147715206D01*
X100843252Y-148018687D01*
X100986679Y-148306728D01*
X101164416Y-148574960D01*
X101373769Y-148819318D01*
X101496683Y-148931368D01*
X101611562Y-149036094D01*
X101874192Y-149222006D01*
X102157679Y-149374235D01*
X102457724Y-149490473D01*
X102769779Y-149568958D01*
X102969163Y-149593647D01*
X103089112Y-149608500D01*
X103089113Y-149608500D01*
X105830364Y-149608500D01*
X105830368Y-149608500D01*
X106071163Y-149593648D01*
X106387458Y-149534523D01*
X106694090Y-149436976D01*
X106986410Y-149302487D01*
X107259987Y-149133096D01*
X107510675Y-148931368D01*
X107734672Y-148700363D01*
X107928584Y-148443582D01*
X108089471Y-148164918D01*
X108214894Y-147868595D01*
X108302951Y-147559105D01*
X108352308Y-147241139D01*
X108362217Y-146919518D01*
X108332528Y-146599118D01*
X108263690Y-146284794D01*
X108156747Y-145981311D01*
X108013320Y-145693271D01*
X107835584Y-145425040D01*
X107728145Y-145299637D01*
X107626230Y-145180681D01*
X107388437Y-144963905D01*
X107125808Y-144777994D01*
X106842326Y-144625767D01*
X106842321Y-144625765D01*
X106542276Y-144509527D01*
X106542274Y-144509526D01*
X106542273Y-144509526D01*
X106230218Y-144431041D01*
X105910888Y-144391500D01*
X105910887Y-144391500D01*
X103169632Y-144391500D01*
X102928837Y-144406352D01*
X102823405Y-144426060D01*
X102612540Y-144465477D01*
X102305910Y-144563024D01*
X102013586Y-144697515D01*
X101740016Y-144866901D01*
X101489324Y-145068632D01*
X101265327Y-145299637D01*
X101071415Y-145556419D01*
X100910527Y-145835083D01*
X100785106Y-146131404D01*
X100741463Y-146284794D01*
X100697049Y-146440895D01*
X100658942Y-146686380D01*
X100647691Y-146758866D01*
X100637782Y-147080481D01*
X83357258Y-147080481D01*
X83362217Y-146919518D01*
X83332528Y-146599118D01*
X83263690Y-146284794D01*
X83156747Y-145981311D01*
X83013320Y-145693271D01*
X82835584Y-145425040D01*
X82728145Y-145299637D01*
X82626230Y-145180681D01*
X82388437Y-144963905D01*
X82125808Y-144777994D01*
X81842326Y-144625767D01*
X81842321Y-144625765D01*
X81542276Y-144509527D01*
X81542274Y-144509526D01*
X81542273Y-144509526D01*
X81230218Y-144431041D01*
X80910888Y-144391500D01*
X80910887Y-144391500D01*
X78169632Y-144391500D01*
X77928837Y-144406352D01*
X77823405Y-144426060D01*
X77612540Y-144465477D01*
X77305910Y-144563024D01*
X77013586Y-144697515D01*
X76740016Y-144866901D01*
X76489324Y-145068632D01*
X76265327Y-145299637D01*
X76071415Y-145556419D01*
X75910527Y-145835083D01*
X75785106Y-146131404D01*
X75741463Y-146284794D01*
X75697049Y-146440895D01*
X75658942Y-146686380D01*
X75647691Y-146758866D01*
X75637782Y-147080481D01*
X72000500Y-147080481D01*
X72000500Y-115000000D01*
X86000000Y-115000000D01*
X86000000Y-120000000D01*
X91000000Y-120000000D01*
X91000000Y-115000000D01*
X86000000Y-115000000D01*
X72000500Y-115000000D01*
X72000500Y-107499999D01*
X98236703Y-107499999D01*
X98255879Y-107926974D01*
X98313252Y-108350520D01*
X98408360Y-108767212D01*
X98540437Y-109173706D01*
X98708415Y-109566710D01*
X98910956Y-109943095D01*
X99146411Y-110299792D01*
X99146413Y-110299795D01*
X99412898Y-110633957D01*
X99708264Y-110942886D01*
X99708269Y-110942890D01*
X100030134Y-111224096D01*
X100301662Y-111421371D01*
X100375915Y-111475319D01*
X100562290Y-111586673D01*
X100742819Y-111694535D01*
X100742822Y-111694536D01*
X100742823Y-111694537D01*
X101127905Y-111879983D01*
X101528061Y-112030164D01*
X101528063Y-112030164D01*
X101528067Y-112030166D01*
X101802731Y-112105967D01*
X101940067Y-112143870D01*
X102360607Y-112220187D01*
X102786296Y-112258500D01*
X103213702Y-112258500D01*
X103213704Y-112258500D01*
X103639393Y-112220187D01*
X104059933Y-112143870D01*
X104471939Y-112030164D01*
X104872095Y-111879983D01*
X105257177Y-111694537D01*
X105624085Y-111475319D01*
X105969866Y-111224095D01*
X106291736Y-110942886D01*
X106587102Y-110633957D01*
X106853587Y-110299795D01*
X107089046Y-109943091D01*
X107291581Y-109566717D01*
X107459564Y-109173702D01*
X107591640Y-108767212D01*
X107686748Y-108350519D01*
X107744120Y-107926979D01*
X107763296Y-107500000D01*
X107744120Y-107073021D01*
X107686748Y-106649481D01*
X107591640Y-106232788D01*
X107459564Y-105826298D01*
X107291581Y-105433283D01*
X107089046Y-105056909D01*
X106853587Y-104700205D01*
X106587102Y-104366043D01*
X106291736Y-104057114D01*
X106234798Y-104007369D01*
X105969865Y-103775903D01*
X105624085Y-103524681D01*
X105257180Y-103305464D01*
X105072296Y-103216429D01*
X104872095Y-103120017D01*
X104671358Y-103044679D01*
X104471932Y-102969833D01*
X104059935Y-102856130D01*
X103639398Y-102779813D01*
X103335329Y-102752446D01*
X103213704Y-102741500D01*
X102786296Y-102741500D01*
X102679873Y-102751078D01*
X102360601Y-102779813D01*
X101940064Y-102856130D01*
X101528067Y-102969833D01*
X101127905Y-103120017D01*
X100742819Y-103305464D01*
X100375914Y-103524681D01*
X100030134Y-103775903D01*
X99708269Y-104057109D01*
X99412895Y-104366046D01*
X99146411Y-104700207D01*
X98910956Y-105056904D01*
X98708415Y-105433289D01*
X98540437Y-105826293D01*
X98408360Y-106232787D01*
X98313252Y-106649479D01*
X98255879Y-107073025D01*
X98236703Y-107499999D01*
X72000500Y-107499999D01*
X72000500Y-92500000D01*
X86000000Y-92500000D01*
X86000000Y-97500000D01*
X91000000Y-97500000D01*
X91000000Y-92500000D01*
X86000000Y-92500000D01*
X72000500Y-92500000D01*
X72000500Y-84999999D01*
X98236703Y-84999999D01*
X98255879Y-85426974D01*
X98313252Y-85850520D01*
X98408360Y-86267212D01*
X98540437Y-86673706D01*
X98708415Y-87066710D01*
X98910956Y-87443095D01*
X99146411Y-87799792D01*
X99146413Y-87799795D01*
X99412898Y-88133957D01*
X99708264Y-88442886D01*
X99708269Y-88442890D01*
X100030134Y-88724096D01*
X100301662Y-88921371D01*
X100375915Y-88975319D01*
X100562290Y-89086673D01*
X100742819Y-89194535D01*
X100742822Y-89194536D01*
X100742823Y-89194537D01*
X101127905Y-89379983D01*
X101528061Y-89530164D01*
X101528063Y-89530164D01*
X101528067Y-89530166D01*
X101802731Y-89605968D01*
X101940067Y-89643870D01*
X102360607Y-89720187D01*
X102786296Y-89758500D01*
X103213702Y-89758500D01*
X103213704Y-89758500D01*
X103639393Y-89720187D01*
X104059933Y-89643870D01*
X104471939Y-89530164D01*
X104872095Y-89379983D01*
X105257177Y-89194537D01*
X105624085Y-88975319D01*
X105969866Y-88724095D01*
X106291736Y-88442886D01*
X106587102Y-88133957D01*
X106853587Y-87799795D01*
X107089046Y-87443091D01*
X107291581Y-87066717D01*
X107459564Y-86673702D01*
X107591640Y-86267212D01*
X107686748Y-85850519D01*
X107744120Y-85426979D01*
X107763296Y-85000000D01*
X107744120Y-84573021D01*
X107686748Y-84149481D01*
X107591640Y-83732788D01*
X107459564Y-83326298D01*
X107291581Y-82933283D01*
X107089046Y-82556909D01*
X106853587Y-82200205D01*
X106587102Y-81866043D01*
X106291736Y-81557114D01*
X106234798Y-81507369D01*
X105969865Y-81275903D01*
X105624085Y-81024681D01*
X105257180Y-80805464D01*
X105072296Y-80716429D01*
X104872095Y-80620017D01*
X104671358Y-80544679D01*
X104471932Y-80469833D01*
X104059935Y-80356130D01*
X103639398Y-80279813D01*
X103335329Y-80252446D01*
X103213704Y-80241500D01*
X102786296Y-80241500D01*
X102679873Y-80251078D01*
X102360601Y-80279813D01*
X101940064Y-80356130D01*
X101528067Y-80469833D01*
X101127905Y-80620017D01*
X100742819Y-80805464D01*
X100375914Y-81024681D01*
X100030134Y-81275903D01*
X99708269Y-81557109D01*
X99412895Y-81866046D01*
X99146411Y-82200207D01*
X98910956Y-82556904D01*
X98708415Y-82933289D01*
X98540437Y-83326293D01*
X98408360Y-83732787D01*
X98313252Y-84149479D01*
X98255879Y-84573025D01*
X98236703Y-84999999D01*
X72000500Y-84999999D01*
X72000500Y-70000000D01*
X86000000Y-70000000D01*
X86000000Y-75000000D01*
X91000000Y-75000000D01*
X91000000Y-70000000D01*
X86000000Y-70000000D01*
X72000500Y-70000000D01*
X72000500Y-62500000D01*
X98236703Y-62500000D01*
X98255879Y-62926974D01*
X98313252Y-63350520D01*
X98408360Y-63767212D01*
X98540437Y-64173706D01*
X98708415Y-64566710D01*
X98910956Y-64943095D01*
X99146411Y-65299792D01*
X99146413Y-65299795D01*
X99412898Y-65633957D01*
X99708264Y-65942886D01*
X99708269Y-65942890D01*
X100030134Y-66224096D01*
X100301662Y-66421371D01*
X100375915Y-66475319D01*
X100562290Y-66586673D01*
X100742819Y-66694535D01*
X100742822Y-66694536D01*
X100742823Y-66694537D01*
X101127905Y-66879983D01*
X101528061Y-67030164D01*
X101528063Y-67030164D01*
X101528067Y-67030166D01*
X101802731Y-67105968D01*
X101940067Y-67143870D01*
X102360607Y-67220187D01*
X102786296Y-67258500D01*
X103213702Y-67258500D01*
X103213704Y-67258500D01*
X103639393Y-67220187D01*
X104059933Y-67143870D01*
X104471939Y-67030164D01*
X104872095Y-66879983D01*
X105257177Y-66694537D01*
X105624085Y-66475319D01*
X105969866Y-66224095D01*
X106291736Y-65942886D01*
X106587102Y-65633957D01*
X106853587Y-65299795D01*
X107089046Y-64943091D01*
X107291581Y-64566717D01*
X107459564Y-64173702D01*
X107591640Y-63767212D01*
X107686748Y-63350519D01*
X107744120Y-62926979D01*
X107763296Y-62500000D01*
X107744120Y-62073021D01*
X107686748Y-61649481D01*
X107591640Y-61232788D01*
X107459564Y-60826298D01*
X107291581Y-60433283D01*
X107089046Y-60056909D01*
X106853587Y-59700205D01*
X106587102Y-59366043D01*
X106291736Y-59057114D01*
X106234798Y-59007369D01*
X105969865Y-58775903D01*
X105624085Y-58524681D01*
X105257180Y-58305464D01*
X105072296Y-58216429D01*
X104872095Y-58120017D01*
X104671358Y-58044679D01*
X104471932Y-57969833D01*
X104059935Y-57856130D01*
X103639398Y-57779813D01*
X103335329Y-57752446D01*
X103213704Y-57741500D01*
X102786296Y-57741500D01*
X102679873Y-57751078D01*
X102360601Y-57779813D01*
X101940064Y-57856130D01*
X101528067Y-57969833D01*
X101127905Y-58120017D01*
X100742819Y-58305464D01*
X100375914Y-58524681D01*
X100030134Y-58775903D01*
X99708269Y-59057109D01*
X99412895Y-59366046D01*
X99146411Y-59700207D01*
X98910956Y-60056904D01*
X98708415Y-60433289D01*
X98540437Y-60826293D01*
X98408360Y-61232787D01*
X98313252Y-61649479D01*
X98255879Y-62073025D01*
X98236703Y-62500000D01*
X72000500Y-62500000D01*
X72000500Y-47500000D01*
X86000000Y-47500000D01*
X86000000Y-52500000D01*
X91000000Y-52500000D01*
X91000000Y-47500000D01*
X86000000Y-47500000D01*
X72000500Y-47500000D01*
X72000500Y-40000000D01*
X98236703Y-40000000D01*
X98255879Y-40426974D01*
X98313252Y-40850520D01*
X98408360Y-41267212D01*
X98540437Y-41673706D01*
X98708415Y-42066710D01*
X98910956Y-42443095D01*
X99146411Y-42799792D01*
X99146413Y-42799795D01*
X99412898Y-43133957D01*
X99708264Y-43442886D01*
X99708269Y-43442890D01*
X100030134Y-43724096D01*
X100301662Y-43921371D01*
X100375915Y-43975319D01*
X100562290Y-44086673D01*
X100742819Y-44194535D01*
X100742822Y-44194536D01*
X100742823Y-44194537D01*
X101127905Y-44379983D01*
X101528061Y-44530164D01*
X101528063Y-44530164D01*
X101528067Y-44530166D01*
X101802731Y-44605967D01*
X101940067Y-44643870D01*
X102360607Y-44720187D01*
X102786296Y-44758500D01*
X103213702Y-44758500D01*
X103213704Y-44758500D01*
X103639393Y-44720187D01*
X104059933Y-44643870D01*
X104471939Y-44530164D01*
X104872095Y-44379983D01*
X105257177Y-44194537D01*
X105624085Y-43975319D01*
X105969866Y-43724095D01*
X106291736Y-43442886D01*
X106587102Y-43133957D01*
X106853587Y-42799795D01*
X107089046Y-42443091D01*
X107291581Y-42066717D01*
X107459564Y-41673702D01*
X107591640Y-41267212D01*
X107686748Y-40850519D01*
X107744120Y-40426979D01*
X107763296Y-40000000D01*
X107744120Y-39573021D01*
X107686748Y-39149481D01*
X107591640Y-38732788D01*
X107459564Y-38326298D01*
X107291581Y-37933283D01*
X107089046Y-37556909D01*
X106853587Y-37200205D01*
X106587102Y-36866043D01*
X106291736Y-36557114D01*
X106234798Y-36507369D01*
X105969865Y-36275903D01*
X105624085Y-36024681D01*
X105257180Y-35805464D01*
X105072296Y-35716429D01*
X104872095Y-35620017D01*
X104671358Y-35544679D01*
X104471932Y-35469833D01*
X104059935Y-35356130D01*
X103639398Y-35279813D01*
X103335329Y-35252446D01*
X103213704Y-35241500D01*
X102786296Y-35241500D01*
X102679873Y-35251078D01*
X102360601Y-35279813D01*
X101940064Y-35356130D01*
X101528067Y-35469833D01*
X101127905Y-35620017D01*
X100742819Y-35805464D01*
X100375914Y-36024681D01*
X100030134Y-36275903D01*
X99708269Y-36557109D01*
X99412895Y-36866046D01*
X99146411Y-37200207D01*
X98910956Y-37556904D01*
X98708415Y-37933289D01*
X98540437Y-38326293D01*
X98408360Y-38732787D01*
X98313252Y-39149479D01*
X98255879Y-39573025D01*
X98236703Y-40000000D01*
X72000500Y-40000000D01*
X72000500Y-25080481D01*
X75637782Y-25080481D01*
X75667472Y-25400882D01*
X75736309Y-25715206D01*
X75843252Y-26018687D01*
X75986679Y-26306728D01*
X76164416Y-26574960D01*
X76373769Y-26819318D01*
X76496683Y-26931368D01*
X76611562Y-27036094D01*
X76874192Y-27222006D01*
X77157679Y-27374235D01*
X77457724Y-27490473D01*
X77769779Y-27568958D01*
X77969163Y-27593647D01*
X78089112Y-27608500D01*
X78089113Y-27608500D01*
X80830364Y-27608500D01*
X80830368Y-27608500D01*
X81071163Y-27593648D01*
X81387458Y-27534523D01*
X81694090Y-27436976D01*
X81986410Y-27302487D01*
X82259987Y-27133096D01*
X82510675Y-26931368D01*
X82734672Y-26700363D01*
X82928584Y-26443582D01*
X83089471Y-26164918D01*
X83214894Y-25868595D01*
X83302951Y-25559105D01*
X83352308Y-25241139D01*
X83357258Y-25080481D01*
X100637782Y-25080481D01*
X100667472Y-25400882D01*
X100736309Y-25715206D01*
X100843252Y-26018687D01*
X100986679Y-26306728D01*
X101164416Y-26574960D01*
X101373769Y-26819318D01*
X101496683Y-26931368D01*
X101611562Y-27036094D01*
X101874192Y-27222006D01*
X102157679Y-27374235D01*
X102457724Y-27490473D01*
X102769779Y-27568958D01*
X102969163Y-27593647D01*
X103089112Y-27608500D01*
X103089113Y-27608500D01*
X105830364Y-27608500D01*
X105830368Y-27608500D01*
X106071163Y-27593648D01*
X106387458Y-27534523D01*
X106694090Y-27436976D01*
X106986410Y-27302487D01*
X107259987Y-27133096D01*
X107510675Y-26931368D01*
X107734672Y-26700363D01*
X107928584Y-26443582D01*
X108089471Y-26164918D01*
X108214894Y-25868595D01*
X108302951Y-25559105D01*
X108352308Y-25241139D01*
X108362217Y-24919518D01*
X108332528Y-24599118D01*
X108263690Y-24284794D01*
X108156747Y-23981311D01*
X108013320Y-23693271D01*
X107835584Y-23425040D01*
X107728145Y-23299637D01*
X107626230Y-23180681D01*
X107388437Y-22963905D01*
X107125808Y-22777994D01*
X106842326Y-22625767D01*
X106842321Y-22625765D01*
X106542276Y-22509527D01*
X106542274Y-22509526D01*
X106542273Y-22509526D01*
X106230218Y-22431041D01*
X105910888Y-22391500D01*
X105910887Y-22391500D01*
X103169632Y-22391500D01*
X102928837Y-22406352D01*
X102823405Y-22426060D01*
X102612540Y-22465477D01*
X102305910Y-22563024D01*
X102013586Y-22697515D01*
X101740016Y-22866901D01*
X101489324Y-23068632D01*
X101265327Y-23299637D01*
X101071415Y-23556419D01*
X100910527Y-23835083D01*
X100785106Y-24131404D01*
X100741463Y-24284794D01*
X100697049Y-24440895D01*
X100658942Y-24686380D01*
X100647691Y-24758866D01*
X100637782Y-25080481D01*
X83357258Y-25080481D01*
X83362217Y-24919518D01*
X83332528Y-24599118D01*
X83263690Y-24284794D01*
X83156747Y-23981311D01*
X83013320Y-23693271D01*
X82835584Y-23425040D01*
X82728145Y-23299637D01*
X82626230Y-23180681D01*
X82388437Y-22963905D01*
X82125808Y-22777994D01*
X81842326Y-22625767D01*
X81842321Y-22625765D01*
X81542276Y-22509527D01*
X81542274Y-22509526D01*
X81542273Y-22509526D01*
X81230218Y-22431041D01*
X80910888Y-22391500D01*
X80910887Y-22391500D01*
X78169632Y-22391500D01*
X77928837Y-22406352D01*
X77823405Y-22426060D01*
X77612540Y-22465477D01*
X77305910Y-22563024D01*
X77013586Y-22697515D01*
X76740016Y-22866901D01*
X76489324Y-23068632D01*
X76265327Y-23299637D01*
X76071415Y-23556419D01*
X75910527Y-23835083D01*
X75785106Y-24131404D01*
X75741463Y-24284794D01*
X75697049Y-24440895D01*
X75658942Y-24686380D01*
X75647691Y-24758866D01*
X75637782Y-25080481D01*
X72000500Y-25080481D01*
X72000500Y-22124500D01*
X72017113Y-22062500D01*
X72062500Y-22017113D01*
X72124500Y-22000500D01*
X111875500Y-22000500D01*
X111937500Y-22017113D01*
G37*
G04 #@! TD.AperFunction*
M02*
